<svg width="62" height="62" viewBox="0 0 62 62" fill="none" xmlns="http://www.w3.org/2000/svg">
<rect width="62" height="62" rx="12" fill="#EA3838"/>
<path d="M39.7671 21C39.2534 21 38.637 21.0675 37.8493 21.1686C37.0616 21.3035 36.5137 21.4385 36.2055 21.6071C35.863 21.7757 35.3836 22.2142 34.6986 22.9224C34.048 23.597 33.1918 24.71 32.1644 26.1265C31.137 27.5767 30.2466 28.9595 29.4932 30.3086C28.8082 31.489 28.1233 32.8044 27.4384 34.1872C26.9589 33.5801 26.4452 33.1079 25.9315 32.7369C25.2808 32.2985 24.6301 32.0624 24.0479 32.0624C23.4657 32.0624 22.7808 32.3322 22.0959 32.8381C21.3767 33.3777 21 33.9848 21 34.6256C21 35.1315 21.3082 35.7049 21.9589 36.3794C22.8836 37.3912 23.637 38.3356 24.1849 39.1787C24.5959 39.7858 24.8699 40.1905 25.0411 40.3929C25.2466 40.5953 25.4863 40.7639 25.7603 40.8651C26.0342 40.9663 26.5137 41 27.1644 41C28.089 41 28.7055 40.8988 29.0822 40.6965C29.4589 40.4941 29.7329 40.2243 29.9384 39.8533C30.1096 39.516 30.4178 38.8752 30.8288 37.8634C31.8562 35.3339 33.2603 32.6695 35.0068 29.9713C36.7534 27.2732 38.4315 25.1821 40.0411 23.6981C40.4521 23.3609 40.6918 23.0911 40.7945 22.9224C40.9315 22.7201 41 22.4503 41 22.1804C41 21.8432 40.863 21.5396 40.6233 21.3035C40.4863 21.1349 40.1438 21 39.7671 21Z" fill="#F5F7F9"/>
</svg>
