<svg width="128" height="40" viewBox="0 0 128 40" fill="none" xmlns="http://www.w3.org/2000/svg">
<g clip-path="url(#clip0_54_893)">
<mask id="mask0_54_893" style="mask-type:luminance" maskUnits="userSpaceOnUse" x="0" y="0" width="128" height="40">
<path d="M128 0H0V40H128V0Z" fill="white"/>
</mask>
<g mask="url(#mask0_54_893)">
<path d="M7.95943 34.5455L7.70626 34.3066C4.00974 30.7583 1.79858 25.231 1.79858 19.5331C1.81546 8.75151 10.4744 0 21.1419 0C31.8095 0 40.4684 8.76859 40.4684 19.5331C40.4684 24.958 38.0715 30.6218 34.2232 34.3066L33.9699 34.5455L21.3107 30.5365L7.95943 34.5455ZM21.1419 1.19416C11.1327 1.19416 2.99699 9.41681 2.99699 19.5331C2.99699 24.7874 4.97184 29.8711 8.29698 33.1977L21.3444 29.0864L33.6661 33.1807C37.1432 29.7176 39.2868 24.5145 39.2868 19.5161C39.2868 9.41681 31.1343 1.19416 21.1419 1.19416Z" fill="black"/>
<path d="M21.0829 29.2615L42.2671 35.8927L32.9345 39.1913L32.9514 37.7044L38.0742 36.0636L21.1167 30.6116" fill="black"/>
<path d="M21.1673 30.6116L4.20979 36.0636L9.33253 37.7044L9.34944 39.1913L0 35.8927L21.1673 29.2615" fill="black"/>
<path d="M15.2546 16.3638L15.2881 38.6118L11.4413 40.0001L11.3911 17.7521L15.2546 16.3638Z" fill="#E16842"/>
<path d="M11.3911 40.0001L7.54326 38.709L7.49414 16.3638L11.342 17.6549L11.3911 40.0001Z" fill="black"/>
<path d="M11.4245 16.3637L7.49414 15.1826L11.3577 13.9395L15.2881 15.105L11.4245 16.3637Z" fill="black"/>
<path d="M34.7217 18.4849L34.7729 38.7385L31.2098 40L31.1757 19.7464L34.7217 18.4849Z" fill="#0BAFAF"/>
<path d="M31.1757 40.0002L27.6121 38.8369L27.5785 18.7881L31.1421 19.9513L31.1757 40.0002Z" fill="black"/>
<path d="M31.21 18.788L27.5785 17.6017L31.1414 16.3638L34.7729 17.533L31.21 18.788Z" fill="black"/>
<path d="M26.0121 7.27271L26.0796 34.3692L21.3171 36.0606L21.2833 8.96411L26.0121 7.27271Z" fill="#0BAF4D"/>
<path d="M21.2833 36.0606L16.5203 34.4822L16.4871 7.27271L21.2502 8.85108L21.2833 36.0606Z" fill="black"/>
<path d="M21.334 7.57577L16.4871 5.9702L21.2327 4.24243L26.0796 5.84804L21.334 7.57577Z" fill="black"/>
<path d="M62.1115 21.8183H64.0901C63.7003 23.9092 62.7408 25.5758 61.2422 26.7879C59.7435 28.0001 57.8246 28.6062 55.5168 28.6062C52.8487 28.6062 50.7503 27.8183 49.1616 26.2425C47.5728 24.6365 46.7634 22.5152 46.7634 19.8789C46.7634 17.2425 47.5728 15.1213 49.1616 13.5152C50.7503 11.9395 52.8487 11.1516 55.5168 11.1516C57.8246 11.1516 59.7435 11.7577 61.2422 12.9698C62.7408 14.1819 63.7003 15.8486 64.0901 17.9395H62.1115C61.7515 16.394 60.9723 15.1819 59.8331 14.3031C58.664 13.4243 57.2251 12.9698 55.5168 12.9698C53.448 12.9698 51.7695 13.6062 50.5405 14.8486C49.2815 16.1213 48.6819 17.788 48.6819 19.8789C48.6819 21.9698 49.3114 23.6365 50.5405 24.9092C51.7695 26.1819 53.4182 26.7879 55.5168 26.7879C57.2251 26.7879 58.664 26.3334 59.8331 25.4546C60.9723 24.5758 61.7515 23.3637 62.1115 21.8183Z" fill="#1D1714"/>
<path d="M75.5408 15.1514V24.6059C79.6176 24.515 81.6559 22.9393 81.6559 19.8787C81.6559 16.8181 79.6176 15.2423 75.5408 15.1514ZM73.6224 15.1514C69.5456 15.2423 67.5071 16.8181 67.5071 19.8787C67.5071 22.9393 69.5456 24.515 73.6224 24.6059V15.1514ZM81.5962 15.212C82.9151 16.3332 83.5749 17.9089 83.5749 19.8787C83.5749 21.8483 82.9151 23.4241 81.5962 24.5453C80.2175 25.7271 78.209 26.3635 75.5408 26.4241V28.3635H73.6224V26.4241C70.9546 26.3635 68.9461 25.7574 67.5674 24.5453C66.2485 23.4241 65.5887 21.8483 65.5887 19.8787C65.5887 17.9089 66.2485 16.3332 67.5674 15.212C68.9461 14.0302 70.9546 13.3938 73.6224 13.3332V11.3938H75.5408V13.3332C78.209 13.3938 80.2175 13.9999 81.5962 15.212Z" fill="#1D1714"/>
<path d="M86.3328 11.3938H97.8437V13.212H88.2512V18.9089H97.1242V20.7271H88.2512V26.5453H97.8437V28.3635H86.3328V11.3938Z" fill="#1D1714"/>
<path d="M102.64 20.4847H107.796C108.845 20.4847 109.684 20.1514 110.314 19.4847C110.943 18.8181 111.273 17.9393 111.273 16.8483C111.273 15.7574 110.943 14.8787 110.314 14.212C109.684 13.5453 108.845 13.212 107.796 13.212H102.64V20.4847ZM100.722 11.3938H107.796C109.414 11.3938 110.733 11.8787 111.723 12.8787C112.712 13.8787 113.191 15.212 113.191 16.8483C113.191 18.4847 112.712 19.8181 111.723 20.8181C110.733 21.8181 109.414 22.3029 107.796 22.3029H102.64V28.3635H100.722V11.3938Z" fill="#1D1714"/>
<path d="M115.5 26.5453H115.679C117.688 26.5453 119.277 25.9393 120.476 24.7272C121.675 23.5453 122.275 21.9089 122.275 19.9089L120.356 15.5453L115.5 26.5453ZM128.03 28.3635H125.991L122.574 20.6059C122.454 22.9696 121.765 24.8787 120.536 26.2423C119.277 27.6362 117.658 28.3635 115.679 28.3635H112.682L120.356 10.9089L128.03 28.3635Z" fill="#1D1714"/>
</g>
</g>
<defs>
<clipPath id="clip0_54_893">
<rect width="128" height="40" fill="white"/>
</clipPath>
</defs>
</svg>
