<svg width="128" height="40" viewBox="0 0 128 40" fill="none" xmlns="http://www.w3.org/2000/svg">
<mask id="mask0_150_2099" style="mask-type:luminance" maskUnits="userSpaceOnUse" x="0" y="0" width="128" height="40">
<path d="M128 0H0V40H128V0Z" fill="white"/>
</mask>
<g mask="url(#mask0_150_2099)">
<path d="M7.95918 34.5454L7.70601 34.3066C4.00949 30.7582 1.79834 25.231 1.79834 19.5331C1.81521 8.75151 10.4741 0 21.1416 0C31.8092 0 40.4682 8.76859 40.4682 19.5331C40.4682 24.9579 38.0713 30.6218 34.2229 34.3066L33.9697 34.5454L21.3104 30.5365L7.95918 34.5454ZM21.1416 1.19416C11.1324 1.19416 2.99674 9.41681 2.99674 19.5331C2.99674 24.7875 4.97159 29.8711 8.29672 33.1978L21.3442 29.0865L33.6658 33.1807C37.143 29.7176 39.2866 24.5145 39.2866 19.516C39.2866 9.41681 31.134 1.19416 21.1416 1.19416Z" fill="white"/>
<path d="M21.083 29.2616L42.2672 35.8927L32.9346 39.1913L32.9516 37.7044L38.0744 36.0637L21.1168 30.6117" fill="white"/>
<path d="M21.1672 30.6117L4.2098 36.0637L9.33253 37.7044L9.34943 39.1913L0 35.8927L21.1672 29.2616" fill="white"/>
<path d="M15.2349 16.3838L15.2883 38.6118L11.442 40.0006L11.3579 17.7122L15.2349 16.3838Z" fill="#EA3838"/>
<path d="M11.4418 40.0002L7.54326 38.7091L7.49414 16.3639L11.4158 17.7122L11.4418 40.0002Z" fill="white"/>
<path d="M11.4245 16.6051L7.49414 15.1827L11.3577 13.9395L15.2881 15.1827L11.4245 16.6051Z" fill="white"/>
<path d="M34.7218 18.4847L34.7731 38.7385L31.2099 39.9999L31.1758 19.7463L34.7218 18.4847Z" fill="#EA3838"/>
<path d="M31.1758 40.0001L27.6123 38.8368L27.5786 18.5239L31.1758 19.7419V40.0001Z" fill="white"/>
<path d="M31.1416 18.788L27.5786 17.5329L31.1416 16.3636L34.773 17.5329L31.1416 18.788Z" fill="white"/>
<path d="M26.0793 7.15869V34.3693L21.2593 36.0607V9.00371L26.0793 7.15869Z" fill="#656565"/>
<path d="M21.25 36.0606L16.52 34.4822L16.4868 7.23242L21.25 9.00364V36.0606Z" fill="white"/>
<path d="M21.3338 7.5759L16.4868 5.97032L21.2324 4.24255L26.0794 5.84816L21.3338 7.5759Z" fill="white"/>
<path d="M62.1112 21.8182H64.0898C63.7001 23.9091 62.7406 25.5758 61.242 26.788C59.7433 28.0001 57.8243 28.6061 55.5166 28.6061C52.8484 28.6061 50.7501 27.8182 49.1614 26.2426C47.5725 24.6365 46.7632 22.5152 46.7632 19.8789C46.7632 17.2426 47.5725 15.1212 49.1614 13.5152C50.7501 11.9395 52.8484 11.1516 55.5166 11.1516C57.8243 11.1516 59.7433 11.7577 61.242 12.9698C62.7406 14.1819 63.7001 15.8486 64.0898 17.9395H62.1112C61.7513 16.394 60.9721 15.1819 59.8329 14.3031C58.6638 13.4243 57.2248 12.9698 55.5166 12.9698C53.4478 12.9698 51.7692 13.6061 50.5403 14.8486C49.2813 16.1212 48.6817 17.788 48.6817 19.8789C48.6817 21.9698 49.3112 23.6365 50.5403 24.9091C51.7692 26.1819 53.4179 26.788 55.5166 26.788C57.2248 26.788 58.6638 26.3333 59.8329 25.4547C60.9721 24.5758 61.7513 23.3637 62.1112 21.8182Z" fill="white"/>
<path d="M75.5408 15.1514V24.6058C79.6176 24.5151 81.656 22.9393 81.656 19.8786C81.656 16.8181 79.6176 15.2423 75.5408 15.1514ZM73.6225 15.1514C69.5456 15.2423 67.5072 16.8181 67.5072 19.8786C67.5072 22.9393 69.5456 24.5151 73.6225 24.6058V15.1514ZM81.5963 15.212C82.9152 16.3332 83.575 17.9089 83.575 19.8786C83.575 21.8484 82.9152 23.4241 81.5963 24.5453C80.2176 25.7272 78.209 26.3635 75.5408 26.4241V28.3635H73.6225V26.4241C70.9547 26.3635 68.9461 25.7574 67.5675 24.5453C66.2485 23.4241 65.5889 21.8484 65.5889 19.8786C65.5889 17.9089 66.2485 16.3332 67.5675 15.212C68.9461 14.0302 70.9547 13.3938 73.6225 13.3332V11.3938H75.5408V13.3332C78.209 13.3938 80.2176 13.9999 81.5963 15.212Z" fill="white"/>
<path d="M86.333 11.3938H97.8438V13.212H88.2514V18.9089H97.1244V20.7272H88.2514V26.5453H97.8438V28.3635H86.333V11.3938Z" fill="white"/>
<path d="M102.64 20.4847H107.796C108.845 20.4847 109.684 20.1514 110.314 19.4847C110.944 18.8181 111.273 17.9393 111.273 16.8484C111.273 15.7574 110.944 14.8786 110.314 14.212C109.684 13.5453 108.845 13.212 107.796 13.212H102.64V20.4847ZM100.722 11.3938H107.796C109.415 11.3938 110.733 11.8787 111.723 12.8787C112.712 13.8787 113.192 15.2119 113.192 16.8484C113.192 18.4847 112.712 19.8181 111.723 20.8181C110.733 21.8181 109.415 22.3028 107.796 22.3028H102.64V28.3635H100.722V11.3938Z" fill="white"/>
<path d="M115.5 26.5454H115.68C117.688 26.5454 119.277 25.9393 120.476 24.7272C121.675 23.5454 122.275 21.9089 122.275 19.9089L120.356 15.5454L115.5 26.5454ZM128.03 28.3635H125.991L122.574 20.6059C122.454 22.9696 121.765 24.8786 120.536 26.2423C119.277 27.6363 117.658 28.3635 115.68 28.3635H112.682L120.356 10.9089L128.03 28.3635Z" fill="white"/>
</g>
</svg>
