<svg width="58" height="56" viewBox="0 0 58 56" fill="none" xmlns="http://www.w3.org/2000/svg">
<rect width="58" height="56" rx="10" fill="white"/>
<path d="M40.2946 14C39.6411 14 38.8119 14.0848 37.8287 14.2531C36.8064 14.4284 36.1028 14.6306 35.6776 14.8729C35.2536 15.1138 34.6131 15.7156 33.7195 16.7116C32.8553 17.6769 31.7468 19.1908 30.4262 21.2123C29.1101 23.2268 27.9488 25.1876 26.9745 27.0399C26.1018 28.698 25.2113 30.5188 24.3231 32.4612C23.6999 31.6222 23.0447 30.9496 22.3699 30.4575C21.5123 29.833 20.6924 29.5163 19.932 29.5163C19.1557 29.5163 18.3069 29.8764 17.4094 30.5876C16.4741 31.3281 16 32.1704 16 33.0885C16 33.78 16.4044 34.5878 17.2367 35.5602C18.4494 36.9713 19.4273 38.2812 20.1433 39.4543C20.6765 40.3258 21.0427 40.8768 21.2633 41.1356C21.5119 41.4278 21.8279 41.6489 22.2044 41.7945C22.5657 41.9326 23.165 42 24.0381 42C25.2362 42 26.0521 41.8642 26.5333 41.5866C27.0149 41.3067 27.3944 40.9103 27.663 40.4064C27.9058 39.9516 28.2849 39.0443 28.8229 37.634C30.1603 34.0962 31.9781 30.3925 34.226 26.6284C36.4681 22.8747 38.6646 19.9313 40.7518 17.8833C41.2636 17.3894 41.5756 17.0382 41.7328 16.7766C41.9099 16.4825 42 16.1403 42 15.759C42 15.2768 41.8407 14.8592 41.5268 14.518C41.2094 14.1739 40.7953 14 40.2946 14Z" fill="#3FAB60"/>
</svg>
