<svg width="58" height="56" viewBox="0 0 58 56" fill="none" xmlns="http://www.w3.org/2000/svg">
<rect width="58" height="56" rx="10" fill="white"/>
<path d="M39.9988 23.5634C40.4223 23.1939 40.3341 22.7444 39.803 22.5654L37.9077 21.9254C37.3766 21.7464 37.1098 21.1694 37.3151 20.6441L38.0464 18.7666C38.2516 18.2409 37.9664 17.8838 37.4144 17.9745L35.4411 18.2968C34.8883 18.3876 34.3871 18.0015 34.326 17.4401L34.1089 15.4343C34.0489 14.8725 33.6324 14.6911 33.1846 15.0299L31.5864 16.2412C31.1382 16.5801 30.5169 16.4737 30.2045 16.0047L29.0894 14.3307C28.7767 13.8617 28.3244 13.8957 28.0847 14.4065L27.2265 16.2288C26.9869 16.7388 26.3873 16.9368 25.8943 16.6679L24.1357 15.7089C23.6436 15.4401 23.259 15.6828 23.2808 16.247L23.3604 18.2633C23.383 18.8275 22.9426 19.284 22.3828 19.277L20.3844 19.2525C19.825 19.2455 19.5956 19.6403 19.8755 20.13L20.8741 21.8782C21.1536 22.3678 20.9742 22.9776 20.4751 23.2345L18.6947 24.1496C18.1957 24.4064 18.1748 24.8638 18.6471 25.1654L20.336 26.2445C20.8092 26.5474 20.9311 27.1713 20.6077 27.6332L19.452 29.279C19.1286 29.7401 19.3198 30.1548 19.8784 30.2004L21.8702 30.3636C22.4284 30.4092 22.8244 30.905 22.7493 31.4655L22.4846 33.4652C22.4103 34.0249 22.771 34.302 23.2865 34.0816L25.1252 33.292C25.6399 33.0704 26.219 33.3235 26.4114 33.8546L27.0969 35.7495C27.2889 36.2797 27.7363 36.3564 28.0901 35.9189L29.355 34.3567C29.7096 33.9192 30.3379 33.872 30.7525 34.2519L32.232 35.6082C32.6465 35.9881 33.0775 35.8456 33.1899 35.2921L33.5905 33.3152C33.703 32.7618 34.2377 32.4246 34.7795 32.5671L36.7138 33.0733C37.2564 33.215 37.5728 32.8873 37.4164 32.3442L36.8611 30.4071C36.7056 29.864 37.0253 29.3147 37.5703 29.1862L39.5166 28.7268C40.062 28.5984 40.1909 28.1601 39.803 27.7525L38.4191 26.2967C38.0316 25.8887 38.0608 25.2524 38.4848 24.8837L39.9988 23.5634Z" fill="#3FAB60"/>
<path d="M37.5724 31.0621L38.1277 32.9992C38.2833 33.5423 37.9668 33.87 37.4251 33.7283L35.4908 33.2217C34.949 33.08 34.4134 33.4172 34.3014 33.9703L33.9566 35.6688L39.6147 42L40.0628 38.1411L44 38.0085L37.5347 30.7717C37.5326 30.8674 37.5441 30.9644 37.5724 31.0621Z" fill="#3FAB60"/>
<path d="M24.4177 34.0658L22.579 34.8554C22.0635 35.077 21.7027 34.7995 21.777 34.239L22.0426 32.2393C22.1169 31.6796 21.7212 31.1838 21.1626 31.1382L20.8761 31.1146L14 37.3742L17.8231 37.8265L17.9544 41.7998L25.7363 34.7166L25.7043 34.6284C25.5114 34.0973 24.9327 33.8442 24.4177 34.0658Z" fill="#3FAB60"/>
</svg>
