<svg width="58" height="56" viewBox="0 0 58 56" fill="none" xmlns="http://www.w3.org/2000/svg">
<rect width="58" height="56" rx="10" fill="white"/>
<path d="M38.3916 14C39.2782 14 40 14.7481 40 15.669V40.331C40 41.2505 39.2782 42 38.3916 42H24.0312V38.723C24.0312 37.278 22.8978 36.1021 21.5041 36.1021H18V15.669C18 14.7486 18.7218 14 19.6088 14H38.3916ZM22.1934 29.2772H35.8066V28.1285H22.1934V29.2772ZM22.1934 25.2585H35.8066V24.1102H22.1934V25.2585ZM22.1934 21.2398H35.8066V20.0915H22.1934V21.2398Z" fill="#3FAB60"/>
<path d="M23.1129 38.7225V41.372L18.6968 37.0535H21.5041C22.3912 37.0535 23.1129 37.8025 23.1129 38.7225Z" fill="#3FAB60"/>
</svg>
