<svg width="14" height="14" viewBox="0 0 14 14" fill="none" xmlns="http://www.w3.org/2000/svg">
<g id="XMLID_179_">
<path id="XMLID_180_" fill-rule="evenodd" clip-rule="evenodd" d="M13.2149 10.0756C12.8593 9.88303 11.2 8.98458 10.8445 8.85622C10.5482 8.72787 10.3111 8.6637 10.0741 9.04875C9.83706 9.43381 9.18521 10.2681 9.00743 10.5248C8.82965 10.7815 8.59261 10.7815 8.23705 10.589C7.88149 10.3964 6.75558 10.0114 5.45187 8.72787C4.44446 7.76524 3.73334 6.54591 3.55556 6.16085C3.37778 5.7758 3.55557 5.58327 3.73335 5.39074C3.91113 5.19822 4.0889 4.94151 4.26668 4.74899C4.32594 4.68481 4.32593 4.62064 4.38519 4.55646C4.44445 4.42811 4.50372 4.29976 4.62224 4.10723C4.74076 3.85053 4.6815 3.658 4.62224 3.46548C4.56298 3.27295 3.85186 1.47604 3.55556 0.705932C3.25927 -0.0641741 2.96298 0.064177 2.7852 0.064177C2.60742 0.064177 2.37038 0 2.13334 0C1.8963 0 1.54074 0.064176 1.18519 0.449229C0.888891 0.834283 0 1.73274 0 3.52966C0 3.97889 0.0592702 4.36394 0.177789 4.81317C0.533345 6.09668 1.3037 7.18766 1.42222 7.38019C1.6 7.63689 3.79261 11.4874 7.28891 12.9635C10.7852 14.4395 10.7852 13.9261 11.4371 13.8619C12.0889 13.7977 13.4519 12.9635 13.7482 12.1292C14.0445 11.2949 14.0445 10.5248 13.926 10.3964C13.8074 10.3964 13.5704 10.2681 13.2149 10.0756Z" fill="#4A4A48"/>
</g>
</svg>
