<svg width="63" height="63" viewBox="0 0 63 63" fill="none" xmlns="http://www.w3.org/2000/svg">
<rect width="63" height="63" rx="31.5" fill="#fff"/>
<path d="M43 31.5C43 31.7542 42.899 31.9979 42.7193 32.1776C42.5396 32.3574 42.2958 32.4583 42.0417 32.4583H32.4583V42.0417C32.4583 42.2958 32.3574 42.5396 32.1776 42.7193C31.9979 42.899 31.7542 43 31.5 43C31.2458 43 31.0021 42.899 30.8224 42.7193C30.6426 42.5396 30.5417 42.2958 30.5417 42.0417V32.4583H20.9583C20.7042 32.4583 20.4604 32.3574 20.2807 32.1776C20.101 31.9979 20 31.7542 20 31.5C20 31.2458 20.101 31.0021 20.2807 30.8224C20.4604 30.6426 20.7042 30.5417 20.9583 30.5417H30.5417V20.9583C30.5417 20.7042 30.6426 20.4604 30.8224 20.2807C31.0021 20.101 31.2458 20 31.5 20C31.7542 20 31.9979 20.101 32.1776 20.2807C32.3574 20.4604 32.4583 20.7042 32.4583 20.9583V30.5417H42.0417C42.2958 30.5417 42.5396 30.6426 42.7193 30.8224C42.899 31.0021 43 31.2458 43 31.5Z" fill="#0E0F14"/>
</svg>
