<svg width="83" height="83" viewBox="0 0 83 83" fill="none" xmlns="http://www.w3.org/2000/svg">
<g id="Whatsapp" clip-path="url(#clip0_28_2220)">
<path id="Vector" d="M83 41.5C83 18.5802 64.4198 0 41.5 0C18.5802 0 0 18.5802 0 41.5C0 64.4198 18.5802 83 41.5 83C64.4198 83 83 64.4198 83 41.5Z" fill="#3FAB60"/>
<path id="Vector_2" d="M56.079 26.9838C52.2806 23.1054 47.03 21 41.6676 21C30.2725 21 21.1118 30.1973 21.2235 41.3892C21.2235 44.9351 22.229 48.3703 23.9047 51.473L21 62L31.8366 59.2297C34.8529 60.8918 38.2044 61.6676 41.5558 61.6676C52.8393 61.6676 62 52.4703 62 41.2783C62 35.8486 59.8774 30.7514 56.079 26.9838ZM41.6676 58.2324C38.6513 58.2324 35.6348 57.4568 33.0654 55.9053L32.3951 55.573L25.9156 57.2351L27.5913 50.9189L27.1445 50.2541C22.229 42.3865 24.5749 31.9703 32.6186 27.0947C40.6621 22.2189 51.0518 24.5459 55.9673 32.5244C60.8828 40.5027 58.5369 50.8082 50.4932 55.6838C47.9238 57.3459 44.7956 58.2324 41.6676 58.2324ZM51.4987 45.9324L50.2698 45.3783C50.2698 45.3783 48.4822 44.6027 47.3652 44.0486C47.2534 44.0486 47.1416 43.9379 47.03 43.9379C46.6948 43.9379 46.4714 44.0486 46.2479 44.1594C46.2479 44.1594 46.1363 44.2703 44.5722 46.0432C44.4605 46.2649 44.2371 46.3756 44.0136 46.3756H43.9019C43.7903 46.3756 43.5668 46.2649 43.455 46.1541L42.8965 45.9324C41.6676 45.3783 40.5505 44.7135 39.6567 43.827C39.4332 43.6053 39.0981 43.3838 38.8746 43.1621C38.0927 42.3865 37.3107 41.5 36.7521 40.5027L36.6403 40.2811C36.5286 40.1703 36.5286 40.0594 36.417 39.8379C36.417 39.6162 36.417 39.3946 36.5286 39.2838C36.5286 39.2838 36.9754 38.7297 37.3107 38.3973C37.534 38.1756 37.6458 37.8432 37.8693 37.6217C38.0927 37.2892 38.2044 36.8459 38.0927 36.5135C37.9809 35.9594 36.6403 32.9676 36.3052 32.3027C36.0817 31.9703 35.8583 31.8594 35.5232 31.7486H35.188C34.9646 31.7486 34.6295 31.7486 34.2943 31.7486C34.0709 31.7486 33.8474 31.8594 33.624 31.8594L33.5123 31.9703C33.2888 32.0811 33.0654 32.3027 32.8419 32.4135C32.6186 32.6351 32.5068 32.8568 32.2835 33.0783C31.5013 34.0756 31.0545 35.2947 31.0545 36.5135C31.0545 37.4 31.278 38.2865 31.6131 39.0621L31.7248 39.3947C32.7303 41.5 34.0709 43.3838 35.8583 45.0459L36.3052 45.4892C36.6403 45.8217 36.9754 46.0432 37.1989 46.3756C39.545 48.3703 42.2262 49.8108 45.2424 50.5865C45.5777 50.6973 46.0246 50.6973 46.3597 50.8082C46.6948 50.8082 47.1416 50.8082 47.4769 50.8082C48.0354 50.8082 48.7057 50.5865 49.1526 50.3649C49.4877 50.1432 49.7112 50.1432 49.9346 49.9217L50.1581 49.7C50.3814 49.4783 50.6049 49.3676 50.8283 49.1459C51.0518 48.9244 51.2752 48.7027 51.3869 48.4811C51.6104 48.0379 51.722 47.4838 51.8338 46.9297C51.8338 46.7082 51.8338 46.3756 51.8338 46.1541C51.8338 46.1541 51.722 46.0432 51.4987 45.9324Z" fill="white"/>
</g>
<defs>
<clipPath id="clip0_28_2220">
<rect width="83" height="83" fill="white"/>
</clipPath>
</defs>
</svg>
