<svg width="1428" height="476" viewBox="0 0 1428 476" fill="none" xmlns="http://www.w3.org/2000/svg">
<g clip-path="url(#clip0_150_7125)">
<path opacity="0.1" d="M788.29 440.709C888.73 511.73 938.042 561.751 900.348 580.108C844.901 607.109 724.193 569.43 656.937 552.281C538.79 522.157 378.9 419.321 385.159 485.827C390.431 541.848 471.35 631.942 562.463 591.406C656.194 549.705 754.057 507.27 869.878 529.197C977.039 549.484 1070.93 609.865 1095.46 628.81C1187.14 699.623 931.638 789.721 808.236 720.562C650.939 632.412 540.431 462.79 478.508 357.788C416.586 252.785 284.932 67.6527 104.836 33.7316C-75.259 -0.190022 193.327 161.692 421.575 249.916C604.173 320.495 735.996 403.729 788.29 440.709Z" stroke="#D20000" stroke-opacity="0.5"/>
<path opacity="0.1375" d="M802.945 428.551C907.333 497.205 959.027 546.464 921.166 566.899C865.466 596.961 741.4 563.388 672.386 548.629C551.15 522.704 385.27 423.908 393.585 491.909C400.589 549.189 485.648 638.245 577.284 592.785C671.555 546.017 770.012 498.321 888.643 515.929C998.395 532.223 1095.8 590.231 1121.34 608.64C1216.81 677.45 959.146 780.733 831.421 714.965C668.61 631.133 551.091 461.698 484.95 356.535C418.809 251.373 279.295 66.9092 94.8396 39.7056C-89.6152 12.5021 188.716 167.31 423.807 248.216C611.878 312.943 748.595 392.804 802.945 428.551Z" stroke="#FF0000" stroke-opacity="0.5"/>
<path opacity="0.175" d="M817.137 416.054C925.427 482.151 979.511 530.541 941.575 553.09C885.776 586.258 758.494 556.982 687.808 544.716C563.635 523.169 391.856 428.708 402.338 498.139C411.167 556.624 500.392 644.46 592.316 593.99C686.884 542.069 785.686 489.021 906.958 502.143C1019.17 514.284 1120.04 569.747 1146.57 587.573C1245.79 654.2 986.583 770.923 854.625 708.767C686.414 629.533 561.764 460.57 491.318 355.418C420.871 250.265 273.386 66.7978 84.8255 46.575C-103.735 26.3522 184.168 173.599 425.865 246.818C619.221 305.392 760.753 381.64 817.137 416.054Z" stroke="#FF0000" stroke-opacity="0.5"/>
<path opacity="0.2125" d="M830.847 403.241C942.988 466.588 999.458 514.002 961.558 538.692C905.8 575.013 775.459 550.215 703.193 540.539C576.242 523.544 398.667 433.711 411.427 504.503C422.175 564.133 515.581 650.565 607.555 595.012C702.173 537.862 801.062 479.382 924.803 487.857C1039.3 495.695 1143.58 548.438 1171.11 565.634C1274.03 629.902 1013.92 760.293 877.823 701.96C704.338 627.602 572.446 459.408 497.617 354.441C422.786 249.473 267.233 67.3395 74.8321 54.3509C-117.568 41.362 179.715 180.566 427.762 245.732C626.199 297.864 772.458 370.257 830.847 403.241Z" stroke="#DE0000" stroke-opacity="0.5"/>
<path opacity="0.25" d="M844.061 390.125C959.989 450.535 1018.84 496.864 981.078 523.72C925.527 563.225 792.277 543.087 718.525 536.1C588.967 523.823 405.713 438.91 420.859 510.985C433.616 571.696 531.213 656.537 622.991 595.839C717.407 533.395 816.123 469.415 942.161 473.082C1058.78 476.474 1166.39 526.33 1194.9 542.844C1301.49 604.57 1041.11 748.832 900.986 694.541C722.366 625.33 583.138 458.209 503.852 353.608C424.566 249.006 260.858 68.5516 64.8979 63.0398C-131.063 57.5279 175.383 188.21 429.509 244.968C632.808 290.374 783.696 358.674 844.061 390.125Z" stroke="#FB0000" stroke-opacity="0.5"/>
<path opacity="0.2875" d="M856.754 376.734C976.41 434.013 1037.63 479.149 1000.11 508.191C944.919 550.91 808.933 535.604 733.797 531.393C601.807 523.998 413.006 444.295 430.642 517.57C445.497 579.293 547.286 662.353 638.618 596.457C732.576 528.667 830.855 459.129 959 457.841C1077.56 456.649 1188.43 503.444 1217.92 519.229C1328.12 578.235 1068.13 736.544 924.091 686.501C740.485 622.708 593.837 456.972 510.031 352.922C426.225 248.874 254.293 70.4505 55.0632 72.6475C-144.166 74.8444 171.205 196.531 431.119 244.537C639.05 282.94 794.456 346.91 856.754 376.734Z" stroke="#FF0000" stroke-opacity="0.5"/>
<path opacity="0.325" d="M868.919 363.086C992.215 417.049 1055.81 460.88 1018.63 492.122C963.946 538.08 825.409 527.769 748.995 526.425C614.759 524.064 420.553 449.856 440.78 524.243C457.82 586.904 563.795 667.991 654.429 596.858C747.669 523.679 845.24 448.539 975.293 442.155C1095.63 436.245 1209.67 479.814 1240.1 494.824C1353.86 550.93 1094.93 723.427 947.106 677.841C758.68 619.731 604.542 455.698 516.158 352.392C427.776 249.086 247.566 73.0534 45.369 83.1804C-156.827 93.3072 167.209 205.533 432.607 244.448C644.924 275.581 804.726 334.988 868.919 363.086Z" stroke="#FF0000" stroke-opacity="0.5"/>
<path opacity="0.3625" d="M880.545 349.201C1007.38 399.668 1073.33 442.075 1036.61 475.53C982.603 524.74 841.69 519.587 764.107 521.193C627.818 524.014 428.364 455.584 451.283 530.989C470.59 594.507 580.735 673.429 670.415 597.028C762.673 518.433 859.266 437.656 991.028 426.04C1112.95 415.29 1230.07 455.467 1261.43 469.654C1378.67 522.683 1121.47 709.478 970.006 668.557C776.938 616.388 615.25 454.386 522.242 352.019C429.234 249.651 240.705 76.3742 35.8563 94.6399C-168.992 112.906 163.427 215.21 433.985 244.712C650.432 268.314 814.499 322.927 880.545 349.201Z" stroke="#FF0000" stroke-opacity="0.5"/>
<path opacity="0.4" d="M891.608 335.107C1021.91 381.886 1090.18 422.767 1054.02 458.438C1000.85 510.906 857.758 511.063 779.121 515.7C640.98 523.843 436.448 461.467 462.155 537.792C483.808 602.084 598.1 678.644 686.567 596.961C777.577 512.927 872.914 426.496 1006.18 409.521C1129.48 393.813 1249.59 430.434 1281.86 443.752C1402.5 493.53 1147.73 694.711 992.772 658.645C795.241 612.675 625.961 453.034 528.286 351.806C430.612 250.579 233.739 80.4274 26.5646 107.028C-180.61 133.629 159.89 225.563 435.27 245.337C655.575 261.158 823.761 310.751 891.608 335.107Z" stroke="#EC0000" stroke-opacity="0.5"/>
<path opacity="0.4375" d="M902.104 320.822C1035.75 363.737 1106.31 402.98 1070.85 440.863C1018.67 496.592 873.602 502.203 794.026 509.945C654.24 523.543 444.813 467.494 473.399 544.633C497.477 609.612 615.883 683.617 702.875 596.642C792.369 507.167 886.167 415.073 1020.72 392.622C1145.21 371.849 1268.19 404.753 1301.35 417.152C1425.31 463.502 1173.66 679.115 1015.35 648.111C813.575 608.586 636.674 451.642 534.299 351.758C431.926 251.873 226.703 85.2242 17.5365 120.344C-191.629 155.464 156.626 236.584 436.475 246.332C660.355 254.13 832.517 298.478 902.104 320.822Z" stroke="#FF0000" stroke-opacity="0.5"/>
<path opacity="0.475" d="M912.012 306.376C1048.9 345.246 1121.73 382.736 1087.05 422.831C1036.03 481.81 889.193 493.018 808.81 503.933C667.595 523.111 453.468 473.656 485.019 551.499C511.597 617.07 634.076 688.324 719.332 596.065C807.038 501.154 899.017 403.401 1034.63 375.363C1160.11 349.42 1285.85 378.453 1319.87 389.89C1447.05 432.641 1199.22 662.717 1037.75 636.95C831.922 604.115 647.385 450.211 540.287 351.877C433.191 253.542 219.625 90.7772 8.81406 134.586C-201.997 178.395 153.668 248.27 437.617 247.701C664.777 247.247 840.744 286.135 912.012 306.376Z" stroke="#FF0000" stroke-opacity="0.5"/>
<path opacity="0.5125" d="M921.339 291.786C1061.35 326.439 1136.4 362.067 1102.62 404.36C1052.93 466.577 904.533 483.509 823.461 497.666C681.037 522.538 462.419 479.939 497.022 558.37C526.169 624.437 652.67 692.743 735.924 595.219C821.572 494.89 911.451 391.496 1047.9 357.772C1174.15 326.568 1302.53 351.571 1337.39 362.001C1467.69 400.985 1224.39 645.5 1059.92 625.17C850.269 599.256 658.094 448.74 546.259 352.167C434.425 255.593 212.54 97.095 0.43837 149.749C-211.663 202.402 151.047 260.613 438.712 249.455C668.845 240.529 848.439 273.745 921.339 291.786Z" stroke="#FF0000" stroke-opacity="0.5"/>
<path opacity="0.55" d="M930.06 277.084C1073.05 307.348 1150.29 341.001 1117.52 385.481C1069.32 450.912 919.601 473.686 837.966 491.147C694.561 521.82 471.673 486.331 509.404 565.231C541.187 631.692 671.654 696.855 752.641 594.094C835.957 488.379 923.46 379.373 1060.51 339.87C1187.31 303.321 1318.2 324.152 1353.86 333.526C1487.16 368.577 1249.11 627.492 1081.82 612.773C868.595 594.008 668.798 447.228 552.22 352.63C435.642 258.03 205.479 104.186 -7.54894 165.826C-220.577 227.467 148.791 273.604 439.774 251.598C672.562 233.992 855.606 261.327 930.06 277.084Z" stroke="#FF0000" stroke-opacity="0.5"/>
<path opacity="0.5875" d="M938.167 262.292C1084 288.001 1163.39 319.567 1131.75 366.211C1085.19 434.828 934.374 463.561 852.316 484.38C708.164 520.953 481.239 492.821 522.173 572.064C556.655 638.814 691.018 700.638 769.474 592.683C850.186 481.624 935.023 367.051 1072.44 321.687C1199.58 279.716 1332.82 296.228 1369.27 304.506C1505.46 335.456 1273.35 608.701 1103.45 599.761C886.887 588.365 679.496 445.675 558.178 353.266C436.861 260.858 198.478 112.056 -15.1051 182.811C-228.687 253.566 146.931 287.235 440.823 254.134C675.936 227.653 862.236 248.906 938.167 262.292Z" stroke="#FF0000" stroke-opacity="0.5"/>
<path opacity="0.625" d="M945.654 247.439C1094.2 268.427 1175.66 297.802 1145.26 346.583C1100.53 418.346 948.841 453.142 866.5 477.368C721.835 519.93 491.118 499.395 535.326 578.851C572.563 645.782 710.748 704.072 786.408 590.978C864.243 474.632 946.133 354.547 1083.66 303.251C1210.91 255.789 1346.39 267.841 1383.57 274.981C1522.53 301.671 1297.09 589.135 1124.77 586.141C905.127 582.326 690.186 444.08 564.141 354.081C438.097 264.081 191.568 120.712 -22.1887 200.695C-235.947 280.676 145.497 301.496 441.872 257.071C678.973 221.531 868.314 236.511 945.654 247.439Z" stroke="#FF0000" stroke-opacity="0.5"/>
<path opacity="0.6625" d="M952.531 232.547C1103.62 248.658 1187.11 275.731 1158.05 326.624C1115.3 401.487 962.997 442.438 880.5 470.119C735.571 518.749 501.321 506.041 548.865 585.577C588.913 652.574 730.834 707.139 803.434 588.971C878.124 467.405 956.777 341.881 1094.18 284.588C1221.3 231.582 1358.85 239.036 1396.74 244.995C1538.34 267.269 1320.26 568.814 1145.75 571.925C923.288 575.891 700.866 442.445 570.116 355.074C439.367 267.704 184.787 130.161 -28.759 219.464C-242.304 308.768 144.521 316.372 442.942 260.412C681.68 215.643 873.858 224.159 952.531 232.547Z" stroke="#FF0000" stroke-opacity="0.5"/>
<path opacity="0.7" d="M958.766 217.648C1112.24 228.73 1197.7 253.392 1170.1 306.359C1129.5 384.27 976.815 431.463 894.306 462.638C749.366 517.403 511.85 512.745 562.789 592.223C605.697 659.17 751.26 709.816 820.537 586.655C891.808 459.952 966.948 329.068 1103.97 265.729C1230.74 207.126 1370.21 209.854 1408.76 214.591C1552.85 232.298 1342.87 547.749 1166.36 557.115C941.365 569.056 711.534 440.769 576.112 356.248C440.69 271.727 178.167 140.4 -34.7729 239.108C-247.713 337.815 144.029 331.852 444.049 264.16C684.066 210.006 878.855 211.878 958.766 217.648Z" stroke="#FF0000" stroke-opacity="0.5"/>
<path opacity="0.7375" d="M964.377 202.763C1120.07 208.667 1207.43 230.82 1181.39 285.815C1143.09 366.717 990.288 420.224 907.911 454.928C763.213 515.888 522.711 519.492 577.098 598.769C622.911 665.547 772.013 712.086 837.705 584.023C905.29 452.275 976.635 316.129 1113.02 246.699C1239.2 182.465 1380.42 180.339 1419.6 183.815C1566.03 196.808 1364.84 525.962 1186.57 541.725C959.34 561.82 722.19 439.05 582.137 357.601C442.083 276.154 171.747 151.433 -40.1899 259.608C-252.126 367.783 144.052 347.919 445.212 268.316C686.139 204.634 883.305 199.692 964.377 202.763Z" stroke="#FF0000" stroke-opacity="0.5"/>
<path opacity="0.775" d="M969.342 187.927C1127.08 188.511 1216.26 208.048 1191.9 265.029C1156.07 348.85 1003.4 408.738 921.303 446.997C777.103 514.202 533.906 526.272 591.788 605.202C640.544 671.689 793.075 713.933 854.925 581.069C918.553 444.385 985.84 303.08 1121.32 227.533C1246.66 157.637 1389.47 150.54 1429.24 152.714C1577.86 160.85 1386.15 503.472 1206.37 525.766C977.189 554.186 732.83 437.292 588.196 359.138C443.563 280.985 165.558 163.26 -44.9702 280.951C-255.499 398.642 144.618 364.559 446.446 272.885C687.909 199.547 887.211 187.625 969.342 187.927Z" stroke="#E04E4E"/>
<path opacity="0.8125" d="M973.68 173.161C1133.28 168.288 1224.2 185.109 1201.62 244.026C1168.41 330.689 1016.13 397.017 934.476 438.85C791.029 512.339 545.439 533.068 606.857 611.501C658.592 677.569 814.431 715.336 872.183 577.788C931.598 436.283 994.541 289.946 1128.86 208.259C1253.13 132.68 1397.34 120.5 1437.64 121.339C1588.29 124.481 1406.79 480.295 1225.71 509.248C994.894 546.152 743.452 435.492 594.301 360.856C445.15 286.221 159.638 175.879 -49.0734 303.116C-257.785 430.354 145.754 381.752 447.772 277.865C689.387 194.757 890.583 175.698 973.68 173.161Z" stroke="#FF0000" stroke-opacity="0.5"/>
<path opacity="0.85" d="M977.37 158.499C1138.63 148.042 1231.22 162.047 1210.54 222.838C1180.1 312.267 1028.48 385.074 947.414 430.497C804.986 510.297 557.314 539.867 622.303 617.651C677.046 683.172 836.063 716.28 889.465 574.175C944.401 427.985 1002.74 276.745 1135.63 188.908C1258.58 107.642 1404.01 90.2689 1444.81 89.7363C1597.32 87.7504 1426.7 456.459 1244.58 492.185C1012.45 537.723 754.056 433.653 600.459 362.757C446.861 291.862 154.025 189.286 -52.4579 326.084C-258.94 462.882 147.49 399.483 449.209 283.26C690.585 190.282 893.41 163.943 977.37 158.499Z" stroke="#EA5353" stroke-opacity="0.5"/>
<path opacity="0.8875" d="M980.429 143.963C1143.17 127.797 1237.33 138.892 1218.63 201.5C1191.13 293.601 1040.43 372.922 960.097 421.947C818.965 508.072 569.532 546.654 638.119 623.634C695.895 688.477 857.953 716.749 906.76 570.225C956.968 419.488 1010.42 263.5 1141.62 169.515C1263 82.5605 1409.47 59.8941 1450.72 57.9571C1604.9 50.7184 1445.84 431.989 1262.94 474.594C1029.82 528.903 764.639 431.773 606.677 364.839C448.714 297.905 148.752 203.477 -55.0869 349.832C-258.925 496.187 149.85 417.729 450.774 289.066C691.513 186.136 895.696 152.38 980.429 143.963Z" stroke="#FF0000" stroke-opacity="0.5"/>
<path opacity="0.925" d="M982.856 129.582C1146.85 107.595 1242.5 115.686 1225.9 180.043C1201.47 274.716 1051.99 360.572 972.527 413.206C832.958 505.662 582.093 553.414 654.303 629.43C715.127 693.462 880.081 716.725 924.044 565.935C969.267 410.812 1017.59 250.225 1146.83 150.106C1266.39 57.4781 1413.7 29.4255 1455.35 26.0519C1611.03 13.4395 1464.19 406.903 1280.78 456.488C1046.98 519.693 775.198 429.853 612.963 367.102C450.728 304.349 143.855 218.443 -56.9212 374.335C-257.696 530.228 152.861 436.471 452.485 295.283C692.184 182.333 897.461 141.031 982.856 129.582Z" stroke="#F55757" stroke-opacity="0.5"/>
<path opacity="0.9625" d="M984.641 115.388C1149.69 87.4718 1246.74 92.4615 1232.32 158.5C1211.12 255.643 1063.11 348.047 984.698 404.28C846.957 503.064 595 560.134 670.845 635.025C734.733 698.11 902.428 716.195 941.313 561.301C981.316 401.954 1024.24 236.948 1151.24 130.72C1268.74 32.4364 1416.69 -1.08291 1458.69 -5.92612C1615.67 -24.0228 1481.73 381.232 1298.07 437.883C1063.94 510.097 785.734 427.895 619.327 369.543C452.921 311.192 139.371 234.178 -57.9225 399.57C-255.217 564.96 156.55 455.684 454.362 301.909C692.613 178.889 898.702 129.923 984.641 115.388Z" stroke="#FF0000" stroke-opacity="0.5"/>
<path d="M985.802 101.406C1151.69 67.4594 1250.02 69.2666 1237.9 136.905C1220.07 236.404 1073.8 335.36 996.592 395.183C860.953 500.278 608.254 566.798 687.744 640.401C754.702 702.402 924.974 715.145 958.546 556.322C993.081 392.932 1030.37 223.689 1154.86 111.388C1270.05 7.48346 1418.43 -31.5865 1460.73 -37.9257C1618.83 -61.6174 1498.42 355.007 1314.77 418.801C1080.67 500.12 796.242 425.898 625.776 372.164C455.311 318.429 135.337 250.673 -58.055 425.506C-251.447 600.339 160.94 475.347 456.424 308.941C692.812 175.816 899.427 119.081 985.802 101.406Z" stroke="#FF0000" stroke-opacity="0.5"/>
</g>
<defs>
<clipPath id="clip0_150_7125">
<rect width="1438" height="476" fill="white"/>
</clipPath>
</defs>
</svg>
