<svg width="60" height="60" viewBox="0 0 60 60" fill="none" xmlns="http://www.w3.org/2000/svg">
<rect width="60" height="60" rx="10" fill="#F5F7F9"/>
<path d="M38.7671 20C38.2534 20 37.637 20.0675 36.8493 20.1686C36.0616 20.3035 35.5137 20.4385 35.2055 20.6071C34.863 20.7757 34.3836 21.2142 33.6986 21.9224C33.048 22.597 32.1918 23.71 31.1644 25.1265C30.137 26.5767 29.2466 27.9595 28.4932 29.3086C27.8082 30.489 27.1233 31.8044 26.4384 33.1872C25.9589 32.5801 25.4452 32.1079 24.9315 31.7369C24.2808 31.2985 23.6301 31.0624 23.0479 31.0624C22.4657 31.0624 21.7808 31.3322 21.0959 31.8381C20.3767 32.3777 20 32.9848 20 33.6256C20 34.1315 20.3082 34.7049 20.9589 35.3794C21.8836 36.3912 22.637 37.3356 23.1849 38.1787C23.5959 38.7858 23.8699 39.1905 24.0411 39.3929C24.2466 39.5953 24.4863 39.7639 24.7603 39.8651C25.0342 39.9663 25.5137 40 26.1644 40C27.089 40 27.7055 39.8988 28.0822 39.6965C28.4589 39.4941 28.7329 39.2243 28.9384 38.8533C29.1096 38.516 29.4178 37.8752 29.8288 36.8634C30.8562 34.3339 32.2603 31.6695 34.0068 28.9713C35.7534 26.2732 37.4315 24.1821 39.0411 22.6981C39.4521 22.3609 39.6918 22.0911 39.7945 21.9224C39.9315 21.7201 40 21.4503 40 21.1804C40 20.8432 39.863 20.5396 39.6233 20.3035C39.4863 20.1349 39.1438 20 38.7671 20Z" fill="#EA3838"/>
</svg>
