<svg width="60" height="60" viewBox="0 0 60 60" fill="none" xmlns="http://www.w3.org/2000/svg">
<rect width="60" height="60" rx="10" fill="#F5F7F9"/>
<path d="M22.3091 19C21.5818 19 21 19.5809 21 20.3069V39.6931C21 40.4191 21.5818 41 22.3091 41H34.0546V38.4224C34.0546 37.297 34.9636 36.3531 36.1273 36.3531H39V20.3069C39 19.5809 38.4182 19 37.6909 19H22.3091ZM35.5455 31.0165H24.4182V30.1089H35.5455V31.0165ZM35.5455 27.8581H24.4182V26.9505H35.5455V27.8581ZM35.5455 24.6997H24.4182V23.7921H35.5455V24.6997Z" fill="#EA3838"/>
<path d="M34.7818 38.4224V40.4917L38.3818 37.1155H36.0909C35.3636 37.1155 34.7818 37.6963 34.7818 38.4224Z" fill="#EA3838"/>
</svg>
