<svg width="1130" height="384" viewBox="0 0 1130 384" fill="none" xmlns="http://www.w3.org/2000/svg">
<g clip-path="url(#clip0_150_6860)">
<path opacity="0.1" d="M865.189 113.776C992.089 96.0297 1064.92 97.9 1048.57 136.008C972.473 313.318 672.217 310.035 989.669 120.875C1086.51 63.169 1200.96 42.3773 1233.06 39.1615C1353.06 27.1419 1290.62 241.051 1031.11 313.849C788.268 381.969 689.138 295.461 568.375 263.632C447.609 231.803 217.33 190.762 54.6961 287.864C-107.938 384.966 211.926 317.913 449.467 226.453C639.503 153.285 799.117 123.016 865.189 113.776Z" stroke="#832525" stroke-opacity="0.3"/>
<path opacity="0.115254" d="M874.247 112.498C1000.79 93.7314 1073.52 95.0148 1057.52 133.251C983.107 311.154 683.302 310.29 998.587 118.594C1094.77 60.1139 1208.86 38.4021 1240.88 34.9283C1360.57 21.9432 1300.11 236.332 1041.65 311.212C799.795 381.281 700.068 295.582 579.218 264.73C458.373 233.877 228.106 194.696 66.5826 293.097C-94.9405 391.499 223.822 321.876 460.181 228.512C649.271 153.821 808.363 122.27 874.247 112.498Z" stroke="#852626" stroke-opacity="0.3"/>
<path opacity="0.130508" d="M883.45 111.43C1009.64 91.7711 1082.26 92.5403 1066.59 130.885C993.677 309.295 694.351 310.55 1007.64 116.646C1103.21 57.4925 1216.94 34.9769 1248.89 31.2771C1368.29 17.4474 1309.6 232.24 1052.13 308.939C811.209 380.711 710.971 295.725 590.079 265.73C469.183 235.735 238.978 198.186 78.4793 297.718C-82.0196 397.251 235.691 325.382 470.947 230.358C659.152 154.339 817.749 121.666 883.45 111.43Z" stroke="#872727" stroke-opacity="0.3"/>
<path opacity="0.145763" d="M892.798 110.574C1018.65 90.1534 1091.16 90.4831 1075.78 128.918C1004.19 307.751 705.349 310.817 1016.82 115.038C1111.84 55.3122 1225.24 32.1109 1257.11 28.2182C1376.23 13.6673 1319.09 228.792 1062.55 307.041C822.498 380.263 721.84 295.893 600.937 266.633C480.03 237.373 249.936 201.221 90.368 301.714C-69.2004 402.207 247.518 328.423 481.755 231.986C669.145 154.836 827.269 121.207 892.798 110.574Z" stroke="#892828" stroke-opacity="0.3"/>
<path opacity="0.161017" d="M902.297 109.93C1027.84 88.8804 1100.23 88.8471 1085.1 127.355C1014.65 306.528 716.301 311.091 1026.15 113.772C1120.68 53.5766 1233.77 29.8089 1265.56 25.7569C1384.41 10.6106 1328.59 225.999 1072.92 305.525C833.664 379.943 732.684 296.086 611.797 267.435C490.914 238.784 260.976 203.788 102.239 305.071C-56.4982 406.354 259.294 330.99 492.605 233.389C679.252 155.308 836.929 120.89 902.297 109.93Z" stroke="#8B2929" stroke-opacity="0.3"/>
<path opacity="0.176271" d="M911.957 109.498C1037.2 87.9546 1109.48 87.6345 1094.55 126.199C1025.07 305.631 727.203 311.373 1035.64 112.849C1129.73 52.2871 1242.53 28.0751 1274.25 23.8979C1392.84 8.28349 1338.13 223.87 1083.23 304.398C844.707 379.754 743.49 296.305 622.662 268.134C501.832 239.964 272.091 205.881 114.082 307.78C-43.9269 409.679 271.012 333.076 503.495 234.563C689.482 155.752 846.75 120.715 911.957 109.498Z" stroke="#8E2A2A" stroke-opacity="0.3"/>
<path opacity="0.191525" d="M921.789 109.279C1046.75 87.3779 1118.92 86.8503 1104.15 125.453C1035.44 305.067 738.063 311.665 1045.28 112.275C1139.01 51.448 1251.54 26.9142 1283.2 22.6462C1401.54 6.69229 1347.71 222.414 1093.5 303.667C855.631 379.7 754.269 296.552 633.522 268.732C512.782 240.912 283.277 207.493 125.889 309.836C-31.4993 412.179 282.666 334.678 514.422 235.506C699.825 156.169 856.723 120.683 921.789 109.279Z" stroke="#902B2B" stroke-opacity="0.3"/>
<path opacity="0.20678" d="M931.783 109.274C1056.5 87.1506 1128.55 86.4938 1113.91 125.119C1045.76 304.837 748.869 311.967 1055.1 112.048C1148.51 51.0587 1260.8 26.3263 1292.4 22.0021C1410.52 5.83799 1357.33 221.634 1103.74 303.334C866.432 379.785 765.01 296.826 644.387 269.225C523.759 241.624 294.527 208.619 137.651 311.234C-19.2266 413.848 294.246 335.792 525.383 236.216C710.293 156.555 866.846 120.792 931.783 109.274Z" stroke="#922C2C" stroke-opacity="0.3"/>
<path opacity="0.222034" d="M941.954 109.48C1066.44 87.2722 1138.39 86.5654 1123.81 125.197C1056.04 304.944 759.626 312.28 1065.07 112.168C1158.25 51.1206 1270.34 26.3122 1301.88 21.9664C1419.79 5.72183 1367 221.533 1113.93 303.401C877.108 380.009 775.719 297.129 655.241 269.615C534.767 242.1 305.844 209.259 149.367 311.972C-7.11109 414.685 305.754 336.419 536.38 236.692C720.883 156.911 877.135 121.042 941.954 109.48Z" stroke="#942C2C" stroke-opacity="0.3"/>
<path opacity="0.237288" d="M952.297 109.896C1076.58 87.7406 1148.41 87.0624 1133.88 125.685C1066.29 305.386 770.34 312.602 1075.23 112.633C1168.24 51.6294 1280.13 26.8684 1311.62 22.5357C1429.34 6.34007 1376.73 222.108 1124.08 303.866C887.661 380.371 786.401 297.459 666.101 269.9C545.806 242.34 317.227 209.41 161.036 312.05C4.84448 414.689 317.187 336.557 547.414 236.933C731.592 157.233 887.586 121.431 952.297 109.896Z" stroke="#962D2D" stroke-opacity="0.3"/>
<path opacity="0.252542" d="M962.813 110.522C1086.92 88.5553 1158.63 87.9846 1144.1 126.581C1076.49 306.163 781.001 312.936 1085.54 113.443C1178.46 52.585 1290.19 27.9938 1321.63 23.7086C1439.18 7.69072 1386.49 223.358 1134.19 304.73C898.091 380.873 797.046 297.819 676.955 270.082C556.864 242.345 328.671 209.076 172.654 311.472C16.6374 413.867 328.543 336.21 558.473 236.94C742.42 157.525 898.198 121.96 962.813 110.522Z" stroke="#982E2E" stroke-opacity="0.3"/>
<path opacity="0.267797" d="M973.501 111.356C1097.45 89.712 1169.05 89.3269 1154.47 127.882C1086.65 307.27 791.614 313.279 1096.04 114.594C1188.91 53.9816 1300.51 29.6823 1331.91 25.4789C1449.3 9.76635 1396.32 225.275 1144.26 305.986C908.396 381.512 807.664 298.204 687.81 270.16C567.961 242.116 340.184 208.261 184.23 310.243C28.277 412.224 339.829 335.381 569.575 236.716C753.371 157.784 908.967 122.625 973.501 111.356Z" stroke="#9A2F2F" stroke-opacity="0.3"/>
<path opacity="0.283051" d="M984.36 112.397C1108.17 91.2091 1179.66 91.0865 1165 129.584C1096.76 308.705 802.178 313.632 1106.69 116.083C1199.58 55.8181 1311.08 31.9297 1342.45 27.8418C1459.69 12.561 1406.18 227.853 1154.29 307.632C918.584 382.286 818.244 298.619 698.664 270.138C579.084 241.658 351.767 206.972 195.768 308.371C39.7689 409.771 351.048 334.077 580.714 236.264C764.446 158.014 919.896 123.429 984.36 112.397Z" stroke="#9C3030" stroke-opacity="0.3"/>
<path opacity="0.298305" d="M995.376 113.642C1119.08 93.042 1190.46 93.2572 1175.66 131.681C1106.83 310.461 812.693 313.995 1117.5 117.907C1210.49 58.0867 1321.9 34.728 1353.23 30.7887C1470.35 16.0639 1416.07 231.08 1164.26 309.66C928.642 383.192 828.797 299.058 709.518 270.016C590.239 240.973 363.422 205.216 207.272 305.868C51.121 406.52 362.202 332.305 591.885 235.588C775.633 158.214 930.971 124.368 995.376 113.642Z" stroke="#9E3131" stroke-opacity="0.3"/>
<path opacity="0.313559" d="M1006.56 115.089C1130.16 95.205 1201.42 95.8328 1186.46 134.167C1116.84 312.53 823.166 314.366 1128.46 120.058C1221.59 60.7812 1332.94 38.0683 1364.25 34.3104C1481.25 20.2632 1425.98 234.943 1174.19 312.061C938.577 384.225 839.312 299.524 720.373 269.796C601.433 240.067 375.159 203.005 218.756 302.744C62.3521 402.484 373.305 330.073 603.106 234.693C786.945 158.388 942.202 125.442 1006.56 115.089Z" stroke="#A03232" stroke-opacity="0.3"/>
<path opacity="0.328814" d="M1017.89 116.736C1141.41 97.6939 1212.55 98.8052 1197.38 137.034C1126.8 314.905 833.589 314.744 1139.56 122.532C1232.91 63.8945 1344.21 41.941 1375.48 38.3962C1492.39 25.1457 1435.9 239.426 1184.06 314.825C948.392 385.38 849.801 300.014 731.232 269.481C612.663 238.947 386.981 200.351 230.228 299.017C73.4754 397.683 384.361 327.393 614.363 233.584C798.369 158.537 953.572 126.65 1017.89 116.736Z" stroke="#A33333" stroke-opacity="0.3"/>
<path opacity="0.344068" d="M1029.36 118.58C1152.81 100.502 1223.83 102.168 1208.42 140.274C1136.7 317.575 843.965 315.13 1150.8 125.323C1244.4 67.4199 1355.68 46.3356 1386.93 43.035C1503.73 30.6967 1445.83 244.514 1193.86 317.942C958.08 386.653 860.257 300.528 742.097 269.074C623.937 237.62 398.895 197.27 241.702 294.704C84.5093 392.137 395.383 324.278 625.674 232.271C809.907 158.666 965.083 127.992 1029.36 118.58Z" stroke="#A53434" stroke-opacity="0.3"/>
<path opacity="0.359322" d="M1040.97 120.615C1164.36 103.621 1235.25 105.908 1219.56 143.875C1146.52 320.528 854.297 315.521 1162.15 128.422C1256.07 71.3441 1367.33 51.2367 1398.55 48.2099C1515.26 36.8959 1455.74 250.182 1203.59 321.396C967.648 388.034 870.675 301.062 752.967 268.578C635.254 236.093 410.911 193.777 253.194 289.823C95.476 385.87 406.383 320.739 637.034 230.76C821.551 158.776 976.717 129.464 1040.97 120.615Z" stroke="#A73535" stroke-opacity="0.3"/>
<path opacity="0.374576" d="M1052.7 122.841C1176.04 107.044 1246.79 110.018 1230.78 147.828C1156.29 323.754 864.587 315.916 1173.61 131.821C1267.88 75.6589 1379.14 56.6316 1410.34 53.9076C1526.96 43.7251 1465.61 256.41 1213.25 325.173C977.099 389.519 881.073 301.618 763.849 267.997C646.625 234.376 423.038 189.892 264.719 284.4C106.4 378.907 417.374 316.796 648.448 229.061C833.31 158.872 988.48 131.066 1052.7 122.841Z" stroke="#A93636" stroke-opacity="0.3"/>
<path opacity="0.38983" d="M1064.55 125.25C1187.84 110.759 1258.44 114.481 1242.08 152.117C1165.96 327.234 874.833 316.313 1185.16 135.507C1279.84 80.3499 1391.09 62.5011 1422.27 60.1074C1538.79 51.1599 1475.44 263.171 1222.82 329.257C986.426 391.097 891.432 302.191 774.741 267.334C658.049 232.477 435.281 185.634 276.291 278.455C117.302 371.277 428.368 312.462 659.926 227.182C845.17 158.957 1000.36 132.795 1064.55 125.25Z" stroke="#AB3737" stroke-opacity="0.3"/>
<path opacity="0.405085" d="M1076.5 127.84C1199.74 114.759 1270.18 119.287 1253.44 156.732C1175.56 330.958 885.042 316.711 1196.8 139.473C1291.91 85.4041 1403.17 68.8291 1434.31 66.792C1550.73 59.1763 1485.19 270.438 1232.29 333.629C995.64 392.761 901.765 302.781 785.654 266.595C669.538 230.409 447.652 181.026 287.931 272.019C128.21 363.013 439.38 307.76 671.464 225.135C857.127 159.035 1012.34 134.65 1076.5 127.84Z" stroke="#AD3838" stroke-opacity="0.3"/>
<path opacity="0.420339" d="M1088.54 130.601C1211.71 119.029 1281.98 124.418 1264.83 161.654C1185.06 334.906 895.213 317.108 1208.49 143.705C1304.07 90.8052 1415.33 75.5932 1446.45 73.937C1562.75 67.7462 1494.87 278.18 1241.67 338.271C1004.73 394.502 912.07 303.384 796.578 265.782C681.081 228.181 460.156 176.09 299.65 265.119C139.145 354.148 450.422 302.707 683.066 222.931C869.18 159.11 1024.4 136.626 1088.54 130.601Z" stroke="#AF3939" stroke-opacity="0.3"/>
<path opacity="0.435593" d="M1100.65 133.531C1223.76 123.56 1293.84 129.861 1276.26 166.869C1194.47 339.064 905.352 317.504 1220.24 148.191C1316.3 96.5387 1427.56 82.7737 1458.65 81.5215C1574.83 76.8422 1504.45 286.368 1250.94 343.163C1013.71 396.31 922.349 304.001 807.524 264.904C692.699 225.807 472.804 170.854 311.472 257.788C150.139 344.722 461.513 297.33 694.743 220.584C881.331 159.188 1036.56 138.722 1100.65 133.531Z" stroke="#B13A3A" stroke-opacity="0.3"/>
<path opacity="0.450847" d="M1112.84 136.619C1235.86 128.335 1305.73 135.594 1287.69 172.357C1203.77 343.41 915.448 317.895 1232.02 152.914C1328.59 102.584 1439.84 90.3431 1470.88 89.5169C1586.92 86.4282 1513.9 294.964 1260.09 348.282C1022.58 398.174 932.595 304.626 818.491 263.963C704.381 223.299 485.601 165.343 323.406 250.057C161.212 334.772 472.662 291.647 706.495 218.105C893.562 159.27 1048.78 140.932 1112.84 136.619Z" stroke="#B33A3A" stroke-opacity="0.3"/>
<path opacity="0.466102" d="M1125.07 139.86C1247.99 133.341 1317.63 141.601 1299.12 178.1C1212.98 347.927 925.523 318.282 1243.81 157.862C1340.91 108.922 1452.13 98.2783 1483.13 97.8974C1599 96.4731 1523.22 303.934 1269.12 353.606C1031.35 400.087 942.821 305.261 829.48 262.966C716.14 220.672 498.554 159.587 335.473 241.964C172.392 324.342 483.885 285.69 718.323 215.509C905.869 159.364 1061.07 143.254 1125.07 139.86Z" stroke="#B53B3B" stroke-opacity="0.3"/>
<path opacity="0.481356" d="M1137.34 143.242C1260.13 138.559 1329.53 147.858 1310.52 184.076C1222.07 352.594 935.559 318.661 1255.61 163.014C1353.24 115.532 1464.42 106.55 1495.37 106.631C1611.05 106.937 1532.39 313.24 1278.03 359.111C1040.01 402.035 953.018 305.9 840.495 261.919C727.978 217.938 511.668 153.612 347.684 233.544C183.702 313.476 495.195 279.479 730.226 212.808C918.256 159.472 1073.41 145.681 1137.34 143.242Z" stroke="#B83C3C" stroke-opacity="0.3"/>
<path opacity="0.49661" d="M1149.64 146.757C1272.28 143.973 1341.41 154.344 1321.89 190.264C1231.05 357.391 945.574 319.033 1267.39 168.355C1365.57 122.389 1476.67 115.128 1507.56 115.687C1623.04 117.782 1541.4 322.84 1286.81 364.772C1048.58 404.011 963.195 306.542 851.543 260.828C739.886 215.114 524.944 147.451 360.052 224.837C195.16 302.223 506.601 273.047 742.215 210.019C930.702 159.597 1085.79 148.207 1149.64 146.757Z" stroke="#BA3D3D" stroke-opacity="0.3"/>
<path opacity="0.511864" d="M1161.94 150.394C1284.4 149.565 1353.25 161.036 1333.2 196.639C1239.92 362.297 955.568 319.394 1279.15 173.866C1377.86 129.47 1488.87 123.98 1519.7 125.032C1634.93 128.966 1550.24 332.695 1295.47 370.565C1057.05 406.002 973.344 307.187 862.612 259.7C751.881 212.212 538.383 141.134 372.587 215.882C206.789 290.629 518.114 266.42 754.28 207.155C943.213 159.743 1098.18 150.826 1161.94 150.394Z" stroke="#BC3E3E" stroke-opacity="0.3"/>
<path opacity="0.527119" d="M1174.26 154.142C1296.5 155.314 1365.03 167.908 1344.45 203.179C1248.68 367.288 965.54 319.745 1290.86 179.526C1390.1 136.749 1501 133.074 1531.76 134.63C1646.71 140.447 1558.9 342.763 1303.99 376.464C1065.44 407.999 983.483 307.83 873.714 258.54C763.951 209.25 551.997 134.693 385.302 206.72C218.607 278.748 529.747 259.629 766.43 204.232C955.772 159.915 1110.61 153.532 1174.26 154.142Z" stroke="#BE3F3F" stroke-opacity="0.3"/>
<path opacity="0.542373" d="M1186.55 157.988C1308.55 161.199 1376.74 174.935 1355.62 209.857C1257.32 372.345 975.491 320.084 1302.52 185.313C1402.29 144.199 1513.04 142.375 1543.71 144.444C1658.35 152.178 1567.37 352.999 1312.37 382.442C1073.75 409.992 993.601 308.471 884.848 257.356C776.101 206.241 565.766 128.159 398.197 197.394C230.626 266.63 541.503 252.706 778.656 201.266C968.38 160.114 1123.03 156.316 1186.55 157.988Z" stroke="#C04040" stroke-opacity="0.3"/>
<path opacity="0.557627" d="M1198.82 161.918C1320.54 167.198 1388.37 182.089 1366.7 216.648C1265.85 377.445 985.43 320.411 1314.11 191.207C1414.38 151.791 1524.96 151.845 1555.54 154.434C1669.84 164.112 1575.65 363.361 1320.63 388.474C1082 411.973 1003.7 309.106 896.015 256.154C788.327 203.202 579.703 121.564 411.28 187.947C242.857 254.33 553.385 245.681 790.963 198.272C981.02 160.344 1135.45 159.169 1198.82 161.918Z" stroke="#C24141" stroke-opacity="0.3"/>
<path opacity="0.572881" d="M1211.06 165.919C1332.45 173.289 1399.91 189.342 1377.68 223.524C1274.28 382.565 995.36 320.725 1325.63 197.184C1426.39 159.496 1536.75 161.449 1567.23 164.562C1681.15 176.201 1583.73 373.803 1328.77 394.533C1090.18 413.931 1013.79 309.735 907.208 254.942C800.628 200.148 593.789 114.939 424.551 178.42C255.312 241.901 565.406 238.587 803.345 195.264C993.692 160.605 1147.85 162.082 1211.06 165.919Z" stroke="#C44242" stroke-opacity="0.3"/>
<path opacity="0.588136" d="M1223.25 169.978C1344.28 179.448 1411.34 196.667 1388.57 230.458C1282.61 387.685 1005.28 321.025 1337.06 203.221C1438.28 167.283 1548.41 171.146 1578.77 174.787C1692.27 188.396 1591.63 384.283 1336.79 400.595C1098.31 415.859 1023.86 310.356 918.433 253.726C813.005 197.096 608.027 108.318 438.011 168.859C267.993 229.401 577.557 231.455 815.796 192.258C1006.39 160.901 1160.22 165.047 1223.25 169.978Z" stroke="#C64343" stroke-opacity="0.3"/>
<path opacity="0.60339" d="M1235.38 174.076C1356.02 185.65 1422.65 204.032 1399.33 237.422C1290.83 392.783 1015.2 321.311 1348.41 209.293C1450.06 175.12 1559.91 180.898 1590.15 185.066C1703.2 200.647 1599.33 394.754 1344.69 406.633C1106.4 417.749 1033.93 310.967 929.685 252.512C825.44 194.058 622.399 101.73 451.65 159.306C280.9 216.882 589.842 224.319 828.313 189.27C1019.09 161.23 1172.56 168.05 1235.38 174.076Z" stroke="#C84444" stroke-opacity="0.3"/>
<path opacity="0.618644" d="M1247.46 178.2C1367.66 191.87 1433.84 211.408 1409.98 244.388C1298.98 397.838 1025.11 321.584 1359.65 215.377C1461.71 182.977 1571.24 190.664 1601.36 195.358C1713.92 212.902 1606.86 405.173 1352.49 412.622C1114.46 419.592 1043.99 311.567 940.965 251.308C837.941 191.05 636.9 95.2049 465.466 149.803C294.033 204.401 602.261 217.209 840.893 186.312C1031.8 161.595 1184.86 171.083 1247.46 178.2Z" stroke="#CA4545" stroke-opacity="0.3"/>
<path opacity="0.633898" d="M1259.45 182.333C1379.2 198.083 1444.91 218.765 1420.53 251.327C1307.05 402.83 1035.03 321.843 1370.79 221.449C1473.22 190.822 1582.41 200.405 1612.39 205.62C1724.43 225.111 1614.21 415.498 1360.19 418.539C1122.5 421.384 1054.05 312.154 952.276 250.12C850.5 188.086 651.514 88.7732 479.448 140.392C307.385 192.012 614.804 210.158 853.523 183.401C1044.5 161.995 1197.11 174.133 1259.45 182.333Z" stroke="#CD4646" stroke-opacity="0.3"/>
<path opacity="0.649153" d="M1271.39 186.46C1390.63 204.266 1455.86 226.074 1430.95 258.211C1315.04 407.74 1044.96 322.089 1381.83 227.483C1484.6 198.622 1593.42 210.082 1623.25 215.81C1734.74 237.226 1621.41 425.687 1367.82 424.36C1130.52 423.118 1064.11 312.729 963.604 248.955C863.097 185.181 666.22 82.4624 493.583 131.116C320.947 179.769 627.471 203.197 866.201 180.548C1057.19 162.429 1209.3 177.189 1271.39 186.46Z" stroke="#CF4747" stroke-opacity="0.3"/>
<path opacity="0.664407" d="M1283.23 190.561C1401.95 210.391 1466.68 233.304 1441.26 265.012C1322.99 412.548 1054.89 322.322 1392.76 233.454C1495.83 206.344 1604.25 219.651 1633.92 225.886C1744.83 249.191 1628.47 435.698 1375.38 430.062C1138.55 424.789 1074.16 313.289 974.953 247.817C875.742 182.345 681.006 76.2982 507.855 122.011C334.706 167.723 640.246 196.356 878.916 177.766C1069.86 162.895 1221.42 180.237 1283.23 190.561Z" stroke="#D14747" stroke-opacity="0.3"/>
<path opacity="0.679661" d="M1295 194.623C1413.15 216.434 1477.36 240.426 1451.45 271.705C1330.9 417.239 1064.84 322.544 1403.58 239.34C1506.92 213.958 1614.91 229.076 1644.43 235.805C1754.73 260.962 1635.4 445.493 1382.89 435.626C1146.59 426.394 1084.23 313.835 986.323 246.715C888.415 179.594 695.851 70.3077 522.249 113.118C348.646 155.927 653.122 189.664 891.663 175.069C1082.49 163.392 1233.48 183.266 1295 194.623Z" stroke="#D34848" stroke-opacity="0.3"/>
<path opacity="0.694915" d="M1306.67 198.625C1424.24 222.369 1487.93 247.409 1461.54 278.258C1338.76 421.793 1074.8 322.754 1414.31 245.115C1517.88 221.43 1625.41 238.315 1654.75 245.527C1764.43 272.487 1642.23 455.033 1390.35 441.03C1154.66 427.927 1094.3 314.364 997.705 245.65C901.103 176.936 710.739 64.5113 536.741 104.469C362.744 144.427 666.085 183.149 904.422 172.464C1095.09 163.917 1245.46 186.262 1306.67 198.625Z" stroke="#D54949" stroke-opacity="0.3"/>
<path opacity="0.710169" d="M1318.26 202.553C1435.22 228.173 1498.38 254.227 1471.53 284.65C1346.63 426.2 1084.78 322.956 1424.93 250.757C1528.7 228.732 1635.76 247.332 1664.92 255.013C1773.95 283.722 1648.98 464.285 1397.8 446.258C1162.76 429.388 1104.39 314.878 1009.1 244.631C913.802 174.384 725.644 58.934 551.314 96.1039C376.985 133.274 679.123 176.838 917.191 169.966C1107.65 164.469 1257.37 189.214 1318.26 202.553Z" stroke="#D74A4A" stroke-opacity="0.3"/>
<path opacity="0.725424" d="M1329.77 206.392C1446.09 233.823 1508.72 260.854 1481.43 290.854C1354.49 430.442 1094.78 323.15 1435.46 256.243C1539.39 235.832 1645.95 256.093 1674.94 264.225C1783.31 294.622 1655.67 473.215 1405.25 451.291C1170.91 430.775 1114.48 315.378 1020.49 243.663C926.507 171.947 740.543 53.5952 565.939 88.0529C391.339 122.51 692.215 170.758 929.954 167.583C1120.15 165.043 1269.2 192.109 1329.77 206.392Z" stroke="#D94B4B" stroke-opacity="0.3"/>
<path opacity="0.740678" d="M1341.17 210.122C1456.86 239.294 1518.95 267.26 1491.25 296.846C1362.37 434.507 1104.81 323.336 1445.9 261.551C1549.95 242.703 1656.01 264.558 1684.82 273.123C1792.51 305.141 1662.33 481.791 1412.71 456.114C1179.12 432.086 1124.59 315.862 1031.89 242.748C939.195 169.635 755.415 48.5115 580.596 80.3442C405.78 112.177 705.355 164.931 942.707 165.323C1132.59 165.636 1280.94 194.933 1341.17 210.122Z" stroke="#DB4C4C" stroke-opacity="0.3"/>
<path opacity="0.755932" d="M1352.5 213.73C1467.53 244.566 1529.09 273.422 1501 302.604C1370.28 438.384 1114.86 323.518 1456.26 266.661C1560.41 249.316 1665.94 272.697 1694.57 281.676C1801.58 315.241 1668.99 489.985 1420.2 460.714C1187.41 433.322 1134.72 316.33 1043.29 241.892C951.857 167.454 770.233 43.7013 595.258 73.0081C420.283 102.315 718.517 159.379 955.428 163.193C1144.96 166.244 1292.6 197.675 1352.5 213.73Z" stroke="#DD4D4D" stroke-opacity="0.3"/>
<path opacity="0.771186" d="M1363.73 217.202C1478.12 249.617 1539.15 279.316 1510.68 308.107C1378.24 442.064 1124.94 323.698 1466.55 271.553C1570.76 255.646 1675.76 280.477 1704.2 289.849C1810.54 324.884 1675.66 497.773 1427.76 465.078C1195.77 434.484 1144.87 316.784 1054.68 241.099C964.491 165.413 784.982 39.1784 609.899 66.0701C434.817 92.9616 731.689 154.125 968.116 161.203C1157.26 166.865 1304.18 200.324 1363.73 217.202Z" stroke="#DF4E4E" stroke-opacity="0.3"/>
<path opacity="0.786441" d="M1374.89 220.521C1488.62 254.427 1549.13 284.921 1520.32 313.334C1386.27 445.536 1135.06 323.875 1476.77 276.209C1581.01 261.667 1685.48 287.868 1713.75 297.611C1819.41 334.031 1682.39 505.126 1435.38 469.194C1204.23 435.57 1155.04 317.224 1066.06 240.371C977.077 163.518 799.633 34.955 624.491 59.5513C449.353 84.1481 744.846 149.186 980.751 159.355C1169.48 167.491 1315.67 202.867 1374.89 220.521Z" stroke="#E24F4F" stroke-opacity="0.3"/>
<path opacity="0.801695" d="M1385.96 223.675C1499.05 258.979 1559.05 290.214 1529.92 318.267C1394.38 448.794 1145.21 324.054 1486.93 280.611C1591.18 267.358 1695.12 294.842 1723.21 304.933C1828.21 342.65 1689.19 512.027 1443.09 473.053C1212.79 436.583 1165.25 317.65 1077.42 239.712C989.605 161.774 814.156 31.0429 639.009 53.4749C463.858 75.9066 757.975 144.579 993.327 157.657C1181.61 168.119 1327.08 205.294 1385.96 223.675Z" stroke="#E45050" stroke-opacity="0.3"/>
<path opacity="0.816949" d="M1396.96 226.651C1509.41 263.255 1568.93 295.177 1539.5 322.889C1402.59 451.831 1155.39 324.235 1497.05 284.743C1601.28 272.695 1704.7 301.375 1732.61 311.788C1836.96 350.711 1696.1 518.456 1450.91 476.648C1221.48 437.526 1175.47 318.064 1088.77 239.124C1002.07 160.185 828.539 27.4513 653.424 47.8582C478.304 68.2647 771.056 140.32 1005.83 156.112C1193.66 168.746 1338.41 207.593 1396.96 226.651Z" stroke="#E65151" stroke-opacity="0.3"/>
<path opacity="0.832203" d="M1407.89 229.438C1519.72 267.238 1578.76 299.792 1549.07 327.185C1410.91 454.64 1165.61 324.42 1507.13 288.591C1611.32 277.66 1714.22 307.443 1741.96 318.152C1845.68 358.185 1703.14 524.396 1458.86 479.971C1230.28 438.4 1185.73 318.465 1100.09 238.611C1014.44 158.757 842.755 24.1882 667.704 42.718C492.659 61.2472 784.067 136.423 1018.25 154.725C1205.6 169.367 1349.66 209.757 1407.89 229.438Z" stroke="#E85252" stroke-opacity="0.3"/>
<path opacity="0.847458" d="M1418.75 232.023C1529.98 270.914 1588.57 304.042 1558.64 331.139C1419.35 457.217 1175.87 324.611 1517.19 292.14C1621.31 282.234 1723.71 313.021 1751.3 324.002C1854.41 365.046 1710.33 529.828 1466.95 483.014C1239.21 439.206 1196.02 318.854 1111.38 238.172C1026.74 157.49 856.782 21.2581 681.839 38.0661C506.899 54.874 797.003 132.899 1030.58 153.497C1217.45 169.975 1360.83 211.773 1418.75 232.023Z" stroke="#EA5353" stroke-opacity="0.3"/>
<path opacity="0.862712" d="M1429.54 234.397C1540.2 274.273 1598.36 307.916 1568.21 334.742C1427.94 459.561 1186.18 324.81 1527.22 295.38C1631.26 286.402 1733.19 318.096 1760.62 329.32C1863.15 371.275 1717.71 534.75 1475.2 485.777C1248.28 439.95 1206.35 319.233 1122.64 237.812C1038.93 156.391 870.6 18.6688 695.797 33.9179C520.992 49.1669 809.831 129.76 1042.81 152.432C1229.2 170.57 1371.92 213.635 1429.54 234.397Z" stroke="#EC5454" stroke-opacity="0.3"/>
<path opacity="0.877966" d="M1440.27 236.552C1550.38 277.299 1608.16 311.399 1577.82 337.981C1436.68 461.665 1196.52 325.018 1537.24 298.3C1641.18 290.15 1742.66 322.647 1769.94 334.086C1871.92 376.848 1725.28 539.145 1483.63 488.253C1257.5 440.632 1216.7 319.602 1133.86 237.53C1051.02 155.458 884.197 16.422 709.556 30.2811C534.911 44.14 822.546 127.012 1054.93 151.53C1240.83 171.144 1382.93 215.336 1440.27 236.552Z" stroke="#EE5555" stroke-opacity="0.3"/>
<path opacity="0.89322" d="M1450.94 238.48C1560.56 279.985 1617.96 314.481 1587.47 340.848C1445.58 463.531 1206.91 325.238 1547.27 300.892C1651.1 293.465 1752.15 326.662 1779.29 338.289C1880.77 381.753 1733.09 543.002 1492.24 490.441C1266.87 441.257 1227.1 319.963 1145.05 237.328C1063 154.694 897.553 14.5221 723.094 27.1653C548.641 39.8088 835.133 124.666 1066.93 150.794C1252.37 171.697 1393.87 216.869 1450.94 238.48Z" stroke="#F05555" stroke-opacity="0.3"/>
<path opacity="0.908475" d="M1461.57 240.173C1570.71 282.322 1627.77 317.152 1597.15 343.335C1454.66 465.156 1217.34 325.469 1557.3 303.147C1661 296.336 1761.65 330.127 1788.67 341.914C1889.67 385.972 1741.13 546.32 1501.05 492.337C1276.4 441.825 1237.54 320.315 1156.19 237.207C1074.85 154.1 910.65 12.9695 736.401 24.5759C562.146 36.1823 847.574 122.725 1078.8 150.224C1263.78 172.223 1404.74 218.227 1461.57 240.173Z" stroke="#F25656" stroke-opacity="0.3"/>
<path opacity="0.923729" d="M1472.14 241.627C1580.84 284.303 1637.61 319.407 1606.88 345.435C1463.92 466.539 1227.82 325.715 1567.33 305.058C1670.91 298.757 1771.19 333.034 1798.1 344.951C1898.67 389.496 1749.43 549.091 1510.07 493.944C1286.09 442.34 1248.01 320.66 1167.29 237.169C1086.57 153.677 923.478 11.7663 749.45 22.5185C575.421 33.2707 859.864 121.195 1090.54 149.821C1275.08 172.721 1415.53 219.407 1472.14 241.627Z" stroke="#F45757" stroke-opacity="0.3"/>
<path opacity="0.938983" d="M1482.66 242.836C1590.98 285.921 1647.48 321.237 1616.68 347.143C1473.37 467.68 1238.34 325.974 1577.39 306.622C1680.82 300.718 1780.77 335.374 1807.58 347.392C1907.77 392.315 1758.01 551.313 1519.31 495.256C1295.96 442.804 1258.52 320.998 1178.34 237.21C1098.16 153.423 936.032 10.9112 762.241 20.995C588.449 31.0787 871.988 120.078 1102.14 149.583C1286.27 173.187 1426.26 220.403 1482.66 242.836Z" stroke="#F75858" stroke-opacity="0.3"/>
<path opacity="0.954237" d="M1493.14 243.798C1601.12 287.175 1657.39 322.641 1626.54 348.457C1483.01 468.58 1248.91 326.249 1587.47 307.835C1690.75 302.217 1790.41 337.143 1817.12 349.233C1916.98 394.424 1766.86 552.98 1528.78 496.278C1305.99 443.219 1269.08 321.33 1189.35 237.335C1109.62 153.341 948.29 10.4054 774.751 20.0086C601.212 29.6118 883.945 119.378 1113.61 149.512C1297.34 173.619 1436.92 221.214 1493.14 243.798Z" stroke="#F95959" stroke-opacity="0.3"/>
<path opacity="0.969492" d="M1503.57 244.51C1611.26 288.06 1667.34 323.613 1636.47 349.375C1492.85 469.238 1259.53 326.541 1597.58 308.693C1700.7 303.249 1800.1 338.335 1826.73 350.467C1926.3 395.818 1776.01 554.098 1538.47 497.008C1316.2 443.586 1279.68 321.655 1200.31 237.541C1120.93 153.427 960.258 10.2465 786.983 19.5587C613.702 28.8709 895.724 119.094 1124.92 149.606C1308.28 174.016 1447.5 221.835 1503.57 244.51Z" stroke="#FB5A5A" stroke-opacity="0.3"/>
<path opacity="0.984746" d="M1513.97 244.971C1621.4 288.575 1677.33 324.155 1646.48 349.895C1502.9 469.656 1270.2 326.848 1607.71 309.198C1710.68 303.813 1809.84 338.951 1836.42 351.096C1935.75 396.497 1785.45 554.664 1548.39 497.448C1326.58 443.907 1290.32 321.975 1211.21 237.829C1132.11 153.684 971.93 10.4344 798.923 19.6456C625.917 28.8567 907.326 119.227 1136.1 149.866C1319.12 174.377 1458.03 222.268 1513.97 244.971Z" stroke="#FD5B5B" stroke-opacity="0.3"/>
<path d="M1524.31 245.182C1631.54 288.722 1687.37 324.267 1656.55 350.018C1513.15 469.835 1280.9 327.172 1617.87 309.348C1720.66 303.911 1819.65 338.991 1846.18 351.121C1945.32 396.462 1795.18 554.68 1558.55 497.598C1337.13 444.182 1300.99 322.29 1222.07 238.199C1143.13 154.109 983.3 10.9666 810.579 20.2667C637.852 29.5668 918.745 119.775 1147.12 150.289C1329.82 174.7 1468.48 222.511 1524.31 245.182Z" stroke="#FF5C5C" stroke-opacity="0.3"/>
</g>
<defs>
<clipPath id="clip0_150_6860">
<rect width="1130" height="384" fill="white"/>
</clipPath>
</defs>
</svg>
