<svg width="1440" height="230" viewBox="0 0 1440 230" fill="none" xmlns="http://www.w3.org/2000/svg">
<g clip-path="url(#clip0_150_6317)">
<path opacity="0.1" d="M144.344 245.981C143.752 254.796 142.515 271.02 139.945 303.056C136.17 350.182 133.929 377.027 132.439 395.005C129.832 426.587 130.15 420.585 126.26 469.884C122.987 511.41 120.463 544.324 126.431 469.897C132.574 393.329 138.919 314.254 141.952 277.323C144.761 243.154 144.577 246.672 144.332 250.082C143.414 262.827 128.142 453.027 127.749 456.414C127.254 460.734 133.577 379.201 137.742 325.697C141.896 272.192 148.382 188.364 143.659 245.927C138.937 303.489 139.078 305.037 142.264 267.606C144.817 237.661 144.648 241.39 144.344 245.981Z" stroke="#FF0000" stroke-opacity="0.3"/>
<path opacity="0.115254" d="M158.238 243.164C159.874 252.291 160.012 268.911 157.406 301.543C153.59 349.551 149.516 376.778 147.082 395.03C142.8 427.092 139.736 420.755 137.108 471.061C134.879 513.434 134.749 547.124 140.868 471.311C147.156 393.318 153.674 312.773 158.201 275.248C162.401 240.531 164.191 244.245 164.526 247.758C165.753 260.883 149.65 454.592 146.847 457.884C143.256 462.08 145.494 378.749 147.175 324.078C148.867 269.408 150.781 183.709 143.72 242.195C136.671 300.681 142.283 302.621 149.236 264.737C154.788 234.429 157.385 238.411 158.238 243.164Z" stroke="#FF0000" stroke-opacity="0.3"/>
<path opacity="0.130508" d="M173.287 240.276C178.211 249.712 180.319 266.722 177.547 299.953C173.464 348.837 166.561 376.449 162.642 394.975C155.747 427.52 147.7 420.855 146.733 472.163C145.906 515.379 149.198 549.838 155.824 472.643C162.646 393.23 169.746 311.217 176.655 273.1C183.046 237.831 187.771 241.739 188.947 245.352C193.313 258.853 175.212 456.063 168.79 459.262C160.61 463.342 157.074 378.225 155.299 322.395C153.523 266.567 148.97 179.008 138.221 238.42C127.471 297.834 141.205 300.152 153.904 261.81C164.054 231.136 170.726 235.364 173.287 240.276Z" stroke="#FF0000" stroke-opacity="0.3"/>
<path opacity="0.145763" d="M188.161 237.234C196.386 246.88 200.482 264.225 197.587 298.067C193.32 347.849 183.63 375.937 178.242 394.787C168.785 427.903 155.736 421.058 156.501 473.328C157.155 517.36 163.914 552.492 170.943 473.88C178.174 393.009 185.733 309.493 194.967 270.7C203.516 234.807 211.178 238.821 213.199 242.509C220.726 256.294 200.915 457.115 190.892 460.334C178.104 464.435 168.678 377.684 163.347 320.787C158.027 263.89 146.866 174.643 132.497 235.109C118.139 295.574 140.015 298.028 158.408 259.045C173.123 227.858 183.875 232.21 188.161 237.234Z" stroke="#FF0000" stroke-opacity="0.3"/>
<path opacity="0.161017" d="M202.863 234.025C214.403 243.778 220.526 261.399 217.538 295.863C213.15 346.562 200.704 375.225 193.882 394.452C181.906 428.23 163.844 421.367 166.422 474.559C168.595 519.367 178.878 555.069 186.207 475.008C193.743 392.644 201.646 307.586 213.154 268.031C223.806 231.433 234.418 235.458 237.285 239.195C247.998 253.167 226.755 457.71 213.115 461.064C195.721 465.336 180.285 377.121 171.331 319.255C162.389 261.391 144.498 170.647 126.6 232.299C108.702 293.95 138.722 296.276 162.771 256.457C181.994 224.6 196.844 228.945 202.863 234.025Z" stroke="#FF0000" stroke-opacity="0.3"/>
<path opacity="0.176271" d="M217.393 230.648C232.263 240.398 240.423 258.23 237.404 293.331C232.957 344.966 217.795 374.306 209.565 393.966C195.111 428.502 172.014 421.789 176.465 475.856C180.227 521.4 194.07 557.563 201.595 476.017C209.333 392.127 217.477 305.49 231.216 265.085C243.928 227.701 257.491 231.637 261.22 235.398C275.133 249.449 252.692 457.82 235.451 461.434C213.474 466.04 191.906 376.538 179.261 317.813C166.617 259.086 141.893 167.052 120.534 230.027C99.1753 293.003 137.356 294.924 166.99 254.062C190.701 221.374 209.644 225.571 217.393 230.648Z" stroke="#FF0000" stroke-opacity="0.3"/>
<path opacity="0.191525" d="M231.761 227.102C249.976 236.733 260.192 254.709 257.174 290.459C252.72 343.045 234.882 373.169 225.259 393.316C208.367 428.708 180.255 422.323 186.64 477.215C192.018 523.452 209.479 559.961 217.108 476.9C224.954 391.451 233.246 303.202 249.163 261.856C263.893 223.601 280.4 227.345 284.984 231.096C302.11 245.12 278.718 457.423 257.88 461.426C231.319 466.528 203.54 375.931 187.136 316.459C170.732 256.987 139.071 163.873 114.33 228.315C89.5989 292.758 135.913 293.983 171.095 251.87C199.24 218.18 222.286 222.087 231.761 227.102Z" stroke="#FF0000" stroke-opacity="0.3"/>
<path opacity="0.20678" d="M246.001 223.39C267.543 232.782 279.835 250.835 276.849 287.243C272.451 340.8 251.966 371.812 240.985 392.503C221.686 428.849 188.547 422.969 196.926 478.633C203.98 525.522 225.054 562.255 232.713 477.65C240.586 390.612 248.933 300.718 266.986 258.34C283.691 219.131 303.144 222.576 308.587 226.291C328.931 240.174 304.8 456.51 280.381 461.032C249.247 466.796 215.188 375.303 194.966 315.2C174.754 255.097 136.083 161.129 108.038 227.179C79.9824 293.228 134.425 293.466 175.097 249.889C207.634 215.027 234.78 218.498 246.001 223.39Z" stroke="#FF0000" stroke-opacity="0.3"/>
<path opacity="0.222034" d="M260.099 219.513C284.985 228.554 299.362 246.613 296.439 283.689C292.138 338.229 269.036 370.234 256.71 391.524C235.057 428.923 196.898 423.727 207.302 480.109C216.059 527.6 240.794 564.44 248.401 478.264C256.228 389.612 264.559 298.044 284.706 254.544C303.342 214.296 325.745 217.34 332.051 220.987C355.616 234.619 330.919 455.076 302.922 460.25C267.248 466.843 226.829 374.648 202.761 314.035C178.693 253.422 132.962 158.821 101.67 226.619C70.368 294.415 132.913 293.374 179.027 248.121C215.913 211.918 247.146 214.806 260.099 219.513Z" stroke="#FF0101" stroke-opacity="0.3"/>
<path opacity="0.237288" d="M274.088 215.48C302.3 224.052 318.771 242.049 315.932 279.803C311.769 335.341 286.08 368.439 272.436 390.382C248.448 428.927 205.301 424.593 217.757 481.636C228.256 529.687 256.645 566.515 264.15 478.745C271.87 388.451 280.123 295.183 302.321 250.474C322.855 209.106 348.19 211.645 355.362 215.196C382.142 228.466 357.04 453.134 325.493 459.084C285.288 466.671 238.483 373.972 210.533 312.965C182.593 251.961 129.75 156.95 95.2699 226.628C60.7791 296.306 131.39 293.697 182.896 246.564C224.099 208.857 259.406 211.018 274.088 215.48Z" stroke="#FF0000" stroke-opacity="0.3"/>
<path opacity="0.252542" d="M287.99 211.302C319.521 219.293 338.073 237.163 335.349 275.602C331.355 332.148 303.109 366.439 288.15 389.084C261.88 428.868 213.755 425.564 228.281 483.214C240.528 531.778 272.588 568.48 279.939 479.093C287.5 387.137 295.624 292.145 319.841 246.144C342.242 203.581 370.509 205.516 378.53 208.941C408.529 221.744 383.141 450.699 348.059 457.55C303.357 466.285 250.141 373.275 218.304 311.991C186.467 250.706 126.494 155.499 88.8734 227.188C51.2525 298.878 129.889 294.425 186.739 245.214C232.204 205.843 271.57 207.141 287.99 211.302Z" stroke="#FF0000" stroke-opacity="0.3"/>
<path opacity="0.267797" d="M301.811 206.985C336.654 214.292 357.285 231.972 354.685 271.102C350.87 328.665 320.098 364.24 303.852 387.638C275.31 428.743 222.228 426.627 238.864 484.838C252.865 533.869 288.587 570.338 295.755 479.316C303.117 385.676 311.072 288.938 337.285 241.568C361.528 197.739 392.699 198.976 401.583 202.249C434.78 214.486 409.194 447.798 370.605 455.666C321.42 465.695 261.79 372.554 226.052 311.099C190.325 249.646 123.228 154.447 82.5158 228.267C41.8033 302.086 128.434 295.533 190.567 244.059C240.27 202.878 283.669 203.18 301.811 206.985Z" stroke="#FF0000" stroke-opacity="0.3"/>
<path opacity="0.283051" d="M315.585 202.542C353.708 209.068 376.414 226.501 373.96 266.33C370.334 324.919 337.068 361.862 319.538 386.056C288.747 428.559 230.744 427.777 249.464 486.497C265.224 535.959 304.6 572.095 311.554 479.419C318.718 384.082 326.485 285.578 354.662 236.768C380.735 191.607 414.797 192.06 424.526 195.156C460.901 206.733 435.185 444.469 393.098 453.457C339.465 464.918 273.442 371.813 233.822 310.289C194.203 248.767 120.001 153.762 76.225 229.822C32.46 305.882 127.031 296.99 194.414 243.082C248.319 199.957 295.735 199.144 315.585 202.542Z" stroke="#FF0000" stroke-opacity="0.3"/>
<path opacity="0.298305" d="M329.33 197.989C370.724 203.648 395.491 220.783 393.171 261.315C389.743 320.938 353.984 359.321 335.187 384.352C302.171 428.323 239.272 429.007 260.07 488.193C277.594 538.049 320.582 573.761 327.334 479.419C334.282 382.367 341.853 282.082 371.99 231.768C399.878 185.218 436.811 184.81 447.387 187.709C486.93 198.545 461.076 440.756 415.531 450.963C357.478 463.973 285.086 371.054 241.605 309.552C198.124 248.05 116.859 153.411 70.0504 231.809C23.2314 310.205 125.706 298.76 198.304 242.27C256.374 197.076 307.778 195.042 329.33 197.989Z" stroke="#FF0000" stroke-opacity="0.3"/>
<path opacity="0.313559" d="M343.076 193.34C387.718 198.06 414.53 214.851 412.332 256.09C409.102 316.756 370.864 356.643 350.806 382.544C315.566 428.042 247.812 430.305 270.671 489.921C289.92 540.138 336.519 575.352 343.072 479.331C349.816 380.549 357.213 278.469 389.296 226.599C418.985 178.609 458.775 177.273 470.191 179.955C512.877 189.98 486.869 436.716 437.866 448.22C375.422 462.885 296.731 370.282 249.411 308.877C202.101 247.473 113.819 153.342 63.9885 234.162C14.1578 314.982 124.463 300.8 202.241 241.594C264.478 194.232 319.838 190.884 343.076 193.34Z" stroke="#FF0000" stroke-opacity="0.3"/>
<path opacity="0.328814" d="M356.855 188.613C404.72 192.331 433.56 208.744 431.474 250.694C428.408 312.404 387.705 353.852 366.383 380.649C328.935 427.725 256.345 431.656 281.227 491.673C302.192 542.228 352.346 576.88 358.744 479.169C365.308 378.646 372.565 274.76 406.6 221.288C438.085 171.814 480.706 169.498 492.963 171.947C538.77 181.104 512.525 432.405 460.111 445.275C393.297 461.681 308.357 369.496 257.254 308.252C206.151 247.009 110.945 153.504 58.0825 236.816C5.22026 320.128 123.321 303.06 206.271 241.034C272.633 191.413 331.938 186.678 356.855 188.613Z" stroke="#FF0000" stroke-opacity="0.3"/>
<path opacity="0.344068" d="M370.685 183.824C421.748 186.494 452.598 202.502 450.611 245.168C447.688 307.929 404.514 350.977 381.925 378.692C342.254 427.381 264.861 433.053 291.736 493.448C314.367 544.321 368.06 578.366 374.326 478.954C380.764 376.683 387.916 270.976 423.918 215.869C457.224 164.882 502.661 161.544 515.74 163.749C564.639 171.992 538.067 427.895 482.234 442.18C411.075 460.389 319.984 368.702 265.146 307.667C210.308 246.631 108.252 153.839 52.341 239.695C-3.55981 325.553 122.287 305.485 210.398 240.557C280.893 188.615 344.096 182.433 370.685 183.824Z" stroke="#FF0000" stroke-opacity="0.3"/>
<path opacity="0.359322" d="M384.608 178.988C438.85 180.583 471.69 196.17 469.771 239.552C466.946 303.37 421.287 348.044 397.429 376.693C355.509 427.02 273.352 434.476 302.156 495.237C326.433 546.421 383.593 579.827 389.804 478.706C396.183 374.676 403.306 267.142 441.289 210.375C476.42 157.851 524.665 153.466 538.566 155.42C590.529 162.721 563.465 423.252 504.241 438.987C428.751 459.043 331.6 367.902 273.079 307.1C214.567 246.301 105.763 154.278 46.7859 242.718C-12.2014 331.156 121.358 308.015 214.637 240.13C289.271 185.822 356.367 178.158 384.608 178.988Z" stroke="#FF0000" stroke-opacity="0.3"/>
<path opacity="0.374576" d="M398.652 174.13C456.054 174.636 490.853 189.793 488.969 233.896C486.197 298.775 438.031 345.087 412.882 374.676C368.7 426.655 281.787 435.916 312.478 497.039C338.335 548.529 398.932 581.285 405.153 478.447C411.56 372.654 418.731 263.284 458.73 204.845C495.729 150.776 546.762 145.33 561.475 147.029C616.483 153.379 588.728 418.558 526.112 435.755C446.301 457.676 343.196 367.098 281.075 306.544C218.953 245.992 103.527 154.758 41.4069 245.797C-20.702 336.837 120.532 310.588 219.014 239.722C297.8 183.03 368.769 173.867 398.652 174.13Z" stroke="#FF0000" stroke-opacity="0.3"/>
<path opacity="0.38983" d="M412.849 169.267C473.388 168.689 510.124 183.419 508.23 228.247C505.459 294.19 454.763 342.14 428.3 372.668C381.815 426.298 290.179 437.357 322.679 498.85C350.052 550.649 414.041 582.764 420.382 478.206C426.904 370.64 434.222 259.428 476.278 199.318C515.19 143.702 569 137.202 584.524 138.646C642.554 144.049 613.859 413.889 547.861 432.547C463.73 456.328 354.791 366.299 289.136 305.982C223.482 245.666 101.543 155.205 36.2268 248.845C-29.0793 342.486 119.827 313.141 223.534 239.298C306.494 180.221 381.335 169.568 412.849 169.267Z" stroke="#FF0000" stroke-opacity="0.3"/>
<path opacity="0.405085" d="M427.238 164.419C490.9 162.781 529.539 177.1 527.604 222.654C524.745 289.664 471.479 339.236 443.682 370.695C394.841 425.96 298.486 438.781 332.719 500.66C361.562 552.783 428.886 584.284 435.455 477.999C442.211 368.66 449.794 255.601 493.962 193.832C534.828 136.68 591.412 129.144 607.736 130.343C668.774 134.821 638.856 409.33 569.469 429.421C481.022 455.032 366.364 365.503 297.266 305.395C228.169 245.288 99.8339 155.548 31.2361 251.768C-37.3511 347.99 119.22 315.607 228.202 238.82C315.396 177.39 394.084 165.271 427.238 164.419Z" stroke="#FF0000" stroke-opacity="0.3"/>
<path opacity="0.420339" d="M441.838 159.607C508.608 156.949 549.146 170.885 547.092 217.165C544.071 285.245 488.195 336.406 459.024 368.781C407.776 425.654 306.7 440.175 342.597 502.466C372.832 554.937 443.441 585.867 450.357 477.854C457.478 366.736 465.478 251.833 511.818 188.428C554.7 129.765 614.053 121.23 631.176 122.191C695.196 125.785 663.736 404.958 590.951 426.44C498.162 453.823 377.925 364.716 305.466 304.769C232.997 244.821 98.4177 155.712 26.4358 254.475C-45.5355 353.24 118.699 317.917 233.043 238.254C324.519 174.523 407.068 160.991 441.838 159.607Z" stroke="#FF0000" stroke-opacity="0.3"/>
<path opacity="0.435593" d="M456.68 154.853C526.57 151.237 568.959 164.824 566.734 211.832C563.473 280.982 504.908 333.685 474.333 366.952C420.618 425.39 314.812 441.522 352.282 504.26C383.84 557.107 457.682 587.534 465.097 477.794C472.723 364.898 481.27 248.146 529.875 183.146C574.843 123.007 636.969 113.526 654.889 114.266C721.875 117.032 688.507 400.858 612.296 423.667C515.155 452.74 389.473 363.943 313.738 304.086C238.003 244.231 97.3049 155.626 21.8171 256.873C-53.6601 358.122 118.271 320.003 238.063 237.563C333.886 171.609 420.288 156.736 456.68 154.853Z" stroke="#FF0000" stroke-opacity="0.3"/>
<path opacity="0.450847" d="M471.802 150.183C544.792 145.685 589.025 158.973 586.574 206.709C582.957 276.929 521.645 331.112 489.616 365.237C433.346 425.182 322.813 442.808 361.753 506.038C394.564 559.302 471.585 589.307 479.639 477.841C487.943 363.172 497.209 244.577 548.158 178.032C595.293 116.463 660.194 106.104 678.908 106.643C748.858 108.658 713.181 397.113 633.531 421.164C531.997 451.822 401.009 363.188 322.085 303.334C243.172 243.483 96.5045 155.224 17.3806 258.876C-61.7433 362.528 117.915 321.805 243.256 236.716C343.52 168.644 433.793 152.525 471.802 150.183Z" stroke="#FF0000" stroke-opacity="0.3"/>
<path opacity="0.466102" d="M487.224 145.619C563.322 140.333 609.371 153.381 606.608 201.843C602.546 273.132 538.401 328.716 504.87 363.658C445.968 425.04 330.684 444.016 371.001 507.791C404.972 561.513 485.116 591.199 494.002 478.017C503.134 361.579 513.302 241.15 566.695 173.124C616.086 110.184 683.785 99.034 703.288 99.3964C776.187 100.75 737.768 393.798 654.643 418.988C548.684 451.098 412.52 362.452 330.518 302.498C248.516 242.545 96.0141 154.436 13.1054 260.392C-69.8141 366.347 117.626 323.254 248.635 235.678C353.442 165.617 447.604 148.371 487.224 145.619Z" stroke="#FF0000" stroke-opacity="0.3"/>
<path opacity="0.481356" d="M502.975 141.183C582.188 135.223 630.033 148.099 626.882 197.283C622.248 269.635 555.205 326.529 520.114 362.239C458.482 424.972 338.406 445.126 380.004 509.508C415.043 563.74 498.283 593.228 508.162 478.338C518.315 360.143 529.578 237.892 585.512 168.462C637.259 104.223 707.766 92.3807 728.056 92.5946C803.903 93.3961 762.282 390.986 675.644 417.194C565.211 450.601 424.027 361.741 339.04 301.564C254.041 241.386 95.8536 153.199 8.98142 261.338C-77.8909 369.478 117.392 324.289 254.206 234.418C363.654 162.521 461.73 144.286 502.975 141.183Z" stroke="#FF0000" stroke-opacity="0.3"/>
<path opacity="0.49661" d="M519.072 136.902C601.406 130.397 651.024 143.177 647.411 193.08C642.097 266.488 572.043 324.58 535.333 361.001C470.866 424.986 345.98 446.126 388.754 511.182C424.777 565.981 511.052 595.405 522.106 478.821C533.483 358.887 546.033 234.832 604.627 164.089C658.836 98.6348 732.17 86.2146 753.249 86.3135C832.042 86.6854 786.731 388.75 696.539 415.835C581.574 450.358 435.51 361.055 347.63 300.516C259.75 239.977 96.0191 151.455 5.01804 261.639C-85.9937 371.822 117.209 324.855 259.961 232.909C374.168 159.352 476.191 140.288 519.072 136.902Z" stroke="#FF0000" stroke-opacity="0.3"/>
<path opacity="0.511864" d="M535.524 132.8C621.002 125.893 672.373 138.666 668.212 189.278C662.085 263.731 588.921 322.899 550.547 359.969C483.131 425.09 353.398 446.997 397.23 512.8C434.153 568.23 523.411 597.738 535.842 479.484C548.646 357.832 562.685 231.995 624.065 160.044C680.843 93.4706 757.025 80.5992 778.892 80.6204C860.633 80.6995 811.123 387.155 717.33 414.958C597.771 450.399 446.988 360.401 356.312 299.347C265.647 238.295 96.5172 149.155 1.19243 261.222C-94.1322 373.289 117.062 324.898 265.924 231.128C385.016 156.112 491.015 136.396 535.524 132.8Z" stroke="#FF0000" stroke-opacity="0.3"/>
<path opacity="0.527119" d="M552.36 128.905C640.983 121.753 694.083 134.61 689.286 185.923C682.229 261.408 605.857 321.515 565.743 359.16C495.275 425.292 360.641 447.726 405.433 514.356C443.151 570.479 535.348 600.234 549.369 480.339C563.791 356.997 579.553 229.413 643.823 156.365C703.298 88.7811 782.349 75.5991 805.006 75.5823C889.695 75.5188 835.463 386.26 738.02 414.609C613.808 450.746 458.441 359.78 365.087 298.051C271.734 236.321 97.3439 146.256 -2.48613 260.026C-102.327 373.795 116.949 324.37 272.089 229.055C396.197 152.801 506.213 132.628 552.36 128.905Z" stroke="#FF0000" stroke-opacity="0.3"/>
<path opacity="0.542373" d="M569.566 125.236C661.366 118.01 716.172 131.051 710.652 183.052C702.532 259.549 622.849 320.446 580.929 358.587C507.287 425.591 367.732 448.297 413.345 515.83C451.783 572.717 546.865 602.892 562.676 481.39C578.938 356.396 596.622 227.101 663.928 153.088C726.205 84.6097 808.153 71.2684 831.599 71.2564C919.24 71.2117 859.753 386.114 758.607 414.822C629.673 451.415 469.879 359.191 373.946 296.611C278.003 234.03 98.5251 142.717 -6.03239 257.99C-110.579 373.265 116.873 323.226 278.447 226.665C407.712 149.418 521.77 128.999 569.566 125.236Z" stroke="#FF0000" stroke-opacity="0.3"/>
<path opacity="0.557627" d="M587.17 121.823C682.143 114.701 738.64 128.032 732.308 180.706C722.995 258.191 639.904 319.717 596.103 358.269C519.177 425.994 374.64 448.695 420.987 517.216C460.029 574.934 557.949 605.712 575.751 482.646C594.063 356.043 613.901 225.085 684.373 150.246C749.569 81.0019 834.439 67.6634 858.675 67.7021C949.27 67.8471 883.99 386.763 779.091 415.628C645.378 452.423 481.312 358.64 382.889 295.027C284.466 231.414 100.033 138.509 -9.41882 255.074C-118.881 371.637 116.84 321.435 285.02 223.955C419.56 145.971 537.718 125.532 587.17 121.823Z" stroke="#FF0000" stroke-opacity="0.3"/>
<path opacity="0.572881" d="M605.148 118.687C703.315 111.858 761.481 125.589 754.249 178.916C743.611 257.361 656.995 319.342 611.264 358.213C530.934 426.5 381.378 448.908 428.34 518.498C467.89 577.117 568.613 608.69 588.613 484.111C609.185 355.95 631.397 223.388 705.15 147.869C773.387 77.9977 861.201 64.8309 886.227 64.9683C979.776 65.4818 908.168 388.24 799.466 417.052C660.905 453.779 492.718 358.124 391.927 293.294C291.125 228.464 101.901 133.617 -12.6624 251.239C-127.225 368.861 116.842 318.965 291.799 220.912C431.761 142.468 554.03 122.242 605.148 118.687Z" stroke="#FF0000" stroke-opacity="0.3"/>
<path opacity="0.588136" d="M623.497 115.849C724.874 109.508 784.684 123.754 776.465 177.709C764.375 257.08 674.137 319.337 626.41 358.431C542.56 427.107 387.958 448.923 435.417 519.666C475.379 579.253 578.835 611.812 601.244 485.781C624.293 356.126 649.098 222.024 726.254 145.984C797.643 75.6312 888.424 62.812 914.24 63.0973C1010.74 64.1644 932.277 390.571 819.727 419.111C676.259 455.49 504.108 357.646 401.049 291.411C297.98 225.173 104.12 128.025 -15.7384 246.46C-135.607 364.893 116.904 315.797 298.785 217.531C444.282 138.915 570.716 119.151 623.497 115.849Z" stroke="#FF0000" stroke-opacity="0.3"/>
<path opacity="0.60339" d="M642.216 113.331C746.8 107.677 808.232 122.549 798.941 177.109C785.275 257.368 691.317 319.71 641.531 358.926C554.064 427.815 394.382 448.733 442.218 520.705C482.508 581.331 588.651 615.073 613.664 487.657C639.387 356.577 666.986 221.007 747.669 144.614C822.319 73.9319 916.084 61.6402 942.689 62.1243C1042.14 63.9333 956.308 393.772 839.865 421.814C691.438 457.558 515.483 357.207 410.257 289.376C305.042 221.545 106.692 121.734 -18.644 240.724C-143.991 359.713 117.017 311.917 305.978 213.813C457.143 135.328 587.763 116.275 642.216 113.331Z" stroke="#FF0000" stroke-opacity="0.3"/>
<path opacity="0.618644" d="M661.278 111.147C769.072 106.381 832.1 121.995 821.655 177.128C806.291 258.23 708.528 320.464 656.622 359.697C565.436 428.617 400.65 448.326 448.757 521.604C489.29 583.331 598.051 618.451 625.852 489.727C654.457 357.301 685.055 220.348 769.374 143.771C847.389 72.9195 944.15 61.3378 971.542 62.0712C1073.93 64.8125 980.242 397.846 859.871 425.16C706.439 459.977 526.841 356.805 419.571 287.192C312.289 217.579 109.626 114.747 -21.3688 234.025C-152.363 353.304 117.203 307.321 313.387 209.762C470.331 131.715 605.147 113.626 661.278 111.147Z" stroke="#FF0000" stroke-opacity="0.3"/>
<path opacity="0.633898" d="M680.654 109.309C791.661 105.634 856.256 122.103 844.582 177.776C827.407 259.673 725.757 321.603 671.684 360.747C576.688 429.511 406.786 447.7 455.067 522.357C495.728 585.244 607.058 621.935 637.836 491.986C669.496 358.3 703.287 220.054 791.343 143.469C872.815 72.6111 972.582 61.9217 1000.76 62.9551C1106.07 66.8176 1004.06 402.788 879.735 429.146C721.26 462.743 538.184 356.44 428.968 284.865C319.741 213.288 112.929 107.088 -23.8821 226.38C-160.694 345.673 117.482 302.015 321.001 205.391C483.812 128.089 622.855 111.223 680.654 109.309Z" stroke="#FF0000" stroke-opacity="0.3"/>
<path opacity="0.649153" d="M700.324 107.828C814.533 105.442 880.668 122.876 867.69 179.053C848.6 261.691 742.994 323.119 686.707 362.068C587.832 430.49 412.799 446.852 461.139 522.951C501.855 587.053 615.695 625.505 649.611 494.42C684.501 359.566 721.662 220.127 813.545 143.711C898.559 73.0093 1001.33 63.3924 1030.29 64.7755C1138.51 69.9454 1027.75 408.581 899.447 433.753C735.905 465.838 549.511 356.112 438.449 282.398C327.397 208.685 116.579 98.7735 -26.1752 217.808C-168.94 336.841 117.854 296.012 328.819 200.709C497.586 124.466 640.854 109.071 700.324 107.828Z" stroke="#FF0000" stroke-opacity="0.3"/>
<path opacity="0.664407" d="M720.253 106.709C837.651 105.803 905.294 124.307 890.949 180.95C869.846 264.274 760.226 325.004 701.687 363.652C598.858 431.545 418.713 445.781 467.005 523.381C507.695 588.748 623.979 629.139 661.188 497.015C699.466 361.093 740.158 220.562 835.949 144.493C924.576 74.1116 1030.35 65.7424 1060.08 67.5235C1171.2 74.1808 1051.29 415.195 918.998 438.958C750.372 469.248 560.813 355.816 448.023 279.8C335.233 203.784 120.592 89.8443 -28.2419 208.344C-177.075 326.842 118.359 289.337 336.847 195.738C511.628 120.858 659.123 107.179 720.253 106.709Z" stroke="#FF0000" stroke-opacity="0.3"/>
<path opacity="0.679661" d="M740.404 105.948C860.973 106.707 930.091 126.383 914.319 183.452C891.117 267.402 777.437 327.243 716.616 365.486C609.777 432.667 424.535 444.493 472.699 523.644C513.269 590.318 631.939 632.819 672.576 499.755C714.381 362.867 758.751 221.352 858.512 145.803C950.814 75.9037 1059.59 68.9504 1090.08 71.1754C1204.06 79.4922 1074.66 422.59 938.377 444.73C764.667 472.951 572.11 355.554 457.688 277.082C343.266 198.612 124.95 80.3409 -30.0576 198.036C-185.065 315.731 118.99 282.022 345.062 190.498C525.924 117.279 677.625 105.553 740.404 105.948Z" stroke="#FF0000" stroke-opacity="0.3"/>
<path opacity="0.694915" d="M760.742 105.539C884.454 108.135 955.016 129.075 937.765 186.528C912.391 271.043 794.617 329.813 731.49 367.552C620.592 433.845 430.279 442.988 478.231 523.737C518.624 591.755 639.611 636.52 683.793 502.62C729.246 364.869 777.417 222.482 881.199 147.622C977.222 78.3585 1088.97 72.98 1120.22 75.6919C1237.03 85.8292 1097.84 430.712 957.582 451.027C778.796 476.921 583.382 355.318 467.422 274.252C351.473 193.188 129.647 70.3121 -31.6174 186.941C-192.882 303.568 119.766 274.106 353.472 185.013C540.432 113.739 696.329 104.186 760.742 105.539Z" stroke="#FF0000" stroke-opacity="0.3"/>
<path opacity="0.710169" d="M781.222 105.469C908.046 110.064 980.019 132.352 961.25 190.148C933.64 275.167 811.752 332.693 746.303 369.831C631.325 435.072 435.984 441.285 483.645 523.664C523.792 593.056 647.027 640.228 694.852 505.592C744.053 367.085 796.128 223.935 903.968 149.922C1003.75 81.4436 1118.45 77.7863 1150.45 81.0249C1270.05 93.1306 1120.83 439.504 976.607 457.803C792.765 481.13 594.64 355.108 477.245 271.327C359.849 187.545 134.655 59.8169 -32.9207 175.131C-200.497 290.445 120.701 265.643 362.051 179.314C555.128 110.25 715.188 103.078 781.222 105.469Z" stroke="#FF0000" stroke-opacity="0.3"/>
<path opacity="0.725424" d="M801.804 105.722C931.706 112.457 1005.06 136.168 984.734 194.265C954.841 279.729 828.833 335.854 761.055 372.305C641.989 436.338 441.649 439.393 488.961 523.432C528.804 594.22 654.229 643.923 705.773 508.652C758.799 369.492 814.859 225.686 926.778 152.67C1030.33 85.1127 1147.97 83.309 1180.7 87.1098C1303.06 101.317 1143.62 448.892 995.454 465.006C806.588 485.546 605.883 354.924 487.132 268.319C368.37 181.714 139.965 48.9215 -33.9569 162.691C-207.879 276.46 121.797 256.694 370.783 173.432C569.978 106.823 734.166 102.215 801.804 105.722Z" stroke="#FF0000" stroke-opacity="0.3"/>
<path opacity="0.740678" d="M822.442 106.267C955.385 115.267 1030.08 140.465 1008.18 198.825C975.971 284.675 845.85 339.254 775.742 374.94C652.584 437.63 447.304 437.331 494.2 523.044C533.705 595.245 661.26 647.585 716.576 511.776C773.484 372.06 833.584 227.703 949.588 155.816C1056.92 89.305 1177.46 89.4708 1210.92 93.8645C1336 110.288 1166.21 458.792 1014.13 472.57C820.277 490.132 617.114 354.756 497.072 265.24C377.04 175.726 145.535 37.6881 -34.7373 149.704C-215.01 261.721 123.058 247.32 379.665 167.399C584.948 103.462 753.223 101.58 822.442 106.267Z" stroke="#FF0000" stroke-opacity="0.3"/>
<path opacity="0.755932" d="M843.097 107.074C979.04 118.445 1055.05 145.182 1031.57 203.767C997.015 289.948 862.797 342.861 790.366 377.714C663.129 438.938 452.969 435.119 499.415 522.517C538.538 596.137 668.169 651.203 727.288 514.942C788.107 374.764 852.281 229.95 972.363 159.312C1083.47 93.9547 1206.87 96.1874 1241.05 101.199C1368.8 119.934 1188.59 469.117 1032.64 480.431C833.854 494.853 628.332 354.602 507.073 262.109C385.825 169.618 151.335 26.1923 -35.2855 136.273C-221.895 246.353 124.484 237.597 388.66 161.249C599.997 100.17 772.316 101.153 843.097 107.074Z" stroke="#FF0000" stroke-opacity="0.3"/>
<path opacity="0.771186" d="M863.725 108.106C1002.63 121.928 1079.93 150.245 1054.85 209.022C1017.95 295.485 879.669 346.63 804.932 380.592C673.641 440.251 458.66 432.781 504.624 521.867C543.343 596.91 675.003 654.763 737.934 518.133C802.672 377.575 870.927 232.391 995.064 163.096C1109.92 98.9847 1236.15 103.361 1271.04 109.012C1401.43 130.133 1210.78 479.771 1051 488.519C847.336 499.671 639.537 354.461 517.111 258.942C394.696 163.425 157.311 14.5096 -35.6056 122.504C-228.533 230.496 126.064 227.604 397.752 155.021C615.1 96.9546 791.403 100.909 863.725 108.106Z" stroke="#FF0000" stroke-opacity="0.3"/>
<path opacity="0.786441" d="M884.285 109.319C1026.1 125.652 1104.68 155.572 1078.01 214.513C1038.78 301.218 896.465 350.516 819.441 383.544C684.133 441.564 464.397 430.348 509.868 521.116C548.162 597.573 681.815 658.257 748.539 521.326C817.183 380.457 889.501 234.977 1017.66 167.105C1136.23 104.309 1265.26 110.884 1300.84 117.187C1433.83 140.747 1232.8 490.65 1069.24 496.758C860.751 504.546 650.739 354.327 527.184 255.757C403.637 157.189 163.43 2.72246 -35.7446 108.509C-234.919 214.297 127.787 217.429 406.903 148.752C630.193 93.8106 810.444 100.815 884.285 109.319Z" stroke="#FF0000" stroke-opacity="0.3"/>
<path opacity="0.801695" d="M904.74 110.662C1049.44 129.538 1129.26 161.075 1101.02 220.157C1059.49 307.067 913.188 354.469 833.903 386.532C694.624 442.86 470.186 427.846 515.156 520.28C553.037 598.144 688.659 661.676 759.139 524.498C831.646 383.378 907.986 237.661 1040.12 171.263C1162.37 109.83 1294.16 118.636 1330.43 125.599C1465.98 151.626 1254.68 501.644 1087.38 505.069C874.123 509.435 661.935 354.193 537.268 252.567C412.612 150.943 169.629 -9.09445 -35.7285 94.4047C-241.086 197.904 129.632 207.155 416.087 142.477C645.256 90.7341 829.399 100.834 904.74 110.662Z" stroke="#FF0000" stroke-opacity="0.3"/>
<path opacity="0.816949" d="M925.054 112.082C1072.61 133.507 1153.66 166.659 1123.88 225.864C1080.07 312.955 929.843 358.437 848.328 389.524C705.132 444.135 476.055 425.308 520.548 519.392C558.019 598.642 695.589 665.016 769.764 527.634C846.072 386.301 926.368 240.39 1062.42 175.493C1188.3 115.448 1322.82 126.493 1359.76 134.117C1497.86 162.614 1276.44 512.642 1105.45 513.37C887.485 514.298 673.13 354.056 547.361 249.393C421.583 144.727 175.842 -20.8596 -35.6168 80.3099C-247.075 181.479 131.563 196.874 425.278 136.234C660.246 87.7227 848.229 100.927 925.054 112.082Z" stroke="#FF0000" stroke-opacity="0.3"/>
<path opacity="0.832203" d="M945.194 113.523C1095.57 137.476 1177.86 172.227 1146.57 231.544C1100.53 318.802 946.437 362.371 862.727 392.482C715.676 445.378 482 422.768 526.041 518.474C563.147 599.091 702.659 668.277 780.446 530.712C860.47 389.192 944.637 243.11 1084.55 179.713C1214 121.057 1351.21 134.323 1388.83 142.602C1529.44 173.548 1298.13 523.532 1123.48 521.581C900.87 519.094 684.326 353.914 557.429 246.247C430.524 138.579 182.005 -32.4923 -35.4468 66.3485C-252.899 165.189 133.559 186.682 434.427 130.062C675.109 84.7642 866.899 101.051 945.194 113.523Z" stroke="#FF0000" stroke-opacity="0.3"/>
<path opacity="0.847458" d="M965.131 114.925C1118.31 141.357 1201.84 177.676 1169.08 237.104C1120.89 324.524 962.981 366.215 877.115 395.37C726.273 446.585 488.038 420.265 531.684 517.56C568.452 599.517 709.922 671.461 791.221 533.717C874.856 392.014 962.782 245.767 1106.48 183.841C1239.43 126.547 1379.32 141.992 1417.61 150.914C1560.72 184.261 1319.78 534.201 1141.53 529.622C914.312 523.786 695.527 353.762 567.468 243.151C439.396 132.538 188.054 -43.911 -35.2893 52.6447C-258.633 149.2 135.595 176.675 443.497 123.996C689.817 81.8522 885.377 101.162 965.131 114.925Z" stroke="#FF0000" stroke-opacity="0.3"/>
<path opacity="0.862712" d="M984.841 116.223C1140.81 145.058 1225.59 182.9 1191.41 242.443C1141.14 330.034 979.491 369.915 891.506 398.149C736.945 447.746 494.186 417.831 537.497 516.681C573.984 599.945 717.436 674.569 802.123 536.631C889.243 394.728 980.801 248.298 1128.21 187.788C1264.59 131.803 1407.14 149.358 1446.09 158.902C1591.71 194.579 1341.46 544.527 1159.63 537.406C927.85 528.328 706.739 353.593 577.457 240.116C448.164 126.638 193.914 -55.0416 -35.1918 39.3188C-264.308 133.678 137.606 166.943 452.452 118.07C704.327 78.9712 903.633 101.21 984.841 116.223Z" stroke="#FF0000" stroke-opacity="0.3"/>
<path opacity="0.877966" d="M1004.3 117.356C1163.06 148.491 1249.1 187.794 1213.57 247.468C1161.31 335.249 995.979 373.419 905.918 400.784C747.709 448.855 500.438 415.507 543.506 515.868C579.781 600.407 725.25 677.607 813.186 539.44C903.649 397.302 998.688 250.649 1149.72 191.468C1289.46 136.712 1434.66 156.284 1474.29 166.425C1622.4 204.331 1363.21 554.402 1177.82 544.855C941.518 532.686 717.961 353.404 587.37 237.16C456.788 120.916 199.509 -65.8067 -35.2475 26.491C-270.004 118.788 139.567 157.583 461.254 112.32C718.602 76.1102 921.64 101.146 1004.3 117.356Z" stroke="#FF0000" stroke-opacity="0.3"/>
<path opacity="0.89322" d="M1023.49 118.261C1185.05 151.564 1272.39 192.256 1235.57 252.081C1181.41 340.086 1012.46 376.673 920.367 403.239C758.583 449.905 506.8 413.325 549.707 515.152C585.862 600.928 733.413 680.579 824.442 542.128C918.087 399.696 1016.44 252.761 1171.02 194.794C1314.04 141.161 1461.89 162.63 1502.19 173.335C1652.83 213.349 1385.08 563.713 1196.16 551.891C955.355 536.822 729.201 353.193 597.206 234.298C465.223 115.405 204.754 -76.134 -35.514 14.2801C-275.772 104.696 141.424 148.686 469.855 106.779C732.606 73.2551 939.371 100.922 1023.49 118.261Z" stroke="#FF0000" stroke-opacity="0.3"/>
<path opacity="0.908475" d="M1042.39 118.873C1206.77 154.186 1295.44 196.181 1257.4 256.188C1201.46 344.462 1028.96 379.625 934.87 405.477C769.585 450.89 513.28 411.323 556.15 514.568C592.266 601.537 741.974 683.492 835.925 544.68C932.577 401.877 1034.07 254.578 1192.1 197.68C1338.32 145.037 1488.83 168.26 1529.81 179.489C1683 221.463 1407.14 572.348 1214.7 558.433C969.395 540.696 740.459 352.951 606.941 231.543C473.431 110.137 209.597 -85.9517 -36.0507 2.80243C-281.698 91.5563 143.132 140.338 478.229 101.478C746.306 70.3901 956.804 100.487 1042.39 118.873Z" stroke="#FF0000" stroke-opacity="0.3"/>
<path opacity="0.923729" d="M1060.99 119.136C1228.21 156.276 1318.26 199.473 1279.09 259.701C1221.48 348.299 1045.49 382.227 949.445 407.467C780.733 451.808 519.882 409.538 562.832 514.146C599.023 602.264 750.977 686.353 847.666 547.085C947.135 403.812 1051.56 256.046 1212.97 200.047C1362.31 148.236 1515.49 173.046 1557.16 184.754C1712.95 228.516 1429.44 580.205 1233.48 564.41C983.676 544.277 751.743 352.679 616.562 228.913C481.376 105.144 213.942 -95.1923 -36.9471 -7.83341C-287.826 79.5277 144.659 132.63 486.33 96.4492C759.672 67.5041 973.922 99.7986 1060.99 119.136Z" stroke="#FF0000" stroke-opacity="0.3"/>
<path opacity="0.938983" d="M1079.28 118.992C1249.39 157.751 1340.86 202.038 1300.65 262.533C1241.48 351.523 1062.06 384.431 964.109 409.178C792.04 452.65 526.603 408.001 569.78 513.917C606.16 603.136 760.463 689.169 859.693 549.33C961.776 405.471 1068.94 257.113 1233.63 201.817C1386.01 150.656 1541.88 176.864 1584.26 188.998C1742.68 234.354 1452.04 587.186 1252.53 569.751C998.23 547.53 763.052 352.373 626.047 226.417C489.042 100.463 217.748 -103.787 -38.2393 -17.516C-294.237 68.7543 145.95 125.645 494.132 91.722C772.675 64.5842 990.708 98.8107 1079.28 118.992Z" stroke="#FF0000" stroke-opacity="0.3"/>
<path opacity="0.954237" d="M1097.24 118.384C1270.29 158.533 1363.25 203.786 1322.08 264.601C1261.5 354.062 1078.7 386.19 978.876 410.575C803.521 453.412 533.437 406.741 577.001 513.904C613.691 604.173 770.467 691.94 872.031 551.4C976.514 406.82 1086.18 257.729 1254.07 202.914C1409.41 152.198 1568.01 179.593 1611.11 192.096C1772.23 238.833 1474.97 593.19 1271.92 574.388C1013.09 550.421 774.392 352.025 635.382 224.069C496.372 96.1126 220.952 -111.678 -40.0166 -26.1528C-300.985 59.3724 146.973 119.456 501.587 87.3214C785.289 61.6162 1007.14 97.4799 1097.24 118.384Z" stroke="#FE0000" stroke-opacity="0.3"/>
<path opacity="0.969492" d="M1114.88 117.269C1290.91 158.556 1385.43 204.638 1343.39 265.832C1281.54 355.851 1095.41 387.466 993.76 411.634C815.189 454.088 540.405 405.79 584.504 514.136C621.65 605.401 781.023 694.674 884.702 553.286C991.364 407.833 1103.31 257.851 1274.31 203.274C1432.53 152.778 1593.88 181.129 1637.73 193.939C1801.62 241.821 1498.28 598.134 1291.66 578.258C1028.27 552.923 785.763 351.636 644.566 221.883C503.362 92.1279 223.483 -118.804 -42.3119 -33.6443C-308.117 51.514 147.687 114.138 508.693 83.2807C797.493 58.5935 1023.22 95.7718 1114.88 117.269Z" stroke="#FF0000" stroke-opacity="0.3"/>
<path opacity="0.984746" d="M1101.11 68.1958C1284.18 86.5347 1385.63 120.309 1351.26 187.022C1300.71 285.16 1117.05 341.078 1017.66 378.522C843.056 444.301 559.415 431.832 618.178 534.481C667.685 620.949 840.262 689.474 926.264 534.481C1014.74 375.033 1107.96 210.363 1273.32 133.444C1426.32 62.2765 1592.88 69.5877 1638.81 76.6833C1810.49 103.208 1551.33 499.292 1340.2 506.366C1071.09 515.385 799.871 345.633 640.294 234.234C480.722 122.835 170.535 -51.6911 -86.4612 68.1958C-343.468 188.083 124.716 191.265 484.944 113.286C773.117 50.9025 1005.79 58.6473 1101.11 68.1958Z" stroke="#FF0000" stroke-opacity="0.3"/>
<path d="M1117.61 63.7393C1303.86 82.2421 1407.06 116.318 1372.1 183.627C1320.67 282.641 1133.83 339.059 1032.71 376.839C855.085 443.205 566.53 430.624 626.311 534.192C676.675 621.431 852.243 690.569 939.736 534.192C1029.74 373.318 1124.58 207.176 1292.81 129.571C1448.46 57.7672 1617.9 65.1436 1664.63 72.3027C1839.29 99.0635 1575.63 498.688 1360.85 505.825C1087.07 514.924 811.152 343.656 648.813 231.261C486.476 118.866 170.91 -57.2188 -90.5437 63.7393C-351.997 184.698 124.298 187.909 490.762 109.233C783.934 46.2914 1020.64 54.1055 1117.61 63.7393Z" stroke="#FF0000" stroke-opacity="0.3"/>
</g>
<defs>
<clipPath id="clip0_150_6317">
<rect width="1440" height="230" fill="white" transform="matrix(-1 0 0 1 1440 0)"/>
</clipPath>
</defs>
</svg>
