<svg width="280" height="104" viewBox="0 0 280 104" fill="none" xmlns="http://www.w3.org/2000/svg">
<path fill-rule="evenodd" clip-rule="evenodd" d="M8.01135 2L10.3233 7.48516L16 8.12418L11.7497 12.1297L12.9255 18L7.98699 14.9902L3.037 17.9795L4.23497 12.1137L0 8.09081L5.67875 7.47543L8.01135 2Z" fill="#FFB400"/>
<path fill-rule="evenodd" clip-rule="evenodd" d="M28.0114 2L30.3233 7.48516L36 8.12418L31.7497 12.1297L32.9255 18L27.987 14.9902L23.037 17.9795L24.235 12.1137L20 8.09081L25.6787 7.47543L28.0114 2Z" fill="#FFB400"/>
<path fill-rule="evenodd" clip-rule="evenodd" d="M48.0114 2L50.3233 7.48516L56 8.12418L51.7497 12.1297L52.9255 18L47.987 14.9902L43.037 17.9795L44.235 12.1137L40 8.09081L45.6787 7.47543L48.0114 2Z" fill="#FFB400"/>
<path fill-rule="evenodd" clip-rule="evenodd" d="M68.0114 2L70.3233 7.48516L76 8.12418L71.7497 12.1297L72.9255 18L67.987 14.9902L63.037 17.9795L64.235 12.1137L60 8.09081L65.6787 7.47543L68.0114 2Z" fill="#FFB400"/>
<path fill-rule="evenodd" clip-rule="evenodd" d="M88.0114 2L90.3233 7.48516L96 8.12418L91.7497 12.1297L92.9255 18L87.987 14.9902L83.037 17.9795L84.235 12.1137L80 8.09081L85.6787 7.47543L88.0114 2Z" fill="#FFB400"/>
<rect x="104" y="6" width="150" height="8" rx="2" fill="#FFB400"/>
<path d="M262.916 11.0215V10.9531C262.916 9.95964 263.028 9.06185 263.251 8.25977C263.474 7.45312 263.759 6.74674 264.105 6.14062C264.452 5.53451 264.816 5.0332 265.199 4.63672C265.582 4.23568 265.935 3.94629 266.259 3.76855L266.525 4.60254C266.257 4.80762 265.983 5.09017 265.705 5.4502C265.432 5.81022 265.179 6.25228 264.946 6.77637C264.718 7.30046 264.534 7.90885 264.393 8.60156C264.251 9.29427 264.181 10.0736 264.181 10.9395V11.0352C264.181 11.901 264.251 12.6826 264.393 13.3799C264.534 14.0726 264.718 14.6833 264.946 15.2119C265.179 15.7406 265.432 16.1895 265.705 16.5586C265.983 16.9323 266.257 17.2285 266.525 17.4473L266.259 18.2129C265.935 18.0352 265.582 17.7458 265.199 17.3447C264.816 16.9482 264.452 16.4469 264.105 15.8408C263.759 15.2393 263.474 14.5352 263.251 13.7285C263.028 12.9219 262.916 12.0195 262.916 11.0215ZM269.396 10.2627L268.384 10.0029L268.883 5.04688H273.989V6.21582H269.956L269.655 8.92285C269.838 8.81803 270.068 8.72005 270.346 8.62891C270.628 8.53776 270.952 8.49219 271.316 8.49219C271.777 8.49219 272.189 8.57194 272.554 8.73145C272.918 8.88639 273.228 9.1097 273.483 9.40137C273.743 9.69303 273.941 10.0439 274.078 10.4541C274.215 10.8643 274.283 11.3223 274.283 11.8281C274.283 12.3066 274.217 12.7464 274.085 13.1475C273.957 13.5485 273.764 13.8994 273.504 14.2002C273.244 14.4964 272.916 14.7266 272.52 14.8906C272.128 15.0547 271.665 15.1367 271.132 15.1367C270.731 15.1367 270.35 15.082 269.99 14.9727C269.635 14.8587 269.316 14.6878 269.033 14.46C268.755 14.2275 268.527 13.9404 268.35 13.5986C268.177 13.2523 268.067 12.8467 268.022 12.3818H269.225C269.279 12.7555 269.389 13.07 269.553 13.3252C269.717 13.5804 269.931 13.7741 270.195 13.9062C270.464 14.0339 270.776 14.0977 271.132 14.0977C271.433 14.0977 271.699 14.0452 271.932 13.9404C272.164 13.8356 272.36 13.6852 272.52 13.4893C272.679 13.2933 272.8 13.0563 272.882 12.7783C272.969 12.5003 273.012 12.1882 273.012 11.8418C273.012 11.5273 272.969 11.2357 272.882 10.9668C272.795 10.6979 272.665 10.4632 272.492 10.2627C272.324 10.0622 272.116 9.90723 271.87 9.79785C271.624 9.68392 271.342 9.62695 271.023 9.62695C270.599 9.62695 270.277 9.68392 270.059 9.79785C269.844 9.91178 269.623 10.0667 269.396 10.2627ZM278.89 10.9531V11.0215C278.89 12.0195 278.778 12.9219 278.555 13.7285C278.332 14.5352 278.047 15.2393 277.7 15.8408C277.354 16.4469 276.989 16.9482 276.607 17.3447C276.224 17.7458 275.871 18.0352 275.547 18.2129L275.28 17.4473C275.549 17.2422 275.82 16.9551 276.094 16.5859C276.367 16.2214 276.62 15.7702 276.853 15.2324C277.085 14.6992 277.272 14.084 277.413 13.3867C277.555 12.6849 277.625 11.901 277.625 11.0352V10.9395C277.625 10.0736 277.55 9.29199 277.4 8.59473C277.249 7.8929 277.053 7.27539 276.812 6.74219C276.575 6.20898 276.319 5.76009 276.046 5.39551C275.777 5.02637 275.522 4.74154 275.28 4.54102L275.547 3.76855C275.871 3.94629 276.224 4.23568 276.607 4.63672C276.989 5.0332 277.354 5.53451 277.7 6.14062C278.047 6.74674 278.332 7.45312 278.555 8.25977C278.778 9.06185 278.89 9.95964 278.89 10.9531Z" fill="black" fill-opacity="0.38"/>
<path fill-rule="evenodd" clip-rule="evenodd" d="M8.01135 23L10.3233 28.4852L16 29.1242L11.7497 33.1297L12.9255 39L7.98699 35.9902L3.037 38.9795L4.23497 33.1137L0 29.0908L5.67875 28.4754L8.01135 23Z" fill="#FFB400"/>
<path fill-rule="evenodd" clip-rule="evenodd" d="M28.0114 23L30.3233 28.4852L36 29.1242L31.7497 33.1297L32.9255 39L27.987 35.9902L23.037 38.9795L24.235 33.1137L20 29.0908L25.6787 28.4754L28.0114 23Z" fill="#FFB400"/>
<path fill-rule="evenodd" clip-rule="evenodd" d="M48.0114 23L50.3233 28.4852L56 29.1242L51.7497 33.1297L52.9255 39L47.987 35.9902L43.037 38.9795L44.235 33.1137L40 29.0908L45.6787 28.4754L48.0114 23Z" fill="#FFB400"/>
<path fill-rule="evenodd" clip-rule="evenodd" d="M68.0114 23L70.3233 28.4852L76 29.1242L71.7497 33.1297L72.9255 39L67.987 35.9902L63.037 38.9795L64.235 33.1137L60 29.0908L65.6787 28.4754L68.0114 23Z" fill="#FFB400"/>
<path fill-rule="evenodd" clip-rule="evenodd" d="M88.0114 23L90.3233 28.4852L96 29.1242L91.7497 33.1297L92.9255 39L87.987 35.9902L83.037 38.9795L84.235 33.1137L80 29.0908L85.6787 28.4754L88.0114 23Z" fill="black" fill-opacity="0.06"/>
<rect x="104" y="27" width="150" height="8" rx="2" fill="black" fill-opacity="0.06"/>
<path d="M104 29C104 27.8954 104.895 27 106 27H224V35H106C104.895 35 104 34.1046 104 33V29Z" fill="#FFB400"/>
<path d="M262.916 32.0215V31.9531C262.916 30.9596 263.028 30.0618 263.251 29.2598C263.474 28.4531 263.759 27.7467 264.105 27.1406C264.452 26.5345 264.816 26.0332 265.199 25.6367C265.582 25.2357 265.935 24.9463 266.259 24.7686L266.525 25.6025C266.257 25.8076 265.983 26.0902 265.705 26.4502C265.432 26.8102 265.179 27.2523 264.946 27.7764C264.718 28.3005 264.534 28.9089 264.393 29.6016C264.251 30.2943 264.181 31.0736 264.181 31.9395V32.0352C264.181 32.901 264.251 33.6826 264.393 34.3799C264.534 35.0726 264.718 35.6833 264.946 36.2119C265.179 36.7406 265.432 37.1895 265.705 37.5586C265.983 37.9323 266.257 38.2285 266.525 38.4473L266.259 39.2129C265.935 39.0352 265.582 38.7458 265.199 38.3447C264.816 37.9482 264.452 37.4469 264.105 36.8408C263.759 36.2393 263.474 35.5352 263.251 34.7285C263.028 33.9219 262.916 33.0195 262.916 32.0215ZM274.523 32.6504V33.6895H267.331V32.9443L271.788 26.0469H272.82L271.713 28.043L268.767 32.6504H274.523ZM273.135 26.0469V36H271.87V26.0469H273.135ZM278.89 31.9531V32.0215C278.89 33.0195 278.778 33.9219 278.555 34.7285C278.332 35.5352 278.047 36.2393 277.7 36.8408C277.354 37.4469 276.989 37.9482 276.607 38.3447C276.224 38.7458 275.871 39.0352 275.547 39.2129L275.28 38.4473C275.549 38.2422 275.82 37.9551 276.094 37.5859C276.367 37.2214 276.62 36.7702 276.853 36.2324C277.085 35.6992 277.272 35.084 277.413 34.3867C277.555 33.6849 277.625 32.901 277.625 32.0352V31.9395C277.625 31.0736 277.55 30.292 277.4 29.5947C277.249 28.8929 277.053 28.2754 276.812 27.7422C276.575 27.209 276.319 26.7601 276.046 26.3955C275.777 26.0264 275.522 25.7415 275.28 25.541L275.547 24.7686C275.871 24.9463 276.224 25.2357 276.607 25.6367C276.989 26.0332 277.354 26.5345 277.7 27.1406C278.047 27.7467 278.332 28.4531 278.555 29.2598C278.778 30.0618 278.89 30.9596 278.89 31.9531Z" fill="black" fill-opacity="0.38"/>
<path fill-rule="evenodd" clip-rule="evenodd" d="M8.01135 44L10.3233 49.4852L16 50.1242L11.7497 54.1297L12.9255 60L7.98699 56.9902L3.037 59.9795L4.23497 54.1137L0 50.0908L5.67875 49.4754L8.01135 44Z" fill="#FFB400"/>
<path fill-rule="evenodd" clip-rule="evenodd" d="M28.0114 44L30.3233 49.4852L36 50.1242L31.7497 54.1297L32.9255 60L27.987 56.9902L23.037 59.9795L24.235 54.1137L20 50.0908L25.6787 49.4754L28.0114 44Z" fill="#FFB400"/>
<path fill-rule="evenodd" clip-rule="evenodd" d="M48.0114 44L50.3233 49.4852L56 50.1242L51.7497 54.1297L52.9255 60L47.987 56.9902L43.037 59.9795L44.235 54.1137L40 50.0908L45.6787 49.4754L48.0114 44Z" fill="#FFB400"/>
<path fill-rule="evenodd" clip-rule="evenodd" d="M68.0114 44L70.3233 49.4852L76 50.1242L71.7497 54.1297L72.9255 60L67.987 56.9902L63.037 59.9795L64.235 54.1137L60 50.0908L65.6787 49.4754L68.0114 44Z" fill="black" fill-opacity="0.06"/>
<path fill-rule="evenodd" clip-rule="evenodd" d="M88.0114 44L90.3233 49.4852L96 50.1242L91.7497 54.1297L92.9255 60L87.987 56.9902L83.037 59.9795L84.235 54.1137L80 50.0908L85.6787 49.4754L88.0114 44Z" fill="black" fill-opacity="0.06"/>
<rect x="104" y="48" width="150" height="8" rx="2" fill="black" fill-opacity="0.06"/>
<path d="M104 50C104 48.8954 104.895 48 106 48H194V56H106C104.895 56 104 55.1046 104 54V50Z" fill="#FFB400"/>
<path d="M262.916 53.0215V52.9531C262.916 51.9596 263.028 51.0618 263.251 50.2598C263.474 49.4531 263.759 48.7467 264.105 48.1406C264.452 47.5345 264.816 47.0332 265.199 46.6367C265.582 46.2357 265.935 45.9463 266.259 45.7686L266.525 46.6025C266.257 46.8076 265.983 47.0902 265.705 47.4502C265.432 47.8102 265.179 48.2523 264.946 48.7764C264.718 49.3005 264.534 49.9089 264.393 50.6016C264.251 51.2943 264.181 52.0736 264.181 52.9395V53.0352C264.181 53.901 264.251 54.6826 264.393 55.3799C264.534 56.0726 264.718 56.6833 264.946 57.2119C265.179 57.7406 265.432 58.1895 265.705 58.5586C265.983 58.9323 266.257 59.2285 266.525 59.4473L266.259 60.2129C265.935 60.0352 265.582 59.7458 265.199 59.3447C264.816 58.9482 264.452 58.4469 264.105 57.8408C263.759 57.2393 263.474 56.5352 263.251 55.7285C263.028 54.9219 262.916 54.0195 262.916 53.0215ZM269.642 51.4014H270.544C270.986 51.4014 271.351 51.3285 271.638 51.1826C271.929 51.0322 272.146 50.8294 272.287 50.5742C272.433 50.3145 272.506 50.0228 272.506 49.6992C272.506 49.3164 272.442 48.9951 272.315 48.7354C272.187 48.4756 271.996 48.2796 271.74 48.1475C271.485 48.0153 271.162 47.9492 270.77 47.9492C270.414 47.9492 270.1 48.0199 269.826 48.1611C269.557 48.2979 269.345 48.4938 269.191 48.749C269.04 49.0042 268.965 49.305 268.965 49.6514H267.7C267.7 49.1455 267.828 48.6852 268.083 48.2705C268.338 47.8558 268.696 47.5254 269.156 47.2793C269.621 47.0332 270.159 46.9102 270.77 46.9102C271.371 46.9102 271.898 47.0173 272.349 47.2314C272.8 47.4411 273.151 47.7555 273.401 48.1748C273.652 48.5895 273.777 49.1068 273.777 49.7266C273.777 49.9772 273.718 50.2461 273.6 50.5332C273.486 50.8158 273.306 51.0801 273.06 51.3262C272.818 51.5723 272.504 51.7751 272.116 51.9346C271.729 52.0895 271.264 52.167 270.722 52.167H269.642V51.4014ZM269.642 52.4404V51.6816H270.722C271.355 51.6816 271.879 51.7568 272.294 51.9072C272.709 52.0576 273.035 52.2581 273.272 52.5088C273.513 52.7594 273.682 53.0352 273.777 53.3359C273.878 53.6322 273.928 53.9284 273.928 54.2246C273.928 54.6895 273.848 55.1019 273.689 55.4619C273.534 55.8219 273.313 56.1273 273.025 56.3779C272.743 56.6286 272.41 56.8177 272.027 56.9453C271.645 57.0729 271.228 57.1367 270.776 57.1367C270.344 57.1367 269.936 57.0752 269.553 56.9521C269.175 56.8291 268.84 56.6514 268.548 56.4189C268.256 56.182 268.028 55.8926 267.864 55.5508C267.7 55.2044 267.618 54.8102 267.618 54.3682H268.883C268.883 54.7145 268.958 55.0176 269.108 55.2773C269.263 55.5371 269.482 55.7399 269.765 55.8857C270.052 56.027 270.389 56.0977 270.776 56.0977C271.164 56.0977 271.496 56.0316 271.774 55.8994C272.057 55.7627 272.274 55.5576 272.424 55.2842C272.579 55.0107 272.656 54.6667 272.656 54.252C272.656 53.8372 272.57 53.4977 272.397 53.2334C272.223 52.9645 271.977 52.7663 271.658 52.6387C271.344 52.5065 270.972 52.4404 270.544 52.4404H269.642ZM278.89 52.9531V53.0215C278.89 54.0195 278.778 54.9219 278.555 55.7285C278.332 56.5352 278.047 57.2393 277.7 57.8408C277.354 58.4469 276.989 58.9482 276.607 59.3447C276.224 59.7458 275.871 60.0352 275.547 60.2129L275.28 59.4473C275.549 59.2422 275.82 58.9551 276.094 58.5859C276.367 58.2214 276.62 57.7702 276.853 57.2324C277.085 56.6992 277.272 56.084 277.413 55.3867C277.555 54.6849 277.625 53.901 277.625 53.0352V52.9395C277.625 52.0736 277.55 51.292 277.4 50.5947C277.249 49.8929 277.053 49.2754 276.812 48.7422C276.575 48.209 276.319 47.7601 276.046 47.3955C275.777 47.0264 275.522 46.7415 275.28 46.541L275.547 45.7686C275.871 45.9463 276.224 46.2357 276.607 46.6367C276.989 47.0332 277.354 47.5345 277.7 48.1406C278.047 48.7467 278.332 49.4531 278.555 50.2598C278.778 51.0618 278.89 51.9596 278.89 52.9531Z" fill="black" fill-opacity="0.38"/>
<path fill-rule="evenodd" clip-rule="evenodd" d="M8.01135 65L10.3233 70.4852L16 71.1242L11.7497 75.1297L12.9255 81L7.98699 77.9902L3.037 80.9795L4.23497 75.1137L0 71.0908L5.67875 70.4754L8.01135 65Z" fill="#FFB400"/>
<path fill-rule="evenodd" clip-rule="evenodd" d="M28.0114 65L30.3233 70.4852L36 71.1242L31.7497 75.1297L32.9255 81L27.987 77.9902L23.037 80.9795L24.235 75.1137L20 71.0908L25.6787 70.4754L28.0114 65Z" fill="#FFB400"/>
<path fill-rule="evenodd" clip-rule="evenodd" d="M48.0114 65L50.3233 70.4852L56 71.1242L51.7497 75.1297L52.9255 81L47.987 77.9902L43.037 80.9795L44.235 75.1137L40 71.0908L45.6787 70.4754L48.0114 65Z" fill="black" fill-opacity="0.06"/>
<path fill-rule="evenodd" clip-rule="evenodd" d="M68.0114 65L70.3233 70.4852L76 71.1242L71.7497 75.1297L72.9255 81L67.987 77.9902L63.037 80.9795L64.235 75.1137L60 71.0908L65.6787 70.4754L68.0114 65Z" fill="black" fill-opacity="0.06"/>
<path fill-rule="evenodd" clip-rule="evenodd" d="M88.0114 65L90.3233 70.4852L96 71.1242L91.7497 75.1297L92.9255 81L87.987 77.9902L83.037 80.9795L84.235 75.1137L80 71.0908L85.6787 70.4754L88.0114 65Z" fill="black" fill-opacity="0.06"/>
<rect x="104" y="69" width="150" height="8" rx="2" fill="black" fill-opacity="0.06"/>
<path d="M104 71C104 69.8954 104.895 69 106 69H164V77H106C104.895 77 104 76.1046 104 75V71Z" fill="#FFB400"/>
<path d="M262.916 74.0215V73.9531C262.916 72.9596 263.028 72.0618 263.251 71.2598C263.474 70.4531 263.759 69.7467 264.105 69.1406C264.452 68.5345 264.816 68.0332 265.199 67.6367C265.582 67.2357 265.935 66.9463 266.259 66.7686L266.525 67.6025C266.257 67.8076 265.983 68.0902 265.705 68.4502C265.432 68.8102 265.179 69.2523 264.946 69.7764C264.718 70.3005 264.534 70.9089 264.393 71.6016C264.251 72.2943 264.181 73.0736 264.181 73.9395V74.0352C264.181 74.901 264.251 75.6826 264.393 76.3799C264.534 77.0726 264.718 77.6833 264.946 78.2119C265.179 78.7406 265.432 79.1895 265.705 79.5586C265.983 79.9323 266.257 80.2285 266.525 80.4473L266.259 81.2129C265.935 81.0352 265.582 80.7458 265.199 80.3447C264.816 79.9482 264.452 79.4469 264.105 78.8408C263.759 78.2393 263.474 77.5352 263.251 76.7285C263.028 75.9219 262.916 75.0195 262.916 74.0215ZM274.317 76.9609V78H267.803V77.0908L271.064 73.4609C271.465 73.0143 271.774 72.6361 271.993 72.3262C272.217 72.0117 272.371 71.7314 272.458 71.4854C272.549 71.2347 272.595 70.9795 272.595 70.7197C272.595 70.3916 272.526 70.0954 272.39 69.8311C272.258 69.5622 272.062 69.348 271.802 69.1885C271.542 69.029 271.228 68.9492 270.858 68.9492C270.416 68.9492 270.047 69.0358 269.751 69.209C269.459 69.3776 269.241 69.6146 269.095 69.9199C268.949 70.2253 268.876 70.5762 268.876 70.9727H267.611C267.611 70.4121 267.734 69.8994 267.981 69.4346C268.227 68.9697 268.591 68.6006 269.074 68.3271C269.557 68.0492 270.152 67.9102 270.858 67.9102C271.487 67.9102 272.025 68.0218 272.472 68.2451C272.918 68.4639 273.26 68.7738 273.497 69.1748C273.739 69.5713 273.859 70.0361 273.859 70.5693C273.859 70.861 273.809 71.1572 273.709 71.458C273.613 71.7542 273.479 72.0505 273.306 72.3467C273.137 72.6429 272.939 72.9346 272.711 73.2217C272.488 73.5088 272.248 73.7913 271.993 74.0693L269.327 76.9609H274.317ZM278.89 73.9531V74.0215C278.89 75.0195 278.778 75.9219 278.555 76.7285C278.332 77.5352 278.047 78.2393 277.7 78.8408C277.354 79.4469 276.989 79.9482 276.607 80.3447C276.224 80.7458 275.871 81.0352 275.547 81.2129L275.28 80.4473C275.549 80.2422 275.82 79.9551 276.094 79.5859C276.367 79.2214 276.62 78.7702 276.853 78.2324C277.085 77.6992 277.272 77.084 277.413 76.3867C277.555 75.6849 277.625 74.901 277.625 74.0352V73.9395C277.625 73.0736 277.55 72.292 277.4 71.5947C277.249 70.8929 277.053 70.2754 276.812 69.7422C276.575 69.209 276.319 68.7601 276.046 68.3955C275.777 68.0264 275.522 67.7415 275.28 67.541L275.547 66.7686C275.871 66.9463 276.224 67.2357 276.607 67.6367C276.989 68.0332 277.354 68.5345 277.7 69.1406C278.047 69.7467 278.332 70.4531 278.555 71.2598C278.778 72.0618 278.89 72.9596 278.89 73.9531Z" fill="black" fill-opacity="0.38"/>
<path fill-rule="evenodd" clip-rule="evenodd" d="M8.01135 86L10.3233 91.4852L16 92.1242L11.7497 96.1297L12.9255 102L7.98699 98.9902L3.037 101.98L4.23497 96.1137L0 92.0908L5.67875 91.4754L8.01135 86Z" fill="black" fill-opacity="0.06"/>
<path fill-rule="evenodd" clip-rule="evenodd" d="M28.0114 86L30.3233 91.4852L36 92.1242L31.7497 96.1297L32.9255 102L27.987 98.9902L23.037 101.98L24.235 96.1137L20 92.0908L25.6787 91.4754L28.0114 86Z" fill="black" fill-opacity="0.06"/>
<path fill-rule="evenodd" clip-rule="evenodd" d="M48.0114 86L50.3233 91.4852L56 92.1242L51.7497 96.1297L52.9255 102L47.987 98.9902L43.037 101.98L44.235 96.1137L40 92.0908L45.6787 91.4754L48.0114 86Z" fill="black" fill-opacity="0.06"/>
<path fill-rule="evenodd" clip-rule="evenodd" d="M68.0114 86L70.3233 91.4852L76 92.1242L71.7497 96.1297L72.9255 102L67.987 98.9902L63.037 101.98L64.235 96.1137L60 92.0908L65.6787 91.4754L68.0114 86Z" fill="black" fill-opacity="0.06"/>
<path fill-rule="evenodd" clip-rule="evenodd" d="M88.0114 86L90.3233 91.4852L96 92.1242L91.7497 96.1297L92.9255 102L87.987 98.9902L83.037 101.98L84.235 96.1137L80 92.0908L85.6787 91.4754L88.0114 86Z" fill="black" fill-opacity="0.06"/>
<rect x="104" y="90" width="150" height="8" rx="2" fill="black" fill-opacity="0.06"/>
<path d="M262.916 95.0215V94.9531C262.916 93.9596 263.028 93.0618 263.251 92.2598C263.474 91.4531 263.759 90.7467 264.105 90.1406C264.452 89.5345 264.816 89.0332 265.199 88.6367C265.582 88.2357 265.935 87.9463 266.259 87.7686L266.525 88.6025C266.257 88.8076 265.983 89.0902 265.705 89.4502C265.432 89.8102 265.179 90.2523 264.946 90.7764C264.718 91.3005 264.534 91.9089 264.393 92.6016C264.251 93.2943 264.181 94.0736 264.181 94.9395V95.0352C264.181 95.901 264.251 96.6826 264.393 97.3799C264.534 98.0726 264.718 98.6833 264.946 99.2119C265.179 99.7406 265.432 100.189 265.705 100.559C265.983 100.932 266.257 101.229 266.525 101.447L266.259 102.213C265.935 102.035 265.582 101.746 265.199 101.345C264.816 100.948 264.452 100.447 264.105 99.8408C263.759 99.2393 263.474 98.5352 263.251 97.7285C263.028 96.9219 262.916 96.0195 262.916 95.0215ZM274.044 93.2305V94.748C274.044 95.5638 273.971 96.252 273.825 96.8125C273.679 97.373 273.47 97.8242 273.196 98.166C272.923 98.5078 272.593 98.7562 272.205 98.9111C271.822 99.0615 271.389 99.1367 270.906 99.1367C270.524 99.1367 270.17 99.0889 269.847 98.9932C269.523 98.8975 269.232 98.7448 268.972 98.5352C268.717 98.321 268.498 98.043 268.316 97.7012C268.133 97.3594 267.994 96.9447 267.899 96.457C267.803 95.9694 267.755 95.3997 267.755 94.748V93.2305C267.755 92.4147 267.828 91.7311 267.974 91.1797C268.124 90.6283 268.336 90.1862 268.609 89.8535C268.883 89.5163 269.211 89.2747 269.594 89.1289C269.981 88.9831 270.414 88.9102 270.893 88.9102C271.28 88.9102 271.635 88.958 271.959 89.0537C272.287 89.1449 272.579 89.293 272.834 89.498C273.089 89.6986 273.306 89.9674 273.483 90.3047C273.666 90.6374 273.805 91.0452 273.9 91.5283C273.996 92.0114 274.044 92.5788 274.044 93.2305ZM272.773 94.9531V93.0186C272.773 92.5719 272.745 92.18 272.691 91.8428C272.64 91.501 272.565 91.2093 272.465 90.9678C272.365 90.7262 272.237 90.5303 272.082 90.3799C271.932 90.2295 271.756 90.1201 271.556 90.0518C271.36 89.9788 271.139 89.9424 270.893 89.9424C270.592 89.9424 270.325 89.9993 270.093 90.1133C269.86 90.2227 269.664 90.3981 269.505 90.6396C269.35 90.8812 269.232 91.1979 269.149 91.5898C269.067 91.9818 269.026 92.458 269.026 93.0186V94.9531C269.026 95.3997 269.052 95.7939 269.102 96.1357C269.156 96.4775 269.236 96.7738 269.341 97.0244C269.446 97.2705 269.573 97.4733 269.724 97.6328C269.874 97.7923 270.047 97.9108 270.243 97.9883C270.444 98.0612 270.665 98.0977 270.906 98.0977C271.216 98.0977 271.487 98.0384 271.72 97.9199C271.952 97.8014 272.146 97.6169 272.301 97.3662C272.46 97.111 272.579 96.7852 272.656 96.3887C272.734 95.9876 272.773 95.5091 272.773 94.9531ZM278.89 94.9531V95.0215C278.89 96.0195 278.778 96.9219 278.555 97.7285C278.332 98.5352 278.047 99.2393 277.7 99.8408C277.354 100.447 276.989 100.948 276.607 101.345C276.224 101.746 275.871 102.035 275.547 102.213L275.28 101.447C275.549 101.242 275.82 100.955 276.094 100.586C276.367 100.221 276.62 99.7702 276.853 99.2324C277.085 98.6992 277.272 98.084 277.413 97.3867C277.555 96.6849 277.625 95.901 277.625 95.0352V94.9395C277.625 94.0736 277.55 93.292 277.4 92.5947C277.249 91.8929 277.053 91.2754 276.812 90.7422C276.575 90.209 276.319 89.7601 276.046 89.3955C275.777 89.0264 275.522 88.7415 275.28 88.541L275.547 87.7686C275.871 87.9463 276.224 88.2357 276.607 88.6367C276.989 89.0332 277.354 89.5345 277.7 90.1406C278.047 90.7467 278.332 91.4531 278.555 92.2598C278.778 93.0618 278.89 93.9596 278.89 94.9531Z" fill="black" fill-opacity="0.38"/>
</svg>
