<svg width="14" height="14" viewBox="0 0 14 14" fill="none" xmlns="http://www.w3.org/2000/svg">
<path d="M13.4167 5.83301C13.4167 5.52359 13.2938 5.22684 13.075 5.00805C12.8562 4.78926 12.5595 4.66634 12.25 4.66634H8.56337L9.12337 2.00051C9.13504 1.94217 9.14087 1.87801 9.14087 1.81384C9.14087 1.57467 9.04171 1.35301 8.88421 1.19551L8.26587 0.583008L4.42754 4.42134C4.21171 4.63717 4.08337 4.92884 4.08337 5.24967V11.083C4.08337 11.3924 4.20629 11.6892 4.42508 11.908C4.64388 12.1268 4.94062 12.2497 5.25004 12.2497H10.5C10.9842 12.2497 11.3984 11.958 11.5734 11.538L13.335 7.42551C13.3875 7.29134 13.4167 7.15134 13.4167 6.99967V5.83301ZM0.583374 12.2497H2.91671V5.24967H0.583374V12.2497Z" fill="#999999"/>
</svg>
