<svg width="96" height="17" viewBox="0 0 96 17" fill="none" xmlns="http://www.w3.org/2000/svg">
<path fill-rule="evenodd" clip-rule="evenodd" d="M8.01135 0.5L10.3233 5.98516L16 6.62418L11.7497 10.6297L12.9255 16.5L7.98699 13.4902L3.037 16.4795L4.23497 10.6137L0 6.59081L5.67875 5.97543L8.01135 0.5Z" fill="#FFB400"/>
<path fill-rule="evenodd" clip-rule="evenodd" d="M28.0114 0.5L30.3233 5.98516L36 6.62418L31.7497 10.6297L32.9255 16.5L27.987 13.4902L23.037 16.4795L24.235 10.6137L20 6.59081L25.6787 5.97543L28.0114 0.5Z" fill="#FFB400"/>
<path fill-rule="evenodd" clip-rule="evenodd" d="M48.0114 0.5L50.3233 5.98516L56 6.62418L51.7497 10.6297L52.9255 16.5L47.987 13.4902L43.037 16.4795L44.235 10.6137L40 6.59081L45.6787 5.97543L48.0114 0.5Z" fill="#FFB400"/>
<path fill-rule="evenodd" clip-rule="evenodd" d="M68.0114 0.5L70.3233 5.98516L76 6.62418L71.7497 10.6297L72.9255 16.5L67.987 13.4902L63.037 16.4795L64.235 10.6137L60 6.59081L65.6787 5.97543L68.0114 0.5Z" fill="#FFB400"/>
<path fill-rule="evenodd" clip-rule="evenodd" d="M88.0114 0.5L90.3233 5.98516L96 6.62418L91.7497 10.6297L92.9255 16.5L87.987 13.4902L83.037 16.4795L84.235 10.6137L80 6.59081L85.6787 5.97543L88.0114 0.5Z" fill="#FFB400"/>
</svg>
