<svg width="270" height="85" viewBox="0 0 270 85" fill="none" xmlns="http://www.w3.org/2000/svg">
<g clip-path="url(#clip0_150_2394)">
<path opacity="0.1" d="M206.727 24.4434C237.048 20.2151 254.449 20.6607 250.542 29.7402C232.361 71.9853 160.618 71.2029 236.47 26.1347C259.608 12.3859 286.955 7.43219 294.625 6.66602C323.296 3.80227 308.379 54.7673 246.372 72.1116C188.347 88.3417 164.661 67.7307 135.806 60.1472C106.951 52.5638 51.9285 42.7856 13.069 65.9207C-25.7904 89.0558 50.6372 73.0799 107.395 51.289C152.802 33.8565 190.939 26.6449 206.727 24.4434Z" stroke="#832525" stroke-opacity="0.3"/>
<path opacity="0.115254" d="M208.891 24.1388C239.126 19.6675 256.504 19.9732 252.682 29.0832C234.902 71.4695 163.267 71.2637 238.6 25.5911C261.582 11.6579 288.842 6.48498 296.493 5.65733C325.093 2.56356 310.646 53.6427 248.891 71.4834C191.101 88.1777 167.273 67.7593 138.397 60.4086C109.523 53.0578 54.5031 43.7227 15.9091 67.1673C-22.6849 90.6121 53.4795 74.024 109.955 51.7796C155.136 33.9841 193.149 26.4669 208.891 24.1388Z" stroke="#852626" stroke-opacity="0.3"/>
<path opacity="0.130508" d="M211.09 23.8844C241.241 19.2005 258.594 19.3838 254.849 28.5196C237.427 71.0266 165.907 71.3256 240.763 25.1271C263.598 11.0334 290.773 5.66899 298.406 4.7875C326.937 1.4925 312.912 52.668 251.394 70.9418C193.828 88.0418 169.878 67.7936 140.992 60.647C112.105 53.5007 57.1008 44.5543 18.7515 68.2684C-19.5979 91.9825 56.3154 74.8595 112.527 52.2195C157.496 34.1075 195.391 26.3232 211.09 23.8844Z" stroke="#872727" stroke-opacity="0.3"/>
<path opacity="0.145763" d="M213.324 23.6805C243.396 18.8151 260.721 18.8937 257.045 28.051C239.94 70.6588 168.535 71.3893 242.957 24.744C265.661 10.514 292.757 4.98619 300.371 4.05873C328.834 0.591915 315.181 51.8465 253.884 70.4897C196.526 87.9351 172.475 67.8336 143.587 60.8622C114.698 53.8909 59.7195 45.2775 21.5926 69.2205C-16.5344 93.1635 59.1417 75.5841 115.11 52.6074C159.884 34.226 197.666 26.2139 213.324 23.6805Z" stroke="#892828" stroke-opacity="0.3"/>
<path opacity="0.161017" d="M215.593 23.527C245.589 18.5118 262.888 18.5038 259.272 27.6786C242.439 70.3673 171.152 71.4546 245.187 24.4423C267.773 10.1005 294.794 4.43771 302.391 3.4723C330.788 -0.136382 317.452 51.181 256.361 70.1285C199.194 87.8588 175.066 67.8796 146.182 61.0534C117.298 54.2271 62.3572 45.8892 24.429 70.0204C-13.4993 94.1514 61.9555 76.1956 117.702 52.9417C162.299 34.3384 199.975 26.1383 215.593 23.527Z" stroke="#8B2929" stroke-opacity="0.3"/>
<path opacity="0.176271" d="M217.901 23.4241C247.827 18.2912 265.098 18.2149 261.531 27.403C244.927 70.1536 173.756 71.5217 247.453 24.2225C269.936 9.79322 296.887 4.02458 304.467 3.02934C332.803 -0.690867 319.731 50.6737 258.825 69.86C201.833 87.8138 177.648 67.9317 148.778 61.2199C119.907 54.5082 65.0129 46.3877 27.2585 70.6657C-10.4958 94.9438 64.7552 76.6925 120.304 53.2213C164.743 34.4442 202.321 26.0966 217.901 23.4241Z" stroke="#8E2A2A" stroke-opacity="0.3"/>
<path opacity="0.191525" d="M220.25 23.3721C250.109 18.1539 267.354 18.0282 263.824 27.2255C247.405 70.0194 176.351 71.5916 249.758 24.0858C272.152 9.59345 299.04 3.74816 306.604 2.73128C334.882 -1.06982 322.02 50.3271 261.28 69.686C204.443 87.8012 180.223 67.9907 151.372 61.3624C122.523 54.7342 67.6855 46.7719 30.0795 71.1557C-7.52646 95.5395 67.5395 77.0743 122.915 53.4462C167.215 34.5437 204.704 26.089 220.25 23.3721Z" stroke="#902B2B" stroke-opacity="0.3"/>
<path opacity="0.20678" d="M222.638 23.3706C252.438 18.0996 269.654 17.9432 266.154 27.1459C249.871 69.9645 178.933 71.6633 252.102 24.0315C274.423 9.50057 301.254 3.60797 308.805 2.57768C337.027 -1.27349 324.318 50.141 263.724 69.6064C207.023 87.8213 182.79 68.0558 153.968 61.4797C125.146 54.9037 70.3736 47.0402 32.8898 71.4886C-4.59416 95.9369 70.3063 77.3398 125.534 53.6152C169.716 34.6356 207.122 26.115 222.638 23.3706Z" stroke="#922C2C" stroke-opacity="0.3"/>
<path opacity="0.222034" d="M225.069 23.4196C254.813 18.1286 272.004 17.9602 268.522 27.1644C252.329 69.99 181.504 71.7378 254.486 24.06C276.751 9.5153 303.532 3.60457 311.068 2.56917C339.242 -1.30119 326.629 50.1169 266.16 69.6223C209.575 87.8746 185.349 68.1281 156.562 61.5727C127.776 55.0172 73.0778 47.1926 35.6893 71.6644C-1.69916 96.1363 73.0561 77.4891 128.161 53.7286C172.246 34.7203 209.581 26.1745 225.069 23.4196Z" stroke="#942C2C" stroke-opacity="0.3"/>
<path opacity="0.237288" d="M227.54 23.5187C257.236 18.2401 274.399 18.0785 270.928 27.2804C254.777 70.0952 184.064 71.8145 256.913 24.1708C279.137 9.63643 305.872 3.73701 313.397 2.70471C341.524 -1.15398 328.953 50.2538 268.585 69.7331C212.096 87.9608 187.902 68.2067 159.157 61.6405C130.414 55.0742 75.7979 47.2285 38.4778 71.6829C1.15782 96.1372 75.7883 77.5218 130.798 53.7859C174.806 34.7971 212.078 26.2671 227.54 23.5187Z" stroke="#962D2D" stroke-opacity="0.3"/>
<path opacity="0.252542" d="M230.053 23.6679C259.706 18.4342 276.841 18.2982 273.37 27.494C257.214 70.2803 186.611 71.894 259.378 24.3638C281.578 9.86404 308.275 4.00508 315.788 2.98412C343.875 -0.832236 331.287 50.5515 271.001 69.9388C214.588 88.0804 190.445 68.2922 161.75 61.6838C133.056 55.0753 78.5321 47.1489 41.2538 71.5452C3.97541 95.9414 78.5015 77.4391 133.44 53.7877C177.392 34.8664 214.614 26.3929 230.053 23.6679Z" stroke="#982E2E" stroke-opacity="0.3"/>
<path opacity="0.267797" d="M232.606 23.8668C262.222 18.7099 279.331 18.6181 275.847 27.8041C259.641 70.5443 189.146 71.9758 261.885 24.6381C284.075 10.1969 310.74 4.40753 318.244 3.40603C346.293 -0.337552 333.633 51.0084 273.407 70.2383C217.05 88.2327 192.981 68.3843 164.344 61.7026C135.707 55.0209 81.2828 46.9548 44.0195 71.2525C6.75625 95.5501 81.1978 77.2418 136.093 53.7343C180.009 34.9284 217.187 26.5517 232.606 23.8668Z" stroke="#9A2F2F" stroke-opacity="0.3"/>
<path opacity="0.283051" d="M235.201 24.1147C264.783 19.0665 281.866 19.0373 278.363 28.2095C262.057 70.886 191.671 72.0599 264.43 24.993C286.626 10.6344 313.267 4.94292 320.762 3.96894C348.776 0.328212 335.989 51.6226 275.802 70.6305C219.485 88.4171 195.509 68.4829 166.937 61.6973C138.365 54.9116 84.0504 46.6476 46.7763 70.8065C9.50215 94.9655 83.8785 76.9311 138.755 53.6266C182.655 34.9831 219.798 26.7431 235.201 24.1147Z" stroke="#9C3030" stroke-opacity="0.3"/>
<path opacity="0.298305" d="M237.833 24.4114C267.39 19.5033 284.445 19.5546 280.91 28.7093C264.463 71.3045 194.183 72.1465 267.013 25.4274C289.231 11.175 315.851 5.6097 323.337 4.67114C351.322 1.16287 338.352 52.3916 278.186 71.1136C221.888 88.633 198.031 68.5878 169.531 61.6682C141.031 54.7487 86.8352 46.2294 49.525 70.2101C12.2146 94.191 86.5437 76.509 141.424 53.4657C185.328 35.0309 222.444 26.9669 237.833 24.4114Z" stroke="#9E3131" stroke-opacity="0.3"/>
<path opacity="0.313559" d="M240.505 24.7563C270.037 20.0188 287.066 20.1683 283.491 29.3015C266.857 71.7976 196.686 72.2349 269.632 25.9401C291.885 11.8171 318.491 6.40564 325.971 5.5103C353.928 2.16348 340.721 53.312 280.559 71.6857C224.262 88.8791 200.544 68.6987 172.124 61.6159C143.705 54.5329 89.6397 45.7027 52.2691 69.466C14.8983 93.2295 89.1967 75.9773 144.105 53.2524C188.031 35.0724 225.128 27.2229 240.505 24.7563Z" stroke="#A03232" stroke-opacity="0.3"/>
<path opacity="0.328814" d="M243.212 25.1484C272.726 20.6116 289.725 20.8764 286.101 29.9845C269.235 72.3632 199.176 72.3248 272.285 26.5295C294.588 12.5587 321.184 7.32818 328.656 6.48363C356.588 3.32663 343.092 54.38 282.917 72.3442C226.607 89.1543 203.05 68.8153 174.719 61.5407C146.389 54.266 92.4644 45.0702 55.0102 68.5779C17.556 92.0854 91.8385 75.3386 146.795 52.9881C190.761 35.1078 227.845 27.5105 243.212 25.1484Z" stroke="#A33333" stroke-opacity="0.3"/>
<path opacity="0.344068" d="M245.953 25.5878C275.45 21.2808 292.42 21.6775 288.738 30.7566C271.6 72.9995 201.655 72.4169 274.97 27.1945C297.334 13.3987 323.924 8.3753 331.389 7.58892C359.298 4.64925 345.463 55.5922 285.259 73.0868C228.922 89.4576 205.548 68.9379 177.315 61.444C149.082 53.9499 95.3112 44.3363 57.7519 67.5503C20.1925 90.7643 94.4721 74.5964 149.497 52.6755C193.517 35.1386 230.595 27.8303 245.953 25.5878Z" stroke="#A53434" stroke-opacity="0.3"/>
<path opacity="0.359322" d="M248.726 26.0727C278.211 22.0237 295.148 22.5687 291.398 31.6145C273.948 73.703 204.124 72.5099 277.681 27.9327C300.122 14.3336 326.707 9.54294 334.168 8.82179C362.054 6.12618 347.83 56.9426 287.584 73.9097C231.208 89.7866 208.037 69.0652 179.913 61.3255C151.786 53.5859 98.1822 43.504 60.4975 66.3874C22.8128 89.2709 97.1003 73.7533 152.212 52.3152C196.3 35.1647 233.375 28.1809 248.726 26.0727Z" stroke="#A73535" stroke-opacity="0.3"/>
<path opacity="0.374576" d="M251.531 26.603C281.001 22.8391 297.906 23.5477 294.08 32.5562C276.281 74.4713 206.583 72.6039 280.42 28.7423C302.946 15.3615 329.53 10.8282 336.985 10.1792C364.849 7.75313 350.19 58.4264 289.892 74.8096C233.466 90.1403 210.522 69.1975 182.513 61.187C154.503 53.1767 101.08 42.5782 63.2514 65.0951C25.4231 87.612 99.7267 72.8136 154.939 51.9103C199.109 35.1876 236.186 28.5627 251.531 26.603Z" stroke="#A93636" stroke-opacity="0.3"/>
<path opacity="0.38983" d="M254.361 27.1771C283.82 23.7246 300.689 24.6114 296.781 33.5784C278.593 75.3009 209.031 72.6987 283.181 29.621C305.801 16.4794 332.385 12.2269 339.834 11.6566C367.675 9.52476 352.538 60.0374 292.177 75.7828C235.695 90.5165 212.997 69.3342 185.115 61.0294C157.233 52.7245 104.005 41.5638 66.0165 63.6791C28.028 85.7943 102.353 71.7814 157.682 51.4628C201.943 35.2079 239.023 28.9748 254.361 27.1771Z" stroke="#AB3737" stroke-opacity="0.3"/>
<path opacity="0.405085" d="M257.216 27.7939C286.662 24.6773 303.493 25.7561 299.494 34.6777C280.885 76.1879 211.47 72.7935 285.961 30.5657C308.685 17.6834 335.27 13.7343 342.712 13.249C370.529 11.4345 354.87 61.7686 294.442 76.8244C237.896 90.9129 215.466 69.4745 187.723 60.853C159.978 52.2315 106.961 40.4657 68.7976 62.1454C30.6341 83.8252 104.985 70.6608 160.438 50.975C204.8 35.2263 241.885 29.4165 257.216 27.7939Z" stroke="#AD3838" stroke-opacity="0.3"/>
<path opacity="0.420339" d="M260.092 28.4517C289.524 25.6947 306.314 26.9788 302.217 35.8503C283.155 77.1285 213.9 72.888 288.755 31.5738C311.591 18.9702 338.176 15.3459 345.611 14.9513C373.4 13.4763 357.181 63.6134 296.682 77.9302C240.068 91.3274 217.928 69.6181 190.333 60.6594C162.736 51.7006 109.949 39.2897 71.5978 60.5014C33.2469 81.7131 107.623 69.457 163.21 50.4499C207.68 35.2441 244.769 29.8872 260.092 28.4517Z" stroke="#AF3939" stroke-opacity="0.3"/>
<path opacity="0.435593" d="M262.988 29.1499C292.403 26.7742 309.148 28.2755 304.946 37.0929C285.404 78.1192 216.323 72.9824 291.561 32.6426C314.515 20.3363 341.099 17.0567 348.526 16.7584C376.286 15.6435 359.469 65.5641 298.896 79.0959C242.214 91.7583 220.384 69.7651 192.948 60.4502C165.512 51.1352 112.971 38.0423 74.4223 58.7547C35.8737 79.4673 110.273 68.1758 166 49.8908C210.583 35.2628 247.672 30.3868 262.988 29.1499Z" stroke="#B13A3A" stroke-opacity="0.3"/>
<path opacity="0.450847" d="M265.899 29.8857C295.294 27.9119 311.988 29.6415 307.679 38.4005C287.628 79.1546 218.736 73.0756 294.376 33.768C317.452 21.7766 344.032 18.8602 351.45 18.6634C379.175 17.9275 361.727 67.6122 301.084 80.3155C244.334 92.2026 222.833 69.9142 195.569 60.2259C168.304 50.5376 116.029 36.7293 77.2743 56.9129C38.5199 77.0966 112.937 66.822 168.809 49.3001C213.506 35.2825 250.594 30.9133 265.899 29.8857Z" stroke="#B33A3A" stroke-opacity="0.3"/>
<path opacity="0.466102" d="M268.821 30.658C298.192 29.1047 314.832 31.0727 310.408 39.7689C289.826 80.2311 221.142 73.1679 297.194 34.947C320.394 23.2869 346.969 20.7509 354.376 20.6602C382.062 20.3208 363.954 69.7495 303.241 81.5841C246.428 92.6584 225.275 70.0655 198.194 59.9887C171.113 49.9119 119.123 35.358 80.157 54.9848C41.1908 74.6119 115.618 65.4026 171.635 48.6817C216.446 35.305 253.53 31.4667 268.821 30.658Z" stroke="#B53B3B" stroke-opacity="0.3"/>
<path opacity="0.481356" d="M271.754 31.4638C301.094 30.348 317.676 32.5634 313.133 41.1926C291.998 81.343 223.541 73.2582 300.013 36.1746C323.341 24.8616 349.905 22.7216 357.3 22.7411C384.941 22.8139 366.147 71.9665 305.371 82.8957C248.499 93.1226 227.712 70.2178 200.826 59.7391C173.942 49.2605 122.257 33.9345 83.075 52.9788C43.8933 72.0229 118.321 63.923 174.479 48.0382C219.406 35.3305 256.479 32.0448 271.754 31.4638Z" stroke="#B83C3C" stroke-opacity="0.3"/>
<path opacity="0.49661" d="M274.692 32.3013C303.996 31.6379 320.514 34.1088 315.849 42.6669C294.145 82.4859 225.934 73.3467 302.829 37.4471C326.286 26.4954 352.834 24.7653 360.215 24.8987C387.805 25.3978 368.3 74.2538 307.468 84.2445C250.545 93.5931 230.144 70.3709 203.466 59.4792C176.787 48.5875 125.429 32.4666 86.0301 50.9041C46.6312 69.3416 121.046 62.3903 177.344 47.3737C222.38 35.3603 259.436 32.6467 274.692 32.3013Z" stroke="#BA3D3D" stroke-opacity="0.3"/>
<path opacity="0.511864" d="M277.633 33.1677C306.892 32.9701 323.343 35.7031 318.552 44.1858C296.264 83.6545 228.322 73.4328 305.637 38.7599C329.224 28.1824 355.749 26.8743 363.114 27.125C390.646 28.0623 370.413 76.6017 309.536 85.6244C252.57 94.0674 232.569 70.5243 206.111 59.2102C179.653 47.8961 128.64 30.9614 89.0254 48.7704C49.4098 66.5792 123.797 60.8113 180.226 46.6913C225.37 35.3951 262.398 33.2706 277.633 33.1677Z" stroke="#BC3E3E" stroke-opacity="0.3"/>
<path opacity="0.527119" d="M280.574 34.0607C309.783 34.3399 326.158 37.3405 321.24 45.744C298.356 84.8439 230.704 73.5164 308.436 40.1085C332.149 29.9168 358.647 29.0411 365.995 29.4118C393.461 30.7977 372.482 79.0006 311.572 87.0299C254.575 94.5433 234.991 70.6777 208.763 58.934C182.537 47.1903 131.893 29.4268 92.0631 46.5877C52.2334 63.7485 126.577 59.1935 183.129 45.9949C228.37 35.4361 265.367 33.9153 280.574 34.0607Z" stroke="#BE3F3F" stroke-opacity="0.3"/>
<path opacity="0.542373" d="M283.512 34.9771C312.661 35.7422 328.956 39.0149 323.908 47.3352C300.421 86.0488 233.082 73.5974 311.222 41.4875C335.06 31.6919 361.523 31.2572 368.851 31.7501C396.242 33.5927 374.504 81.4396 313.575 88.4543C256.561 95.0184 237.409 70.8303 211.424 58.652C185.44 46.4736 135.183 27.8702 95.1443 44.3658C55.1051 60.8615 129.386 57.5441 186.05 45.2884C231.383 35.4837 268.334 34.5787 283.512 34.9771Z" stroke="#C04040" stroke-opacity="0.3"/>
<path opacity="0.557627" d="M286.444 35.9136C315.526 37.1716 331.735 40.7194 326.556 48.9532C302.46 87.2639 235.457 73.6753 313.992 42.8917C337.95 33.5007 364.371 33.5136 371.677 34.1305C398.987 36.4362 376.483 83.9083 315.55 89.8915C258.531 95.4904 239.821 70.9818 214.092 58.3657C188.362 45.7496 138.513 26.2988 98.2706 42.1149C58.0281 57.931 132.225 55.8704 188.991 44.5749C234.403 35.5384 271.302 35.2585 286.444 35.9136Z" stroke="#C24141" stroke-opacity="0.3"/>
<path opacity="0.572881" d="M289.368 36.8667C318.373 38.6226 334.492 42.4474 329.181 50.5913C304.474 88.4837 237.829 73.7499 316.743 44.3155C340.819 35.3362 367.189 35.8016 374.471 36.5433C401.69 39.3163 378.414 86.3961 317.494 91.3351C260.486 95.9567 242.232 71.1315 216.766 58.0767C191.3 45.0219 141.879 24.7204 101.441 39.8451C61.0036 54.9698 135.097 54.18 191.949 43.8581C237.431 35.6006 274.264 35.9525 289.368 36.8667Z" stroke="#C44242" stroke-opacity="0.3"/>
<path opacity="0.588136" d="M292.28 37.8336C321.2 40.0899 337.223 44.1924 331.781 52.2434C306.463 89.7036 240.2 73.8215 319.476 45.7539C343.66 37.1915 369.973 38.1119 377.228 38.9794C404.348 42.2219 380.301 88.8928 319.409 92.7794C262.429 96.4161 244.639 71.2794 219.449 57.787C194.258 44.2946 145.281 23.1428 104.657 37.5671C64.0338 51.9914 138 52.481 194.925 43.142C240.464 35.671 277.221 36.6587 292.28 37.8336Z" stroke="#C64343" stroke-opacity="0.3"/>
<path opacity="0.60339" d="M295.179 38.8101C324.006 41.5676 339.925 45.9471 334.354 53.9026C308.429 90.9182 242.569 73.8896 322.186 47.2008C346.473 39.0589 372.721 40.4354 379.947 41.4285C406.959 45.1406 382.141 91.3877 321.297 94.2179C264.362 96.8663 247.045 71.4251 222.137 57.498C197.229 43.5708 148.715 21.5732 107.916 35.2911C67.1177 49.0089 140.936 50.7806 197.915 42.4301C243.499 35.7495 280.17 37.3745 295.179 38.8101Z" stroke="#C84444" stroke-opacity="0.3"/>
<path opacity="0.618644" d="M298.064 39.7926C326.787 43.0495 342.6 47.7045 336.899 55.5622C310.375 92.1224 244.939 73.9545 324.872 48.6503C349.257 40.9308 375.43 42.7623 382.625 43.8806C409.52 48.0605 383.939 93.8701 323.16 95.6448C266.287 97.3056 249.448 71.5679 224.832 57.211C200.216 42.8541 152.179 20.0186 111.217 33.0269C70.2554 46.0351 143.903 49.0867 200.921 41.7254C246.535 35.8364 283.109 38.097 298.064 39.7926Z" stroke="#CA4545" stroke-opacity="0.3"/>
<path opacity="0.633898" d="M300.932 40.7775C329.544 44.53 345.245 49.4576 339.418 57.2156C312.303 93.3119 247.309 74.0163 327.534 50.097C352.009 42.8 378.099 45.0833 385.262 46.3256C412.033 50.9696 385.697 96.3302 325.002 97.0546C268.207 97.7325 251.852 71.708 227.535 56.9281C203.217 42.148 155.672 18.4863 114.558 30.7848C73.4462 43.0835 146.9 47.4068 203.939 41.0318C249.571 35.9317 286.035 38.8237 300.932 40.7775Z" stroke="#CD4646" stroke-opacity="0.3"/>
<path opacity="0.649153" d="M303.782 41.7607C332.275 46.0031 347.86 51.1989 341.909 58.8558C314.214 94.4816 249.68 74.0749 330.171 51.5346C354.727 44.6583 380.729 47.3886 387.855 48.7535C414.494 53.8558 387.417 98.7576 326.824 98.4415C270.125 98.1457 254.255 71.8449 230.242 56.6504C206.227 41.4559 159.185 16.9827 117.936 28.5746C76.6865 40.1665 149.927 45.7483 206.968 40.3521C252.603 36.035 288.947 39.5517 303.782 41.7607Z" stroke="#CF4747" stroke-opacity="0.3"/>
<path opacity="0.664407" d="M306.614 42.7378C334.979 47.4622 350.445 52.9214 344.371 60.4761C316.112 95.6273 252.054 74.1304 332.782 52.9573C357.41 46.4981 383.317 49.6685 390.406 51.154C416.907 56.7066 389.103 101.143 328.63 99.8001C272.042 98.5436 256.658 71.9782 232.953 56.3793C209.248 40.7803 162.718 15.514 121.346 26.4052C79.9739 37.2964 152.979 44.1183 210.006 39.6893C255.629 36.1461 291.844 40.2779 306.614 42.7378Z" stroke="#D14747" stroke-opacity="0.3"/>
<path opacity="0.679661" d="M309.424 43.7054C337.655 48.9022 352.998 54.6183 346.808 62.0706C318.002 96.7449 254.43 74.1833 335.37 54.3597C360.062 48.3121 385.864 51.914 392.916 53.5174C419.271 59.5111 390.76 103.477 330.424 101.126C273.965 98.926 259.064 72.1083 235.67 56.1166C212.276 40.1248 166.265 14.0868 124.785 24.2864C83.3048 34.4861 156.056 42.5241 213.052 39.0466C258.649 36.2647 294.726 40.9996 309.424 43.7054Z" stroke="#D34848" stroke-opacity="0.3"/>
<path opacity="0.694915" d="M312.214 44.659C340.304 50.3161 355.522 56.2821 349.218 63.632C319.882 97.83 256.81 74.2333 337.932 55.7355C362.679 50.0924 388.373 54.1153 395.383 55.8336C421.59 62.257 392.392 105.749 332.208 102.413C275.891 99.2913 261.47 72.2344 238.39 55.8629C215.308 39.4915 169.823 12.7058 128.248 22.2259C86.6733 31.7462 159.153 40.9717 216.101 38.4261C261.659 36.3898 297.588 41.7135 312.214 44.659Z" stroke="#D54949" stroke-opacity="0.3"/>
<path opacity="0.710169" d="M314.982 45.5949C342.927 51.699 358.019 57.9065 351.605 65.1548C321.76 98.8798 259.195 74.2814 340.47 57.0796C365.265 51.832 390.844 56.2638 397.814 58.0938C423.864 64.9339 394.003 107.954 333.988 103.659C277.828 99.6394 263.88 72.3569 241.111 55.6202C218.342 38.8834 173.384 11.3769 131.73 20.2328C90.0757 29.0887 162.268 39.4682 219.152 37.831C264.659 36.5212 300.433 42.4167 314.982 45.5949Z" stroke="#D74A4A" stroke-opacity="0.3"/>
<path opacity="0.725424" d="M317.732 46.5093C345.526 53.0451 360.49 59.4852 353.971 66.633C323.64 99.8904 261.585 74.3275 342.987 58.3867C367.819 53.5237 393.28 58.3508 400.207 60.2883C426.099 67.5306 395.603 110.081 335.767 104.858C279.775 99.9699 266.292 72.476 243.835 55.3895C221.378 38.3028 176.944 10.1048 135.224 18.3145C93.5057 26.5241 165.396 38.0195 222.201 37.2631C267.645 36.6579 303.259 43.1065 317.732 46.5093Z" stroke="#D94B4B" stroke-opacity="0.3"/>
<path opacity="0.740678" d="M320.458 47.3983C348.099 54.3487 362.935 61.0116 356.317 68.0608C325.521 100.859 263.98 74.3721 345.481 59.6515C370.343 55.1608 395.683 60.3679 402.567 62.4087C428.298 70.0371 397.193 112.125 337.549 106.007C281.738 100.282 268.707 72.5913 246.558 55.1716C224.409 37.752 180.497 8.89378 138.726 16.4781C96.9563 24.0624 168.536 36.6312 225.249 36.7246C270.618 36.7993 306.065 43.7794 320.458 47.3983Z" stroke="#DB4C4C" stroke-opacity="0.3"/>
<path opacity="0.755932" d="M323.163 48.2578C350.649 55.6045 365.358 62.4796 358.645 69.4325C327.411 101.783 266.382 74.4153 347.956 60.8688C372.841 56.7363 398.055 62.3069 404.896 64.4463C430.466 72.4433 398.784 114.077 339.341 107.103C283.717 100.577 271.127 72.7027 249.281 54.9675C227.435 37.2322 184.038 7.74758 142.23 14.7301C100.421 21.7125 171.681 35.3084 228.288 36.2172C273.574 36.9441 308.851 44.4327 323.163 48.2578Z" stroke="#DD4D4D" stroke-opacity="0.3"/>
<path opacity="0.771186" d="M325.847 49.0849C353.178 56.808 367.761 63.8841 360.96 70.7435C329.315 102.659 268.792 74.4581 350.414 62.0345C375.314 58.2444 400.402 64.1605 407.198 66.3936C432.606 74.7407 400.379 115.932 341.145 108.143C285.715 100.853 273.553 72.811 252.004 54.7785C230.454 36.7461 187.562 6.66997 145.728 13.077C103.894 19.4841 174.828 34.0566 231.32 35.7428C276.513 37.0918 311.618 45.0638 325.847 49.0849Z" stroke="#DF4E4E" stroke-opacity="0.3"/>
<path opacity="0.786441" d="M328.513 49.8758C355.688 57.9541 370.146 65.2193 363.263 71.9889C331.234 103.487 271.209 74.5004 352.856 63.1437C377.764 59.6791 402.724 65.9214 409.479 68.2428C434.725 76.92 401.987 117.684 342.966 109.123C287.737 101.112 275.984 72.9157 254.723 54.605C233.461 36.2945 191.063 5.66373 149.215 11.5239C107.368 17.3842 177.972 32.8798 234.339 35.3026C279.433 37.241 314.364 45.6697 328.513 49.8758Z" stroke="#E24F4F" stroke-opacity="0.3"/>
<path opacity="0.801695" d="M331.159 50.6273C358.18 59.0385 372.516 66.4804 365.557 73.1642C333.171 104.263 273.633 74.543 355.285 64.1924C380.194 61.0348 405.028 67.5832 411.74 69.9874C436.828 78.9736 403.611 119.329 344.809 110.043C289.783 101.354 278.422 73.0173 257.437 54.4481C236.454 35.8789 194.533 4.73166 152.684 10.0762C110.833 15.4207 181.109 31.7822 237.344 34.8981C282.333 37.3908 317.09 46.2479 331.159 50.6273Z" stroke="#E45050" stroke-opacity="0.3"/>
<path opacity="0.816949" d="M333.787 51.3363C360.655 60.0572 374.876 67.6628 367.845 74.2654C335.132 104.986 276.067 74.5861 357.702 65.1769C382.606 62.3065 407.316 69.1396 413.986 71.6205C438.919 80.894 405.263 120.86 346.678 110.899C291.857 101.578 280.865 73.1157 260.148 54.308C239.432 35.5004 197.969 3.87588 156.128 8.73792C114.285 13.5999 184.235 30.7675 240.331 34.53C285.21 37.5401 319.798 46.7956 333.787 51.3363Z" stroke="#E65151" stroke-opacity="0.3"/>
<path opacity="0.832203" d="M336.398 52.0003C363.118 61.0064 377.225 68.7625 370.131 75.2889C337.12 105.656 278.509 74.6303 360.111 66.0938C385.005 63.4895 409.593 70.5853 416.222 73.1369C441.004 82.6749 406.944 122.275 348.576 111.691C293.96 101.787 283.316 73.2114 262.853 54.1858C242.389 35.1602 201.366 3.09847 159.54 7.51329C117.715 11.928 187.344 29.8391 243.299 34.1996C288.065 37.688 322.484 47.3111 336.398 52.0003Z" stroke="#E85252" stroke-opacity="0.3"/>
<path opacity="0.847458" d="M338.992 52.6161C365.57 61.8823 379.569 69.7752 372.417 76.2312C339.137 106.27 280.961 74.6757 362.514 66.9394C387.392 64.5792 411.861 71.9144 418.451 74.5306C443.088 84.3097 408.663 123.57 350.51 112.416C296.094 101.979 285.775 73.304 265.552 54.0812C245.327 34.8584 204.718 2.4004 162.917 6.405C121.117 10.4096 190.434 28.9994 246.246 33.907C290.896 37.833 325.153 47.7915 338.992 52.6161Z" stroke="#EA5353" stroke-opacity="0.3"/>
<path opacity="0.862712" d="M341.571 53.1817C368.012 62.6823 381.91 70.698 374.706 77.0895C341.19 106.828 283.424 74.723 364.911 67.7113C389.77 65.5722 414.126 73.1234 420.679 75.7975C445.177 85.7935 410.426 124.742 352.482 113.074C298.261 102.156 288.242 73.3944 268.242 53.9954C248.241 34.5964 208.02 1.78339 166.253 5.41658C124.485 9.04971 193.5 28.2514 249.167 33.6531C293.703 37.9745 327.804 48.2352 341.571 53.1817Z" stroke="#EC5454" stroke-opacity="0.3"/>
<path opacity="0.877966" d="M344.134 53.6952C370.446 63.4034 384.25 71.5279 377.001 77.8612C343.277 107.33 285.895 74.7727 367.306 68.4071C392.141 66.4652 416.387 74.2078 422.907 76.9333C447.274 87.1216 412.236 125.79 354.495 113.664C300.464 102.318 290.717 73.4824 270.923 53.9282C251.128 34.3741 211.268 1.24817 169.54 4.55017C127.81 7.85213 196.538 27.5968 252.063 33.4383C296.482 38.1116 330.434 48.6405 344.134 53.6952Z" stroke="#EE5555" stroke-opacity="0.3"/>
<path opacity="0.89322" d="M346.685 54.1545C372.876 64.0434 386.592 72.2622 379.306 78.5443C345.404 107.774 288.377 74.8251 369.7 69.0245C394.51 67.255 418.654 75.1643 425.141 77.9346C449.387 88.2901 414.101 126.708 356.553 114.185C302.704 102.467 293.201 73.5684 273.596 53.8802C253.99 34.1922 214.459 0.795494 172.775 3.80782C131.091 6.82018 199.545 27.0377 254.93 33.2631C299.238 38.2432 333.048 49.0057 346.685 54.1545Z" stroke="#F05555" stroke-opacity="0.3"/>
<path opacity="0.908475" d="M349.224 54.558C375.301 64.6002 388.937 72.8987 381.619 79.1369C347.573 108.161 290.87 74.8803 372.097 69.5619C396.877 67.9392 420.925 75.99 427.382 78.7984C451.515 89.2955 416.022 127.499 358.658 114.637C304.98 102.603 295.694 73.6523 276.259 53.8515C256.822 34.0507 217.589 0.425714 175.954 3.19098C134.318 5.95627 202.517 26.5755 257.766 33.1273C301.965 38.3688 335.646 49.3294 349.224 54.558Z" stroke="#F25656" stroke-opacity="0.3"/>
<path opacity="0.923729" d="M351.749 54.9043C377.724 65.072 391.288 73.4357 383.946 79.637C349.785 108.491 293.374 74.9387 374.496 70.0172C399.243 68.5158 423.205 76.6826 429.634 79.5218C453.665 90.1349 418.005 128.159 360.814 115.02C307.296 102.725 298.198 73.7344 278.91 53.8421C259.624 33.9497 220.654 0.138835 179.072 2.70059C137.49 5.26236 205.454 26.2108 260.572 33.031C304.665 38.4871 338.224 49.6103 351.749 54.9043Z" stroke="#F45757" stroke-opacity="0.3"/>
<path opacity="0.938983" d="M354.264 55.1925C380.146 65.4577 393.646 73.8719 386.287 80.0441C352.043 108.763 295.887 75.0006 376.899 70.3898C401.613 68.9831 425.494 77.2401 431.899 80.1035C455.838 90.8067 420.055 128.689 363.021 115.333C309.653 102.836 300.709 73.815 281.551 53.8522C262.393 33.8894 223.654 -0.0647548 182.128 2.33775C140.603 4.74024 208.351 25.9448 263.344 32.9745C307.338 38.5982 340.788 49.8477 354.264 55.1925Z" stroke="#F75858" stroke-opacity="0.3"/>
<path opacity="0.954237" d="M356.768 55.4216C382.568 65.7563 396.015 74.2062 388.643 80.3572C354.348 108.977 298.413 75.066 379.307 70.6786C403.985 69.3401 427.796 77.6613 434.18 80.5418C458.039 91.309 422.171 129.086 365.283 115.576C312.05 102.935 303.232 73.8939 284.181 53.8817C265.131 33.8696 226.583 -0.185441 185.118 2.10258C143.653 4.3906 211.208 25.7779 266.083 32.9575C309.983 38.7011 343.334 50.0407 356.768 55.4216Z" stroke="#F95959" stroke-opacity="0.3"/>
<path opacity="0.969492" d="M359.259 55.5914C384.99 65.9674 398.391 74.4382 391.015 80.576C356.699 109.134 300.949 75.1356 381.722 70.8835C406.363 69.5862 430.112 77.9457 436.476 80.8363C460.267 91.6414 424.355 129.352 367.599 115.75C314.489 103.022 305.764 73.9717 286.798 53.9311C267.833 33.8905 229.442 -0.222998 188.04 1.99568C146.636 4.21435 214.022 25.7105 268.787 32.9801C312.598 38.7959 345.863 50.189 359.259 55.5914Z" stroke="#FB5A5A" stroke-opacity="0.3"/>
<path opacity="0.984746" d="M361.744 55.7011C387.414 66.0901 400.779 74.5671 393.406 80.6997C359.099 109.233 303.498 75.2087 384.143 71.0034C408.746 69.7206 432.44 78.0923 438.791 80.986C462.524 91.803 426.611 129.487 369.97 115.855C316.969 103.099 308.306 74.0477 289.405 53.9996C270.504 33.9514 232.231 -0.178443 190.893 2.01616C149.555 4.21077 216.795 25.7419 271.457 33.0417C315.187 38.8817 348.378 50.2919 361.744 55.7011Z" stroke="#FD5B5B" stroke-opacity="0.3"/>
<path d="M364.216 55.7512C389.838 66.1251 403.177 74.5938 395.813 80.7291C361.548 109.276 306.057 75.286 386.571 71.0393C411.132 69.7439 434.784 78.1018 441.122 80.9917C464.81 91.7946 428.937 129.491 372.398 115.891C319.491 103.164 310.857 74.1227 291.998 54.0876C273.138 34.0527 234.948 -0.0516481 193.678 2.16414C152.407 4.37993 219.523 25.8725 274.09 33.1426C317.746 38.9587 350.875 50.3499 364.216 55.7512Z" stroke="#FF5C5C" stroke-opacity="0.3"/>
</g>
<defs>
<clipPath id="clip0_150_2394">
<rect width="270" height="85" fill="white"/>
</clipPath>
</defs>
</svg>
