<svg width="1440" height="524" viewBox="0 0 1440 524" fill="none" xmlns="http://www.w3.org/2000/svg">
<g clip-path="url(#clip0_150_2291)">
<path opacity="0.1" d="M144.344 316.35C143.752 325.143 142.515 341.325 139.945 373.279C136.17 420.285 133.929 447.061 132.439 464.992C129.832 496.493 130.15 490.507 126.26 539.68C122.987 581.099 120.463 613.929 126.431 539.692C132.574 463.321 138.919 384.449 141.952 347.613C144.761 313.531 144.577 317.04 144.332 320.441C143.414 333.153 128.142 522.866 127.749 526.244C127.254 530.553 133.577 449.229 137.742 395.863C141.896 342.494 148.382 258.882 143.659 316.297C138.937 373.711 139.078 375.256 142.264 337.92C144.817 308.052 144.648 311.771 144.344 316.35Z" stroke="#FF0000" stroke-opacity="0.3"/>
<path opacity="0.115254" d="M158.238 313.541C159.874 322.645 160.012 339.221 157.406 371.771C153.59 419.655 149.516 446.812 147.082 465.017C142.8 496.998 139.736 490.676 137.108 540.853C134.879 583.118 134.749 616.721 140.868 541.103C147.156 463.31 153.674 382.971 158.201 345.543C162.401 310.915 164.191 314.619 164.526 318.123C165.753 331.214 149.65 524.427 146.847 527.711C143.256 531.895 145.494 448.778 147.175 394.247C148.867 339.717 150.781 254.238 143.72 312.574C136.671 370.911 142.283 372.845 149.236 335.059C154.788 304.829 157.385 308.8 158.238 313.541Z" stroke="#FF0000" stroke-opacity="0.3"/>
<path opacity="0.130508" d="M173.287 310.66C178.211 320.072 180.319 337.039 177.548 370.184C173.464 418.943 166.561 446.484 162.643 464.963C155.747 497.424 147.7 490.777 146.733 541.952C145.907 585.058 149.199 619.428 155.824 542.432C162.646 463.222 169.747 381.42 176.655 343.4C183.046 308.222 187.771 312.119 188.948 315.723C193.313 329.189 175.212 525.894 168.791 529.085C160.61 533.154 157.074 448.256 155.299 392.569C153.524 336.884 148.971 249.55 138.221 308.809C127.471 368.07 141.205 370.383 153.904 332.139C164.054 301.543 170.726 305.761 173.287 310.66Z" stroke="#FF0000" stroke-opacity="0.3"/>
<path opacity="0.145763" d="M188.161 307.625C196.386 317.247 200.481 334.547 197.586 368.302C193.319 417.956 183.63 445.972 178.241 464.775C168.784 497.805 155.735 490.978 156.5 543.114C157.155 587.033 163.914 622.075 170.943 543.664C178.174 463.001 185.732 379.699 194.967 341.005C203.516 305.204 211.178 309.208 213.198 312.887C220.726 326.636 200.915 526.943 190.892 530.153C178.104 534.244 168.678 447.716 163.347 390.964C158.027 334.213 146.866 245.195 132.497 305.505C118.139 365.816 140.015 368.264 158.408 329.38C173.122 298.273 183.874 302.615 188.161 307.625Z" stroke="#FF0000" stroke-opacity="0.3"/>
<path opacity="0.161017" d="M202.863 304.425C214.403 314.153 220.526 331.729 217.538 366.105C213.15 416.673 200.704 445.263 193.882 464.441C181.906 498.132 163.844 491.287 166.422 544.343C168.595 589.035 178.878 624.646 186.207 544.79C193.743 462.637 201.646 377.797 213.154 338.343C223.806 301.84 234.418 305.854 237.285 309.582C247.998 323.518 226.755 527.536 213.115 530.882C195.721 535.143 180.285 447.154 171.331 389.436C162.389 331.721 144.498 241.209 126.6 302.703C108.702 364.196 138.722 366.517 162.771 326.799C181.994 295.024 196.844 299.358 202.863 304.425Z" stroke="#FF0000" stroke-opacity="0.3"/>
<path opacity="0.176271" d="M217.393 301.056C232.263 310.781 240.423 328.568 237.404 363.579C232.957 415.082 217.795 444.346 209.565 463.956C195.111 498.403 172.014 491.707 176.465 545.636C180.227 591.063 194.07 627.133 201.595 545.796C209.333 462.121 217.477 375.706 231.216 335.405C243.928 298.117 257.491 302.043 261.22 305.794C275.133 319.81 252.692 527.646 235.451 531.25C213.474 535.845 191.906 446.572 179.261 387.998C166.617 329.422 141.893 237.624 120.534 300.437C99.1753 363.251 137.356 365.168 166.99 324.41C190.701 291.806 209.644 295.993 217.393 301.056Z" stroke="#FF0000" stroke-opacity="0.3"/>
<path opacity="0.191525" d="M231.761 297.519C249.976 307.126 260.192 325.056 257.174 360.714C252.72 413.165 234.882 443.212 225.259 463.307C208.367 498.608 180.255 492.239 186.64 546.991C192.018 593.11 209.479 629.525 217.107 546.677C224.954 461.447 233.246 373.424 249.163 332.184C263.893 294.027 280.4 297.762 284.984 301.504C302.11 315.491 278.717 527.25 257.879 531.242C231.319 536.332 203.54 445.967 187.136 386.647C170.732 327.328 139.07 234.453 114.329 298.729C89.5987 363.008 135.913 364.229 171.095 322.224C199.24 288.62 222.286 292.518 231.761 297.519Z" stroke="#FF0000" stroke-opacity="0.3"/>
<path opacity="0.20678" d="M246.001 293.817C267.543 303.185 279.835 321.192 276.849 357.507C272.451 410.926 251.966 441.859 240.985 462.496C221.686 498.749 188.547 492.884 196.926 548.406C203.98 595.175 225.054 631.813 232.713 547.425C240.586 460.61 248.933 370.947 266.986 328.678C283.691 289.569 303.144 293.005 308.587 296.711C328.931 310.558 304.8 526.339 280.381 530.85C249.247 536.599 215.188 445.34 194.966 385.392C174.754 325.443 136.083 231.716 108.038 297.597C79.9823 363.476 134.425 363.714 175.097 320.248C207.634 285.475 234.78 288.937 246.001 293.817Z" stroke="#FF0000" stroke-opacity="0.3"/>
<path opacity="0.222034" d="M260.099 289.95C284.985 298.968 299.362 316.981 296.439 353.962C292.138 408.362 269.036 440.285 256.711 461.52C235.058 498.823 196.899 493.641 207.302 549.878C216.059 597.247 240.794 633.993 248.402 548.038C256.228 459.613 264.559 368.28 284.706 324.891C303.342 284.747 325.745 287.782 332.051 291.421C355.617 305.017 330.919 524.91 302.923 530.07C267.248 536.647 226.829 444.688 202.761 384.23C178.694 323.773 132.962 229.414 101.67 297.038C70.3682 364.66 132.914 363.622 179.027 318.485C215.913 282.374 247.146 285.255 260.099 289.95Z" stroke="#FF0101" stroke-opacity="0.3"/>
<path opacity="0.237288" d="M274.088 285.928C302.3 294.477 318.771 312.429 315.932 350.085C311.769 405.481 286.08 438.494 272.436 460.381C248.448 498.827 205.301 494.504 217.757 551.401C228.256 599.329 256.645 636.062 264.15 548.517C271.87 458.454 280.123 365.426 302.321 320.832C322.855 279.57 348.19 282.102 355.362 285.644C382.142 298.88 357.04 522.972 325.493 528.907C285.288 536.474 238.483 444.013 210.533 383.163C182.593 322.315 129.75 227.547 95.2699 297.047C60.7791 366.546 131.39 363.944 182.896 316.932C224.099 279.322 259.406 281.477 274.088 285.928Z" stroke="#FF0000" stroke-opacity="0.3"/>
<path opacity="0.252542" d="M287.989 281.76C319.521 289.73 338.073 307.555 335.348 345.895C331.355 402.296 303.108 436.499 288.15 459.086C261.88 498.768 213.754 495.473 228.281 552.975C240.528 601.415 272.588 638.022 279.939 548.864C287.5 457.144 295.624 362.396 319.841 316.512C342.241 274.059 370.509 275.989 378.53 279.405C408.528 292.175 383.14 520.543 348.058 527.377C303.357 536.089 250.141 443.318 218.304 382.191C186.467 321.063 126.494 226.101 88.8732 297.605C51.2523 369.111 129.889 364.67 186.739 315.585C232.204 276.315 271.57 277.61 287.989 281.76Z" stroke="#FF0000" stroke-opacity="0.3"/>
<path opacity="0.267797" d="M301.811 277.454C336.654 284.742 357.285 302.377 354.685 341.407C350.87 398.822 320.098 434.305 303.852 457.644C275.31 498.643 222.229 496.533 238.864 554.594C252.866 603.5 288.588 639.875 295.755 549.087C303.117 455.687 311.072 359.197 337.286 311.948C361.529 268.232 392.699 269.465 401.583 272.73C434.78 284.935 409.194 517.649 370.606 525.498C321.42 535.501 261.79 442.598 226.053 381.301C190.325 320.005 123.229 225.051 82.516 298.681C41.8035 372.311 128.435 365.775 190.567 314.433C240.27 273.358 283.67 273.658 301.811 277.454Z" stroke="#FF0000" stroke-opacity="0.3"/>
<path opacity="0.283051" d="M315.584 273.023C353.708 279.532 376.414 296.92 373.96 336.648C370.334 395.086 337.068 431.934 319.538 456.066C288.747 498.46 230.744 497.681 249.464 556.25C265.224 605.584 304.6 641.628 311.553 549.19C318.718 454.097 326.485 355.846 354.662 307.161C380.734 262.116 414.797 262.567 424.526 265.656C460.901 277.203 435.185 514.33 393.098 523.295C339.464 534.726 273.442 441.86 233.822 380.494C194.202 319.129 120 224.368 76.2247 300.233C32.4597 376.098 127.031 367.228 194.413 313.459C248.319 270.444 295.735 269.634 315.584 273.023Z" stroke="#FF0000" stroke-opacity="0.3"/>
<path opacity="0.298305" d="M329.33 268.482C370.724 274.126 395.491 291.217 393.171 331.645C389.743 391.116 353.984 429.4 335.187 454.367C302.171 498.225 239.272 498.908 260.07 557.941C277.594 607.67 320.582 643.29 327.334 549.19C334.282 452.387 341.853 352.359 371.99 302.174C399.878 255.744 436.811 255.336 447.387 258.228C486.93 269.036 461.076 510.626 415.531 520.807C357.478 533.784 285.086 441.103 241.605 379.758C198.124 318.415 116.859 224.018 70.0504 302.215C23.2315 380.409 125.706 368.994 198.304 312.649C256.374 267.571 307.778 265.542 329.33 268.482Z" stroke="#FF0000" stroke-opacity="0.3"/>
<path opacity="0.313559" d="M343.076 263.845C387.718 268.552 414.53 285.3 412.332 326.434C409.102 386.944 370.864 426.729 350.806 452.564C315.566 497.945 247.812 500.202 270.671 559.665C289.92 609.753 336.519 644.877 343.072 549.102C349.816 450.573 357.213 348.755 389.296 297.019C418.985 249.151 458.775 247.819 470.191 250.494C512.877 260.493 486.869 506.596 437.866 518.071C375.422 532.698 296.731 440.333 249.411 379.085C202.101 317.839 113.819 223.949 63.9886 304.562C14.1578 385.175 124.463 371.029 202.241 311.975C264.478 264.735 319.838 261.395 343.076 263.845Z" stroke="#FF0000" stroke-opacity="0.3"/>
<path opacity="0.328814" d="M356.854 259.129C404.72 262.838 433.56 279.209 431.474 321.052C428.408 382.603 387.705 423.945 366.383 450.673C328.935 497.628 256.345 501.55 281.226 561.412C302.192 611.837 352.346 646.401 358.744 548.941C365.307 448.676 372.565 345.056 406.599 291.721C438.085 242.374 480.706 240.064 492.963 242.507C538.77 251.64 512.525 502.296 460.11 515.134C393.297 531.497 308.357 439.549 257.254 378.462C206.151 317.376 110.944 224.111 58.0823 307.209C5.22005 390.307 123.321 373.283 206.271 311.416C272.632 261.922 331.937 257.199 356.854 259.129Z" stroke="#FF0000" stroke-opacity="0.3"/>
<path opacity="0.344068" d="M370.685 254.352C421.748 257.016 452.598 272.983 450.611 315.539C447.688 378.14 404.514 421.077 381.925 448.721C342.254 497.285 264.861 502.942 291.736 563.183C314.367 613.925 368.06 647.883 374.326 548.726C380.764 446.717 387.916 341.281 423.918 286.315C457.224 235.459 502.661 232.13 515.74 234.329C564.639 242.551 538.067 497.798 482.234 512.046C411.075 530.209 319.984 438.757 265.146 377.878C210.308 316.998 108.252 224.445 52.341 310.081C-3.55983 395.718 122.287 375.702 210.398 310.94C280.893 259.131 344.096 252.965 370.685 254.352Z" stroke="#FF0000" stroke-opacity="0.3"/>
<path opacity="0.359322" d="M384.608 249.53C438.85 251.121 471.69 266.667 469.771 309.938C466.946 373.593 421.287 418.151 397.429 446.727C355.509 496.925 273.352 504.362 302.156 564.968C326.433 616.02 383.593 649.34 389.804 548.478C396.183 444.716 403.306 337.457 441.289 280.836C476.42 228.446 524.665 224.072 538.566 226.021C590.529 233.304 563.465 493.167 504.241 508.861C428.751 528.866 331.601 437.959 273.079 377.313C214.567 316.669 105.763 224.882 46.7859 313.096C-12.2014 401.307 121.359 378.225 214.637 310.514C289.271 256.346 356.367 248.702 384.608 249.53Z" stroke="#FF0000" stroke-opacity="0.3"/>
<path opacity="0.374576" d="M398.652 244.683C456.054 245.188 490.853 260.307 488.969 304.297C486.198 369.009 438.031 415.202 412.882 444.715C368.701 496.561 281.787 505.798 312.478 566.765C338.336 618.122 398.932 650.795 405.154 548.221C411.56 442.699 418.732 333.609 458.73 275.32C495.73 221.389 546.763 215.958 561.475 217.652C616.483 223.985 588.728 488.484 526.112 505.637C446.301 527.503 343.196 437.157 281.075 376.758C218.953 316.361 103.527 225.361 41.4072 316.167C-20.7017 406.973 120.532 380.791 219.015 310.108C297.801 253.56 368.769 244.421 398.652 244.683Z" stroke="#FF0000" stroke-opacity="0.3"/>
<path opacity="0.38983" d="M412.849 239.832C473.387 239.256 510.124 253.949 508.23 298.661C505.459 364.436 454.763 412.263 428.3 442.713C381.815 496.205 290.178 507.235 322.679 568.571C350.052 620.237 414.041 652.269 420.382 547.979C426.904 440.689 434.221 329.762 476.278 269.807C515.19 214.334 569 207.85 584.524 209.291C642.554 214.68 613.859 483.828 547.861 502.437C463.73 526.158 354.791 436.359 289.136 376.197C223.481 316.036 101.543 225.807 36.2266 319.207C-29.0795 412.607 119.827 383.338 223.534 309.684C306.494 250.759 381.335 240.133 412.849 239.832Z" stroke="#FF0000" stroke-opacity="0.3"/>
<path opacity="0.405085" d="M427.238 234.997C490.9 233.363 529.539 247.645 527.603 293.083C524.745 359.921 471.478 409.366 443.682 440.745C394.841 495.868 298.486 508.656 332.719 570.376C361.562 622.366 428.886 653.786 435.454 547.773C442.211 438.715 449.794 325.946 493.962 264.335C534.827 207.329 591.411 199.813 607.736 201.008C668.774 205.475 638.856 479.28 569.469 499.32C481.022 524.865 366.364 435.565 297.266 375.612C228.168 315.659 99.8336 226.149 31.2358 322.122C-37.3513 418.098 119.22 385.798 228.202 309.207C315.396 247.935 394.084 235.847 427.238 234.997Z" stroke="#FF0000" stroke-opacity="0.3"/>
<path opacity="0.420339" d="M441.838 230.198C508.607 227.547 549.145 241.447 547.092 287.608C544.071 355.513 488.195 406.544 459.024 438.836C407.776 495.562 306.699 510.047 342.597 572.178C372.832 624.514 443.441 655.365 450.357 547.629C457.478 436.796 465.478 322.188 511.818 258.945C554.699 200.432 614.053 191.92 631.176 192.878C695.196 196.462 663.736 474.92 590.95 496.347C498.161 523.659 377.925 434.781 305.466 374.988C232.997 315.194 98.4174 226.313 26.4356 324.823C-45.5357 423.335 118.698 388.102 233.043 308.643C324.519 245.076 407.068 231.578 441.838 230.198Z" stroke="#FF0000" stroke-opacity="0.3"/>
<path opacity="0.435593" d="M456.68 225.457C526.57 221.85 568.959 235.401 566.734 282.289C563.473 351.262 504.908 403.83 474.333 437.011C420.618 495.3 314.812 511.39 352.282 573.968C383.84 626.679 457.682 657.028 465.097 547.569C472.723 434.963 481.27 318.511 529.875 253.677C574.843 193.692 636.969 184.236 654.889 184.974C721.875 187.732 688.507 470.831 612.296 493.581C515.155 522.58 389.473 434.01 313.738 374.307C238.003 314.605 97.3049 226.228 21.8171 327.215C-53.6601 428.204 118.271 390.183 238.063 307.954C333.886 242.17 420.288 227.334 456.68 225.457Z" stroke="#FF0000" stroke-opacity="0.3"/>
<path opacity="0.450847" d="M471.802 220.798C544.792 216.311 589.025 229.565 586.574 277.179C582.957 347.218 521.645 401.263 489.616 435.3C433.346 495.092 322.813 512.673 361.753 575.74C394.564 628.867 471.585 658.796 479.639 547.615C487.943 433.241 497.209 314.95 548.158 248.575C595.293 187.164 660.194 176.832 678.908 177.37C748.858 179.379 713.181 467.094 633.531 491.084C531.997 521.664 401.009 433.256 322.085 373.556C243.172 313.859 96.5046 225.826 17.3807 329.212C-61.7431 432.598 117.915 391.98 243.256 307.109C343.52 239.211 433.793 223.134 471.802 220.798Z" stroke="#FF0000" stroke-opacity="0.3"/>
<path opacity="0.466102" d="M487.224 216.245C563.322 210.973 609.371 223.987 606.608 272.325C602.546 343.431 538.401 398.873 504.87 433.725C445.968 494.95 330.684 513.878 371.001 577.488C404.972 631.073 485.116 660.683 494.002 547.791C503.134 431.651 513.302 311.531 566.695 243.68C616.086 180.901 683.785 169.78 703.288 170.141C776.187 171.492 737.768 463.788 654.643 488.913C548.684 520.941 412.52 432.523 330.518 372.722C248.516 312.923 96.0142 225.04 13.1054 330.724C-69.8141 436.408 117.626 393.425 248.635 306.074C353.442 236.192 447.604 218.991 487.224 216.245Z" stroke="#FF0000" stroke-opacity="0.3"/>
<path opacity="0.481356" d="M502.974 211.822C582.188 205.877 630.032 218.72 626.882 267.778C622.247 339.944 555.205 396.692 520.113 432.311C458.482 494.883 338.406 514.985 380.004 579.202C415.043 633.295 498.283 662.707 508.162 548.112C518.315 430.22 529.578 308.282 585.512 239.031C637.258 174.956 707.765 163.144 728.056 163.357C803.903 164.157 762.281 460.984 675.644 487.125C565.211 520.446 424.027 431.814 339.039 371.791C254.041 311.767 95.8533 223.806 8.98113 331.668C-77.8912 439.531 117.392 394.458 254.205 304.818C363.654 233.105 461.73 214.916 502.974 211.822Z" stroke="#FF0000" stroke-opacity="0.3"/>
<path opacity="0.49661" d="M519.072 207.552C601.406 201.063 651.024 213.811 647.411 263.586C642.097 336.805 572.043 394.748 535.333 431.076C470.866 494.897 345.98 515.982 388.754 580.872C424.777 635.53 511.052 664.879 522.106 548.594C533.483 428.967 546.033 305.23 604.627 234.668C658.836 169.382 732.17 156.994 753.249 157.093C832.042 157.464 786.731 458.753 696.539 485.769C581.574 520.204 435.51 431.13 347.63 370.746C259.75 310.362 96.0191 222.067 5.018 331.969C-85.9937 441.869 117.209 395.023 259.96 303.312C374.168 229.944 476.191 210.928 519.072 207.552Z" stroke="#FF0000" stroke-opacity="0.3"/>
<path opacity="0.511864" d="M535.525 203.46C621.003 196.571 672.373 209.311 668.213 259.793C662.085 334.055 588.921 393.072 550.548 430.047C483.131 495 353.399 516.852 397.23 582.486C434.153 637.774 523.411 667.206 535.842 549.255C548.647 427.915 562.685 302.401 624.066 230.634C680.844 164.231 757.026 151.393 778.893 151.414C860.633 151.493 811.124 457.163 717.331 484.895C597.771 520.244 446.989 430.477 356.313 369.58C265.647 308.684 96.5178 219.773 1.19296 331.553C-94.1317 443.332 117.063 395.065 265.925 301.535C385.016 226.712 491.016 207.046 535.525 203.46Z" stroke="#FF0000" stroke-opacity="0.3"/>
<path opacity="0.527119" d="M552.36 199.574C640.983 192.44 694.083 205.264 689.286 256.446C682.229 331.737 605.857 391.69 565.743 429.239C495.275 495.201 360.641 517.578 405.433 584.036C443.151 640.016 535.348 669.695 549.369 550.107C563.791 427.081 579.553 299.824 643.823 226.964C703.298 159.553 782.349 146.405 805.006 146.388C889.695 146.325 835.463 456.269 738.02 484.546C613.808 520.59 458.441 429.857 365.087 368.286C271.734 306.714 97.3439 216.881 -2.48608 330.359C-102.327 443.837 116.949 394.537 272.089 299.467C396.197 223.409 506.213 203.288 552.36 199.574Z" stroke="#FF0000" stroke-opacity="0.3"/>
<path opacity="0.542373" d="M569.566 195.915C661.366 188.708 716.172 201.715 710.652 253.583C702.532 329.883 622.849 390.624 580.929 428.668C507.287 495.5 367.732 518.148 413.345 585.507C451.783 642.248 546.865 672.346 562.676 551.156C578.938 426.482 596.622 297.519 663.928 223.695C726.205 155.393 808.153 142.086 831.599 142.074C919.24 142.029 859.753 456.124 758.607 484.758C629.673 521.257 469.879 429.27 373.946 366.85C278.003 304.43 98.5251 213.351 -6.03234 328.329C-110.579 443.308 116.873 393.398 278.447 297.084C407.712 220.035 521.77 199.668 569.566 195.915Z" stroke="#FF0000" stroke-opacity="0.3"/>
<path opacity="0.557627" d="M587.17 192.511C682.142 185.408 738.64 198.704 732.308 251.243C722.995 328.53 639.903 389.898 596.103 428.35C519.177 495.902 374.64 518.545 420.987 586.89C460.029 644.46 557.949 675.159 575.75 552.409C594.062 426.13 613.901 295.509 684.372 220.861C749.569 151.795 834.439 138.49 858.675 138.529C949.27 138.674 883.989 456.771 779.09 485.563C645.377 522.263 481.311 428.72 382.889 365.271C284.466 301.821 100.032 209.154 -9.41911 325.421C-118.881 441.685 116.84 391.611 285.02 294.381C419.56 216.597 537.717 196.21 587.17 192.511Z" stroke="#FF0000" stroke-opacity="0.3"/>
<path opacity="0.572881" d="M605.148 189.383C703.315 182.571 761.481 196.267 754.249 249.457C743.611 327.701 656.995 389.524 611.264 428.295C530.934 496.407 381.378 518.757 428.34 588.169C467.89 646.637 568.613 678.129 588.613 553.87C609.185 426.037 631.397 293.815 705.15 218.49C773.387 148.798 861.201 135.665 886.227 135.802C979.776 136.314 908.168 458.244 799.466 486.983C660.905 523.615 492.718 428.206 391.927 363.542C291.125 298.878 101.901 204.274 -12.6625 321.595C-127.226 438.915 116.842 389.147 291.799 291.346C431.761 213.103 554.03 192.929 605.148 189.383Z" stroke="#FF0000" stroke-opacity="0.3"/>
<path opacity="0.588136" d="M623.498 186.552C724.874 180.228 784.684 194.437 776.465 248.254C764.376 327.422 674.137 389.518 626.41 428.512C542.56 497.012 387.958 518.773 435.417 589.334C475.379 648.769 578.835 681.244 601.244 555.536C624.294 426.213 649.098 292.455 726.254 216.611C797.644 146.438 888.424 133.651 914.24 133.936C1010.74 135 932.278 460.57 819.727 489.037C676.259 525.323 504.108 427.729 401.049 361.664C297.98 295.596 104.12 198.697 -15.7382 316.829C-135.607 434.958 116.904 385.988 298.785 287.973C444.282 209.559 570.716 189.846 623.498 186.552Z" stroke="#FF0000" stroke-opacity="0.3"/>
<path opacity="0.60339" d="M642.216 184.04C746.8 178.4 808.232 193.234 798.941 247.655C785.275 327.708 691.317 389.889 641.531 429.005C554.064 497.718 394.382 518.582 442.218 590.37C482.508 650.84 588.651 684.495 613.664 557.406C639.387 426.663 666.986 291.44 747.669 215.242C822.319 144.742 916.084 132.482 942.69 132.965C1042.14 134.769 956.308 463.762 839.865 491.732C691.438 527.385 515.483 427.29 410.257 359.633C305.042 291.977 106.692 192.421 -18.6439 311.106C-143.991 429.79 117.017 382.117 305.978 284.264C457.143 205.981 587.763 186.976 642.216 184.04Z" stroke="#FF0000" stroke-opacity="0.3"/>
<path opacity="0.618644" d="M661.278 181.862C769.072 177.109 832.1 192.683 821.655 247.674C806.291 328.568 708.528 390.643 656.622 429.775C565.436 498.518 400.65 518.177 448.757 591.267C489.29 652.836 598.051 687.866 625.852 559.472C654.457 427.385 685.055 290.783 769.374 214.403C847.389 143.733 944.15 132.181 971.542 132.912C1073.93 135.647 980.242 467.826 859.871 495.07C706.439 529.798 526.841 426.89 419.57 357.456C312.289 288.022 109.626 185.453 -21.3688 304.426C-152.363 423.398 117.203 377.533 313.387 280.225C470.331 202.377 605.147 184.335 661.278 181.862Z" stroke="#FF0000" stroke-opacity="0.3"/>
<path opacity="0.633898" d="M680.654 180.029C791.661 176.364 856.256 192.79 844.582 248.321C827.407 330.008 725.757 391.778 671.684 430.823C576.688 499.41 406.786 517.553 455.067 592.018C495.728 654.744 607.058 691.341 637.836 561.725C669.496 428.382 703.287 290.491 791.343 214.102C872.815 143.425 972.582 132.763 1000.76 133.794C1106.07 137.647 1004.06 472.756 879.735 499.046C721.26 532.556 538.184 426.527 428.968 355.135C319.741 283.741 112.929 177.813 -23.8822 296.8C-160.694 415.787 117.482 372.241 321.001 275.865C483.812 198.761 622.855 181.938 680.654 180.029Z" stroke="#FF0000" stroke-opacity="0.3"/>
<path opacity="0.649153" d="M700.324 178.552C814.533 176.172 880.668 193.561 867.69 249.594C848.6 332.02 742.994 393.291 686.707 432.14C587.832 500.386 412.799 516.706 461.139 592.61C501.855 656.548 615.695 694.901 649.611 564.153C684.501 429.645 721.662 290.562 813.545 214.343C898.559 143.822 1001.33 134.23 1030.29 135.61C1138.51 140.766 1027.75 478.534 899.447 503.641C735.905 535.644 549.511 426.199 438.449 352.674C327.397 279.15 116.579 169.52 -26.1752 288.25C-168.94 406.978 117.854 366.253 328.819 271.194C497.586 195.147 640.854 179.792 700.324 178.552Z" stroke="#FF0000" stroke-opacity="0.3"/>
<path opacity="0.664407" d="M720.252 177.435C837.651 176.532 905.294 194.988 890.949 251.486C869.846 334.596 760.226 395.17 701.687 433.719C598.858 501.438 418.713 515.638 467.005 593.039C507.695 658.238 623.979 698.525 661.188 566.741C699.466 431.167 740.158 290.996 835.948 215.122C924.575 144.921 1030.35 136.574 1060.08 138.35C1171.2 144.99 1051.29 485.13 918.998 508.832C750.372 539.044 560.813 425.904 448.023 350.083C335.232 274.261 120.592 160.614 -28.2421 278.809C-177.076 397.004 118.359 359.595 336.847 266.236C511.627 191.547 659.122 177.904 720.252 177.435Z" stroke="#FF0000" stroke-opacity="0.3"/>
<path opacity="0.679661" d="M740.404 176.676C860.973 177.433 930.091 197.059 914.319 253.981C891.117 337.715 777.437 397.403 716.616 435.548C609.777 502.557 424.535 514.352 472.698 593.301C513.269 659.804 631.939 702.195 672.576 569.473C714.381 432.936 758.751 291.784 858.511 216.429C950.813 146.709 1059.59 139.773 1090.08 141.992C1204.06 150.288 1074.66 492.506 938.377 514.589C764.667 542.738 572.11 425.642 457.688 347.371C343.265 269.102 124.949 151.134 -30.0577 268.527C-185.065 385.921 118.99 352.299 345.062 261.009C525.924 187.978 677.625 176.282 740.404 176.676Z" stroke="#FF0000" stroke-opacity="0.3"/>
<path opacity="0.694915" d="M760.742 176.269C884.454 178.858 955.016 199.745 937.766 257.051C912.391 341.349 794.617 399.968 731.49 437.61C620.593 503.733 430.279 512.853 478.231 593.394C518.625 661.238 639.611 705.889 683.793 572.332C729.247 434.934 777.417 292.912 881.2 218.244C977.222 149.158 1088.97 143.793 1120.22 146.498C1237.03 156.61 1097.84 500.609 957.582 520.871C778.796 546.698 583.382 425.407 467.422 344.549C351.473 263.693 129.648 141.132 -31.6171 257.462C-192.882 373.79 119.767 344.404 353.472 255.539C540.433 184.448 696.33 174.92 760.742 176.269Z" stroke="#FF0000" stroke-opacity="0.3"/>
<path opacity="0.710169" d="M781.222 176.199C908.046 180.782 980.019 203.013 961.25 260.66C933.64 345.462 811.752 402.841 746.303 439.884C631.325 504.956 435.984 511.153 483.645 593.321C523.792 662.536 647.027 709.586 694.852 575.296C744.053 437.144 796.128 294.361 903.968 220.538C1003.75 152.235 1118.45 148.587 1150.45 151.817C1270.05 163.892 1120.83 509.378 976.607 527.63C792.765 550.896 594.64 425.198 477.245 341.632C359.849 258.065 134.656 130.664 -32.9206 245.683C-200.497 360.701 120.701 335.963 362.051 249.854C555.128 180.968 715.188 173.814 781.222 176.199Z" stroke="#FF0000" stroke-opacity="0.3"/>
<path opacity="0.725424" d="M801.804 176.451C931.706 183.169 1005.06 206.818 984.734 264.767C954.841 350.011 828.833 405.992 761.055 442.35C641.989 506.219 441.649 509.266 488.961 593.089C528.804 663.696 654.229 713.271 705.773 578.347C758.8 439.544 814.859 296.107 926.778 223.278C1030.33 155.894 1147.97 154.095 1180.7 157.886C1303.06 172.056 1143.62 518.74 995.454 534.814C806.588 555.301 605.883 425.013 487.132 338.63C368.37 252.247 139.965 119.796 -33.9568 233.273C-207.879 346.751 121.797 327.036 370.783 243.987C569.978 177.549 734.166 172.953 801.804 176.451Z" stroke="#FF0000" stroke-opacity="0.3"/>
<path opacity="0.740678" d="M822.443 176.994C955.385 185.971 1030.08 211.105 1008.18 269.315C975.972 354.945 845.85 409.384 775.742 444.979C652.584 507.507 447.304 507.209 494.2 592.702C533.706 664.718 661.261 716.925 716.576 581.463C773.484 442.106 833.585 298.119 949.589 226.417C1056.92 160.076 1177.46 160.241 1210.92 164.624C1336 181.005 1166.21 528.616 1014.13 542.358C820.278 559.875 617.114 424.846 497.072 335.56C377.041 246.275 145.535 108.591 -34.737 220.32C-215.01 332.05 123.058 317.686 379.665 237.97C584.949 174.197 753.223 172.32 822.443 176.994Z" stroke="#FF0000" stroke-opacity="0.3"/>
<path opacity="0.755932" d="M843.097 177.799C979.04 189.142 1055.05 215.81 1031.57 274.245C997.015 360.205 862.797 412.983 790.366 447.745C663.129 508.812 452.969 505.003 499.415 592.178C538.538 665.609 668.169 720.534 727.288 584.622C788.107 444.804 852.281 300.361 972.363 229.904C1083.47 164.714 1206.87 166.941 1241.05 171.94C1368.8 190.627 1188.59 538.915 1032.64 550.2C833.854 564.585 628.332 424.693 507.073 332.437C385.825 240.183 151.335 97.1255 -35.2856 206.924C-221.895 316.722 124.484 307.988 388.66 231.836C599.997 170.914 772.316 171.894 843.097 177.799Z" stroke="#FF0000" stroke-opacity="0.3"/>
<path opacity="0.771186" d="M863.725 178.829C1002.63 192.616 1079.93 220.86 1054.85 279.486C1017.95 365.728 879.669 416.741 804.932 450.616C673.641 510.123 458.66 502.672 504.624 591.53C543.343 666.38 675.003 724.085 737.934 587.805C802.672 447.607 870.927 302.795 995.064 233.679C1109.92 169.731 1236.15 174.096 1271.04 179.733C1401.43 200.8 1210.78 549.541 1051 558.267C847.336 569.39 639.537 424.552 517.111 329.279C394.696 234.006 157.311 85.4728 -35.6055 193.19C-228.532 300.906 126.064 298.021 397.752 225.624C615.1 167.706 791.404 171.65 863.725 178.829Z" stroke="#FF0000" stroke-opacity="0.3"/>
<path opacity="0.786441" d="M884.285 180.038C1026.1 196.33 1104.68 226.173 1078.01 284.963C1038.78 371.445 896.465 420.617 819.441 453.56C684.133 511.431 464.397 500.245 509.868 590.78C548.162 667.041 681.815 727.569 748.539 590.989C817.183 450.481 889.501 305.375 1017.66 237.676C1136.23 175.041 1265.26 181.6 1300.84 187.886C1433.83 211.386 1232.8 560.392 1069.24 566.484C860.751 574.252 650.739 424.418 527.184 326.101C403.637 227.786 163.43 73.7151 -35.7445 179.231C-234.919 284.747 127.788 287.871 406.903 219.37C630.194 164.57 810.444 171.556 884.285 180.038Z" stroke="#FF0000" stroke-opacity="0.3"/>
<path opacity="0.801695" d="M904.74 181.378C1049.44 200.206 1129.26 231.662 1101.02 290.592C1059.48 377.279 913.187 424.559 833.903 456.541C694.624 512.724 470.186 497.748 515.156 589.946C553.037 667.61 688.659 730.979 759.139 594.153C831.646 453.395 907.986 308.051 1040.12 241.823C1162.37 180.548 1294.16 189.332 1330.43 196.277C1465.98 222.236 1254.68 571.357 1087.38 574.773C874.123 579.128 661.935 424.284 537.268 322.919C412.612 221.555 169.629 61.9284 -35.7286 165.162C-241.086 268.396 129.632 277.623 416.087 213.111C645.256 161.501 829.398 171.575 904.74 181.378Z" stroke="#FF0000" stroke-opacity="0.3"/>
<path opacity="0.816949" d="M925.053 182.795C1072.6 204.165 1153.66 237.232 1123.88 296.285C1080.07 383.153 929.843 428.519 848.328 459.526C705.132 513.996 476.055 495.217 520.547 589.06C558.019 668.107 695.589 734.311 769.764 597.281C846.071 456.311 926.368 310.773 1062.42 246.043C1188.3 186.152 1322.82 197.169 1359.76 204.773C1497.86 233.197 1276.44 582.328 1105.45 583.054C887.485 583.979 673.13 424.149 547.361 319.753C421.583 215.356 175.842 50.1941 -35.6169 151.104C-247.075 252.014 131.563 267.37 425.278 206.885C660.245 158.498 848.228 171.668 925.053 182.795Z" stroke="#FF0000" stroke-opacity="0.3"/>
<path opacity="0.832203" d="M945.193 184.233C1095.57 208.124 1177.86 242.786 1146.57 301.951C1100.53 388.985 946.437 432.442 862.727 462.476C715.675 515.237 482 492.685 526.04 588.145C563.147 668.555 702.658 737.564 780.445 600.351C860.47 459.194 944.637 313.487 1084.55 250.252C1214 191.747 1351.21 204.979 1388.83 213.237C1529.44 244.103 1298.13 593.19 1123.48 591.244C900.87 588.764 684.326 424.007 557.429 316.616C430.523 209.224 182.005 38.5915 -35.4471 137.179C-252.899 235.766 133.559 257.203 434.427 200.729C675.109 155.547 866.898 171.792 945.193 184.233Z" stroke="#FF0000" stroke-opacity="0.3"/>
<path opacity="0.847458" d="M965.132 185.63C1118.31 211.994 1201.84 248.22 1169.08 307.496C1120.89 394.691 962.981 436.276 877.115 465.356C726.274 516.44 488.038 490.187 531.684 587.233C568.452 668.979 709.923 740.739 791.221 603.349C874.856 462.008 962.782 316.136 1106.48 254.369C1239.43 197.222 1379.32 212.628 1417.61 221.526C1560.72 254.788 1319.78 603.831 1141.53 599.264C914.313 593.442 695.527 423.855 567.469 313.527C439.396 203.198 188.054 27.2013 -35.289 123.509C-258.632 219.817 135.595 247.222 443.497 194.678C689.817 152.642 885.377 171.903 965.132 185.63Z" stroke="#FF0000" stroke-opacity="0.3"/>
<path opacity="0.862712" d="M984.841 186.926C1140.81 215.687 1225.59 253.431 1191.41 312.821C1141.14 400.188 979.491 439.967 891.506 468.128C736.945 517.598 494.186 487.76 537.497 586.356C573.984 669.408 717.436 743.84 802.122 606.256C889.243 464.717 980.8 318.662 1128.2 258.307C1264.59 202.465 1407.14 219.976 1446.09 229.495C1591.71 265.08 1341.46 614.131 1159.63 607.028C927.85 597.974 706.739 423.687 577.457 310.501C448.163 197.314 193.914 16.0999 -35.1919 110.218C-264.308 204.335 137.606 237.515 452.452 188.768C704.327 149.769 903.633 171.95 984.841 186.926Z" stroke="#FF0000" stroke-opacity="0.3"/>
<path opacity="0.877966" d="M1004.3 188.056C1163.06 219.11 1249.1 258.313 1213.57 317.834C1161.31 405.39 995.979 443.462 905.918 470.756C747.709 518.704 500.438 485.441 543.506 585.545C579.781 669.868 725.25 746.869 813.186 609.057C903.649 467.283 998.688 321.006 1149.72 261.977C1289.46 207.361 1434.66 226.883 1474.29 236.998C1622.41 274.807 1363.21 623.981 1177.82 614.458C941.519 602.321 717.962 423.498 587.37 307.552C456.789 191.606 199.509 5.36221 -35.2471 97.4233C-270.003 189.483 139.567 228.179 461.254 183.033C718.602 146.915 921.64 171.887 1004.3 188.056Z" stroke="#FF0000" stroke-opacity="0.3"/>
<path opacity="0.89322" d="M1023.49 188.958C1185.05 222.175 1272.39 262.763 1235.57 322.435C1181.41 410.214 1012.46 446.707 920.367 473.205C758.583 519.751 506.8 483.265 549.707 584.831C585.862 670.387 733.413 749.834 824.442 611.738C918.087 469.671 1016.44 323.113 1171.02 265.294C1314.04 211.798 1461.89 233.213 1502.19 243.89C1652.83 283.802 1385.08 633.267 1196.16 621.475C955.355 606.445 729.201 423.287 597.206 304.697C465.223 186.109 204.754 -4.939 -35.5141 85.2432C-275.772 175.427 141.424 219.304 469.855 177.505C732.606 144.067 939.37 171.663 1023.49 188.958Z" stroke="#FF0000" stroke-opacity="0.3"/>
<path opacity="0.908475" d="M1042.39 189.569C1206.77 224.791 1295.44 266.678 1257.4 326.532C1201.46 414.579 1028.96 449.651 934.87 475.437C769.585 520.734 513.279 481.268 556.15 584.249C592.266 670.995 741.973 752.74 835.925 614.284C932.577 471.847 1034.07 324.925 1192.1 268.173C1338.32 215.665 1488.83 238.829 1529.81 250.029C1683 291.895 1407.14 641.881 1214.7 628.001C969.395 610.31 740.459 423.046 606.94 301.949C473.431 180.855 209.597 -14.731 -36.0511 73.7955C-281.699 162.322 143.132 210.978 478.229 172.218C746.306 141.21 956.804 171.23 1042.39 189.569Z" stroke="#FF0000" stroke-opacity="0.3"/>
<path opacity="0.923729" d="M1060.99 189.831C1228.21 226.876 1318.26 269.962 1279.09 330.035C1221.48 418.406 1045.49 452.247 949.445 477.422C780.733 521.649 519.882 479.488 562.832 583.828C599.023 671.72 750.977 755.593 847.665 616.682C947.134 473.777 1051.56 326.389 1212.97 270.534C1362.31 218.856 1515.49 243.603 1557.16 255.28C1712.95 298.93 1429.44 649.718 1233.48 633.963C983.676 613.881 751.743 422.775 616.562 299.326C481.376 175.875 213.942 -23.9481 -36.9472 63.1868C-287.826 150.324 144.659 203.291 486.33 167.202C759.672 138.331 973.922 170.543 1060.99 189.831Z" stroke="#FF0000" stroke-opacity="0.3"/>
<path opacity="0.938983" d="M1079.28 189.686C1249.39 228.346 1340.86 272.52 1300.65 332.86C1241.48 421.622 1062.06 454.444 964.109 479.128C792.04 522.489 526.603 477.954 569.78 583.598C606.16 672.589 760.463 758.401 859.693 618.922C961.776 475.431 1068.94 327.454 1233.63 272.299C1386.01 221.269 1541.88 247.41 1584.26 259.513C1742.68 304.753 1452.04 656.68 1252.53 639.29C998.23 617.125 763.052 422.469 626.047 296.836C489.042 171.205 217.748 -32.5217 -38.2394 53.5285C-294.237 139.578 145.95 196.323 494.132 162.486C772.675 135.418 990.708 169.557 1079.28 189.686Z" stroke="#FF0000" stroke-opacity="0.3"/>
<path opacity="0.954237" d="M1097.24 189.081C1270.29 229.127 1363.25 274.263 1322.08 334.923C1261.5 424.154 1078.7 456.2 978.877 480.522C803.521 523.249 533.438 476.699 577.001 583.587C613.691 673.624 770.467 761.167 872.031 620.986C976.514 476.777 1086.18 328.069 1254.07 273.394C1409.41 222.808 1568.01 250.132 1611.11 262.603C1772.23 309.221 1474.97 662.669 1271.92 643.916C1013.09 620.01 774.392 422.122 635.382 294.495C496.372 166.866 220.952 -40.3911 -40.0163 44.9146C-300.985 130.22 146.974 190.15 501.587 158.098C785.289 132.458 1007.14 168.23 1097.24 189.081Z" stroke="#FE0000" stroke-opacity="0.3"/>
<path opacity="0.969492" d="M1114.88 187.968C1290.92 229.149 1385.43 275.113 1343.39 336.151C1281.54 425.938 1095.41 457.473 993.761 481.578C815.189 523.924 540.406 475.749 584.504 583.817C621.65 674.848 781.023 763.893 884.703 622.867C991.364 477.787 1103.31 328.189 1274.31 273.753C1432.53 223.386 1593.88 251.664 1637.73 264.441C1801.62 312.201 1498.28 667.6 1291.66 647.775C1028.27 622.505 785.763 421.734 644.567 292.313C503.363 162.891 223.483 -47.4992 -42.3117 37.4418C-308.117 122.382 147.687 184.845 508.693 154.067C797.493 129.443 1023.22 166.526 1114.88 187.968Z" stroke="#FF0000" stroke-opacity="0.3"/>
<path opacity="0.984746" d="M1101.11 139.021C1284.18 157.313 1385.63 191 1351.26 257.542C1300.71 355.428 1117.05 411.203 1017.66 448.551C843.056 514.161 559.415 501.724 618.177 604.11C667.684 690.357 840.262 758.706 926.264 604.11C1014.74 445.071 1107.96 280.823 1273.32 204.102C1426.32 133.117 1592.88 140.409 1638.81 147.487C1810.49 173.943 1551.32 569.011 1340.2 576.068C1071.09 585.063 799.871 415.747 640.294 304.633C480.721 193.52 170.535 19.4413 -86.4614 139.021C-343.468 258.6 124.716 261.774 484.943 183.995C773.117 121.772 1005.79 129.497 1101.11 139.021Z" stroke="#FF0000" stroke-opacity="0.3"/>
<path d="M1117.61 134.576C1303.86 153.031 1407.06 187.02 1372.1 254.157C1320.66 352.917 1133.83 409.19 1032.71 446.873C855.084 513.069 566.53 500.52 626.31 603.822C676.675 690.838 852.243 759.798 939.735 603.822C1029.74 443.361 1124.58 277.645 1292.81 200.239C1448.46 128.619 1617.9 135.977 1664.63 143.118C1839.29 169.81 1575.63 568.409 1360.85 575.528C1087.07 584.604 811.152 413.775 648.813 301.668C486.476 189.562 170.91 13.9282 -90.544 134.576C-351.998 255.224 124.298 258.427 490.762 179.953C783.934 117.173 1020.64 124.967 1117.61 134.576Z" stroke="#FF0000" stroke-opacity="0.3"/>
</g>
<defs>
<clipPath id="clip0_150_2291">
<rect width="1440" height="524" fill="white" transform="matrix(-1 0 0 1 1440 0)"/>
</clipPath>
</defs>
</svg>
