<svg width="210" height="198" viewBox="0 0 210 198" fill="none" xmlns="http://www.w3.org/2000/svg">
<g clip-path="url(#clip0_150_1496)">
<mask id="mask0_150_1496" style="mask-type:luminance" maskUnits="userSpaceOnUse" x="0" y="0" width="638" height="198">
<path d="M637.034 0H0V198H637.034V0Z" fill="white"/>
</mask>
<g mask="url(#mask0_150_1496)">
<mask id="mask1_150_1496" style="mask-type:luminance" maskUnits="userSpaceOnUse" x="0" y="0" width="638" height="198">
<path d="M637.034 0H0V198H637.034V0Z" fill="white"/>
</mask>
<g mask="url(#mask1_150_1496)">
<path d="M39.6126 171L38.3526 169.818C19.9557 152.253 8.95117 124.893 8.95117 96.689C9.03515 43.32 52.129 0 105.219 0C158.31 0 201.404 43.4045 201.404 96.689C201.404 123.542 189.475 151.578 170.322 169.818L169.062 171L106.059 151.156L39.6126 171ZM105.219 5.9111C55.4052 5.9111 14.9154 46.6132 14.9154 96.689C14.9154 122.698 24.7439 147.862 41.2925 164.329L106.227 143.978L167.55 164.244C184.855 147.102 195.524 121.347 195.524 96.6043C195.524 46.6132 154.95 5.9111 105.219 5.9111Z" fill="black" fill-opacity="0.04"/>
<path d="M104.926 144.845L210.356 177.669L163.909 193.997L163.994 186.637L189.489 178.515L105.094 151.528" fill="black" fill-opacity="0.04"/>
<path d="M105.346 151.528L20.9514 178.515L46.4464 186.637L46.5305 193.997L0 177.669L105.346 144.845" fill="black" fill-opacity="0.04"/>
<path d="M75.8203 81.0996L76.0863 191.128L56.9438 198.003L56.5254 87.6753L75.8203 81.0996Z" fill="#EA3838" fill-opacity="0.04"/>
<path d="M56.9435 198.001L37.5413 191.61L37.2969 81.001L56.8143 87.6753L56.9435 198.001Z" fill="black" fill-opacity="0.04"/>
<path d="M56.8578 82.1955L37.2969 75.1544L56.5249 69.0005L76.0861 75.1544L56.8578 82.1955Z" fill="black" fill-opacity="0.04"/>
<path d="M172.804 91.4995L173.059 191.755L155.326 197.999L155.156 97.7442L172.804 91.4995Z" fill="#EA3838" fill-opacity="0.04"/>
<path d="M155.156 198.001L137.421 192.243L137.253 91.6938L155.156 97.723V198.001Z" fill="black" fill-opacity="0.04"/>
<path d="M154.986 93.0008L137.253 86.7883L154.986 81.0002L173.059 86.7883L154.986 93.0008Z" fill="black" fill-opacity="0.04"/>
<path d="M129.793 35.4355V170.128L105.805 178.5V44.5684L129.793 35.4355Z" fill="#656565" fill-opacity="0.02"/>
<path d="M105.758 178.5L82.2181 170.687L82.0527 35.8008L105.758 44.5683V178.5Z" fill="black" fill-opacity="0.04"/>
<path d="M106.176 37.5005L82.0527 29.5529L105.671 21.0005L129.794 28.9483L106.176 37.5005Z" fill="black" fill-opacity="0.04"/>
</g>
</g>
</g>
<defs>
<clipPath id="clip0_150_1496">
<rect width="210" height="198" fill="white"/>
</clipPath>
</defs>
</svg>
