<svg width="180" height="180" viewBox="0 0 180 180" fill="none" xmlns="http://www.w3.org/2000/svg">
<rect width="180" height="180" rx="20" fill="#F5F7F9"/>
<path d="M100.278 66.6413V62.1562C100.278 60.9776 99.3039 60 98.1295 60C96.9547 60 95.981 60.9776 95.981 62.1562V66.4688H77.3604V62.1562C77.3604 60.9776 76.3867 60 75.2119 60C74.0375 60 73.0634 60.9776 73.0634 62.1562V66.6413C65.3287 67.3601 61.5762 71.9888 61.0034 78.8599C60.9458 79.6939 61.6333 80.3839 62.4356 80.3839H110.906C111.736 80.3839 112.424 79.665 112.338 78.8599C111.765 71.9888 108.013 67.3601 100.278 66.6413Z" fill="#EA3838"/>
<path d="M107.459 96.6719C101.128 96.6719 96 101.818 96 108.172C96 110.328 96.6016 112.369 97.6617 114.094C99.6383 117.429 103.276 119.672 107.459 119.672C111.641 119.672 115.279 117.429 117.256 114.094C118.316 112.369 118.917 110.328 118.917 108.172C118.917 101.818 113.79 96.6719 107.459 96.6719ZM113.389 106.936L107.287 112.599C106.886 112.973 106.342 113.175 105.826 113.175C105.282 113.175 104.737 112.973 104.307 112.542L101.471 109.696C100.641 108.862 100.641 107.482 101.471 106.648C102.302 105.814 103.677 105.814 104.508 106.648L105.883 108.028L110.467 103.773C111.326 102.968 112.701 103.025 113.503 103.888C114.305 104.75 114.248 106.102 113.389 106.936Z" fill="#EA3838"/>
<path d="M109.699 82.0242H63.8648C62.2891 82.0242 61 83.318 61 84.8994V102.609C61 111.234 65.297 116.984 75.3232 116.984H89.4462C91.4228 116.984 92.7979 115.058 92.1675 113.189C91.5947 111.522 91.1079 109.682 91.1079 108.359C91.1079 99.6481 98.1833 92.5467 106.863 92.5467C107.694 92.5467 108.525 92.6041 109.327 92.7481C111.046 93.0069 112.593 91.6553 112.593 89.9303V84.9278C112.564 83.318 111.275 82.0242 109.699 82.0242ZM78.7896 106.088C78.2452 106.605 77.5005 106.922 76.7559 106.922C76.0107 106.922 75.2661 106.605 74.7216 106.088C74.206 105.542 73.891 104.794 73.891 104.047C73.891 103.299 74.206 102.552 74.7216 102.005C75.0083 101.747 75.2949 101.546 75.667 101.402C76.7271 100.942 77.9874 101.201 78.7896 102.005C79.3053 102.552 79.6202 103.299 79.6202 104.047C79.6202 104.794 79.3053 105.542 78.7896 106.088ZM78.7896 96.0256C78.6465 96.1403 78.503 96.2555 78.3599 96.3706C78.188 96.4853 78.0162 96.5716 77.8443 96.6294C77.6724 96.7156 77.5005 96.773 77.3286 96.8019C77.128 96.8303 76.9277 96.8592 76.7559 96.8592C76.0107 96.8592 75.2661 96.5431 74.7216 96.0256C74.206 95.4792 73.891 94.7319 73.891 93.9841C73.891 93.2367 74.206 92.4894 74.7216 91.943C75.3808 91.2819 76.3833 90.9653 77.3286 91.1667C77.5005 91.1956 77.6724 91.253 77.8443 91.3392C78.0162 91.3966 78.188 91.4828 78.3599 91.598C78.503 91.7131 78.6465 91.8278 78.7896 91.943C79.3053 92.4894 79.6202 93.2367 79.6202 93.9841C79.6202 94.7319 79.3053 95.4792 78.7896 96.0256ZM88.8158 96.0256C88.2718 96.5431 87.5267 96.8592 86.7821 96.8592C86.0374 96.8592 85.2923 96.5431 84.7483 96.0256C84.2326 95.4792 83.9172 94.7319 83.9172 93.9841C83.9172 93.2367 84.2326 92.4894 84.7483 91.943C85.8367 90.8791 87.7562 90.8791 88.8158 91.943C89.3315 92.4894 89.6469 93.2367 89.6469 93.9841C89.6469 94.7319 89.3315 95.4792 88.8158 96.0256Z" fill="#EA3838"/>
</svg>
