<svg width="80" height="80" viewBox="0 0 80 80" fill="none" xmlns="http://www.w3.org/2000/svg">
<rect width="80" height="80" rx="10" fill="white"/>
<path d="M47.34 51.5H32.364V48.204L40.012 40.332C41.7187 38.5187 42.572 37.0253 42.572 35.852C42.572 34.9773 42.2947 34.2733 41.74 33.74C41.2067 33.2067 40.5133 32.94 39.66 32.94C37.9533 32.94 36.7053 33.8147 35.916 35.564L32.204 33.388C32.8867 31.8733 33.8787 30.7107 35.18 29.9C36.5027 29.068 37.9747 28.652 39.596 28.652C41.6227 28.652 43.3613 29.292 44.812 30.572C46.2627 31.8307 46.988 33.5373 46.988 35.692C46.988 38.0173 45.7613 40.4067 43.308 42.86L38.924 47.244H47.34V51.5Z" fill="#EA3838"/>
</svg>
