<svg width="80" height="80" viewBox="0 0 80 80" fill="none" xmlns="http://www.w3.org/2000/svg">
<rect width="80" height="80" rx="10" fill="white"/>
<path d="M46.988 32.748L42.796 38.188C44.3533 38.636 45.5907 39.4253 46.508 40.556C47.4467 41.6867 47.916 43.0307 47.916 44.588C47.916 46.892 47.1373 48.6947 45.58 49.996C44.0653 51.2973 42.1773 51.948 39.916 51.948C38.1453 51.948 36.5773 51.5427 35.212 50.732C33.8467 49.9 32.8547 48.7267 32.236 47.212L36.012 45.036C36.5453 46.764 37.8467 47.628 39.916 47.628C41.0467 47.628 41.9213 47.3613 42.54 46.828C43.18 46.2733 43.5 45.5267 43.5 44.588C43.5 43.6707 43.18 42.9347 42.54 42.38C41.9213 41.8253 41.0467 41.548 39.916 41.548H38.956L37.26 38.988L41.676 33.228H32.908V29.1H46.988V32.748Z" fill="#EA3838"/>
</svg>
