<svg width="80" height="80" viewBox="0 0 80 80" fill="none" xmlns="http://www.w3.org/2000/svg">
<rect width="80" height="80" rx="10" fill="white"/>
<path d="M37.656 37.26H39.96C42.136 37.26 43.9493 37.9107 45.4 39.212C46.872 40.492 47.608 42.284 47.608 44.588C47.608 46.892 46.8293 48.6947 45.272 49.996C43.7573 51.2973 41.8693 51.948 39.608 51.948C37.7733 51.948 36.1627 51.5427 34.776 50.732C33.4107 49.9 32.4187 48.7053 31.8 47.148L35.576 44.94C36.1093 46.732 37.4533 47.628 39.608 47.628C40.7387 47.628 41.6133 47.3613 42.232 46.828C42.872 46.2733 43.192 45.5267 43.192 44.588C43.192 43.6707 42.8827 42.9347 42.264 42.38C41.6453 41.8253 40.8027 41.548 39.736 41.548H32.952L33.848 29.1H46.552V33.228H37.944L37.656 37.26Z" fill="#EA3838"/>
</svg>
