<svg width="80" height="80" viewBox="0 0 80 80" fill="none" xmlns="http://www.w3.org/2000/svg">
<rect width="80" height="80" rx="10" fill="white"/>
<path d="M45.08 29.1L40.12 36.364C42.4453 36.428 44.3333 37.1853 45.784 38.636C47.2347 40.0867 47.96 41.9213 47.96 44.14C47.96 46.4227 47.2027 48.3 45.688 49.772C44.1733 51.2227 42.2213 51.948 39.832 51.948C37.4427 51.948 35.4907 51.2227 33.976 49.772C32.4827 48.3427 31.736 46.4653 31.736 44.14C31.736 42.4547 32.1733 40.9507 33.048 39.628L40.024 29.1H45.08ZM43.576 44.14C43.576 43.0733 43.224 42.2093 42.52 41.548C41.816 40.8653 40.92 40.524 39.832 40.524C38.744 40.524 37.848 40.8547 37.144 41.516C36.4613 42.1773 36.12 43.052 36.12 44.14C36.12 45.228 36.4613 46.1133 37.144 46.796C37.848 47.4573 38.744 47.788 39.832 47.788C40.92 47.788 41.816 47.4573 42.52 46.796C43.224 46.1133 43.576 45.228 43.576 44.14Z" fill="#EA3838"/>
</svg>
