<svg width="80" height="80" viewBox="0 0 80 80" fill="none" xmlns="http://www.w3.org/2000/svg">
<rect width="80" height="80" rx="10" fill="white"/>
<path d="M45.016 39.852C47.0853 41.0893 48.12 42.892 48.12 45.26C48.12 47.3293 47.3947 48.9613 45.944 50.156C44.5147 51.3507 42.5627 51.948 40.088 51.948C37.592 51.948 35.6293 51.3507 34.2 50.156C32.7707 48.9613 32.056 47.3293 32.056 45.26C32.056 42.9133 33.08 41.1107 35.128 39.852C33.5707 38.7427 32.792 37.196 32.792 35.212C32.792 33.1427 33.4853 31.532 34.872 30.38C36.28 29.228 38.0187 28.652 40.088 28.652C42.1787 28.652 43.9067 29.228 45.272 30.38C46.6587 31.532 47.352 33.1427 47.352 35.212C47.352 37.196 46.5733 38.7427 45.016 39.852ZM42.968 35.436C42.968 34.6253 42.7013 33.9853 42.168 33.516C41.6347 33.0467 40.9413 32.812 40.088 32.812C39.2347 32.812 38.5413 33.0467 38.008 33.516C37.4747 33.9853 37.208 34.6253 37.208 35.436C37.208 36.268 37.4747 36.9187 38.008 37.388C38.5413 37.8573 39.2347 38.092 40.088 38.092C40.9413 38.092 41.6347 37.8573 42.168 37.388C42.7013 36.9187 42.968 36.268 42.968 35.436ZM42.744 46.956C43.4053 46.4013 43.736 45.644 43.736 44.684C43.736 43.724 43.4053 42.9773 42.744 42.444C42.0827 41.8893 41.1973 41.612 40.088 41.612C38.9787 41.612 38.0933 41.8893 37.432 42.444C36.7707 42.9773 36.44 43.724 36.44 44.684C36.44 45.644 36.7707 46.4013 37.432 46.956C38.0933 47.5107 38.9787 47.788 40.088 47.788C41.1973 47.788 42.0827 47.5107 42.744 46.956Z" fill="#EA3838"/>
</svg>
