<svg width="80" height="80" viewBox="0 0 80 80" fill="none" xmlns="http://www.w3.org/2000/svg">
<rect width="80" height="80" rx="10" fill="white"/>
<path d="M47.96 36.428C47.96 38.156 47.512 39.6707 46.616 40.972H46.648L39.672 51.5H34.616L39.608 44.204C37.2827 44.1827 35.384 43.4467 33.912 41.996C32.4613 40.5453 31.736 38.6893 31.736 36.428C31.736 34.124 32.4827 32.2573 33.976 30.828C35.4907 29.3773 37.4427 28.652 39.832 28.652C42.2213 28.652 44.1733 29.3773 45.688 30.828C47.2027 32.2787 47.96 34.1453 47.96 36.428ZM36.12 36.428C36.12 37.516 36.472 38.4013 37.176 39.084C37.88 39.7453 38.7653 40.076 39.832 40.076C40.9413 40.076 41.8373 39.7453 42.52 39.084C43.224 38.4013 43.576 37.516 43.576 36.428C43.576 35.34 43.224 34.4653 42.52 33.804C41.8373 33.1427 40.9413 32.812 39.832 32.812C38.7653 32.812 37.88 33.1533 37.176 33.836C36.472 34.4973 36.12 35.3613 36.12 36.428Z" fill="#EA3838"/>
</svg>
