<svg width="479" height="240" viewBox="0 0 479 240" fill="none" xmlns="http://www.w3.org/2000/svg">
<path d="M465.166 5.07449H33.4674C33.4199 4.766 33.4199 4.41005 33.4199 4.10156H465.095C465.166 4.41005 465.214 4.71854 465.166 5.07449Z" fill="#EA3838"/>
<path d="M465.119 17.8408C465.119 18.1493 465.072 18.5053 465.024 18.8612H34.7252C34.6065 18.5765 34.6065 18.1968 34.5591 17.8408H465.119Z" fill="#EA3838"/>
<path d="M462.769 31.6279C462.722 31.9839 462.627 32.2924 462.508 32.6009H33.3247C33.6332 32.2924 33.8942 31.9839 34.1078 31.6279H462.769Z" fill="#EA3838"/>
<path d="M457.977 45.3672C457.81 45.7231 457.668 46.0316 457.502 46.3401H-0.512207C-0.0376301 45.9842 0.460676 45.6757 0.98271 45.3672H457.977Z" fill="#EA3838"/>
<path d="M449.767 59.1543C449.672 59.3204 449.553 59.5102 449.411 59.6764C449.316 59.8425 449.15 59.9848 449.055 60.151H-14.8682C-14.6071 59.795 -14.3461 59.4865 -14.0851 59.178H449.767V59.1543Z" fill="#EA3838"/>
<path d="M438.353 72.918C438.044 73.2265 437.736 73.535 437.522 73.8909H-23.4346C-23.3397 73.5824 -23.1261 73.2265 -22.96 72.918H438.353Z" fill="#EA3838"/>
<path d="M429.099 86.7051C428.933 87.0136 428.79 87.3695 428.695 87.678H-28.3936C-28.3936 87.3695 -28.2986 87.0136 -28.1325 86.7051H429.099Z" fill="#EA3838"/>
<path d="M426.156 101.418H-30.4106C-30.3632 101.11 -30.3632 100.754 -30.3632 100.445H426.109C426.109 100.754 426.109 101.062 426.156 101.418Z" fill="#EA3838"/>
<path d="M429.099 115.157H-29.6985C-29.746 114.849 -29.7935 114.493 -29.7935 114.185H428.743C428.838 114.541 428.956 114.849 429.099 115.157Z" fill="#EA3838"/>
<path d="M436.645 128.945H-26.4952C-26.5902 128.636 -26.7088 128.28 -26.8037 127.972H435.98C436.241 128.28 436.431 128.636 436.645 128.945Z" fill="#EA3838"/>
<path d="M-21.3701 141.711H244.393C242.376 141.972 240.312 142.28 238.247 142.684H-20.8718C-21.0616 142.375 -21.2277 142.019 -21.3701 141.711Z" fill="#EA3838"/>
<path d="M447.844 142.707H267.979C266.057 142.304 264.206 141.995 262.284 141.734H446.942C447.227 142.019 447.535 142.375 447.844 142.707Z" fill="#EA3838"/>
<path d="M-13.207 155.499H204.149C203.532 155.808 202.963 156.163 202.346 156.472H-12.4952C-12.7562 156.187 -12.9697 155.808 -13.207 155.499Z" fill="#EA3838"/>
<path d="M460.658 156.495H293.512C293.156 156.139 292.8 155.831 292.373 155.522H459.78C460.089 155.807 460.397 156.139 460.658 156.495Z" fill="#EA3838"/>
<path d="M-1.74609 169.238H181.939C181.464 169.571 180.942 169.926 180.444 170.235H-0.773211C-1.12914 169.926 -1.43762 169.618 -1.74609 169.238Z" fill="#EA3838"/>
<path d="M471.051 170.235H305.495C305.234 169.926 305.02 169.57 304.759 169.262H470.41C470.695 169.57 470.885 169.855 471.051 170.235Z" fill="#EA3838"/>
<path d="M14.4131 182.979H160.844C160.346 183.287 159.823 183.667 159.254 183.975H15.8605C15.4097 183.667 14.8877 183.358 14.4131 182.979Z" fill="#EA3838"/>
<path d="M477.458 183.975H314.749C314.536 183.666 314.346 183.31 314.132 183.002H477.15C477.292 183.287 477.411 183.666 477.458 183.975Z" fill="#EA3838"/>
<path d="M40.562 196.789H134.172C133.318 197.145 132.511 197.453 131.681 197.762H43.2434C42.3179 197.453 41.44 197.145 40.562 196.789Z" fill="#EA3838"/>
<path d="M479 196.789C479 197.098 479 197.453 478.952 197.762H323.671C323.457 197.406 323.196 197.098 323.006 196.789H479Z" fill="#EA3838"/>
<path d="M475.227 210.528C475.061 210.884 474.871 211.193 474.705 211.501H334.254C333.898 211.193 333.637 210.884 333.376 210.528H475.227Z" fill="#EA3838"/>
<path d="M464.122 224.316C463.766 224.625 463.339 224.981 462.936 225.289H349.915C349.441 224.981 348.942 224.672 348.468 224.316H464.122Z" fill="#EA3838"/>
<path d="M439.634 238.056C438.661 238.412 437.665 238.72 436.644 239.029H378.698C377.607 238.768 376.587 238.412 375.542 238.056H439.634Z" fill="#EA3838"/>
</svg>
