<svg width="497" height="334" viewBox="0 0 497 334" fill="none" xmlns="http://www.w3.org/2000/svg">
<path d="M543.39 1.99914H472.601C473.879 1.56322 475.071 1.09823 476.349 0.807617H539.99C541.124 1.09823 542.257 1.47604 543.39 1.99914Z" fill="#EA3838"/>
<path d="M195.282 17.6045C196.357 17.9823 197.433 18.3601 198.508 18.796H118.041C118.797 18.3601 119.552 17.9823 120.308 17.6045H195.282Z" fill="#EA3838"/>
<path d="M572.363 18.8253H435.84C436.595 18.4475 437.293 18.0116 438.048 17.6338H570.968C571.404 17.9825 571.927 18.3894 572.363 18.8253Z" fill="#EA3838"/>
<path d="M231.084 34.5186C231.839 34.9545 232.537 35.3322 233.292 35.71H96.5947C96.9725 35.2741 97.3503 34.8964 97.67 34.5186H231.084Z" fill="#EA3838"/>
<path d="M588.491 35.71H406.751C407.39 35.3322 408.088 34.9545 408.785 34.5186H587.561C587.939 34.8964 588.23 35.2741 588.491 35.71Z" fill="#EA3838"/>
<path d="M262.76 51.3455C263.661 51.7232 264.474 52.1592 265.346 52.537H85.1748C85.2329 52.4789 85.2329 52.3336 85.291 52.2755C85.4945 51.9558 85.6107 51.6361 85.7851 51.3164L262.76 51.3455Z" fill="#EA3838"/>
<path d="M598.488 52.5372H375.628C376.442 52.1594 377.342 51.7816 378.156 51.3457H597.907C598.168 51.7235 598.372 52.1594 598.488 52.5372Z" fill="#EA3838"/>
<path d="M604.388 69.4219H79.5664C79.5664 68.986 79.6827 68.6083 79.7408 68.2305H604.039C604.184 68.6664 604.3 69.0441 604.388 69.4219Z" fill="#EA3838"/>
<path d="M606.915 86.2482H78.229C78.1709 85.8704 78.1709 85.4344 78.1709 85.0566H606.828C606.915 85.4344 606.973 85.8122 606.915 86.2482Z" fill="#EA3838"/>
<path d="M606.828 101.883C606.828 102.261 606.77 102.697 606.712 103.162H79.769C79.6528 102.784 79.6528 102.348 79.5947 101.883H606.828Z" fill="#EA3838"/>
<path d="M603.98 118.768C603.922 119.203 603.777 119.581 603.661 119.959H78.0547C78.4325 119.581 78.7522 119.203 79.0137 118.768H603.98Z" fill="#EA3838"/>
<path d="M598.11 135.594C597.907 136.03 597.732 136.407 597.529 136.785H36.6152C37.1964 136.349 37.8067 135.972 38.446 135.594H598.11Z" fill="#EA3838"/>
<path d="M588.055 152.508C587.939 152.711 587.794 152.944 587.62 153.147C587.503 153.351 587.3 153.525 587.184 153.728H19.0342C19.3538 153.292 19.6735 152.915 19.9932 152.537L588.055 152.508Z" fill="#EA3838"/>
<path d="M574.077 169.305C573.699 169.682 573.321 170.06 573.06 170.496H8.54297C8.65921 170.118 8.92076 169.682 9.12418 169.305H574.077Z" fill="#EA3838"/>
<path d="M562.744 186.219C562.541 186.597 562.366 187.032 562.25 187.41H2.46973C2.46973 187.032 2.58596 186.597 2.78938 186.219H562.744Z" fill="#EA3838"/>
<path d="M559.141 204.237H0C0.0581197 203.86 0.0580878 203.424 0.0580878 203.046H559.083C559.083 203.424 559.083 203.801 559.141 204.237Z" fill="#EA3838"/>
<path d="M562.744 221.064H0.871114C0.812994 220.686 0.754883 220.25 0.754883 219.872H562.308C562.424 220.308 562.569 220.686 562.744 221.064Z" fill="#EA3838"/>
<path d="M571.985 237.948H4.79478C4.67855 237.571 4.53323 237.135 4.41699 236.757H571.172C571.491 237.135 571.724 237.571 571.985 237.948Z" fill="#EA3838"/>
<path d="M11.0713 253.583H336.542C334.072 253.903 331.544 254.28 329.015 254.775H11.6815C11.4491 254.397 11.2456 253.961 11.0713 253.583Z" fill="#EA3838"/>
<path d="M585.702 254.775H365.428C363.074 254.28 360.807 253.903 358.482 253.583H584.626C584.946 253.961 585.324 254.397 585.702 254.775Z" fill="#EA3838"/>
<path d="M21.0684 270.468H287.257C286.501 270.846 285.804 271.282 285.048 271.659H21.9401C21.6205 271.311 21.359 270.846 21.0684 270.468Z" fill="#EA3838"/>
<path d="M601.394 271.689H396.697C396.261 271.253 395.796 270.875 395.302 270.497H600.319C600.697 270.846 601.075 271.224 601.394 271.689Z" fill="#EA3838"/>
<path d="M35.1035 287.294H260.056C259.475 287.672 258.865 288.108 258.225 288.485H36.324C35.8591 288.137 35.4813 287.759 35.1035 287.294Z" fill="#EA3838"/>
<path d="M614.122 288.515H411.371C411.051 288.137 410.79 287.701 410.499 287.323H613.366C613.686 287.672 613.918 288.05 614.122 288.515Z" fill="#EA3838"/>
<path d="M54.8945 304.121H234.223C233.584 304.499 232.944 304.935 232.276 305.313H56.6672C56.115 304.964 55.4757 304.586 54.8945 304.121Z" fill="#EA3838"/>
<path d="M621.969 305.342H422.706C422.444 304.964 422.212 304.528 421.95 304.15H621.592C621.766 304.499 621.911 304.964 621.969 305.342Z" fill="#EA3838"/>
<path d="M86.918 321.034H201.559C200.542 321.47 199.525 321.848 198.508 322.226H90.2018C89.0684 321.848 87.9932 321.47 86.918 321.034Z" fill="#EA3838"/>
<path d="M623.857 321.034C623.857 321.412 623.857 321.848 623.799 322.226H433.631C433.37 321.79 433.05 321.412 432.817 321.034H623.857Z" fill="#EA3838"/>
</svg>
