<svg width="2103" height="910" viewBox="0 0 2103 910" fill="none" xmlns="http://www.w3.org/2000/svg">
<path opacity="0.1" d="M1738.29 547.485C1738.95 537.774 1740.31 519.903 1743.14 484.615C1747.3 432.704 1749.77 403.133 1751.41 383.331C1754.28 348.542 1753.93 355.153 1758.21 300.849C1761.82 255.107 1764.6 218.851 1758.02 300.835C1751.26 385.176 1744.27 472.279 1740.93 512.96C1737.83 550.598 1738.04 546.723 1738.31 542.967C1739.32 528.928 1756.14 319.417 1756.57 315.686C1757.12 310.928 1750.15 400.739 1745.57 459.674C1740.99 518.613 1733.85 610.951 1739.05 547.544C1744.25 484.138 1744.09 482.432 1740.59 523.664C1737.77 556.649 1737.96 552.542 1738.29 547.485Z" stroke="#FF0000" stroke-opacity="0.3"/>
<path opacity="0.115254" d="M1722.99 550.587C1721.19 540.533 1721.04 522.227 1723.91 486.281C1728.11 433.4 1732.6 403.408 1735.28 383.303C1740 347.985 1743.37 354.966 1746.27 299.553C1748.72 252.877 1748.86 215.767 1742.12 299.277C1735.2 385.188 1728.02 473.911 1723.03 515.246C1718.4 553.487 1716.43 549.396 1716.06 545.527C1714.71 531.069 1732.45 317.694 1735.54 314.067C1739.49 309.446 1737.03 401.236 1735.18 461.458C1733.31 521.679 1731.2 616.079 1738.98 551.655C1746.75 487.231 1740.56 485.094 1732.91 526.824C1726.79 560.209 1723.93 555.823 1722.99 550.587Z" stroke="#FF0000" stroke-opacity="0.3"/>
<path opacity="0.130508" d="M1706.41 553.769C1700.99 543.375 1698.67 524.638 1701.72 488.033C1706.22 434.186 1713.82 403.771 1718.14 383.364C1725.73 347.515 1734.6 354.856 1735.66 298.34C1736.57 250.736 1732.95 212.778 1725.65 297.81C1718.13 385.286 1710.31 475.625 1702.7 517.613C1695.66 556.462 1690.46 552.158 1689.16 548.178C1684.35 533.307 1704.29 316.074 1711.37 312.55C1720.38 308.056 1724.27 401.814 1726.23 463.312C1728.18 524.809 1733.2 621.257 1745.04 555.813C1756.88 490.368 1741.75 487.814 1727.76 530.049C1716.58 563.838 1709.23 559.18 1706.41 553.769Z" stroke="#FF0000" stroke-opacity="0.3"/>
<path opacity="0.145763" d="M1690.03 557.12C1680.97 546.495 1676.46 527.389 1679.65 490.111C1684.35 435.275 1695.02 404.335 1700.96 383.571C1711.37 347.093 1725.75 354.633 1724.9 297.056C1724.18 248.554 1716.74 209.855 1708.99 296.448C1701.03 385.53 1692.7 477.524 1682.53 520.257C1673.11 559.794 1664.67 555.372 1662.45 551.309C1654.16 536.125 1675.98 314.915 1687.02 311.369C1701.11 306.851 1711.49 402.41 1717.36 465.084C1723.22 527.758 1735.52 626.065 1751.34 559.461C1767.16 492.857 1743.06 490.154 1722.8 533.095C1706.59 567.448 1694.75 562.654 1690.03 557.12Z" stroke="#FF0000" stroke-opacity="0.3"/>
<path opacity="0.161017" d="M1673.83 560.655C1661.12 549.912 1654.38 530.502 1657.67 492.538C1662.5 436.692 1676.21 405.119 1683.73 383.94C1696.92 346.732 1716.81 354.292 1713.98 295.7C1711.58 246.343 1700.25 207.016 1692.18 295.206C1683.88 385.932 1675.18 479.626 1662.5 523.197C1650.77 563.51 1639.08 559.077 1635.92 554.96C1624.12 539.569 1647.52 314.26 1662.54 310.565C1681.7 305.859 1698.71 403.03 1708.57 466.772C1718.42 530.51 1738.13 630.468 1757.84 562.556C1777.56 494.646 1744.49 492.083 1718 535.946C1696.82 571.037 1680.46 566.25 1673.83 560.655Z" stroke="#FF0000" stroke-opacity="0.3"/>
<path opacity="0.176271" d="M1657.83 564.375C1641.45 553.635 1632.46 533.992 1635.79 495.327C1640.68 438.45 1657.39 406.131 1666.45 384.475C1682.37 346.433 1707.82 353.827 1702.91 294.271C1698.77 244.103 1683.52 204.269 1675.23 294.094C1666.71 386.501 1657.74 481.934 1642.6 526.441C1628.6 567.62 1613.66 563.285 1609.55 559.142C1594.23 543.664 1618.95 314.138 1637.94 310.158C1662.15 305.083 1685.9 403.673 1699.83 468.36C1713.76 533.049 1740.99 634.427 1764.52 565.058C1788.05 495.689 1745.99 493.572 1713.35 538.583C1687.23 574.59 1666.36 569.967 1657.83 564.375Z" stroke="#FF0000" stroke-opacity="0.3"/>
<path opacity="0.191525" d="M1642 568.281C1621.94 557.672 1610.69 537.871 1614.01 498.492C1618.92 440.566 1638.56 407.384 1649.17 385.192C1667.77 346.206 1698.74 353.24 1691.7 292.775C1685.78 241.843 1666.55 201.628 1658.14 293.122C1649.5 387.246 1640.37 484.455 1622.83 529.999C1606.61 572.138 1588.43 568.014 1583.38 563.881C1564.51 548.434 1590.28 314.576 1613.23 310.167C1642.49 304.546 1673.09 404.341 1691.16 469.852C1709.23 535.362 1744.1 637.929 1771.36 566.945C1798.6 495.959 1747.58 494.609 1708.83 540.998C1677.83 578.109 1652.44 573.805 1642 568.281Z" stroke="#FF0000" stroke-opacity="0.3"/>
<path opacity="0.20678" d="M1626.32 572.369C1602.59 562.023 1589.05 542.137 1592.34 502.032C1597.18 443.038 1619.75 408.878 1631.84 386.087C1653.1 346.05 1689.6 352.527 1680.37 291.211C1672.6 239.562 1649.39 199.1 1640.95 292.294C1632.28 388.169 1623.09 487.189 1603.2 533.87C1584.8 577.061 1563.37 573.266 1557.38 569.173C1534.97 553.881 1561.55 315.581 1588.45 310.599C1622.74 304.25 1660.26 405.032 1682.53 471.238C1704.8 537.442 1747.39 640.951 1778.29 568.194C1809.19 495.441 1749.22 495.178 1704.42 543.18C1668.58 581.581 1638.68 577.758 1626.32 572.369Z" stroke="#FF0000" stroke-opacity="0.3"/>
<path opacity="0.222034" d="M1610.79 576.64C1583.37 566.681 1567.54 546.789 1570.76 505.948C1575.5 445.871 1600.94 410.616 1614.52 387.165C1638.37 345.969 1680.4 351.692 1668.94 289.586C1659.3 237.273 1632.05 196.693 1623.67 291.618C1615.05 389.271 1605.87 490.135 1583.68 538.053C1563.15 582.386 1538.48 579.034 1531.53 575.016C1505.57 560 1532.78 317.16 1563.62 311.462C1602.91 304.198 1647.43 405.754 1673.95 472.521C1700.46 539.288 1750.83 643.493 1785.3 568.812C1819.78 494.133 1750.89 495.28 1700.09 545.128C1659.46 585.006 1625.06 581.825 1610.79 576.64Z" stroke="#FF0101" stroke-opacity="0.3"/>
<path opacity="0.237288" d="M1595.38 581.081C1564.3 571.64 1546.16 551.815 1549.28 510.229C1553.87 449.052 1582.17 412.593 1597.2 388.422C1623.62 345.964 1671.15 350.738 1657.43 287.904C1645.86 234.974 1614.59 194.407 1606.32 291.089C1597.82 390.55 1588.73 493.287 1564.28 542.535C1541.66 588.103 1513.75 585.306 1505.85 581.395C1476.35 566.778 1504 319.3 1538.75 312.746C1583.04 304.388 1634.6 406.498 1665.38 473.699C1696.16 540.897 1754.37 645.555 1792.35 568.802C1830.34 492.05 1752.56 494.924 1695.83 546.842C1650.44 588.377 1611.55 585.997 1595.38 581.081Z" stroke="#FF0000" stroke-opacity="0.3"/>
<path opacity="0.252542" d="M1580.06 585.684C1545.33 576.881 1524.9 557.197 1527.9 514.855C1532.3 452.568 1563.41 414.796 1579.89 389.852C1608.82 346.028 1661.84 349.668 1645.84 286.165C1632.34 232.67 1597.03 192.242 1588.93 290.704C1580.6 391.997 1571.66 496.632 1544.98 547.304C1520.3 594.188 1489.17 592.057 1480.33 588.284C1447.29 574.181 1475.25 321.981 1513.9 314.434C1563.14 304.813 1621.76 407.266 1656.83 474.772C1691.89 542.279 1757.96 647.152 1799.4 568.185C1840.84 489.217 1754.22 494.121 1691.59 548.329C1641.51 591.696 1598.15 590.267 1580.06 585.684Z" stroke="#FF0000" stroke-opacity="0.3"/>
<path opacity="0.267797" d="M1564.84 590.441C1526.46 582.392 1503.73 562.917 1506.6 519.813C1510.8 456.406 1544.7 417.22 1562.59 391.446C1594.03 346.168 1652.5 348.498 1634.18 284.378C1618.75 230.369 1579.41 190.197 1571.51 290.46C1563.4 393.607 1554.64 500.167 1525.76 552.346C1499.06 600.625 1464.72 599.263 1454.94 595.657C1418.37 582.178 1446.55 325.178 1489.06 316.511C1543.24 305.464 1608.92 408.062 1648.29 475.756C1687.64 543.448 1761.55 648.312 1806.4 566.998C1851.25 485.684 1755.82 492.902 1687.38 549.603C1632.63 594.964 1584.82 594.632 1564.84 590.441Z" stroke="#FF0000" stroke-opacity="0.3"/>
<path opacity="0.283051" d="M1549.67 595.334C1507.67 588.146 1482.66 568.943 1485.37 525.07C1489.36 460.532 1526 419.839 1545.31 393.189C1579.23 346.371 1643.12 347.231 1622.5 282.55C1605.14 228.067 1561.77 188.262 1554.11 290.346C1546.22 395.363 1537.66 503.868 1506.62 557.634C1477.9 607.379 1440.38 606.881 1429.67 603.47C1389.6 590.718 1417.93 328.845 1464.29 318.944C1523.36 306.32 1596.09 408.877 1639.73 476.647C1683.37 544.416 1765.11 649.066 1813.33 565.285C1861.54 481.502 1757.37 491.298 1683.14 550.679C1623.76 598.182 1571.53 599.077 1549.67 595.334Z" stroke="#FF0000" stroke-opacity="0.3"/>
<path opacity="0.298305" d="M1534.53 600.348C1488.93 594.115 1461.65 575.241 1464.2 530.593C1467.98 464.916 1507.37 422.637 1528.08 395.064C1564.44 346.629 1633.73 345.875 1610.82 280.681C1591.52 225.763 1544.16 186.425 1536.73 290.345C1529.07 397.251 1520.73 507.718 1487.54 563.14C1456.82 614.416 1416.13 614.865 1404.48 611.672C1360.93 599.736 1389.41 332.934 1439.57 321.69C1503.52 307.359 1583.26 409.712 1631.16 477.459C1679.05 545.204 1768.57 649.452 1820.13 563.095C1871.7 476.74 1758.82 489.346 1678.86 551.572C1614.89 601.354 1558.27 603.595 1534.53 600.348Z" stroke="#FF0000" stroke-opacity="0.3"/>
<path opacity="0.313559" d="M1519.39 605.47C1470.21 600.271 1440.68 581.776 1443.1 536.349C1446.66 469.525 1488.78 425.587 1510.87 397.056C1549.69 346.939 1624.32 344.447 1599.14 278.778C1577.94 223.462 1526.61 184.674 1519.39 290.443C1511.96 399.255 1503.81 511.698 1468.47 568.834C1435.77 621.697 1391.94 623.168 1379.37 620.214C1332.35 609.171 1360.99 337.385 1414.97 324.713C1483.76 308.559 1570.44 410.564 1622.56 478.203C1674.67 545.841 1771.92 649.529 1826.81 560.503C1881.7 471.478 1760.19 487.1 1674.52 552.317C1605.96 604.487 1544.98 608.175 1519.39 605.47Z" stroke="#FF0000" stroke-opacity="0.3"/>
<path opacity="0.328814" d="M1504.21 610.678C1451.48 606.583 1419.71 588.503 1422.01 542.294C1425.39 474.319 1470.23 428.662 1493.71 399.145C1534.96 347.289 1614.92 342.959 1587.51 276.849C1564.42 221.161 1509.17 182.991 1502.13 290.622C1494.9 401.351 1486.9 515.785 1449.41 574.685C1414.73 629.182 1367.78 631.733 1354.28 629.036C1303.82 618.949 1332.73 342.134 1390.47 327.957C1464.07 309.886 1557.63 411.43 1613.92 478.892C1670.21 546.352 1775.08 649.351 1833.31 557.581C1891.54 465.81 1761.45 484.611 1670.08 552.935C1596.98 607.594 1531.65 612.809 1504.21 610.678Z" stroke="#FF0000" stroke-opacity="0.3"/>
<path opacity="0.344068" d="M1488.97 615.954C1432.73 613.012 1398.75 595.379 1400.93 548.381C1404.15 479.248 1451.71 431.83 1476.59 401.301C1520.29 347.668 1605.54 341.421 1575.94 274.894C1551.01 218.856 1491.87 181.354 1484.96 290.859C1477.87 403.514 1469.99 519.953 1430.34 580.655C1393.65 636.818 1343.6 640.495 1329.19 638.067C1275.33 628.986 1304.6 347.102 1366.1 331.367C1444.48 311.308 1544.82 412.305 1605.23 479.537C1665.63 546.77 1778.05 648.982 1839.64 554.409C1901.22 459.835 1762.59 481.94 1665.53 553.46C1587.88 610.676 1518.26 617.485 1488.97 615.954Z" stroke="#FF0000" stroke-opacity="0.3"/>
<path opacity="0.359322" d="M1473.64 621.28C1413.89 619.522 1377.71 602.354 1379.83 554.566C1382.94 484.269 1433.23 435.06 1459.51 403.503C1505.69 348.066 1596.19 339.852 1564.46 272.922C1537.72 216.542 1474.75 179.745 1467.91 291.133C1460.89 405.724 1453.04 524.176 1411.2 586.706C1372.5 644.563 1319.36 649.393 1304.05 647.241C1246.81 639.198 1276.62 352.217 1341.86 334.884C1425.01 312.791 1532.03 413.186 1596.49 480.161C1660.94 547.133 1780.79 648.499 1845.76 551.08C1910.73 453.662 1763.61 479.153 1660.86 553.931C1578.65 613.751 1504.74 622.194 1473.64 621.28Z" stroke="#FF0000" stroke-opacity="0.3"/>
<path opacity="0.374576" d="M1458.17 626.63C1394.94 626.072 1356.6 609.376 1358.68 560.796C1361.73 489.33 1414.79 438.316 1442.49 405.723C1491.16 348.467 1586.9 338.266 1553.09 270.936C1524.61 214.219 1457.86 178.137 1451.01 291.416C1443.95 407.95 1436.05 528.424 1391.99 592.796C1351.23 652.355 1295.02 658.354 1278.81 656.483C1218.22 649.488 1248.79 357.386 1317.77 338.443C1405.68 314.296 1519.25 414.07 1587.68 480.772C1656.11 547.472 1783.26 647.969 1851.68 547.686C1920.1 447.404 1764.52 476.318 1656.04 554.378C1569.26 616.827 1491.08 626.92 1458.17 626.63Z" stroke="#FF0000" stroke-opacity="0.3"/>
<path opacity="0.38983" d="M1442.53 631.988C1375.84 632.625 1335.38 616.398 1337.46 567.02C1340.52 494.381 1396.36 441.563 1425.51 407.935C1476.71 348.861 1577.65 336.679 1541.85 268.942C1511.7 211.885 1441.22 176.509 1434.23 291.683C1427.05 410.17 1418.99 532.673 1372.66 598.886C1329.8 660.148 1270.52 667.308 1253.42 665.717C1189.5 659.766 1221.11 362.529 1293.81 341.978C1386.48 315.782 1506.48 414.952 1578.8 481.392C1651.12 547.832 1785.44 647.477 1857.39 544.33C1929.33 441.182 1765.3 473.506 1651.06 554.846C1559.68 619.921 1477.24 631.656 1442.53 631.988Z" stroke="#FF0000" stroke-opacity="0.3"/>
<path opacity="0.405085" d="M1426.68 637.328C1356.55 639.132 1313.99 623.359 1316.12 573.18C1319.27 499.367 1377.95 444.762 1408.56 410.108C1462.37 349.232 1568.5 335.11 1530.79 266.949C1499.02 209.533 1424.86 174.835 1417.63 291.91C1410.19 412.35 1401.83 536.888 1353.18 604.928C1308.17 667.883 1245.84 676.184 1227.85 674.863C1160.62 669.93 1193.58 367.552 1270.01 345.42C1367.43 317.21 1493.73 415.828 1569.85 482.038C1645.96 548.248 1787.32 647.1 1862.89 541.11C1938.44 435.119 1765.97 470.79 1645.92 555.373C1549.88 623.04 1463.2 636.389 1426.68 637.328Z" stroke="#FF0000" stroke-opacity="0.3"/>
<path opacity="0.420339" d="M1410.6 642.627C1337.05 645.556 1292.39 630.205 1294.66 579.226C1297.98 504.234 1359.53 447.879 1391.67 412.216C1448.12 349.57 1559.46 333.574 1519.91 264.958C1486.61 207.161 1408.83 173.09 1401.21 292.069C1393.37 414.469 1384.56 541.038 1333.51 610.881C1286.28 675.5 1220.9 684.901 1202.04 683.843C1131.52 679.884 1166.17 372.367 1246.35 348.703C1348.56 318.541 1481 416.694 1560.81 482.728C1640.64 548.762 1788.88 646.918 1868.17 538.127C1947.45 429.335 1766.54 468.245 1640.59 555.996C1539.83 626.197 1448.9 641.103 1410.6 642.627Z" stroke="#FF0000" stroke-opacity="0.3"/>
<path opacity="0.435593" d="M1394.25 647.864C1317.26 651.848 1270.57 636.881 1273.02 585.101C1276.61 508.93 1341.12 450.876 1374.8 414.232C1433.97 349.86 1550.52 332.091 1509.25 262.982C1474.48 204.77 1393.14 171.254 1384.98 292.136C1376.58 416.494 1367.16 545.099 1313.62 616.698C1264.09 682.944 1195.65 693.387 1175.92 692.572C1102.13 689.526 1138.88 376.883 1222.83 351.759C1329.84 319.733 1468.28 417.546 1551.7 483.48C1635.13 549.412 1790.11 647.012 1873.26 535.486C1956.4 423.958 1767.01 465.947 1635.06 556.757C1529.51 629.407 1434.34 645.791 1394.25 647.864Z" stroke="#FF0000" stroke-opacity="0.3"/>
<path opacity="0.450847" d="M1377.59 653.008C1297.19 657.963 1248.47 643.326 1251.17 590.743C1255.15 513.394 1322.69 453.709 1357.97 416.12C1419.95 350.089 1541.71 330.673 1498.81 261.024C1462.67 202.352 1377.83 169.3 1368.96 292.084C1359.81 418.395 1349.6 549.03 1293.48 622.332C1241.56 690.152 1170.07 701.562 1149.46 700.968C1072.41 698.749 1111.71 381.008 1199.44 354.515C1311.28 320.744 1455.57 418.378 1542.51 484.308C1629.43 550.235 1790.99 647.455 1878.15 533.28C1965.31 419.104 1767.41 463.961 1629.34 557.69C1518.9 632.673 1419.46 650.428 1377.59 653.008Z" stroke="#FF0000" stroke-opacity="0.3"/>
<path opacity="0.466102" d="M1360.6 658.037C1276.78 663.858 1226.05 649.486 1229.1 596.105C1233.57 517.577 1304.23 456.349 1341.17 417.861C1406.05 350.247 1533.04 329.343 1488.63 259.094C1451.21 199.917 1362.92 167.217 1353.14 291.891C1343.08 420.151 1331.88 552.806 1273.06 627.738C1218.66 697.069 1144.09 709.351 1122.6 708.952C1042.3 707.461 1084.62 384.661 1176.19 356.913C1292.9 321.542 1442.89 419.188 1533.22 485.23C1623.55 551.27 1791.53 648.324 1882.86 531.611C1974.2 414.898 1767.73 462.367 1623.42 558.833C1507.97 636.008 1404.25 655.005 1360.6 658.037Z" stroke="#FF0000" stroke-opacity="0.3"/>
<path opacity="0.481356" d="M1343.25 662.922C1256 669.487 1203.3 655.304 1206.77 601.126C1211.87 521.429 1285.72 458.758 1324.37 419.423C1392.26 350.321 1524.53 328.12 1478.71 257.202C1440.11 197.464 1348.42 164.982 1337.54 291.537C1326.36 421.731 1313.95 556.395 1252.34 632.873C1195.34 703.635 1117.67 716.679 1095.32 716.444C1011.77 715.561 1057.62 387.757 1153.05 358.888C1274.7 322.09 1430.22 419.971 1523.83 486.258C1617.46 552.546 1791.71 649.687 1887.4 530.568C1983.09 411.449 1767.98 461.226 1617.28 560.221C1496.72 639.418 1388.69 659.504 1343.25 662.922Z" stroke="#FF0000" stroke-opacity="0.3"/>
<path opacity="0.49661" d="M1325.52 667.638C1234.83 674.804 1180.17 660.726 1184.15 605.756C1190.01 524.896 1267.17 460.906 1307.61 420.787C1378.62 350.306 1516.19 327.02 1469.07 255.358C1429.39 194.996 1334.36 162.585 1322.18 291.005C1309.65 423.116 1295.82 559.766 1231.28 637.691C1171.57 709.791 1090.79 723.472 1067.57 723.363C980.776 722.953 1030.69 390.221 1130.04 360.386C1256.67 322.357 1417.57 420.727 1514.37 487.412C1611.17 554.098 1791.53 651.608 1891.77 530.237C1992.02 408.868 1768.18 460.602 1610.94 561.884C1485.14 642.909 1372.76 663.909 1325.52 667.638Z" stroke="#FF0000" stroke-opacity="0.3"/>
<path opacity="0.511864" d="M1307.4 672.156C1213.24 679.764 1156.66 665.695 1161.24 609.944C1167.99 527.932 1248.58 462.757 1290.85 421.923C1365.11 350.191 1508.02 326.059 1459.73 253.575C1419.06 192.518 1320.74 160.014 1307.05 290.275C1292.94 424.277 1277.48 562.89 1209.87 642.147C1147.33 715.479 1063.41 729.657 1039.32 729.634C949.283 729.547 1003.82 391.977 1107.13 361.351C1238.83 322.313 1404.92 421.448 1504.81 488.7C1604.68 555.951 1790.98 654.141 1895.98 530.695C2000.98 407.251 1768.35 460.556 1604.37 563.846C1473.19 646.478 1356.43 668.196 1307.4 672.156Z" stroke="#FF0000" stroke-opacity="0.3"/>
<path opacity="0.527119" d="M1288.85 676.447C1191.23 684.325 1132.74 670.163 1138.03 613.64C1145.8 530.492 1229.93 464.282 1274.11 422.814C1351.74 349.968 1500.04 325.257 1450.7 251.862C1409.15 190.041 1307.59 157.264 1292.15 289.332C1276.26 425.198 1258.9 565.735 1188.11 646.199C1122.59 720.645 1035.51 735.165 1010.56 735.184C917.27 735.254 977.008 392.963 1084.34 361.736C1221.17 321.93 1392.31 422.132 1495.14 490.128C1597.97 558.126 1790.07 657.334 1900.03 532.014C2010.01 406.693 1768.47 461.137 1597.58 566.13C1460.87 650.125 1339.69 672.346 1288.85 676.447Z" stroke="#FF0000" stroke-opacity="0.3"/>
<path opacity="0.542373" d="M1269.9 680.488C1168.78 688.448 1108.41 674.083 1114.49 616.802C1123.44 532.539 1211.21 465.459 1257.38 423.446C1338.5 349.639 1492.23 324.627 1441.98 250.238C1399.64 187.576 1294.91 154.337 1277.49 288.175C1259.58 425.859 1240.1 568.282 1165.96 649.809C1097.36 725.239 1007.09 739.935 981.264 739.949C884.725 739.998 950.252 393.124 1061.67 361.502C1203.69 321.194 1379.71 422.78 1485.38 491.714C1591.07 560.649 1788.77 661.233 1903.94 534.256C2019.1 407.277 1768.56 462.397 1590.58 568.761C1448.19 653.851 1322.55 676.343 1269.9 680.488Z" stroke="#FF0000" stroke-opacity="0.3"/>
<path opacity="0.557627" d="M1250.51 684.248C1145.89 692.093 1083.66 677.409 1090.64 619.387C1100.9 534.035 1192.42 466.262 1240.67 423.797C1325.41 349.195 1484.62 324.189 1433.56 248.712C1390.56 185.134 1282.7 151.231 1263.09 286.791C1242.92 426.249 1221.06 570.502 1143.44 652.94C1071.62 729.214 978.136 743.907 951.439 743.864C851.647 743.704 923.555 392.41 1039.1 360.614C1186.39 320.083 1367.12 423.388 1475.53 493.459C1583.95 563.53 1787.11 665.868 1907.67 537.468C2028.24 409.071 1768.59 464.37 1583.34 571.747C1435.14 657.649 1304.98 680.163 1250.51 684.248Z" stroke="#FF0000" stroke-opacity="0.3"/>
<path opacity="0.572881" d="M1230.71 687.702C1122.57 695.225 1058.5 680.1 1066.47 621.359C1078.18 534.949 1173.6 466.675 1223.97 423.857C1312.45 348.638 1477.2 323.955 1425.46 247.299C1381.9 182.729 1270.95 147.951 1248.92 285.178C1226.26 426.351 1201.79 572.372 1120.55 655.557C1045.39 732.523 948.656 747.027 921.089 746.875C818.043 746.31 896.92 390.783 1016.66 359.045C1169.29 318.59 1354.55 423.956 1465.57 495.368C1576.61 566.78 1785.05 671.257 1911.24 541.693C2037.44 412.129 1768.59 467.091 1575.87 575.099C1421.7 661.507 1287.01 683.786 1230.71 687.702Z" stroke="#FF0000" stroke-opacity="0.3"/>
<path opacity="0.588136" d="M1210.49 690.829C1098.82 697.814 1032.94 682.122 1042 622.688C1055.31 535.259 1154.71 466.682 1207.29 423.618C1299.65 347.97 1469.95 323.938 1417.67 246.013C1373.65 180.376 1259.69 144.511 1235.01 283.338C1209.62 426.157 1182.29 573.874 1097.3 657.634C1018.67 735.13 918.669 749.251 890.232 748.936C783.933 747.761 870.364 388.215 994.341 356.777C1152.38 316.705 1342 424.483 1455.53 497.443C1569.06 570.405 1782.6 677.417 1914.63 546.957C2046.67 416.5 1768.52 470.58 1568.17 578.824C1407.9 665.421 1268.63 687.192 1210.49 690.829Z" stroke="#FF0000" stroke-opacity="0.3"/>
<path opacity="0.60339" d="M1189.87 693.602C1074.67 699.83 1007 683.448 1017.24 623.349C1032.29 534.941 1135.79 466.27 1190.63 423.072C1286.98 347.189 1462.87 324.147 1410.18 244.868C1365.8 178.087 1248.88 140.92 1221.33 281.272C1192.99 425.659 1162.59 574.994 1073.72 659.143C991.486 737.001 888.201 750.541 858.894 750.008C749.348 748.015 843.893 384.689 972.159 353.799C1135.66 314.426 1329.47 424.966 1445.38 499.684C1561.28 574.401 1779.77 684.346 1917.83 553.275C2055.9 422.206 1768.4 474.854 1560.25 582.919C1393.74 669.372 1249.86 690.359 1189.87 693.602Z" stroke="#FF0000" stroke-opacity="0.3"/>
<path opacity="0.618644" d="M1168.88 696.008C1050.14 701.258 980.714 684.058 992.218 623.328C1009.14 533.992 1116.83 465.439 1174.01 422.223C1274.45 346.306 1455.97 324.596 1402.98 243.878C1358.33 175.884 1238.53 137.198 1207.9 278.992C1176.39 424.863 1142.69 575.72 1049.81 660.072C963.872 738.117 857.288 750.874 827.114 750.066C714.329 747.047 817.531 380.201 950.123 350.114C1119.13 311.762 1316.96 425.409 1435.13 502.089C1553.3 578.77 1776.54 692.042 1920.83 560.654C2065.13 429.266 1768.19 479.917 1552.09 587.38C1379.21 673.352 1230.71 693.277 1168.88 696.008Z" stroke="#FF0000" stroke-opacity="0.3"/>
<path opacity="0.633898" d="M1147.53 698.033C1025.26 702.081 954.103 683.94 966.963 622.615C985.882 532.402 1097.85 464.186 1157.41 421.067C1262.06 345.321 1449.21 325.286 1396.02 243.049C1351.24 173.777 1228.6 133.361 1194.7 276.504C1159.82 423.762 1122.6 576.044 1025.61 660.405C935.863 738.457 825.967 750.231 794.932 749.093C678.922 744.839 791.293 374.757 928.241 345.724C1102.81 308.716 1304.47 425.811 1424.77 504.653C1545.09 583.497 1772.9 700.48 1923.6 569.076C2074.3 437.671 1767.88 485.762 1543.7 592.196C1364.36 677.346 1211.2 695.925 1147.53 698.033Z" stroke="#FF0000" stroke-opacity="0.3"/>
<path opacity="0.649153" d="M1125.87 699.663C1000.06 702.292 927.214 683.088 941.509 621.207C962.537 530.179 1078.87 462.514 1140.87 419.611C1249.78 344.242 1442.58 326.219 1389.34 242.394C1344.49 171.783 1219.09 129.428 1181.73 273.821C1143.3 422.367 1102.36 575.963 1001.15 660.137C907.506 738.017 794.297 748.611 762.404 747.087C643.188 741.392 765.2 368.376 906.528 340.648C1086.67 305.306 1291.99 426.172 1414.33 507.37C1536.66 588.567 1768.88 709.637 1926.13 578.517C2083.39 447.399 1767.47 492.374 1535.09 597.353C1349.19 681.336 1191.37 698.294 1125.87 699.663Z" stroke="#FF0000" stroke-opacity="0.3"/>
<path opacity="0.664407" d="M1103.92 700.898C974.598 701.895 900.088 681.513 915.889 619.119C939.135 527.335 1059.88 460.439 1124.37 417.868C1237.64 343.081 1436.07 327.4 1382.87 241.922C1338.05 169.918 1209.96 125.426 1168.98 270.964C1126.81 420.686 1081.99 575.485 976.473 659.278C878.848 736.804 762.33 746.023 729.586 744.061C607.188 736.728 739.273 361.091 884.992 334.916C1070.74 301.551 1279.54 426.499 1403.78 510.232C1528.03 593.967 1764.46 719.474 1928.4 588.944C2092.35 458.414 1766.92 499.728 1526.25 602.829C1333.72 685.312 1171.25 700.379 1103.92 700.898Z" stroke="#FF0000" stroke-opacity="0.3"/>
<path opacity="0.679661" d="M1081.72 701.735C948.908 700.899 872.772 679.225 890.146 616.363C915.703 523.89 1040.93 457.973 1107.92 415.847C1225.61 341.845 1429.66 328.819 1376.6 241.631C1331.91 168.188 1201.2 121.372 1156.43 267.946C1110.38 418.732 1061.51 574.615 951.619 657.834C849.946 734.83 730.131 742.489 696.542 740.038C570.992 730.877 713.531 352.945 863.645 328.557C1054.99 297.471 1267.1 426.787 1393.14 513.226C1519.18 599.664 1759.66 729.942 1930.4 600.298C2101.15 470.654 1766.22 507.784 1517.2 608.601C1317.97 689.253 1150.87 702.17 1081.72 701.735Z" stroke="#FF0000" stroke-opacity="0.3"/>
<path opacity="0.694915" d="M1059.31 702.186C923.042 699.326 845.316 676.26 864.318 612.974C892.268 519.878 1022 455.141 1091.54 413.571C1213.69 340.547 1423.33 330.476 1370.51 241.529C1326.01 166.605 1192.74 117.295 1144.08 264.79C1094.01 416.526 1040.95 573.37 926.627 655.83C820.855 732.126 697.758 738.05 663.337 735.063C534.669 723.897 687.988 343.998 842.489 321.622C1039.43 293.098 1254.68 427.048 1382.41 516.343C1510.14 605.638 1754.48 740.989 1932.12 612.519C2109.76 484.051 1765.37 516.505 1507.93 614.643C1301.99 693.153 1130.27 703.676 1059.31 702.186Z" stroke="#FF0000" stroke-opacity="0.3"/>
<path opacity="0.710169" d="M1036.76 702.263C897.055 697.202 817.775 672.651 838.449 608.987C868.862 515.336 1003.13 451.969 1075.22 411.061C1201.87 339.197 1417.04 332.353 1364.54 241.61C1320.32 165.172 1184.57 113.212 1131.89 261.516C1077.7 414.086 1020.34 571.769 901.547 653.297C791.64 728.728 665.285 732.757 630.039 729.189C498.294 715.854 662.663 334.314 821.533 314.157C1024.04 288.463 1242.28 427.279 1371.59 519.566C1500.91 611.854 1748.97 752.55 1933.56 625.528C2118.15 498.507 1764.34 525.827 1498.48 620.921C1285.8 696.997 1109.49 704.897 1036.76 702.263Z" stroke="#FF0000" stroke-opacity="0.3"/>
<path opacity="0.725424" d="M1014.08 701.984C870.993 694.565 790.196 668.447 812.581 604.451C845.509 510.31 984.31 448.487 1058.97 408.335C1190.12 337.801 1410.8 334.435 1358.69 241.865C1314.8 163.89 1176.64 109.14 1119.86 258.145C1061.45 411.434 999.704 569.84 876.421 650.269C762.357 724.685 632.775 726.672 596.717 722.486C461.934 706.836 637.561 323.973 800.773 306.222C1008.81 283.597 1229.9 427.481 1360.7 522.879C1491.52 618.277 1743.12 764.551 1934.7 639.231C2126.28 513.911 1763.13 535.683 1488.87 627.399C1269.45 700.771 1088.59 705.847 1014.08 701.984Z" stroke="#FF0000" stroke-opacity="0.3"/>
<path opacity="0.740678" d="M991.35 701.385C844.91 691.47 762.63 663.714 786.751 599.429C822.233 504.863 965.566 444.742 1042.79 405.433C1178.45 336.379 1404.58 336.708 1352.92 242.293C1309.4 162.762 1168.9 105.107 1107.96 254.705C1045.28 408.606 979.077 567.619 851.295 646.804C733.067 720.068 600.291 719.886 563.432 715.046C425.656 696.956 612.685 313.068 780.203 297.891C993.735 278.546 1217.53 427.667 1349.76 526.271C1481.97 624.873 1736.98 776.926 1935.56 653.537C2134.13 530.147 1761.74 546.01 1479.08 634.045C1252.96 704.474 1067.6 706.547 991.35 701.385Z" stroke="#FF0000" stroke-opacity="0.3"/>
<path opacity="0.755932" d="M968.599 700.495C818.854 687.969 735.125 658.517 760.996 593.984C799.054 499.053 946.899 440.768 1026.68 402.377C1166.84 334.937 1398.34 339.144 1347.17 242.872C1304.08 161.777 1161.29 101.121 1096.17 251.216C1029.17 405.626 958.482 565.142 826.209 642.953C703.826 714.945 567.892 712.486 530.245 706.965C389.52 686.328 588.029 301.693 759.813 289.23C978.78 273.345 1205.17 427.835 1338.74 529.719C1472.3 631.6 1730.59 789.588 1936.16 668.331C2141.72 547.074 1760.17 556.719 1469.17 640.819C1236.38 708.099 1046.57 707.017 968.599 700.495Z" stroke="#FF0000" stroke-opacity="0.3"/>
<path opacity="0.771186" d="M945.876 699.359C792.872 684.133 707.721 652.942 735.348 588.197C775.988 492.955 928.313 436.618 1010.64 399.208C1155.26 333.491 1392.07 341.72 1341.44 243.589C1298.79 160.927 1153.76 97.2008 1084.44 247.702C1013.13 402.532 937.943 562.456 801.202 638.785C674.686 709.406 535.635 704.586 497.21 698.361C353.582 675.095 563.582 289.96 739.583 280.323C963.928 268.039 1192.82 427.992 1327.68 533.209C1462.52 638.423 1724.01 802.458 1936.51 683.499C2149.03 564.542 1758.43 567.728 1459.16 647.68C1219.74 711.642 1025.54 707.287 945.876 699.359Z" stroke="#FF0000" stroke-opacity="0.3"/>
<path opacity="0.786441" d="M923.23 698.023C767.012 680.031 680.463 647.073 709.839 582.148C753.05 486.64 909.813 432.337 994.657 395.956C1143.7 332.045 1385.75 344.399 1335.66 244.416C1293.48 160.196 1146.26 93.3515 1072.76 244.185C997.145 399.356 917.485 559.606 776.315 634.369C645.701 703.541 503.571 696.298 464.38 689.355C317.889 663.404 539.326 277.976 719.495 271.247C949.154 262.669 1180.49 428.139 1316.59 536.717C1452.68 645.292 1717.27 815.441 1936.67 698.914C2156.06 582.386 1756.53 578.936 1449.08 654.586C1203.12 715.105 1004.57 707.39 923.23 698.023Z" stroke="#FF0000" stroke-opacity="0.3"/>
<path opacity="0.801695" d="M900.696 696.543C741.302 675.75 653.378 641.011 684.483 575.931C730.24 480.197 891.39 427.983 978.724 392.664C1132.14 330.617 1379.37 347.156 1329.83 245.336C1288.11 159.567 1138.72 89.5854 1061.08 240.69C981.211 396.138 897.12 556.65 751.571 629.789C616.905 697.459 471.735 687.759 431.789 680.089C282.471 651.42 515.228 265.865 699.514 262.092C934.421 257.283 1168.15 428.287 1305.48 540.23C1442.79 652.172 1710.44 828.458 1936.65 714.45C2162.85 600.443 1754.5 590.253 1438.96 661.498C1186.52 718.494 983.686 707.369 900.696 696.543Z" stroke="#FF0000" stroke-opacity="0.3"/>
<path opacity="0.816949" d="M878.321 694.978C715.789 671.378 626.5 634.86 659.307 569.645C707.568 473.711 873.046 423.611 962.836 389.368C1120.57 329.213 1372.91 349.951 1323.9 246.315C1282.62 159.019 1131.08 85.9062 1049.38 237.236C965.322 392.918 876.873 553.644 727.005 625.129C588.344 691.27 440.17 679.104 399.477 670.706C247.362 639.316 491.258 253.75 679.612 252.949C919.704 251.926 1155.82 428.436 1294.36 543.727C1432.91 659.019 1703.6 841.417 1936.53 729.976C2169.45 618.535 1752.37 601.577 1428.84 668.373C1170.01 721.811 962.946 707.266 878.321 694.978Z" stroke="#FF0000" stroke-opacity="0.3"/>
<path opacity="0.832203" d="M856.137 693.39C690.495 667.006 599.846 628.726 634.318 563.387C685.027 467.27 854.767 419.278 946.975 386.11C1108.96 327.843 1366.36 352.748 1317.85 247.326C1276.97 158.524 1123.3 82.3135 1037.61 233.846C949.462 389.734 856.75 550.647 702.634 620.481C560.043 685.092 408.897 670.478 367.461 661.359C212.575 627.272 467.371 241.754 659.745 243.903C904.96 246.643 1143.49 428.593 1283.27 547.192C1423.06 665.791 1696.81 854.23 1936.34 745.355C2175.87 636.479 1750.18 612.804 1418.76 675.173C1153.64 725.069 942.381 707.129 856.137 693.39Z" stroke="#FF0000" stroke-opacity="0.3"/>
<path opacity="0.847458" d="M834.174 691.846C665.445 662.731 573.434 622.724 609.521 557.263C662.606 460.968 836.543 415.044 931.126 382.929C1097.28 326.513 1359.71 355.506 1311.63 248.332C1271.13 158.055 1115.29 78.8061 1025.74 230.535C933.615 386.626 836.762 547.721 678.477 615.933C532.028 679.044 377.933 662.031 335.76 652.204C178.117 615.471 443.515 230.003 639.867 235.046C890.152 241.475 1131.15 428.761 1272.21 550.602C1413.29 672.445 1690.15 866.809 1936.17 760.45C2182.18 654.092 1747.93 623.827 1408.77 681.855C1137.44 728.277 922.026 707.006 834.174 691.846Z" stroke="#FF0000" stroke-opacity="0.3"/>
<path opacity="0.862712" d="M812.463 690.416C640.659 658.654 547.273 616.971 584.918 551.382C640.296 454.899 818.356 410.968 915.274 379.868C1085.53 325.235 1352.93 358.187 1305.23 249.301C1265.03 157.583 1107.02 75.3828 1013.73 227.325C917.767 383.635 816.914 544.933 654.544 611.586C504.315 673.255 347.291 653.917 304.382 643.404C143.984 604.106 419.638 218.628 619.931 226.472C875.24 236.471 1118.8 428.947 1261.21 553.945C1403.63 678.944 1683.69 879.07 1936.06 775.129C2188.44 671.19 1745.72 634.547 1398.9 688.382C1121.46 731.451 901.916 706.955 812.463 690.416Z" stroke="#FF0000" stroke-opacity="0.3"/>
<path opacity="0.877966" d="M791.028 689.167C616.15 654.872 521.37 611.579 560.507 545.846C618.081 449.153 800.194 407.107 899.399 376.964C1073.67 324.013 1346.05 360.747 1298.61 250.196C1258.65 157.074 1098.41 72.036 1001.55 224.23C901.898 380.799 797.21 542.342 630.844 607.532C476.917 667.847 316.975 646.288 273.326 635.117C110.169 593.363 395.681 207.749 599.887 218.266C860.184 231.67 1106.44 429.154 1250.29 557.201C1394.13 685.246 1677.53 890.927 1936.12 789.258C2194.71 687.591 1743.56 644.857 1389.21 694.715C1105.73 734.601 882.081 707.024 791.028 689.167Z" stroke="#FF0000" stroke-opacity="0.3"/>
<path opacity="0.89322" d="M769.893 688.171C591.931 651.487 495.726 606.664 536.282 540.764C595.943 443.825 782.038 403.523 883.485 374.26C1061.69 322.856 1339.04 363.15 1291.78 250.985C1251.95 156.5 1089.42 68.7622 989.149 221.27C885.996 378.162 777.654 540.016 607.384 603.868C449.845 662.947 286.985 639.298 242.593 627.506C76.6546 583.429 371.586 197.494 579.685 210.516C844.944 227.115 1094.06 429.387 1239.46 560.354C1384.84 691.317 1671.75 902.303 1936.41 802.709C2201.06 703.114 1741.51 654.658 1379.74 700.819C1090.31 737.747 862.551 707.271 769.893 688.171Z" stroke="#FF0000" stroke-opacity="0.3"/>
<path opacity="0.908475" d="M749.073 687.497C568.007 648.599 470.334 602.341 512.229 536.241C573.857 439.005 763.868 400.272 867.508 371.795C1049.57 321.772 1331.9 365.356 1284.68 251.629C1244.9 155.83 1079.99 65.554 976.499 218.459C870.035 375.76 758.24 538.015 584.159 600.69C423.095 658.677 257.311 633.096 212.166 620.727C43.4176 574.492 347.285 187.982 559.268 203.31C829.479 222.848 1081.66 429.654 1228.73 563.389C1375.8 697.121 1666.42 913.118 1937.01 815.352C2207.59 717.588 1739.63 663.854 1370.51 706.658C1075.22 740.903 843.348 707.75 749.073 687.497Z" stroke="#FF0000" stroke-opacity="0.3"/>
<path opacity="0.923729" d="M728.583 687.208C544.381 646.297 445.192 598.714 488.338 532.371C551.805 434.778 745.662 397.406 851.453 369.603C1037.3 320.761 1324.63 367.322 1277.32 252.093C1237.45 155.028 1070.07 62.4024 963.567 215.81C853.999 373.629 738.967 536.398 561.171 598.082C396.671 655.153 227.943 627.824 182.037 614.928C10.4337 566.723 322.72 179.327 538.586 196.726C813.747 218.903 1069.23 429.953 1218.13 566.285C1367.04 702.62 1661.63 923.296 1937.99 827.068C2214.34 730.837 1737.95 672.343 1361.59 712.198C1060.49 744.082 824.492 708.508 728.583 687.208Z" stroke="#FF0000" stroke-opacity="0.3"/>
<path opacity="0.938983" d="M708.438 687.367C521.055 644.672 420.293 595.888 464.595 529.251C529.763 431.226 727.403 394.978 835.3 367.719C1024.84 319.832 1317.23 369.015 1269.67 252.346C1229.59 154.068 1059.62 59.3005 950.318 213.336C837.87 371.801 719.831 535.222 538.418 596.132C370.569 652.488 198.874 623.619 152.188 610.253C-22.322 560.292 297.834 171.637 517.592 190.842C797.715 215.32 1056.77 430.291 1207.69 569.034C1358.6 707.777 1657.44 932.764 1939.42 837.733C2221.4 742.704 1736.53 680.037 1352.99 717.405C1046.17 747.298 806.001 709.596 708.438 687.367Z" stroke="#FF0000" stroke-opacity="0.3"/>
<path opacity="0.954237" d="M688.65 688.037C498.033 643.812 395.631 593.965 440.991 526.975C507.716 428.432 709.078 393.041 819.034 366.181C1012.19 318.995 1309.7 370.404 1261.71 252.36C1221.3 152.926 1048.6 56.2486 936.727 211.058C821.636 370.316 700.831 534.545 515.897 594.925C344.789 650.79 170.091 620.614 122.611 606.842C-54.8721 555.359 272.573 165.025 496.243 185.736C781.35 212.136 1044.28 430.675 1197.4 571.622C1350.53 712.57 1653.91 941.456 1941.37 847.248C2228.84 753.04 1735.4 686.857 1344.78 722.253C1032.28 750.568 787.897 711.064 688.65 688.037Z" stroke="#FE0000" stroke-opacity="0.3"/>
<path opacity="0.969492" d="M669.226 689.265C475.314 643.785 371.198 593.024 417.512 525.617C485.641 426.46 690.666 391.634 802.638 365.013C999.34 318.248 1302.02 371.45 1253.45 252.104C1212.53 151.573 1036.97 53.2361 922.768 208.979C805.278 369.2 681.962 534.409 493.602 594.527C319.326 650.149 141.585 618.921 93.2889 604.81C-87.2401 552.066 246.892 159.577 474.498 181.472C764.622 209.379 1031.75 431.102 1187.29 574.029C1342.83 716.958 1651.12 949.304 1943.9 855.499C2236.69 761.695 1734.61 692.713 1336.95 726.703C1018.83 753.897 770.19 712.944 669.226 689.265Z" stroke="#FF0000" stroke-opacity="0.3"/>
<path opacity="0.984746" d="M684.766 743.496C483.139 723.289 371.413 686.074 409.264 612.564C464.944 504.429 667.208 442.814 776.673 401.555C968.967 329.075 1281.35 342.814 1216.63 229.707C1162.11 134.43 972.043 58.9239 877.327 229.707C779.886 405.4 677.225 586.846 495.104 671.601C326.601 750.018 143.166 741.962 92.582 734.144C-96.4991 704.918 188.929 268.482 421.444 260.686C717.825 250.749 1016.53 437.794 1192.27 560.542C1368.02 683.291 1709.63 875.597 1992.67 743.496C2275.72 611.395 1760.09 607.889 1363.37 693.813C1045.99 762.551 789.746 754.017 684.766 743.496Z" stroke="#FF0000" stroke-opacity="0.3"/>
<path d="M666.285 749.024C461.105 728.603 347.411 690.993 385.929 616.704C442.591 507.421 648.418 445.153 759.811 403.456C955.495 330.207 1273.38 344.093 1207.52 229.785C1152.04 133.499 958.625 57.1915 862.24 229.785C763.082 407.341 658.611 590.712 473.281 676.366C301.81 755.615 115.142 747.474 63.6669 739.573C-128.745 710.037 161.712 268.971 398.324 261.093C699.928 251.051 1003.89 440.08 1182.73 564.13C1361.57 688.18 1709.21 882.526 1997.24 749.024C2285.27 615.522 1760.56 611.978 1356.85 698.813C1033.88 768.281 773.116 759.657 666.285 749.024Z" stroke="#FF0000" stroke-opacity="0.3"/>
</svg>
