<svg width="16" height="16" viewBox="0 0 20 20" xmlns="http://www.w3.org/2000/svg" class="MainMenu__catalogsMenuIcon___3TsO0 CatalogsMenuOpenIcon__root___2r0J_"><path fill-rule="evenodd" clip-rule="evenodd" d="M2.29206 2.29289C2.68246 1.90237 3.31541 1.90237 3.7058 2.29289L9.9966 8.58579L16.2874 2.29289C16.6778 1.90237 17.3107 1.90237 17.7011 2.29289C18.0915 2.68342 18.0915 3.31658 17.7011 3.70711L11.4103 10L17.7011 16.2929C18.0915 16.6834 18.0915 17.3166 17.7011 17.7071C17.3107 18.0976 16.6778 18.0976 16.2874 17.7071L9.9966 11.4142L3.7058 17.7071C3.31541 18.0976 2.68246 18.0976 2.29206 17.7071C1.90167 17.3166 1.90167 16.6834 2.29206 16.2929L8.58286 10L2.29206 3.70711C1.90167 3.31658 1.90167 2.68342 2.29206 2.29289Z"></path></svg>