<svg width="128" height="40" viewBox="0 0 128 40" fill="none" xmlns="http://www.w3.org/2000/svg">
<g clip-path="url(#clip0_150_7158)">
<mask id="mask0_150_7158" style="mask-type:luminance" maskUnits="userSpaceOnUse" x="0" y="0" width="128" height="40">
<path d="M128 0H0V40H128V0Z" fill="white"/>
</mask>
<g mask="url(#mask0_150_7158)">
<mask id="mask1_150_7158" style="mask-type:luminance" maskUnits="userSpaceOnUse" x="0" y="0" width="128" height="40">
<path d="M128 0H0V40H128V0Z" fill="white"/>
</mask>
<g mask="url(#mask1_150_7158)">
<path d="M7.95967 34.5454L7.70649 34.3066C4.00998 30.7582 1.79883 25.231 1.79883 19.5331C1.8157 8.75151 10.4746 0 21.1421 0C31.8097 0 40.4686 8.76859 40.4686 19.5331C40.4686 24.9579 38.0718 30.6218 34.2234 34.3066L33.9702 34.5454L21.3109 30.5365L7.95967 34.5454ZM21.1421 1.19416C11.1329 1.19416 2.99723 9.41681 2.99723 19.5331C2.99723 24.7875 4.97208 29.8711 8.29721 33.1978L21.3447 29.0865L33.6663 33.1807C37.1435 29.7176 39.2871 24.5145 39.2871 19.516C39.2871 9.41681 31.1345 1.19416 21.1421 1.19416Z" fill="black"/>
<path d="M21.083 29.2617L42.2672 35.8929L32.9346 39.1915L32.9516 37.7045L38.0744 36.0638L21.1168 30.6118" fill="black"/>
<path d="M21.1672 30.6118L4.2098 36.0638L9.33253 37.7045L9.34943 39.1915L0 35.8929L21.1672 29.2617" fill="black"/>
<path d="M15.2344 16.3838L15.2878 38.6118L11.4415 40.0006L11.3574 17.7122L15.2344 16.3838Z" fill="#EA3838"/>
<path d="M11.4418 40.0006L7.54326 38.7095L7.49414 16.3643L11.4158 17.7126L11.4418 40.0006Z" fill="black"/>
<path d="M11.4245 16.6051L7.49414 15.1827L11.3577 13.9395L15.2881 15.1827L11.4245 16.6051Z" fill="black"/>
<path d="M34.7218 18.4844L34.7731 38.7381L31.2099 39.9995L31.1758 19.7459L34.7218 18.4844Z" fill="#EA3838"/>
<path d="M31.1753 39.9996L27.6118 38.8364L27.5781 18.5234L31.1753 19.7414V39.9996Z" fill="black"/>
<path d="M31.1412 18.7876L27.5781 17.5326L31.1412 16.3633L34.7726 17.5326L31.1412 18.7876Z" fill="black"/>
<path d="M26.0798 7.1582V34.3688L21.2598 36.0602V9.00322L26.0798 7.1582Z" fill="#656565"/>
<path d="M21.2505 36.0606L16.5205 34.4822L16.4873 7.23242L21.2505 9.00364V36.0606Z" fill="black"/>
<path d="M21.3343 7.57553L16.4873 5.96995L21.2329 4.24219L26.0799 5.8478L21.3343 7.57553Z" fill="black"/>
<path d="M62.1117 21.818H64.0903C63.7006 23.9089 62.7411 25.5756 61.2424 26.7877C59.7438 27.9998 57.8248 28.6059 55.5171 28.6059C52.8489 28.6059 50.7506 27.818 49.1619 26.2423C47.573 24.6363 46.7637 22.5149 46.7637 19.8786C46.7637 17.2423 47.573 15.121 49.1619 13.515C50.7506 11.9392 52.8489 11.1514 55.5171 11.1514C57.8248 11.1514 59.7438 11.7574 61.2424 12.9695C62.7411 14.1816 63.7006 15.8484 64.0903 17.9393H62.1117C61.7518 16.3938 60.9726 15.1817 59.8334 14.3029C58.6643 13.4241 57.2253 12.9695 55.5171 12.9695C53.4483 12.9695 51.7697 13.6059 50.5408 14.8484C49.2817 16.121 48.6822 17.7877 48.6822 19.8786C48.6822 21.9696 49.3117 23.6363 50.5408 24.9089C51.7697 26.1817 53.4183 26.7877 55.5171 26.7877C57.2253 26.7877 58.6643 26.3331 59.8334 25.4544C60.9726 24.5756 61.7518 23.3635 62.1117 21.818Z" fill="black"/>
<path d="M75.5408 15.1511V24.6056C79.6176 24.5148 81.656 22.939 81.656 19.8784C81.656 16.8178 79.6176 15.2421 75.5408 15.1511ZM73.6225 15.1511C69.5456 15.2421 67.5072 16.8178 67.5072 19.8784C67.5072 22.939 69.5456 24.5148 73.6225 24.6056V15.1511ZM81.5963 15.2118C82.9152 16.333 83.575 17.9086 83.575 19.8784C83.575 21.8481 82.9152 23.4239 81.5963 24.5451C80.2176 25.7269 78.209 26.3632 75.5408 26.4239V28.3632H73.6225V26.4239C70.9547 26.3632 68.9461 25.7572 67.5675 24.5451C66.2485 23.4239 65.5889 21.8481 65.5889 19.8784C65.5889 17.9086 66.2485 16.333 67.5675 15.2118C68.9461 14.0299 70.9547 13.3936 73.6225 13.333V11.3936H75.5408V13.333C78.209 13.3936 80.2176 13.9996 81.5963 15.2118Z" fill="black"/>
<path d="M86.333 11.3936H97.8438V13.2117H88.2514V18.9086H97.1244V20.7269H88.2514V26.5451H97.8438V28.3632H86.333V11.3936Z" fill="black"/>
<path d="M102.64 20.4844H107.796C108.845 20.4844 109.684 20.1511 110.314 19.4844C110.944 18.8179 111.273 17.939 111.273 16.8481C111.273 15.7572 110.944 14.8784 110.314 14.2117C109.684 13.5451 108.845 13.2117 107.796 13.2117H102.64V20.4844ZM100.722 11.3936H107.796C109.415 11.3936 110.733 11.8784 111.723 12.8784C112.712 13.8784 113.192 15.2117 113.192 16.8481C113.192 18.4844 112.712 19.8179 111.723 20.8179C110.733 21.8179 109.415 22.3026 107.796 22.3026H102.64V28.3632H100.722V11.3936Z" fill="black"/>
<path d="M115.499 26.5456H115.679C117.688 26.5456 119.276 25.9396 120.475 24.7275C121.674 23.5456 122.274 21.9092 122.274 19.9091L120.355 15.5456L115.499 26.5456ZM128.029 28.3638H125.991L122.574 20.6061C122.454 22.9698 121.764 24.8789 120.536 26.2426C119.276 27.6365 117.658 28.3638 115.679 28.3638H112.682L120.355 10.9092L128.029 28.3638Z" fill="black"/>
</g>
</g>
</g>
<defs>
<clipPath id="clip0_150_7158">
<rect width="128" height="40" fill="white"/>
</clipPath>
</defs>
</svg>
