<svg width="56" height="56" viewBox="0 0 56 56" fill="none" xmlns="http://www.w3.org/2000/svg">
<g clip-path="url(#clip0_150_7046)">
<path d="M56 28C56 12.536 43.464 0 28 0C12.536 0 0 12.536 0 28C0 43.464 12.536 56 28 56C43.464 56 56 43.464 56 28Z" fill="#EA3838"/>
<path fill-rule="evenodd" clip-rule="evenodd" d="M35.3777 32.3532C35.3777 33.4747 34.4837 34.3739 33.3687 34.3739C32.2537 34.3739 31.3597 33.4747 31.3597 32.3532C31.3597 31.2313 32.2537 30.333 33.3687 30.333C34.4837 30.333 35.3777 31.2313 35.3777 32.3532ZM33.3689 37.333C31.7313 37.333 30.333 37.0734 30.333 36.0349C30.333 34.9959 31.7223 34.7269 33.3689 34.7269C35.0066 34.7269 36.4048 34.9865 36.4048 36.0254C36.4048 37.0639 35.0155 37.333 33.3689 37.333Z" fill="#F5F7F9"/>
<path fill-rule="evenodd" clip-rule="evenodd" d="M29.9333 20.6872C29.9333 21.8087 29.0393 22.7079 27.9243 22.7079C26.8094 22.7079 25.9153 21.8087 25.9153 20.6872C25.9153 19.5653 26.8094 18.667 27.9243 18.667C29.0393 18.667 29.9333 19.5653 29.9333 20.6872ZM27.9246 25.667C26.2869 25.667 24.8887 25.4074 24.8887 24.3688C24.8887 23.3299 26.2779 23.0609 27.9246 23.0609C29.5621 23.0609 30.9605 23.3205 30.9605 24.3594C30.9605 25.3978 29.5711 25.667 27.9246 25.667Z" fill="#F5F7F9"/>
<path fill-rule="evenodd" clip-rule="evenodd" d="M24.4891 32.3532C24.4891 33.4747 23.5951 34.3739 22.4801 34.3739C21.3651 34.3739 20.4711 33.4747 20.4711 32.3532C20.4711 31.2313 21.3651 30.333 22.4801 30.333C23.5951 30.333 24.4891 31.2313 24.4891 32.3532ZM22.4802 37.333C20.8427 37.333 19.4443 37.0734 19.4443 36.0349C19.4443 34.9959 20.8337 34.7269 22.4802 34.7269C24.1179 34.7269 25.5163 34.9865 25.5163 36.0254C25.5163 37.0639 24.1269 37.333 22.4802 37.333Z" fill="#F5F7F9"/>
<path d="M33.4445 29.1667V28.7778C33.4445 28.3483 33.0964 28 32.6669 28C29.4845 28 25.0898 28 23.3299 28C22.9003 28 22.5557 28.3483 22.5557 28.7778V29.1667" stroke="#F5F7F9" stroke-width="0.666667" stroke-linecap="round"/>
<path d="M28.389 26.8332C28.389 26.6184 28.215 26.4443 28.0002 26.4443C27.7854 26.4443 27.6113 26.6184 27.6113 26.8332H28.389ZM28.389 27.9999V26.8332H27.6113V27.9999H28.389Z" fill="#F5F7F9"/>
</g>
<defs>
<clipPath id="clip0_150_7046">
<rect width="56" height="56" fill="white"/>
</clipPath>
</defs>
</svg>
