<svg width="56" height="56" viewBox="0 0 56 56" fill="none" xmlns="http://www.w3.org/2000/svg">
<g clip-path="url(#clip0_150_7057)">
<path d="M56 28C56 12.536 43.464 0 28 0C12.536 0 0 12.536 0 28C0 43.464 12.536 56 28 56C43.464 56 56 43.464 56 28Z" fill="#EA3838"/>
<path d="M31.6945 21.4353V20.222C31.6945 19.9032 31.43 19.6387 31.1112 19.6387C30.7922 19.6387 30.5279 19.9032 30.5279 20.222V21.3887H25.4722V20.222C25.4722 19.9032 25.2079 19.6387 24.8889 19.6387C24.57 19.6387 24.3056 19.9032 24.3056 20.222V21.4353C22.2056 21.6298 21.1867 22.882 21.0312 24.7409C21.0156 24.9665 21.2022 25.1532 21.42 25.1532H34.58C34.8056 25.1532 34.9922 24.9587 34.9689 24.7409C34.8134 22.882 33.7945 21.6298 31.6945 21.4353Z" fill="#F5F7F9"/>
<path d="M33.4446 30.333C31.7257 30.333 30.3335 31.7252 30.3335 33.4442C30.3335 34.0275 30.4968 34.5797 30.7846 35.0463C31.3213 35.9485 32.309 36.5552 33.4446 36.5552C34.5802 36.5552 35.568 35.9485 36.1046 35.0463C36.3923 34.5797 36.5557 34.0275 36.5557 33.4442C36.5557 31.7252 35.1635 30.333 33.4446 30.333ZM35.0546 33.1097L33.398 34.6419C33.289 34.743 33.1413 34.7975 33.0013 34.7975C32.8535 34.7975 32.7057 34.743 32.589 34.6263L31.819 33.8563C31.5935 33.6308 31.5935 33.2575 31.819 33.0319C32.0446 32.8063 32.418 32.8063 32.6435 33.0319L33.0168 33.4052L34.2613 32.2542C34.4946 32.0363 34.868 32.0519 35.0857 32.2852C35.3035 32.5185 35.288 32.8842 35.0546 33.1097Z" fill="#F5F7F9"/>
<path d="M34.2222 26.3203H21.7778C21.35 26.3203 21 26.6703 21 27.0981V31.8892C21 34.2225 22.1667 35.7781 24.8888 35.7781H28.7233C29.26 35.7781 29.6333 35.257 29.4622 34.7515C29.3067 34.3003 29.1745 33.8025 29.1745 33.4448C29.1745 31.0881 31.0955 29.167 33.4522 29.167C33.6778 29.167 33.9033 29.1825 34.1212 29.2215C34.5878 29.2915 35.0078 28.9258 35.0078 28.4592V27.1058C35 26.6703 34.65 26.3203 34.2222 26.3203ZM25.83 32.8303C25.6822 32.9703 25.48 33.0558 25.2778 33.0558C25.0755 33.0558 24.8733 32.9703 24.7255 32.8303C24.5855 32.6825 24.5 32.4803 24.5 32.2781C24.5 32.0758 24.5855 31.8736 24.7255 31.7258C24.8033 31.6558 24.8811 31.6015 24.9822 31.5625C25.27 31.4381 25.6122 31.5081 25.83 31.7258C25.97 31.8736 26.0555 32.0758 26.0555 32.2781C26.0555 32.4803 25.97 32.6825 25.83 32.8303ZM25.83 30.1081C25.7911 30.1392 25.7522 30.1703 25.7133 30.2015C25.6667 30.2325 25.62 30.2558 25.5733 30.2715C25.5267 30.2948 25.48 30.3103 25.4333 30.3181C25.3788 30.3258 25.3245 30.3336 25.2778 30.3336C25.0755 30.3336 24.8733 30.2481 24.7255 30.1081C24.5855 29.9603 24.5 29.7581 24.5 29.5558C24.5 29.3536 24.5855 29.1515 24.7255 29.0036C24.9045 28.8248 25.1767 28.7392 25.4333 28.7936C25.48 28.8015 25.5267 28.817 25.5733 28.8403C25.62 28.8558 25.6667 28.8792 25.7133 28.9103C25.7522 28.9415 25.7911 28.9725 25.83 29.0036C25.97 29.1515 26.0555 29.3536 26.0555 29.5558C26.0555 29.7581 25.97 29.9603 25.83 30.1081ZM28.5522 30.1081C28.4045 30.2481 28.2022 30.3336 28 30.3336C27.7978 30.3336 27.5955 30.2481 27.4478 30.1081C27.3078 29.9603 27.2222 29.7581 27.2222 29.5558C27.2222 29.3536 27.3078 29.1515 27.4478 29.0036C27.7433 28.7158 28.2645 28.7158 28.5522 29.0036C28.6922 29.1515 28.7778 29.3536 28.7778 29.5558C28.7778 29.7581 28.6922 29.9603 28.5522 30.1081Z" fill="#F5F7F9"/>
</g>
<defs>
<clipPath id="clip0_150_7057">
<rect width="56" height="56" fill="white"/>
</clipPath>
</defs>
</svg>
