<svg width="56" height="56" viewBox="0 0 56 56" fill="none" xmlns="http://www.w3.org/2000/svg">
<g clip-path="url(#clip0_150_7066)">
<path d="M56 28C56 12.536 43.464 0 28 0C12.536 0 0 12.536 0 28C0 43.464 12.536 56 28 56C43.464 56 56 43.464 56 28Z" fill="#EA3838"/>
<path d="M32.1606 21H27.6851C27.4502 21 27.2719 21 27.0932 21.0566C26.9144 21.1128 26.7357 21.2349 26.6233 21.4141L20.6626 27.365C19.7791 28.249 19.7791 29.7156 20.6626 30.6084L25.3261 35.2626C26.2101 36.2031 27.6856 36.2031 28.6261 35.2626L34.5306 29.3678C34.6434 29.2457 34.7655 29.0767 34.8779 28.898C34.8779 28.898 34.8779 28.898 34.8779 28.832C34.9345 28.7758 34.9345 28.7758 34.9345 28.7758C34.9345 28.5971 35 28.4843 34.9345 28.2494L35 23.7651C34.9992 21.8839 34.0502 21 32.1606 21ZM33.1662 24.4128C32.7526 24.8264 31.9912 24.8265 31.5771 24.3562C31.3422 24.1774 31.455 24.2434 31.5771 24.3562C31.1072 23.9425 31.1072 23.1811 31.5116 22.767C31.9912 22.2976 32.7526 22.2976 33.2317 22.7108C33.702 23.1811 33.702 23.9425 33.1662 24.4128Z" fill="#F5F7F9"/>
</g>
<defs>
<clipPath id="clip0_150_7066">
<rect width="56" height="56" fill="white"/>
</clipPath>
</defs>
</svg>
