<svg width="56" height="56" viewBox="0 0 56 56" fill="none" xmlns="http://www.w3.org/2000/svg">
<g clip-path="url(#clip0_150_7074)">
<path d="M56 28C56 12.536 43.464 0 28 0C12.536 0 0 12.536 0 28C0 43.464 12.536 56 28 56C43.464 56 56 43.464 56 28Z" fill="#EA3838"/>
<path d="M27.8438 33.3922H25.875C24.9125 33.3922 24.125 34.1687 24.125 35.1177V35.3334H23.25C22.8913 35.3334 22.5938 35.6267 22.5938 35.9805C22.5938 36.3342 22.8913 36.6275 23.25 36.6275H33.75C34.1087 36.6275 34.4062 36.3342 34.4062 35.9805C34.4062 35.6267 34.1087 35.3334 33.75 35.3334H32.875V35.1177C32.875 34.1687 32.0875 33.3922 31.125 33.3922H29.1562V31.4165C28.9375 31.4424 28.7188 31.4511 28.5 31.4511C28.2812 31.4511 28.0625 31.4424 27.8438 31.4165V33.3922Z" fill="#F5F7F9"/>
<path d="M34.1701 27.6894C34.7476 27.4737 35.2551 27.12 35.6577 26.7231C36.4714 25.8345 37.0051 24.7733 37.0051 23.531C37.0051 22.2886 36.0164 21.3137 34.7564 21.3137H34.2664C33.6976 20.1663 32.5077 19.3726 31.1251 19.3726H25.8751C24.4926 19.3726 23.3026 20.1663 22.7339 21.3137H22.2439C20.9839 21.3137 19.9951 22.2886 19.9951 23.531C19.9951 24.7733 20.5289 25.8345 21.3426 26.7231C21.7451 27.12 22.2526 27.4737 22.8301 27.6894C23.7401 29.898 25.9276 31.451 28.5001 31.451C31.0726 31.451 33.2601 29.898 34.1701 27.6894ZM30.9851 24.9373L30.4426 25.5929C30.3551 25.6879 30.2939 25.8776 30.3026 26.0071L30.3551 26.8526C30.3901 27.3702 30.0139 27.6376 29.5239 27.4479L28.7276 27.1373C28.6051 27.0941 28.3951 27.0941 28.2726 27.1373L27.4764 27.4479C26.9864 27.6376 26.6101 27.3702 26.6451 26.8526L26.6976 26.0071C26.7064 25.8776 26.6451 25.6879 26.5576 25.5929L26.0151 24.9373C25.6739 24.5404 25.8226 24.1004 26.3301 23.971L27.1614 23.7639C27.2926 23.7294 27.4501 23.6086 27.5201 23.4965L27.9839 22.789C28.2726 22.349 28.7276 22.349 29.0164 22.789L29.4801 23.4965C29.5501 23.6086 29.7076 23.7294 29.8389 23.7639L30.6701 23.971C31.1776 24.1004 31.3264 24.5404 30.9851 24.9373Z" fill="#F5F7F9"/>
</g>
<defs>
<clipPath id="clip0_150_7074">
<rect width="56" height="56" fill="white"/>
</clipPath>
</defs>
</svg>
