<svg width="56" height="56" viewBox="0 0 56 56" fill="none" xmlns="http://www.w3.org/2000/svg">
<g clip-path="url(#clip0_150_7083)">
<path d="M56 28C56 12.536 43.464 0 28 0C12.536 0 0 12.536 0 28C0 43.464 12.536 56 28 56C43.464 56 56 43.464 56 28Z" fill="#EA3838"/>
<path d="M26.458 21C24.7321 21 23.333 22.3991 23.333 24.125C23.333 25.8509 24.7321 27.25 26.458 27.25C28.1839 27.25 29.583 25.8509 29.583 24.125C29.583 22.3991 28.1839 21 26.458 21Z" fill="#F5F7F9"/>
<path d="M23.125 28.917C21.3991 28.917 20 30.3161 20 32.042V33.0322C20 33.6599 20.4549 34.1951 21.0744 34.2962C24.6401 34.8784 28.2766 34.8784 31.8423 34.2962C32.4618 34.1951 32.9167 33.6599 32.9167 33.0322V32.042C32.9167 30.3161 31.5176 28.917 29.7917 28.917H29.5076C29.3539 28.917 29.2011 28.9413 29.055 28.989L28.3337 29.2245C27.1151 29.6224 25.8016 29.6224 24.583 29.2245L23.8618 28.989C23.7156 28.9413 23.5628 28.917 23.4091 28.917H23.125Z" fill="#F5F7F9"/>
<path d="M33.5413 23.083C33.8865 23.083 34.1663 23.3629 34.1663 23.708V25.1664H35.6246C35.9698 25.1664 36.2496 25.4462 36.2496 25.7914C36.2496 26.1365 35.9698 26.4164 35.6246 26.4164H34.1663V27.8747C34.1663 28.2199 33.8865 28.4997 33.5413 28.4997C33.1961 28.4997 32.9163 28.2199 32.9163 27.8747V26.4164H31.458C31.1128 26.4164 30.833 26.1365 30.833 25.7914C30.833 25.4462 31.1128 25.1664 31.458 25.1664H32.9163V23.708C32.9163 23.3629 33.1961 23.083 33.5413 23.083Z" fill="#F5F7F9"/>
</g>
<defs>
<clipPath id="clip0_150_7083">
<rect width="56" height="56" fill="white"/>
</clipPath>
</defs>
</svg>
