<svg width="56" height="56" viewBox="0 0 56 56" fill="none" xmlns="http://www.w3.org/2000/svg">
<g clip-path="url(#clip0_150_7093)">
<path d="M56 28C56 12.536 43.464 0 28 0C12.536 0 0 12.536 0 28C0 43.464 12.536 56 28 56C43.464 56 56 43.464 56 28Z" fill="#EA3838"/>
<path d="M35.1945 33.0322L33.9111 33.3355C33.6234 33.4055 33.3978 33.6234 33.3356 33.9111L33.0634 35.0544C32.9156 35.6767 32.1223 35.8711 31.7101 35.3811L29.3845 32.7055C29.1978 32.4877 29.2989 32.1455 29.5789 32.0755C30.9556 31.7411 32.1923 30.9711 33.1023 29.8744C33.2501 29.6955 33.5145 29.6722 33.6778 29.8355L35.4045 31.5622C35.9956 32.1534 35.7856 32.8922 35.1945 33.0322Z" fill="#F5F7F9"/>
<path d="M20.7667 33.0322L22.05 33.3355C22.3378 33.4055 22.5633 33.6234 22.6255 33.9111L22.8978 35.0544C23.0455 35.6767 23.8388 35.8711 24.2511 35.3811L26.5767 32.7055C26.7633 32.4877 26.6622 32.1455 26.3822 32.0755C25.0055 31.7411 23.7688 30.9711 22.8588 29.8744C22.7111 29.6955 22.4467 29.6722 22.2833 29.8355L20.5567 31.5622C19.9655 32.1534 20.1755 32.8922 20.7667 33.0322Z" fill="#F5F7F9"/>
<path d="M28.0001 20.2222C24.9901 20.2222 22.5557 22.6567 22.5557 25.6667C22.5557 26.7944 22.8901 27.8288 23.4657 28.6922C24.3057 29.9367 25.6357 30.8155 27.1835 31.041C27.4478 31.0877 27.7201 31.111 28.0001 31.111C28.2801 31.111 28.5523 31.0877 28.8168 31.041C30.3645 30.8155 31.6945 29.9367 32.5345 28.6922C33.1101 27.8288 33.4445 26.7944 33.4445 25.6667C33.4445 22.6567 31.0101 20.2222 28.0001 20.2222ZM30.3801 25.4955L29.7345 26.141C29.6257 26.25 29.5635 26.46 29.6023 26.6155L29.789 27.4167C29.9368 28.0467 29.6023 28.2955 29.0423 27.961L28.2645 27.5022C28.1245 27.4167 27.8912 27.4167 27.7512 27.5022L26.9735 27.961C26.4135 28.2877 26.079 28.0467 26.2268 27.4167L26.4135 26.6155C26.4445 26.4677 26.3901 26.25 26.2812 26.141L25.6201 25.4955C25.239 25.1144 25.3635 24.7333 25.8923 24.6477L26.7245 24.5077C26.8645 24.4844 27.0278 24.36 27.0901 24.2355L27.549 23.3177C27.7978 22.82 28.2023 22.82 28.4512 23.3177L28.9101 24.2355C28.9723 24.36 29.1357 24.4844 29.2835 24.5077L30.1157 24.6477C30.6368 24.7333 30.7612 25.1144 30.3801 25.4955Z" fill="#F5F7F9"/>
</g>
<defs>
<clipPath id="clip0_150_7093">
<rect width="56" height="56" fill="white"/>
</clipPath>
</defs>
</svg>
