<svg width="1440" height="525" viewBox="0 0 1440 525" fill="none" xmlns="http://www.w3.org/2000/svg">
<g clip-path="url(#clip0_150_6954)">
<path opacity="0.1" d="M145.842 316.35C145.252 325.143 144.02 341.326 141.459 373.28C137.697 420.285 135.464 447.061 133.979 464.992C131.381 496.493 131.698 490.508 127.821 539.68C124.56 581.099 122.044 613.929 127.992 539.692C134.114 463.321 140.436 384.449 143.459 347.613C146.258 313.531 146.074 317.04 145.83 320.441C144.916 333.154 129.697 522.866 129.305 526.245C128.811 530.553 135.113 449.229 139.263 395.863C143.402 342.494 149.866 258.882 145.16 316.297C140.454 373.711 140.595 375.256 143.769 337.92C146.313 308.052 146.145 311.771 145.842 316.35Z" stroke="#FF0000" stroke-opacity="0.3"/>
<path opacity="0.115254" d="M159.688 313.541C161.318 322.645 161.456 339.221 158.859 371.771C155.056 419.655 150.996 446.812 148.57 465.017C144.304 496.998 141.251 490.676 138.631 540.853C136.41 583.118 136.281 616.722 142.379 541.103C148.645 463.31 155.14 382.972 159.652 345.543C163.837 310.915 165.62 314.62 165.955 318.123C167.177 331.215 151.13 524.427 148.337 527.711C144.758 531.895 146.988 448.778 148.664 394.247C150.35 339.718 152.257 254.238 145.221 312.574C138.196 370.911 143.789 372.846 150.718 335.059C156.25 304.829 158.838 308.8 159.688 313.541Z" stroke="#FF0000" stroke-opacity="0.3"/>
<path opacity="0.130508" d="M174.685 310.66C179.592 320.072 181.692 337.038 178.93 370.184C174.861 418.943 167.982 446.483 164.077 464.963C157.205 497.424 149.186 490.776 148.223 541.952C147.399 585.057 150.68 619.428 157.283 542.431C164.081 463.222 171.157 381.42 178.041 343.4C184.41 308.222 189.119 312.119 190.291 315.723C194.641 329.189 176.603 525.893 170.204 529.085C162.052 533.154 158.528 448.255 156.759 392.569C154.99 336.883 150.453 249.549 139.74 308.809C129.028 368.07 142.714 370.382 155.369 332.139C165.484 301.543 172.133 305.761 174.685 310.66Z" stroke="#FF0000" stroke-opacity="0.3"/>
<path opacity="0.145763" d="M189.507 307.625C197.704 317.247 201.785 334.547 198.9 368.302C194.648 417.956 184.992 445.972 179.622 464.775C170.198 497.805 157.194 490.978 157.957 543.114C158.609 587.033 165.345 622.075 172.35 543.664C179.555 463.001 187.087 379.699 196.29 341.005C204.809 305.204 212.445 309.208 214.458 312.887C221.959 326.636 202.218 526.943 192.229 530.153C179.485 534.244 170.092 447.716 164.78 390.964C159.478 334.213 148.356 245.195 134.037 305.505C119.728 365.816 141.529 368.264 159.858 329.38C174.521 298.273 185.236 302.615 189.507 307.625Z" stroke="#FF0000" stroke-opacity="0.3"/>
<path opacity="0.161017" d="M204.159 304.425C215.659 314.153 221.761 331.729 218.784 366.105C214.411 416.674 202.008 445.263 195.21 464.441C183.275 498.133 165.276 491.287 167.845 544.343C170.01 589.035 180.258 624.646 187.561 544.79C195.071 462.637 202.946 377.797 214.414 338.344C225.03 301.84 235.605 305.854 238.462 309.582C249.137 323.519 227.969 527.536 214.376 530.882C197.042 535.143 181.659 447.154 172.737 389.437C163.826 331.721 145.997 241.21 128.161 302.704C110.325 364.196 140.241 366.517 164.206 326.799C183.363 295.024 198.161 299.358 204.159 304.425Z" stroke="#FF0000" stroke-opacity="0.3"/>
<path opacity="0.176271" d="M218.638 301.057C233.457 310.781 241.588 328.568 238.58 363.579C234.148 415.082 219.039 444.346 210.838 463.956C196.433 498.403 173.417 491.707 177.853 545.636C181.601 591.063 195.396 627.133 202.895 545.796C210.606 462.121 218.722 375.706 232.413 335.405C245.081 298.118 258.597 302.043 262.313 305.794C276.177 319.81 253.815 527.646 236.633 531.25C214.733 535.845 193.239 446.572 180.639 387.998C168.039 329.422 143.4 237.624 122.116 300.438C100.831 363.252 138.879 365.168 168.41 324.411C192.039 291.806 210.916 295.993 218.638 301.057Z" stroke="#FF0000" stroke-opacity="0.3"/>
<path opacity="0.191525" d="M232.957 297.519C251.108 307.126 261.288 325.056 258.281 360.714C253.843 413.165 236.067 443.212 226.477 463.307C209.644 498.608 181.63 492.239 187.992 546.991C193.351 593.109 210.752 629.525 218.354 546.676C226.173 461.447 234.436 373.424 250.298 332.184C264.977 294.027 281.426 297.761 285.994 301.503C303.061 315.491 279.75 527.25 258.984 531.242C232.516 536.332 204.833 445.967 188.486 386.647C172.139 327.327 140.588 234.452 115.933 298.729C91.2878 363.007 137.441 364.229 172.501 322.224C200.548 288.62 223.514 292.518 232.957 297.519Z" stroke="#FF0000" stroke-opacity="0.3"/>
<path opacity="0.20678" d="M247.146 293.817C268.614 303.185 280.863 321.192 277.888 357.507C273.505 410.926 253.091 441.859 242.148 462.496C222.916 498.749 189.892 492.884 198.242 548.406C205.271 595.175 226.272 631.813 233.905 547.425C241.75 460.61 250.069 370.947 268.059 328.678C284.705 289.569 304.092 293.005 309.515 296.711C329.789 310.558 305.742 526.339 281.407 530.85C250.382 536.599 216.441 445.34 196.289 385.392C176.147 325.443 137.61 231.716 109.663 297.597C81.7045 363.476 135.958 363.714 176.488 320.248C208.912 285.475 235.964 288.937 247.146 293.817Z" stroke="#FF0000" stroke-opacity="0.3"/>
<path opacity="0.222034" d="M261.196 289.95C285.995 298.968 300.322 316.981 297.41 353.962C293.123 408.362 270.102 440.285 257.819 461.52C236.241 498.823 198.215 493.641 208.582 549.878C217.309 597.247 241.958 633.993 249.539 548.038C257.338 459.613 265.641 368.28 285.717 324.891C304.288 284.747 326.614 287.783 332.898 291.421C356.382 305.017 331.77 524.91 303.871 530.07C268.32 536.647 228.041 444.688 204.057 384.23C180.073 323.773 134.5 229.414 103.317 297.038C72.1237 364.66 134.452 363.622 180.405 318.485C217.163 282.374 248.288 285.255 261.196 289.95Z" stroke="#FF0101" stroke-opacity="0.3"/>
<path opacity="0.237288" d="M275.137 285.928C303.251 294.477 319.665 312.429 316.836 350.085C312.687 405.481 287.087 438.494 273.49 460.381C249.586 498.827 206.588 494.504 219.001 551.401C229.464 599.329 257.755 636.062 265.233 548.517C272.926 458.454 281.151 365.426 303.271 320.832C323.735 279.57 348.981 282.102 356.129 285.644C382.816 298.88 357.801 522.972 326.363 528.907C286.298 536.474 239.655 444.013 211.802 383.163C183.96 322.315 131.3 227.547 96.9396 297.047C62.5686 366.546 132.934 363.944 184.261 316.932C225.322 279.322 260.506 281.477 275.137 285.928Z" stroke="#FF0000" stroke-opacity="0.3"/>
<path opacity="0.252542" d="M288.989 281.76C320.411 289.73 338.899 307.555 336.184 345.895C332.204 402.296 304.056 436.499 289.15 459.086C262.971 498.768 215.012 495.473 229.488 552.975C241.693 601.415 273.641 638.022 280.967 548.864C288.501 457.144 296.597 362.396 320.73 316.512C343.053 274.059 371.223 275.989 379.216 279.405C409.11 292.175 383.81 520.543 348.85 527.377C304.303 536.089 251.272 443.318 219.546 382.191C187.819 321.063 128.055 226.101 90.5645 297.605C53.0743 369.111 131.437 364.67 188.09 315.585C233.398 276.315 272.627 277.61 288.989 281.76Z" stroke="#FF0000" stroke-opacity="0.3"/>
<path opacity="0.267797" d="M302.763 277.454C337.485 284.742 358.044 302.377 355.454 341.407C351.652 398.822 320.987 434.305 304.797 457.644C276.354 498.643 223.457 496.533 240.035 554.594C253.988 603.5 289.586 639.875 296.728 549.087C304.064 455.687 311.992 359.197 338.114 311.948C362.273 268.232 393.336 269.465 402.189 272.73C435.27 284.935 409.773 517.649 371.319 525.498C322.304 535.501 262.881 442.598 227.268 381.301C191.665 320.005 124.801 225.051 84.2296 298.681C43.6585 372.311 129.989 365.775 191.905 314.433C241.436 273.358 284.685 273.658 302.763 277.454Z" stroke="#FF0000" stroke-opacity="0.3"/>
<path opacity="0.283051" d="M316.489 273.023C354.48 279.532 377.108 296.92 374.662 336.648C371.048 395.086 337.898 431.934 320.429 456.066C289.745 498.46 231.943 497.681 250.598 556.25C266.303 605.584 305.543 641.628 312.472 549.19C319.612 454.097 327.352 355.846 355.431 307.161C381.413 262.116 415.357 262.567 425.052 265.656C461.301 277.203 435.674 514.329 393.733 523.295C340.286 534.726 274.493 441.86 235.011 380.494C195.528 319.129 121.584 224.368 77.9605 300.233C34.3474 376.098 128.59 367.228 195.739 313.459C249.457 270.444 296.709 269.634 316.489 273.023Z" stroke="#FF0000" stroke-opacity="0.3"/>
<path opacity="0.298305" d="M330.186 268.482C371.437 274.126 396.118 291.217 393.805 331.645C390.39 391.116 354.755 429.4 336.023 454.367C303.121 498.225 240.441 498.908 261.167 557.941C278.63 607.67 321.469 643.29 328.197 549.19C335.122 452.387 342.666 352.359 372.698 302.174C400.49 255.744 437.294 255.336 447.834 258.228C487.239 269.036 461.475 510.626 416.088 520.807C358.236 533.784 286.096 441.103 242.766 379.758C199.436 318.415 118.453 224.018 71.8071 302.215C25.1507 380.409 127.269 368.994 199.616 312.649C257.484 267.571 308.709 265.542 330.186 268.482Z" stroke="#FF0000" stroke-opacity="0.3"/>
<path opacity="0.313559" d="M343.884 263.845C388.371 268.553 415.09 285.3 412.901 326.434C409.681 386.944 371.576 426.729 351.588 452.564C316.471 497.945 248.951 500.202 271.731 559.665C290.913 609.753 337.351 644.877 343.88 549.102C350.602 450.573 357.973 348.755 389.944 297.019C419.53 249.151 459.182 247.819 470.558 250.494C513.097 260.493 487.178 506.596 438.346 518.071C376.119 532.699 297.701 440.333 250.545 379.085C203.4 317.839 115.424 223.949 65.7664 304.562C16.1087 385.175 126.031 371.029 203.539 311.975C265.559 264.735 320.727 261.395 343.884 263.845Z" stroke="#FF0000" stroke-opacity="0.3"/>
<path opacity="0.328814" d="M357.615 259.13C405.315 262.838 434.055 279.209 431.976 321.052C428.92 382.603 388.359 423.945 367.111 450.673C329.793 497.629 257.455 501.55 282.25 561.412C303.143 611.838 353.122 646.401 359.498 548.941C366.039 448.676 373.271 345.056 407.188 291.721C438.563 242.374 481.037 240.064 493.251 242.507C538.899 251.64 512.745 502.297 460.513 515.134C393.931 531.497 309.286 439.549 258.361 378.462C207.435 317.377 112.559 224.111 59.8806 307.209C7.20185 390.307 124.893 373.283 207.554 311.416C273.686 261.922 332.785 257.2 357.615 259.13Z" stroke="#FF0000" stroke-opacity="0.3"/>
<path opacity="0.344068" d="M371.398 254.352C422.283 257.016 453.026 272.983 451.047 315.539C448.133 378.14 405.11 421.077 382.599 448.721C343.065 497.285 265.942 502.942 292.723 563.182C315.276 613.925 368.782 647.883 375.026 548.726C381.442 446.716 388.569 341.281 424.446 286.315C457.637 235.459 502.916 232.129 515.949 234.329C564.678 242.551 538.199 497.798 482.56 512.046C411.647 530.209 320.873 438.756 266.225 377.878C211.578 316.998 109.877 224.445 54.1593 310.081C-1.54741 395.718 123.863 375.701 211.667 310.94C281.917 259.131 344.901 252.965 371.398 254.352Z" stroke="#FF0000" stroke-opacity="0.3"/>
<path opacity="0.359322" d="M385.272 249.53C439.326 251.121 472.052 266.667 470.14 309.938C467.324 373.593 421.825 418.151 398.049 446.727C356.275 496.925 274.403 504.362 303.107 564.968C327.299 616.02 384.261 649.34 390.45 548.478C396.807 444.716 403.905 337.457 441.757 280.836C476.766 228.446 524.843 224.072 538.696 226.021C590.479 233.304 563.508 493.167 504.49 508.861C429.263 528.866 332.449 437.959 274.13 377.313C215.822 316.669 107.395 224.882 48.6234 313.096C-10.159 401.307 122.937 378.225 215.892 310.514C290.266 256.346 357.129 248.702 385.272 249.53Z" stroke="#FF0000" stroke-opacity="0.3"/>
<path opacity="0.374576" d="M399.268 244.683C456.47 245.188 491.149 260.307 489.271 304.297C486.509 369.009 438.51 415.202 413.448 444.715C369.42 496.561 282.809 505.798 313.393 566.765C339.161 618.122 399.547 650.795 405.747 548.221C412.131 442.699 419.277 333.609 459.137 275.32C496.008 221.389 546.864 215.958 561.526 217.652C616.343 223.985 588.684 488.484 526.285 505.637C446.752 527.503 344.004 437.157 282.099 376.758C220.193 316.361 105.167 225.361 43.2632 316.167C-18.6301 406.973 122.113 380.791 220.254 310.108C298.766 253.56 369.489 244.421 399.268 244.683Z" stroke="#FF0000" stroke-opacity="0.3"/>
<path opacity="0.38983" d="M413.415 239.832C473.744 239.256 510.353 253.948 508.466 298.661C505.704 364.435 455.184 412.262 428.813 442.712C382.489 496.204 291.171 507.235 323.559 568.571C350.837 620.236 414.604 652.269 420.922 547.979C427.422 440.689 434.714 329.762 476.624 269.806C515.401 214.333 569.024 207.849 584.495 209.291C642.323 214.679 613.727 483.828 547.958 502.437C464.119 526.157 355.559 436.359 290.132 376.197C224.706 316.035 103.191 225.807 38.1008 319.206C-26.9785 412.607 121.411 383.338 224.758 309.684C307.43 250.759 382.011 240.132 413.415 239.832Z" stroke="#FF0000" stroke-opacity="0.3"/>
<path opacity="0.405085" d="M427.755 234.997C491.196 233.363 529.701 247.645 527.772 293.083C524.923 359.921 471.842 409.366 444.142 440.745C395.47 495.868 299.45 508.656 333.564 570.376C362.307 622.366 429.397 653.786 435.943 547.774C442.676 438.715 450.233 325.946 494.247 264.335C534.971 207.329 591.358 199.813 607.626 201.008C668.452 205.475 638.638 479.28 569.492 499.32C481.352 524.865 367.092 435.565 298.234 375.612C229.377 315.659 101.487 226.149 33.1277 322.122C-35.2213 418.098 120.806 385.798 229.41 309.207C316.301 247.935 394.716 235.847 427.755 234.997Z" stroke="#FF0000" stroke-opacity="0.3"/>
<path opacity="0.420339" d="M442.304 230.198C508.842 227.547 549.239 241.447 547.193 287.609C544.182 355.513 488.5 406.544 459.43 438.836C408.36 495.563 307.635 510.047 343.408 572.178C373.538 624.514 443.901 655.365 450.793 547.629C457.89 436.796 465.862 322.188 512.041 258.945C554.774 200.432 613.921 191.92 630.985 192.878C694.782 196.463 663.431 474.92 590.899 496.347C498.432 523.659 378.613 434.782 306.406 374.988C234.188 315.194 100.076 226.313 28.3442 324.823C-43.3771 423.335 120.287 388.102 234.234 308.643C325.393 245.076 407.655 231.579 442.304 230.198Z" stroke="#FF0000" stroke-opacity="0.3"/>
<path opacity="0.435593" d="M457.094 225.457C526.741 221.85 568.983 235.401 566.766 282.289C563.517 351.262 505.155 403.83 474.686 437.011C421.158 495.3 315.719 511.39 353.059 573.968C384.507 626.679 458.093 657.028 465.482 547.569C473.082 434.963 481.599 318.511 530.035 253.677C574.847 193.692 636.757 184.236 654.615 184.974C721.369 187.732 688.116 470.831 612.17 493.581C515.366 522.58 390.121 434.01 314.649 374.307C239.177 314.605 98.9673 226.228 23.7416 327.215C-51.4736 428.204 119.861 390.183 239.237 307.954C334.727 242.17 420.828 227.334 457.094 225.457Z" stroke="#FF0000" stroke-opacity="0.3"/>
<path opacity="0.450847" d="M472.164 220.798C544.9 216.311 588.98 229.565 586.538 277.179C582.933 347.218 521.833 401.263 489.916 435.301C433.842 495.092 323.692 512.673 362.497 575.74C395.194 628.867 471.948 658.796 479.974 547.615C488.249 433.241 497.483 314.95 548.255 248.575C595.226 187.164 659.902 176.832 678.551 177.37C748.257 179.379 712.704 467.094 633.331 491.084C532.15 521.664 401.616 433.256 322.967 373.556C244.327 313.859 98.1695 225.826 19.3203 329.212C-59.5288 432.598 119.505 391.98 244.411 307.109C344.327 239.211 434.287 223.134 472.164 220.798Z" stroke="#FF0000" stroke-opacity="0.3"/>
<path opacity="0.466102" d="M487.532 216.245C563.366 210.973 609.255 223.987 606.502 272.324C602.454 343.431 538.531 398.873 505.117 433.725C446.419 494.949 331.536 513.877 371.712 577.488C405.566 631.073 485.432 660.683 494.287 547.79C503.387 431.651 513.52 311.531 566.727 243.68C615.947 180.901 683.411 169.78 702.845 170.141C775.491 171.491 737.206 463.787 654.37 488.913C548.779 520.941 413.087 432.523 331.37 372.722C249.653 312.922 97.6807 225.04 15.0598 330.724C-67.5718 436.408 119.217 393.424 249.771 306.074C354.215 236.192 448.05 218.99 487.532 216.245Z" stroke="#FF0000" stroke-opacity="0.3"/>
<path opacity="0.481356" d="M503.228 211.822C582.167 205.877 629.845 218.72 626.705 267.778C622.087 339.944 555.277 396.692 520.307 432.311C458.89 494.883 339.231 514.985 380.684 579.202C415.602 633.295 498.553 662.707 508.397 548.112C518.515 430.22 529.739 308.282 585.479 239.031C637.046 174.956 707.308 163.144 727.528 163.357C803.112 164.157 761.635 460.984 675.298 487.125C565.248 520.446 424.555 431.814 339.862 371.791C255.159 311.767 97.5205 223.806 10.9499 331.668C-75.6208 439.531 118.984 394.458 255.323 304.818C364.391 233.105 462.127 214.916 503.228 211.822Z" stroke="#FF0000" stroke-opacity="0.3"/>
<path opacity="0.49661" d="M519.27 207.552C601.318 201.063 650.764 213.811 647.163 263.586C641.867 336.805 572.057 394.748 535.474 431.076C471.231 494.897 346.779 515.982 389.404 580.872C425.302 635.53 511.277 664.879 522.293 548.594C533.631 428.967 546.137 305.23 604.527 234.668C658.548 169.382 731.627 156.994 752.634 157.093C831.153 157.464 785.999 458.753 696.121 485.769C581.555 520.204 435.998 431.13 348.423 370.746C260.848 310.362 97.6856 222.067 7.00043 331.969C-83.6953 441.869 118.802 395.023 261.058 303.312C374.869 229.944 476.537 210.928 519.27 207.552Z" stroke="#FF0000" stroke-opacity="0.3"/>
<path opacity="0.511864" d="M535.665 203.46C620.846 196.571 672.038 209.311 667.892 259.793C661.786 334.056 588.876 393.072 550.636 430.047C483.454 495.001 354.171 516.852 397.85 582.486C434.646 637.774 523.593 667.206 535.981 549.255C548.742 427.915 562.731 302.401 623.898 230.634C680.479 164.232 756.397 151.393 778.188 151.414C859.645 151.493 810.307 457.163 716.84 484.895C597.695 520.244 447.437 430.477 357.075 369.58C266.725 308.685 98.1823 219.773 3.18847 331.553C-91.8052 443.332 118.656 395.065 267.001 301.536C385.679 226.712 491.31 207.047 535.665 203.46Z" stroke="#FF0000" stroke-opacity="0.3"/>
<path opacity="0.527119" d="M552.442 199.574C640.758 192.44 693.673 205.264 688.893 256.446C681.86 331.737 605.753 391.69 565.779 429.239C495.555 495.201 361.389 517.578 406.026 584.036C443.612 640.015 535.49 669.695 549.462 550.107C563.834 427.081 579.54 299.824 643.588 226.963C702.857 159.553 781.633 146.405 804.211 146.388C888.606 146.325 834.562 456.269 737.457 484.546C613.677 520.59 458.849 429.857 365.82 368.286C272.79 306.714 99.0061 216.881 -0.477265 330.359C-99.9713 443.836 118.543 394.537 273.144 299.467C396.821 223.409 506.455 203.288 552.442 199.574Z" stroke="#FF0000" stroke-opacity="0.3"/>
<path opacity="0.542373" d="M569.588 195.915C661.07 188.708 715.686 201.715 710.185 253.583C702.093 329.883 622.686 390.624 580.912 428.668C507.526 495.5 368.455 518.148 413.91 585.507C452.215 642.248 546.966 672.346 562.723 551.156C578.928 426.482 596.551 297.519 663.623 223.695C725.684 155.393 807.347 142.086 830.712 142.074C918.048 142.029 858.768 456.124 757.973 484.758C629.487 521.257 470.248 429.27 374.648 366.85C279.038 304.43 100.183 213.351 -4.0111 328.329C-108.195 443.308 118.467 393.398 279.48 297.084C408.297 220.035 521.959 199.668 569.588 195.915Z" stroke="#FF0000" stroke-opacity="0.3"/>
<path opacity="0.557627" d="M587.131 192.511C681.774 185.408 738.075 198.704 731.765 251.243C722.484 328.53 639.682 389.897 596.033 428.35C519.374 495.902 375.339 518.545 421.525 586.89C460.432 644.46 558.012 675.159 575.751 552.409C594 426.13 613.77 295.509 683.996 220.861C748.966 151.794 833.542 138.49 857.694 138.529C947.974 138.673 882.92 456.771 778.385 485.562C645.137 522.263 481.64 428.72 383.559 365.271C285.479 301.821 101.685 209.154 -7.38623 325.421C-116.468 441.685 118.434 391.611 286.03 294.381C420.103 216.597 537.85 196.21 587.131 192.511Z" stroke="#FF0000" stroke-opacity="0.3"/>
<path opacity="0.572881" d="M605.047 189.383C702.873 182.571 760.837 196.267 753.63 249.457C743.029 327.701 656.714 389.524 611.141 428.295C531.091 496.407 382.054 518.757 428.853 588.169C468.265 646.637 568.639 678.129 588.57 553.87C609.07 426.037 631.205 293.815 704.702 218.49C772.702 148.798 860.211 135.665 885.15 135.802C978.374 136.314 907.015 458.244 798.691 486.983C660.61 523.615 493.007 428.206 392.566 363.542C292.115 298.878 103.547 204.274 -10.6182 321.595C-124.783 438.915 118.436 389.147 292.786 291.346C432.262 213.103 554.106 192.929 605.047 189.383Z" stroke="#FF0000" stroke-opacity="0.3"/>
<path opacity="0.588136" d="M623.333 186.553C724.357 180.228 783.959 194.437 775.769 248.254C763.721 327.422 673.796 389.518 626.235 428.513C542.676 497.012 388.611 518.773 435.905 589.334C475.728 648.769 578.825 681.244 601.156 555.536C624.126 426.213 648.844 292.455 725.732 216.611C796.874 146.438 887.339 133.652 913.066 133.936C1009.23 135 931.04 460.57 818.881 489.037C675.911 525.323 504.357 427.729 401.657 361.664C298.945 295.597 105.759 198.697 -13.6837 316.829C-133.137 434.958 118.498 385.988 299.748 287.973C444.739 209.559 570.734 189.846 623.333 186.553Z" stroke="#FF0000" stroke-opacity="0.3"/>
<path opacity="0.60339" d="M641.986 184.04C746.207 178.4 807.426 193.234 798.167 247.655C784.548 327.708 690.917 389.889 641.303 429.005C554.14 497.718 395.012 518.582 442.683 590.37C482.833 650.84 588.607 684.495 613.533 557.406C639.167 426.663 666.67 291.44 747.073 215.242C821.464 144.742 914.903 132.482 941.416 132.965C1040.52 134.769 954.987 463.761 838.949 491.732C691.037 527.385 515.693 427.29 410.833 359.633C305.983 291.977 108.322 192.421 -16.5793 311.106C-141.491 429.79 118.611 382.117 306.916 284.264C457.555 205.981 587.722 186.976 641.986 184.04Z" stroke="#FF0000" stroke-opacity="0.3"/>
<path opacity="0.618644" d="M660.982 181.862C768.401 177.109 831.21 192.683 820.802 247.674C805.491 328.568 708.068 390.643 656.342 429.775C565.473 498.518 401.259 518.177 449.199 591.267C489.591 652.836 597.974 687.866 625.679 559.472C654.184 427.385 684.676 290.783 768.703 214.403C846.446 143.733 942.871 132.181 970.168 132.912C1072.2 135.647 978.838 467.826 858.885 495.07C705.986 529.798 527.012 426.89 420.114 357.456C313.205 288.022 111.245 185.453 -19.2947 304.426C-149.834 423.398 118.796 377.533 314.299 280.225C470.698 202.377 605.045 184.335 660.982 181.862Z" stroke="#FF0000" stroke-opacity="0.3"/>
<path opacity="0.633898" d="M680.291 180.029C790.912 176.364 855.283 192.791 843.649 248.321C826.534 330.008 725.237 391.779 671.352 430.823C576.686 499.411 407.373 517.553 455.487 592.019C496.007 654.744 606.95 691.341 637.621 561.725C669.172 428.382 702.845 290.491 790.595 214.102C871.785 143.426 971.205 132.764 999.282 133.794C1104.23 137.647 1002.57 472.756 878.68 499.046C720.756 532.557 538.315 426.527 429.478 355.135C320.631 283.742 114.537 177.814 -21.7992 296.801C-158.136 415.787 119.074 372.242 321.887 275.865C484.132 198.762 622.692 181.938 680.291 180.029Z" stroke="#FF0000" stroke-opacity="0.3"/>
<path opacity="0.649153" d="M699.892 178.552C813.705 176.172 879.61 193.561 866.677 249.595C847.654 332.021 742.415 393.291 686.323 432.14C587.791 500.387 413.366 516.706 461.538 592.611C502.113 656.549 615.557 694.901 649.356 564.153C684.124 429.645 721.156 290.563 812.721 214.343C897.439 143.822 999.857 134.23 1028.71 135.61C1136.56 140.766 1026.18 478.534 898.324 503.641C735.35 535.644 549.604 426.199 438.927 352.674C328.26 279.15 118.175 169.521 -24.0841 288.25C-166.354 406.978 119.445 366.253 329.677 271.194C497.858 195.147 640.629 179.792 699.892 178.552Z" stroke="#FF0000" stroke-opacity="0.3"/>
<path opacity="0.664407" d="M719.752 177.435C836.743 176.531 904.151 194.988 889.856 251.486C868.826 334.596 759.586 395.17 701.251 433.719C598.779 501.438 419.259 515.638 467.384 593.039C507.932 658.238 623.813 698.525 660.892 566.741C699.037 431.167 739.588 290.996 835.046 215.122C923.365 144.921 1028.78 136.573 1058.4 138.35C1169.13 144.99 1049.64 485.13 917.807 508.832C749.767 539.044 560.866 425.903 448.467 350.083C336.069 274.261 122.173 160.614 -26.1439 278.809C-174.461 397.004 119.948 359.595 337.678 266.236C511.851 191.547 658.834 177.904 719.752 177.435Z" stroke="#FF0000" stroke-opacity="0.3"/>
<path opacity="0.679661" d="M739.834 176.676C859.984 177.433 928.862 197.059 913.144 253.981C890.023 337.716 776.738 397.404 716.128 435.548C609.66 502.557 425.062 514.353 473.057 593.301C513.487 659.804 631.745 702.196 672.241 569.473C713.901 432.936 758.117 291.784 857.531 216.429C949.512 146.709 1057.91 139.773 1088.29 141.993C1201.88 150.288 1072.92 492.506 937.119 514.589C764.012 542.738 572.124 425.642 458.099 347.371C344.074 269.102 126.516 151.134 -27.953 268.528C-182.422 385.921 120.577 352.299 345.864 261.01C526.098 187.978 677.272 176.282 739.834 176.676Z" stroke="#FF0000" stroke-opacity="0.3"/>
<path opacity="0.694915" d="M760.1 176.269C883.383 178.858 953.7 199.745 936.509 257.051C911.223 341.349 793.858 399.968 730.95 437.61C620.437 503.733 430.785 512.853 478.571 593.394C518.824 661.238 639.39 705.889 683.419 572.332C728.714 434.934 776.718 292.912 880.14 218.244C975.829 149.158 1087.19 143.793 1118.33 146.498C1234.74 156.61 1096.03 500.609 956.257 520.871C778.092 546.698 583.357 425.407 467.799 344.549C352.252 263.693 131.197 141.132 -29.5075 257.462C-190.212 373.79 121.351 344.404 354.245 255.539C540.556 184.448 695.912 174.92 760.1 176.269Z" stroke="#FF0000" stroke-opacity="0.3"/>
<path opacity="0.710169" d="M780.51 176.199C906.893 180.782 978.616 203.013 959.913 260.66C932.398 345.462 810.934 402.841 745.712 439.884C631.133 504.957 436.47 511.153 483.966 593.322C523.973 662.536 646.78 709.586 694.439 575.296C743.469 437.145 795.363 294.361 902.829 220.538C1002.26 152.235 1116.57 148.587 1148.46 151.818C1267.64 163.892 1118.94 509.378 975.216 527.63C792.012 550.896 594.575 425.198 477.587 341.632C360.6 258.065 136.188 130.664 -30.8063 245.683C-197.8 360.701 122.282 335.963 362.794 249.855C555.201 180.968 714.705 173.814 780.51 176.199Z" stroke="#FF0000" stroke-opacity="0.3"/>
<path opacity="0.725424" d="M801.02 176.451C930.472 183.169 1003.57 206.819 983.315 264.767C953.526 350.012 827.956 405.993 760.413 442.351C641.76 506.219 442.116 509.267 489.263 593.089C528.969 663.696 653.957 713.272 705.323 578.347C758.165 439.544 814.03 296.108 925.56 223.278C1028.75 155.894 1145.98 154.095 1178.6 157.886C1300.54 172.057 1141.65 518.741 993.998 534.814C805.787 555.301 605.78 425.013 487.441 338.631C369.091 252.248 141.479 119.796 -31.8386 233.273C-205.156 346.751 123.375 327.036 371.496 243.988C569.999 177.549 733.618 172.953 801.02 176.451Z" stroke="#FF0000" stroke-opacity="0.3"/>
<path opacity="0.740678" d="M821.587 176.994C954.067 185.972 1028.5 211.105 1006.68 269.315C974.583 354.945 844.913 409.385 775.049 444.979C652.318 507.507 447.751 507.209 494.484 592.702C533.852 664.718 660.964 716.925 716.088 581.463C772.798 442.106 832.69 298.119 948.291 226.417C1055.25 160.076 1175.37 160.241 1208.71 164.624C1333.36 181.005 1164.16 528.616 1012.61 542.358C819.429 559.875 616.971 424.846 497.346 335.56C377.731 246.275 147.03 108.591 -32.6167 220.32C-212.263 332.05 124.63 317.686 380.347 237.97C584.917 174.197 752.608 172.32 821.587 176.994Z" stroke="#FF0000" stroke-opacity="0.3"/>
<path opacity="0.755932" d="M842.17 177.8C977.64 189.142 1053.39 215.81 1029.98 274.245C995.553 360.205 861.801 412.983 789.622 447.746C662.826 508.813 453.396 505.004 499.68 592.178C538.668 665.609 667.849 720.534 726.763 584.623C787.37 444.804 851.322 300.361 970.986 229.904C1081.7 164.714 1204.68 166.941 1238.74 171.941C1366.05 190.627 1186.46 538.915 1031.05 550.2C832.959 564.585 628.15 424.694 507.312 332.437C386.485 240.184 152.809 97.1257 -33.1631 206.924C-219.125 316.722 126.051 307.988 389.31 231.836C599.913 170.914 771.634 171.894 842.17 177.8Z" stroke="#FF0000" stroke-opacity="0.3"/>
<path opacity="0.771186" d="M862.726 178.829C1001.14 192.616 1078.18 220.86 1053.19 279.486C1016.42 365.728 878.615 416.741 804.137 450.616C673.302 510.123 459.068 502.672 504.872 591.53C543.457 666.38 674.659 724.085 737.371 587.805C801.885 447.607 869.903 302.795 993.609 233.679C1108.07 169.731 1233.86 174.096 1268.62 179.733C1398.56 200.8 1208.58 549.541 1049.35 558.267C846.394 569.39 639.317 424.552 517.316 329.279C395.325 234.006 158.765 85.4728 -33.4817 193.19C-225.739 300.906 127.627 298.021 398.371 225.624C614.964 167.706 790.656 171.65 862.726 178.829Z" stroke="#FF0000" stroke-opacity="0.3"/>
<path opacity="0.786441" d="M883.215 180.038C1024.54 196.33 1102.84 226.173 1076.26 284.963C1037.17 371.445 895.352 420.617 818.595 453.56C683.757 511.431 464.784 500.244 510.097 590.78C548.259 667.041 681.447 727.569 747.94 590.989C816.345 450.481 888.412 305.375 1016.12 237.676C1134.29 175.041 1262.87 181.6 1298.33 187.886C1430.85 211.386 1230.52 560.392 1067.53 566.484C859.762 574.252 650.479 424.418 527.353 326.101C404.235 227.786 164.862 73.7151 -33.6208 179.231C-232.104 284.747 129.343 287.871 407.49 219.37C630.005 164.57 809.63 171.556 883.215 180.038Z" stroke="#FF0000" stroke-opacity="0.3"/>
<path opacity="0.801695" d="M903.598 181.378C1047.8 200.205 1127.34 231.662 1099.2 290.592C1057.81 377.279 912.017 424.559 833.008 456.541C694.212 512.724 470.553 497.748 515.367 589.946C553.117 667.61 688.268 730.979 758.503 594.153C830.758 453.395 906.833 308.051 1038.51 241.823C1160.34 180.548 1291.67 189.331 1327.81 196.276C1462.89 222.236 1252.32 571.357 1085.6 574.773C873.088 579.128 661.637 424.284 537.403 322.919C413.179 221.555 171.04 61.9282 -33.6045 165.162C-238.249 268.396 131.182 277.623 416.643 213.111C645.016 161.501 828.519 171.575 903.598 181.378Z" stroke="#FF0000" stroke-opacity="0.3"/>
<path opacity="0.816949" d="M923.842 182.795C1070.88 204.165 1151.66 237.232 1121.98 296.285C1078.32 383.153 928.614 428.519 847.383 459.526C704.684 513.996 476.402 495.217 520.74 589.06C558.081 668.107 695.174 734.311 769.092 597.281C845.134 456.311 925.152 310.773 1060.73 246.043C1186.18 186.152 1320.23 197.169 1357.04 204.773C1494.66 233.197 1274.01 582.328 1103.61 583.053C886.404 583.979 672.793 424.149 547.461 319.753C422.119 215.356 177.231 50.194 -33.4931 151.104C-244.217 252.014 133.106 267.37 425.801 206.885C659.953 158.498 847.283 171.668 923.842 182.795Z" stroke="#FF0000" stroke-opacity="0.3"/>
<path opacity="0.832203" d="M943.912 184.232C1093.76 208.124 1175.77 242.786 1144.59 301.95C1098.71 388.985 945.151 432.442 861.732 462.476C715.191 515.236 482.327 492.684 526.214 588.144C563.192 668.555 702.219 737.564 779.736 600.351C859.482 459.194 943.357 313.487 1082.78 250.252C1211.78 191.747 1348.52 204.979 1386.01 213.237C1526.13 244.103 1295.62 593.19 1121.58 591.244C899.742 588.763 683.95 424.007 557.493 316.616C431.029 209.224 183.373 38.5913 -33.3239 137.179C-250.021 235.766 135.095 257.203 434.919 200.728C674.765 155.547 865.888 171.792 943.912 184.232Z" stroke="#FF0000" stroke-opacity="0.3"/>
<path opacity="0.847458" d="M963.78 185.631C1116.43 211.995 1199.67 248.221 1167.02 307.496C1118.99 394.692 961.638 436.276 876.07 465.356C725.752 516.44 488.343 490.187 531.838 587.233C568.478 668.979 709.457 740.74 790.474 603.349C873.818 462.008 961.439 316.136 1104.64 254.37C1237.13 197.223 1376.53 212.628 1414.68 221.526C1557.3 254.788 1317.2 603.831 1139.57 599.264C913.138 593.443 695.112 423.855 567.498 313.527C439.87 203.198 189.401 27.2014 -33.1666 123.509C-255.734 219.817 137.124 247.222 443.957 194.678C689.422 152.642 884.303 171.903 963.78 185.631Z" stroke="#FF0000" stroke-opacity="0.3"/>
<path opacity="0.862712" d="M983.422 186.926C1138.85 215.687 1223.33 253.431 1189.28 312.821C1139.18 400.188 978.09 439.967 890.411 468.128C736.387 517.598 494.47 487.76 537.631 586.356C573.991 669.408 716.945 743.84 801.338 606.256C888.156 464.717 979.395 318.662 1126.29 258.306C1262.2 202.465 1404.25 219.976 1443.07 229.495C1588.18 265.08 1338.8 614.131 1157.6 607.028C926.628 597.974 706.285 423.687 577.452 310.501C448.608 197.314 195.241 16.0998 -33.0694 110.218C-261.39 204.335 139.128 237.515 452.881 188.768C703.882 149.769 902.496 171.95 983.422 186.926Z" stroke="#FF0000" stroke-opacity="0.3"/>
<path opacity="0.877966" d="M1002.81 188.056C1161.02 219.11 1246.77 258.312 1211.36 317.833C1159.27 405.389 994.521 443.462 904.773 470.756C747.113 518.704 500.7 485.441 543.619 585.545C579.768 669.868 724.732 746.869 812.362 609.057C902.512 467.283 997.221 321.006 1147.73 261.977C1286.98 207.361 1431.68 226.883 1471.17 236.998C1618.77 274.807 1360.48 623.981 1175.73 614.458C940.25 602.321 717.469 423.498 587.331 307.552C457.203 191.606 200.816 5.36209 -33.1248 97.4231C-267.066 189.483 141.083 228.179 461.652 183.033C718.107 146.915 920.44 171.887 1002.81 188.056Z" stroke="#FF0000" stroke-opacity="0.3"/>
<path opacity="0.89322" d="M1021.93 188.958C1182.93 222.175 1269.97 262.762 1233.28 322.435C1179.3 410.214 1010.95 446.707 919.171 473.204C757.949 519.751 507.04 483.265 549.798 584.831C585.828 670.386 732.866 749.834 823.579 611.738C916.899 469.671 1014.91 323.113 1168.95 265.294C1311.48 211.798 1458.81 233.213 1498.97 243.89C1649.09 283.802 1382.27 633.267 1194.01 621.475C954.037 606.445 728.669 423.287 597.132 304.697C465.608 186.109 206.043 -4.93912 -33.3909 85.2431C-272.814 175.427 142.933 219.304 470.223 177.505C732.063 144.067 938.109 171.663 1021.93 188.958Z" stroke="#FF0000" stroke-opacity="0.3"/>
<path opacity="0.908475" d="M1040.77 189.569C1204.58 224.791 1292.94 266.678 1255.04 326.532C1199.28 414.579 1027.39 449.652 933.624 475.438C768.912 520.734 513.497 481.268 556.219 584.249C592.209 670.995 741.397 752.74 835.023 614.284C931.339 471.848 1032.48 324.926 1189.96 268.174C1335.67 215.665 1485.66 238.829 1526.5 250.03C1679.16 291.895 1404.26 641.881 1212.48 628.001C968.028 610.31 739.888 423.047 606.833 301.95C473.787 180.855 210.869 -14.7308 -33.926 73.7957C-278.721 162.322 144.635 210.978 478.568 172.219C745.715 141.21 955.482 171.23 1040.77 189.569Z" stroke="#FF0000" stroke-opacity="0.3"/>
<path opacity="0.923729" d="M1059.31 189.831C1225.95 226.876 1315.68 269.962 1276.65 330.036C1219.23 418.406 1043.86 452.247 948.149 477.422C780.022 521.649 520.077 479.488 562.877 583.828C598.943 671.72 750.37 755.593 846.722 616.682C945.846 473.777 1049.91 326.39 1210.76 270.534C1359.58 218.856 1512.22 243.603 1553.75 255.28C1709 298.93 1426.48 649.718 1231.19 633.963C982.261 613.881 751.132 422.775 616.421 299.326C481.704 175.875 215.199 -23.948 -34.819 63.1869C-284.826 150.324 146.157 203.291 486.641 167.202C759.034 138.331 972.54 170.543 1059.31 189.831Z" stroke="#FF0000" stroke-opacity="0.3"/>
<path opacity="0.938983" d="M1077.53 189.686C1247.05 228.346 1338.21 272.52 1298.13 332.86C1239.17 421.622 1060.37 454.445 962.762 479.128C791.29 522.49 526.774 477.954 569.802 583.599C606.056 672.589 759.822 758.401 858.708 618.922C960.437 475.432 1067.22 327.454 1231.34 272.299C1383.19 221.269 1538.52 247.41 1580.76 259.513C1738.63 304.753 1449 656.68 1250.19 639.29C996.764 617.126 762.403 422.469 625.873 296.836C489.344 171.205 218.992 -32.5215 -36.1066 53.5288C-291.216 139.578 147.444 196.323 494.416 162.487C771.992 135.418 989.268 169.557 1077.53 189.686Z" stroke="#FF0000" stroke-opacity="0.3"/>
<path opacity="0.954237" d="M1095.43 189.081C1267.88 229.126 1360.52 274.263 1319.48 334.922C1259.12 424.154 1076.95 456.2 977.478 480.522C802.731 523.249 533.585 476.698 576.997 583.587C613.56 673.624 769.791 761.166 871.003 620.986C975.123 476.777 1084.41 328.068 1251.72 273.394C1406.52 222.808 1564.56 250.132 1607.52 262.603C1768.08 309.22 1471.85 662.669 1269.5 643.915C1011.57 620.01 773.703 422.122 635.176 294.495C496.649 166.866 222.185 -40.3914 -37.8776 44.9143C-297.94 130.22 148.463 190.149 501.846 158.098C784.562 132.458 1005.65 168.23 1095.43 189.081Z" stroke="#FE0000" stroke-opacity="0.3"/>
<path opacity="0.969492" d="M1113 187.968C1288.43 229.149 1382.62 275.113 1340.72 336.151C1279.09 425.938 1093.61 457.473 992.31 481.578C814.359 523.924 540.529 475.749 584.475 583.817C621.491 674.849 780.311 763.893 883.631 622.867C989.922 477.787 1101.48 328.19 1271.89 273.753C1429.55 223.387 1590.35 251.664 1634.04 264.441C1797.36 312.201 1495.08 667.601 1289.17 647.775C1026.7 622.505 785.035 421.735 644.328 292.314C503.615 162.892 224.707 -47.4989 -40.1647 37.442C-305.047 122.382 149.175 184.845 508.927 154.067C796.724 129.443 1021.67 166.526 1113 187.968Z" stroke="#FF0000" stroke-opacity="0.3"/>
<path opacity="0.984746" d="M1099.28 139.021C1281.73 157.313 1382.82 191 1348.57 257.542C1298.19 355.428 1115.17 411.203 1016.12 448.552C842.128 514.162 559.472 501.724 618.031 604.111C667.366 690.357 839.345 758.707 925.048 604.111C1013.22 445.071 1106.11 280.823 1270.9 204.102C1423.37 133.117 1589.35 140.409 1635.12 147.487C1806.21 173.943 1547.94 569.012 1337.55 576.068C1069.37 585.063 799.093 415.747 640.071 304.633C481.052 193.52 171.943 19.4414 -84.1612 139.021C-340.276 258.6 126.283 261.775 485.26 183.995C772.432 121.772 1004.29 129.497 1099.28 139.021Z" stroke="#FF0000" stroke-opacity="0.3"/>
<path d="M1115.73 134.576C1301.33 153.032 1404.18 187.02 1369.33 254.157C1318.08 352.917 1131.89 409.19 1031.13 446.873C854.115 513.069 566.562 500.52 626.136 603.822C676.325 690.838 851.283 759.799 938.472 603.822C1028.17 443.361 1122.67 277.646 1290.32 200.239C1445.43 128.619 1614.28 135.977 1660.85 143.118C1834.9 169.81 1572.16 568.409 1358.12 575.529C1085.3 584.604 810.335 413.775 648.56 301.668C486.786 189.562 172.316 13.9283 -88.2298 134.576C-348.776 255.224 125.866 258.427 491.058 179.953C783.212 117.173 1019.09 124.967 1115.73 134.576Z" stroke="#FF0000" stroke-opacity="0.3"/>
</g>
<defs>
<clipPath id="clip0_150_6954">
<rect width="1440" height="525" fill="white" transform="matrix(-1 0 0 1 1440 0)"/>
</clipPath>
</defs>
</svg>
