<svg width="24" height="24" viewBox="0 0 24 24" fill="none" xmlns="http://www.w3.org/2000/svg">
<path d="M16.1007 13.359L15.7482 13.0045L16.1007 13.359ZM16.5562 12.9062L16.9087 13.2607L16.5562 12.9062ZM18.9728 12.5894L18.734 13.0287L18.9728 12.5894ZM20.8833 13.628L20.6445 14.0673L20.8833 13.628ZM21.4217 16.883L21.7742 17.2375L21.7742 17.2375L21.4217 16.883ZM20.0011 18.2954L19.6486 17.9409L20.0011 18.2954ZM18.6763 18.9651L18.7227 19.463L18.6763 18.9651ZM8.81536 14.7266L9.16791 14.372L8.81536 14.7266ZM4.00289 5.74561L3.50369 5.77398L3.50369 5.77398L4.00289 5.74561ZM10.4775 7.19738L10.8301 7.55194L10.4775 7.19738ZM10.6342 4.54348L11.0345 4.24384L10.6342 4.54348ZM9.37326 2.85908L8.97299 3.15873V3.15873L9.37326 2.85908ZM6.26145 2.57483L6.614 2.92939V2.92939L6.26145 2.57483ZM4.69185 4.13552L4.3393 3.78096H4.3393L4.69185 4.13552ZM12.0631 11.4972L12.4157 11.1427L12.0631 11.4972ZM16.4533 13.7136L16.9087 13.2607L16.2036 12.5516L15.7482 13.0045L16.4533 13.7136ZM18.734 13.0287L20.6445 14.0673L21.1221 13.1887L19.2116 12.1501L18.734 13.0287ZM21.0691 16.5284L19.6486 17.9409L20.3537 18.65L21.7742 17.2375L21.0691 16.5284ZM18.6299 18.4673C17.1202 18.608 13.2911 18.4718 9.16791 14.372L8.46281 15.0811C12.8331 19.4266 16.9735 19.626 18.7227 19.463L18.6299 18.4673ZM9.16791 14.372C5.25211 10.4784 4.58535 7.18237 4.50208 5.71724L3.50369 5.77398C3.60072 7.48127 4.36932 11.0109 8.46281 15.0811L9.16791 14.372ZM10.5432 7.83713L10.8301 7.55194L10.125 6.84283L9.83816 7.12801L10.5432 7.83713ZM11.0345 4.24384L9.77352 2.55943L8.97299 3.15873L10.234 4.84313L11.0345 4.24384ZM5.9089 2.22027L4.3393 3.78096L5.04439 4.49008L6.614 2.92939L5.9089 2.22027ZM10.1907 7.48257C9.83816 7.12801 9.83768 7.12849 9.8372 7.12897C9.83703 7.12913 9.83655 7.12962 9.83622 7.12995C9.83555 7.13062 9.83487 7.13131 9.83417 7.13202C9.83278 7.13344 9.83131 7.13494 9.82979 7.13652C9.82674 7.13969 9.82343 7.1432 9.81989 7.14704C9.81281 7.15473 9.80479 7.16379 9.79603 7.17424C9.77851 7.19514 9.75799 7.22168 9.73602 7.25411C9.69199 7.31909 9.64242 7.40735 9.59983 7.52038C9.51331 7.75003 9.46248 8.06369 9.5247 8.46472C9.6471 9.2537 10.2004 10.3502 11.7106 11.8518L12.4157 11.1427C10.9708 9.70604 10.5879 8.79521 10.5129 8.31142C10.4764 8.07606 10.5115 7.93697 10.5356 7.87296C10.5483 7.83917 10.5603 7.82038 10.5639 7.81502C10.5658 7.81227 10.5656 7.81281 10.5625 7.81651C10.561 7.81837 10.5587 7.82102 10.5555 7.82445C10.5539 7.82617 10.5521 7.82809 10.5501 7.8302C10.5491 7.83126 10.548 7.83236 10.5468 7.83352C10.5463 7.8341 10.5457 7.83468 10.5451 7.83529C10.5448 7.83559 10.5443 7.83605 10.5442 7.8362C10.5437 7.83666 10.5432 7.83713 10.1907 7.48257ZM11.7106 11.8518C13.2211 13.3537 14.323 13.9028 15.1142 14.0242C15.5161 14.0858 15.8301 14.0355 16.0599 13.9499C16.1731 13.9077 16.2615 13.8586 16.3267 13.815C16.3592 13.7932 16.3858 13.7728 16.4068 13.7554C16.4173 13.7467 16.4264 13.7388 16.4341 13.7317C16.438 13.7282 16.4415 13.7249 16.4447 13.7219C16.4463 13.7204 16.4478 13.7189 16.4492 13.7175C16.4499 13.7169 16.4506 13.7162 16.4513 13.7155C16.4516 13.7152 16.4521 13.7147 16.4523 13.7145C16.4528 13.7141 16.4533 13.7136 16.1007 13.359C15.7482 13.0045 15.7486 13.004 15.7491 13.0035C15.7493 13.0034 15.7497 13.0029 15.75 13.0026C15.7506 13.002 15.7512 13.0015 15.7518 13.0009C15.753 12.9998 15.7541 12.9987 15.7551 12.9977C15.7573 12.9957 15.7592 12.9939 15.7609 12.9923C15.7644 12.9892 15.767 12.9869 15.7689 12.9854C15.7725 12.9823 15.773 12.9822 15.7702 12.9841C15.7646 12.9879 15.7453 12.9999 15.7109 13.0128C15.6453 13.0372 15.504 13.0723 15.2659 13.0357C14.777 12.9608 13.8602 12.579 12.4157 11.1427L11.7106 11.8518ZM9.77352 2.55943C8.83965 1.31199 7.01196 1.12348 5.9089 2.22027L6.614 2.92939C7.25995 2.2871 8.38092 2.36784 8.97299 3.15873L9.77352 2.55943ZM4.50208 5.71724C4.47722 5.27982 4.67991 4.85249 5.04439 4.49008L4.3393 3.78096C3.83655 4.28086 3.45808 4.97136 3.50369 5.77398L4.50208 5.71724ZM19.6486 17.9409C19.345 18.2428 18.9992 18.4329 18.6299 18.4673L18.7227 19.463C19.3842 19.4013 19.9349 19.0664 20.3537 18.65L19.6486 17.9409ZM10.8301 7.55194C11.7219 6.66515 11.7929 5.2569 11.0345 4.24384L10.234 4.84313C10.7085 5.47692 10.6462 6.32453 10.125 6.84283L10.8301 7.55194ZM20.6445 14.0673C21.5987 14.586 21.7737 15.8278 21.0691 16.5284L21.7742 17.2375C22.9874 16.0312 22.6217 14.0039 21.1221 13.1887L20.6445 14.0673ZM16.9087 13.2607C17.3746 12.7975 18.1138 12.6915 18.734 13.0287L19.2116 12.1501C18.2207 11.6114 16.997 11.7628 16.2036 12.5516L16.9087 13.2607Z" fill="white"/>
</svg>
