<svg width="20" height="20" viewBox="0 0 20 20" fill="none" xmlns="http://www.w3.org/2000/svg">
<path fill-rule="evenodd" clip-rule="evenodd" d="M18 10C18 14.4183 14.4183 18 10 18C5.58172 18 2 14.4183 2 10C2 5.58172 5.58172 2 10 2C14.4183 2 18 5.58172 18 10ZM10.2867 7.90595C9.50857 8.2296 7.95342 8.89946 5.62126 9.91555C5.24256 10.0661 5.04417 10.2135 5.02611 10.3575C4.99559 10.601 5.30047 10.6969 5.71565 10.8274C5.77212 10.8452 5.83064 10.8636 5.89062 10.8831C6.29909 11.0158 6.84855 11.1712 7.13419 11.1774C7.3933 11.183 7.68249 11.0761 8.00176 10.8569C10.1808 9.386 11.3056 8.64254 11.3762 8.62651C11.426 8.6152 11.4951 8.60099 11.5418 8.64256C11.5886 8.68414 11.584 8.76288 11.5791 8.784C11.5489 8.91276 10.3521 10.0254 9.73275 10.6012C9.53967 10.7807 9.40272 10.908 9.37472 10.9371C9.312 11.0022 9.24809 11.0638 9.18665 11.1231C8.80718 11.4889 8.52261 11.7632 9.20241 12.2112C9.52909 12.4265 9.79051 12.6045 10.0513 12.7821C10.3361 12.9761 10.6202 13.1695 10.9877 13.4104C11.0814 13.4718 11.1708 13.5356 11.2579 13.5977C11.5894 13.834 11.8872 14.0463 12.2551 14.0124C12.4688 13.9928 12.6896 13.7917 12.8018 13.1922C13.0668 11.7754 13.5878 8.70564 13.7081 7.44065C13.7187 7.32982 13.7054 7.18798 13.6948 7.12572C13.6841 7.06345 13.6618 6.97474 13.5809 6.90907C13.4851 6.83129 13.3371 6.81489 13.2709 6.81606C12.97 6.82136 12.5084 6.98188 10.2867 7.90595Z" fill="white"/>
</svg>
