<svg width="20" height="20" viewBox="0 0 20 20" fill="none" xmlns="http://www.w3.org/2000/svg">
<path fill-rule="evenodd" clip-rule="evenodd" d="M9.99768 2C5.58742 2 2 5.58842 2 9.99993C2 11.7495 2.56421 13.372 3.52334 14.689L2.52653 17.6613L5.60148 16.6785C6.8662 17.5157 8.37547 18 10.0023 18C14.4126 18 18 14.4114 18 10.0001C18 5.58857 14.4126 2.00013 10.0023 2.00013L9.99768 2ZM7.76428 6.06361C7.60916 5.69209 7.4916 5.67802 7.25659 5.66847C7.17658 5.66382 7.0874 5.65918 6.98855 5.65918C6.68282 5.65918 6.36316 5.74851 6.17035 5.94601C5.93535 6.18586 5.35227 6.74546 5.35227 7.89307C5.35227 9.04067 6.18919 10.1506 6.30198 10.3059C6.41955 10.4609 7.93359 12.8501 10.2844 13.8238C12.1228 14.5857 12.6683 14.5151 13.0867 14.4258C13.6979 14.2941 14.4643 13.8424 14.6571 13.297C14.85 12.7514 14.8499 12.2857 14.7934 12.187C14.737 12.0882 14.5818 12.0319 14.3468 11.9142C14.1118 11.7966 12.9691 11.2322 12.7528 11.157C12.5412 11.0771 12.3391 11.1053 12.1793 11.3311C11.9536 11.6462 11.7327 11.9661 11.5539 12.1588C11.4129 12.3094 11.1824 12.3282 10.9897 12.2482C10.7311 12.1401 10.0071 11.8859 9.11367 11.0911C8.42246 10.4751 7.95232 9.70858 7.81604 9.47816C7.67963 9.24309 7.80196 9.10651 7.90997 8.97961C8.02754 8.83374 8.14035 8.73034 8.25791 8.59389C8.37548 8.45758 8.4413 8.38696 8.51654 8.22702C8.59656 8.07186 8.54002 7.91191 8.48362 7.79431C8.42723 7.67671 7.95709 6.5291 7.76428 6.06361Z" fill="white"/>
</svg>
